<svg xmlns="http://www.w3.org/2000/svg" xmlns:xlink="http://www.w3.org/1999/xlink" width="43" height="49" viewBox="0 0 43 49"><defs><path id="a" d="M353.22 2261.54c0 11.24-9.39 20.28-20.93 20.28a21 21 0 0 1-1.46-.05l-7.82 7.1c-.56.5-1.36.64-2.05.34-.7-.3-1.14-.98-1.14-1.72v-9.66a20.05 20.05 0 0 1-8.45-16.29c0-11.23 9.38-20.27 20.92-20.27 11.53 0 20.93 9.03 20.93 20.27zm-3.8 0c0-9.1-7.68-16.52-17.13-16.52-9.44 0-17.12 7.41-17.12 16.52 0 5.52 2.84 10.65 7.6 13.73.53.35.86.94.86 1.57v6.37l5.24-4.77c.4-.36.95-.54 1.5-.48.64.07 1.29.1 1.92.1 9.45 0 17.13-7.4 17.13-16.52zm-9.52-4.41a6.62 6.62 0 0 1-6.65 6.58v.82a1.9 1.9 0 0 1-1.9 1.88 1.9 1.9 0 0 1-1.9-1.88v-2.7c0-1.04.84-1.88 1.9-1.88h1.9a2.84 2.84 0 0 0 2.85-2.82 2.84 2.84 0 0 0-2.85-2.82h-6.66c-1.05 0-1.9-.84-1.9-1.88a1.9 1.9 0 0 1 1.9-1.88h6.66a6.63 6.63 0 0 1 6.65 6.58zm-8.56 11.58a2.55 2.55 0 0 1 2.57 2.54c0 1.4-1.15 2.54-2.57 2.54a2.55 2.55 0 0 1-2.56-2.54c0-1.4 1.15-2.54 2.56-2.54z"/></defs><use fill="#fff" xlink:href="#a" opacity=".4" transform="translate(-311 -2241)"/></svg>