<svg xmlns="http://www.w3.org/2000/svg" xmlns:xlink="http://www.w3.org/1999/xlink" width="92" height="92" viewBox="0 0 92 92"><defs><path id="a" d="M591.52 1218.54h3.83v3.82h-3.83zm11.48-7.65v91.79h-91.85v-91.79zm-3.83 19.12h-84.2v68.84h84.2zm0-15.3h-84.2v11.48h84.2zm-15.3 3.83h3.82v3.82h-3.83zm-7.66 0h3.83v3.82h-3.83zm-55.5 0h45.93v3.82h-45.92zm64.68 45.9h8.83l-.9 2.54a13.32 13.32 0 0 1-12.53 8.93c-4.5 0-8.49-2.28-10.9-5.74h-25.64a13.26 13.26 0 0 1-10.9 5.74 13.32 13.32 0 0 1-12.53-8.93l-.9-2.55h8.84l1.9-1.9-1.9-1.92h-8.83l.9-2.55a13.32 13.32 0 0 1 12.52-8.92c4.51 0 8.5 2.27 10.9 5.73h25.65c2.4-3.46 6.39-5.73 10.9-5.73 5.61 0 10.65 3.58 12.52 8.92l.9 2.55h-8.83l-1.9 1.91zm-42.56-1.92a9.53 9.53 0 0 0-9.48-9.56 9.45 9.45 0 0 0-7.56 3.82h4.56l5.7 5.74-5.7 5.74h-4.56a9.45 9.45 0 0 0 7.56 3.82 9.53 9.53 0 0 0 9.48-9.56zm25.23 3.82a13.41 13.41 0 0 1 0-7.64h-21.97a13.41 13.41 0 0 1 0 7.64zm20.3 1.92h-4.57l-5.69-5.74 5.7-5.74h4.56a9.45 9.45 0 0 0-7.57-3.82 9.53 9.53 0 0 0-9.47 9.56 9.53 9.53 0 0 0 9.47 9.56c3.03 0 5.81-1.46 7.57-3.82z"/><linearGradient id="b" x1="556.15" x2="558" y1="1210.89" y2="1302.68" gradientUnits="userSpaceOnUse"><stop offset="0" stop-color="#508ab3"/><stop offset="1" stop-color="#883759"/></linearGradient></defs><g transform="translate(-511 -1211)"><use fill="#fff" xlink:href="#a"/><use fill="url(#b)" xlink:href="#a"/></g></svg>