<svg xmlns="http://www.w3.org/2000/svg" xmlns:xlink="http://www.w3.org/1999/xlink" width="93" height="94" viewBox="0 0 93 94"><defs><path id="a" d="M255.11 1608.28v3.87h-85.25v-3.87h11.63v-12.75l-4.92 4.9-2.74-2.73 9.6-9.58 9.58 9.58-2.74 2.74-4.9-4.91v12.75h15.5v-24.37l-4.92 4.91-2.74-2.74 9.59-9.58 9.59 9.58-2.74 2.74-4.91-4.9v24.36h15.5v-35.98l-4.92 4.9-2.74-2.73 9.6-9.58 9.58 9.58-2.74 2.73-4.9-4.9v35.98h15.5v-45.66l-4.92 4.9-2.74-2.73 9.59-9.59 9.59 9.59-2.74 2.73-4.91-4.9v45.66zm0 17.43v3.87h-93v-92.93h3.89v89.06z"/><linearGradient id="b" x1="208.11" x2="209.11" y1="1536.65" y2="1629.58" gradientUnits="userSpaceOnUse"><stop offset="0" stop-color="#508ab3"/><stop offset="1" stop-color="#883759"/></linearGradient></defs><g transform="translate(-162 -1536)"><use fill="#fff" xlink:href="#a"/><use fill="url(#b)" xlink:href="#a"/></g></svg>