<svg xmlns="http://www.w3.org/2000/svg" xmlns:xlink="http://www.w3.org/1999/xlink" width="101" height="84" viewBox="0 0 101 84"><defs><path id="a" d="M605.64 1559.04c1.08 0 1.95.85 1.95 1.9 0 1.07-.87 1.92-1.95 1.92a1.93 1.93 0 0 1-1.96-1.91c0-1.06.88-1.91 1.96-1.91zm-32.3 65.32c0 3.25-2.7 5.9-6.03 5.9h-20.37c-4.23 0-8.2-1.83-10.9-5l-4.88-5.74a10.33 10.33 0 0 0-7.86-3.62 4.85 4.85 0 0 1-4.46 2.9h-2.02a1.93 1.93 0 0 1-1.96-1.92c0-1.05.88-1.91 1.96-1.91h2.02c.51 0 .93-.4.93-.9v-15.3c0-.5-.42-.9-.93-.9h-7.23v12.03c0 1.06-.87 1.91-1.95 1.91a1.93 1.93 0 0 1-1.96-1.91v-13.95c0-1.06.88-1.91 1.96-1.91h9.18a4.85 4.85 0 0 1 4.49 2.96h7.53c4.56 0 8.87 1.7 12.15 4.8l10.52 9.93a5.64 5.64 0 0 1 .23 7.96 5.87 5.87 0 0 1-4.28 1.83c-1.4 0-2.81-.5-3.93-1.5l-8.25-7.4a1.88 1.88 0 0 1-.12-2.7 1.99 1.99 0 0 1 2.76-.12l8.25 7.4c.78.7 1.99.65 2.7-.1.7-.74.67-1.92-.08-2.62l-10.51-9.93a13.69 13.69 0 0 0-9.44-3.73h-7.18v11.27c4.07.11 7.88 1.91 10.49 4.99l4.87 5.73a10.34 10.34 0 0 0 7.9 3.62h20.37a2.1 2.1 0 0 0 2.12-2.07 2.1 2.1 0 0 0-2.12-2.07h-7.56a1.93 1.93 0 0 1-1.96-1.91c0-1.06.88-1.91 1.96-1.91h7.56a5.97 5.97 0 0 1 6.03 5.89zm6.38-16.44l-1.46-1.28 1.45 1.28a1.98 1.98 0 0 1-2.76.16c-.8-.7-.88-1.9-.16-2.7l.02-.02a1.99 1.99 0 0 1 2.76-.14c.8.7.87 1.91.15 2.7zm-4.66 4.12l-.01.02a1.98 1.98 0 0 1-2.73-.43 1.89 1.89 0 0 1 .43-2.67 2 2 0 0 1 2.74.42c.63.85.45 2.04-.43 2.66zm-5.43 3.07l-.08.03a1.96 1.96 0 0 1-2.55-1.04 1.9 1.9 0 0 1 1.03-2.49c.98-.42 2.13 0 2.58.97.44.96 0 2.1-.98 2.53zm-6 1.86a2.03 2.03 0 0 1-.42.05c-.93 0-1.76-.65-1.93-1.58a1.92 1.92 0 0 1 1.56-2.22c1.05-.2 2.08.46 2.3 1.49a1.91 1.91 0 0 1-1.51 2.26zm21.92-29.76c-.13.02-.26.04-.4.04-.9 0-1.72-.63-1.91-1.53l-.01-.05a1.92 1.92 0 0 1 1.55-2.24c1.06-.2 2.08.48 2.29 1.52l-1.92.36 1.92-.36a1.91 1.91 0 0 1-1.52 2.26zm1.5 4l-1.94-.16 1.95.17a1.93 1.93 0 0 1-2.1 1.76 1.93 1.93 0 0 1-1.8-2.05v-.05a1.94 1.94 0 0 1 2.12-1.74 1.93 1.93 0 0 1 1.78 2.08zm-3.67 11.7v.02a1.96 1.96 0 0 1-2.68.72 1.9 1.9 0 0 1-.73-2.61 1.99 1.99 0 0 1 2.67-.73c.94.52 1.28 1.68.74 2.6zm2.5-5.67l-.02.04a1.95 1.95 0 0 1-2.45 1.25 1.9 1.9 0 0 1-1.28-2.4 1.97 1.97 0 0 1 2.44-1.27 1.9 1.9 0 0 1 1.3 2.38zm-54.33-.36a1.95 1.95 0 0 1-2.36-1.4v-.07a1.91 1.91 0 0 1 1.48-2.28 1.96 1.96 0 0 1 2.33 1.44 1.91 1.91 0 0 1-1.45 2.3zm2.86-18.01a1.96 1.96 0 0 1-2.56 1 1.9 1.9 0 0 1-1.03-2.51l.02-.05a1.97 1.97 0 0 1 2.6-.96 1.9 1.9 0 0 1 .97 2.52zm-1.62 5.1a1.94 1.94 0 0 1-2.3 1.5 1.92 1.92 0 0 1-1.54-2.24l.01-.04a1.96 1.96 0 0 1 2.31-1.48 1.91 1.91 0 0 1 1.52 2.26zm4.34-9.75l-.02.03a1.97 1.97 0 0 1-2.73.42 1.89 1.89 0 0 1-.44-2.68l1.59 1.13-1.58-1.13a1.99 1.99 0 0 1 2.73-.44c.87.62 1.08 1.8.45 2.67zm3.64-3.96a2 2 0 0 1-2.76-.14 1.87 1.87 0 0 1 .15-2.7c.8-.71 2.04-.65 2.76.13.72.79.66 2-.15 2.7zm4.41-3.12a1.97 1.97 0 0 1-2.66-.7 1.9 1.9 0 0 1 .72-2.62l.03-.02a1.98 1.98 0 0 1 2.67.74c.52.92.19 2.09-.76 2.6zm5.04-2.14l-.05.02a1.95 1.95 0 0 1-2.44-1.27 1.9 1.9 0 0 1 1.3-2.39l.57 1.83-.58-1.83a1.96 1.96 0 0 1 2.46 1.23c.33 1-.24 2.09-1.26 2.41zm5.33-1.02h-.18c-1 0-1.86-.74-1.95-1.74a1.92 1.92 0 0 1 1.77-2.07h.02c1.07-.1 2.02.69 2.11 1.74.1 1.05-.7 1.98-1.77 2.07zm-23.23 25.31a1.93 1.93 0 0 1-1.93 1.94h-.03a1.94 1.94 0 0 1-1.95-1.88l1.95-.03-1.95.02a1.93 1.93 0 0 1 1.9-1.96 1.94 1.94 0 0 1 2 1.91zm34.22 4.34v2.29a6.82 6.82 0 0 1-6.88 6.73h-.06v2.85c0 1.05-.87 1.91-1.95 1.91a1.94 1.94 0 0 1-1.96-1.91v-2.85h-.49a6.39 6.39 0 0 1-6.45-6.3c0-1.06.88-1.92 1.96-1.92s1.95.86 1.95 1.91a2.51 2.51 0 0 0 2.54 2.48h4.46c1.64 0 2.97-1.3 2.97-2.9v-2.3c0-1.6-1.33-2.9-2.97-2.9h-4.02a6.82 6.82 0 0 1-6.89-6.73v-2.3a6.82 6.82 0 0 1 6.89-6.73h.05v-2.84c0-1.06.88-1.92 1.96-1.92s1.95.86 1.95 1.92v2.84h.5a6.39 6.39 0 0 1 6.44 6.31c0 1.06-.87 1.91-1.95 1.91a1.93 1.93 0 0 1-1.96-1.9 2.51 2.51 0 0 0-2.54-2.5h-4.45a2.94 2.94 0 0 0-2.98 2.92v2.29c0 1.6 1.34 2.9 2.98 2.9h4.02c3.8 0 6.88 3.02 6.88 6.74zm41.05-26.44v14.7c0 1.05-.87 1.9-1.95 1.9h-9.19c-2 0-3.72-1.19-4.46-2.9h-7.55c-4.56 0-8.88-1.7-12.16-4.8l-10.51-9.92a5.64 5.64 0 0 1-.24-7.96 5.93 5.93 0 0 1 8.21-.34l8.26 7.4c.8.72.85 1.93.12 2.7-.73.78-1.97.84-2.76.12l-8.26-7.4a1.94 1.94 0 0 0-2.7.11c-.7.74-.66 1.91.08 2.61l10.52 9.93c2.55 2.4 5.9 3.73 9.44 3.73h7.18v-11.26a14.25 14.25 0 0 1-10.5-4.99l-4.87-5.73a10.34 10.34 0 0 0-7.9-3.62h-20.37a2.1 2.1 0 0 0-2.11 2.07 2.1 2.1 0 0 0 2.11 2.07h8.33c1.08 0 1.96.85 1.96 1.9 0 1.06-.88 1.92-1.96 1.92h-8.33a5.97 5.97 0 0 1-6.02-5.9c0-3.24 2.7-5.88 6.02-5.88h20.38c4.22 0 8.2 1.82 10.9 5l4.87 5.72c1.95 2.3 4.8 3.6 7.84 3.63a4.85 4.85 0 0 1 4.48-2.96h1.89c1.08 0 1.95.85 1.95 1.91s-.87 1.91-1.95 1.91h-1.89c-.5 0-.92.4-.92.91v15.3c0 .5.41.9.92.9h7.23v-12.78c0-1.06.88-1.91 1.96-1.91s1.95.85 1.95 1.9zm-97.93 47.78c1.08 0 1.95.86 1.95 1.91 0 1.06-.87 1.92-1.95 1.92a1.93 1.93 0 0 1-1.96-1.92c0-1.05.88-1.9 1.96-1.9z"/><linearGradient id="b" x1="556.7" x2="558.59" y1="1547.65" y2="1630.25" gradientUnits="userSpaceOnUse"><stop offset="0" stop-color="#508ab3"/><stop offset="1" stop-color="#883759"/></linearGradient></defs><g transform="translate(-507 -1547)"><use fill="#fff" xlink:href="#a"/><use fill="url(#b)" xlink:href="#a"/></g></svg>