<svg width="227" height="48" viewBox="0 0 227 48" fill="none" xmlns="http://www.w3.org/2000/svg">
<path fill-rule="evenodd" clip-rule="evenodd" d="M72.2615 35.0665V28.6435C74.2931 29.126 80.3878 34.1015 76.7248 34.8855C75.3089 35.1569 73.739 35.0665 72.2615 35.0665ZM64.9971 22.9141C66.0436 22.9141 77.0634 22.2206 77.0634 24.3314C77.0634 26.4724 74.1084 28.161 72.2615 28.6435C72.2615 27.7992 72.2615 26.2914 72.2615 25.4471C72.2923 23.1252 73.0618 23.6077 66.1668 23.6077V40.1023H77.8638C84.8819 40.1023 86.0209 34.4332 83.4044 30.5734C82.6349 29.4577 81.4036 28.342 80.8496 27.8595C82.481 27.1056 83.466 24.7234 83.6507 23.0649C83.8662 21.1048 82.7272 19.4765 80.9111 18.5718C78.6025 17.3958 66.413 17.8783 66.413 17.8783L64.9971 22.9141Z" fill="#002C61"/>
<path fill-rule="evenodd" clip-rule="evenodd" d="M208.003 36.5283C208.396 38.0556 208.999 39.4608 209.301 40.1023H215.729C214.884 38.5749 213.647 36.681 213.647 32.9238H219.622V40.1023H225.598V23.6375H219.622V27.7919H214.341C215.608 22.2934 222.127 22.6905 226.503 22.6905L225.356 17.803C219.743 17.803 215.065 17.2226 210.84 21.9268C207.49 25.6841 206.826 31.763 208.003 36.5283Z" fill="#002C61"/>
<path fill-rule="evenodd" clip-rule="evenodd" d="M156.398 34.8556C154.39 34.8556 153.994 34.3763 152.93 31.6802C152.139 29.6731 150.526 23.0228 155.029 23.0228C157.219 23.0228 159.866 22.6933 159.866 26.4378C159.866 28.4749 158.679 34.8556 156.398 34.8556ZM145.75 26.1982C145.75 32.1295 149.37 40.0979 154.785 40.0979C157.097 40.0979 159.136 40.2777 161.083 38.3305C164.399 35.0653 166.102 31.3207 166.102 25.9885C166.102 21.0157 162.847 17.7804 157.797 17.7804C152.291 17.7804 145.75 17.6307 145.75 26.1982Z" fill="#002C61"/>
<path fill-rule="evenodd" clip-rule="evenodd" d="M123.429 22.3249C126.29 22.3249 129.182 22.2945 132.013 22.3249C133.048 22.3249 135.027 22.6282 135.666 23.0528C138.071 24.6604 137.158 29.6044 135.301 31.6063C134.175 32.8498 132.866 34.0934 130.613 34.0934V23.0225H124.586V39.4014C130.765 39.4014 134.844 40.1294 139.35 35.6403C142.698 32.3342 143.125 29.3617 143.125 24.8727C143.125 21.2936 140.811 18.5941 137.432 17.6235C134.692 16.8349 128.299 17.1989 124.829 17.2595L123.429 22.3249Z" fill="#002C61"/>
<path fill-rule="evenodd" clip-rule="evenodd" d="M86.6621 40.1023H100.8L102.419 35.0442H92.6778V31.1371H99.4263C99.7927 29.5016 100.403 27.9872 100.8 26.2911H92.6778V22.8383H101.503L100.342 17.7803H86.6621V40.1023Z" fill="#002C61"/>
<path fill-rule="evenodd" clip-rule="evenodd" d="M167.415 25.1402C167.415 27.8964 167.567 29.8348 169.901 32.1063C172.478 34.6505 175.237 34.3476 178.482 34.3476V40.1023H184.485V17.7803H178.482V29.2896C177.178 29.2896 175.51 29.017 174.752 28.4112C171.629 26.0791 174.055 20.0216 175.268 17.7803H169.507L168.264 21.1422C167.809 22.4749 167.415 23.4744 167.415 25.1402Z" fill="#002C61"/>
<path fill-rule="evenodd" clip-rule="evenodd" d="M105.491 22.8061C113.408 22.8061 116.224 22.5051 108.426 28.0726C108.426 28.0726 108.604 28.2532 109.078 28.7648C116.758 35.8069 113.111 34.9341 105.046 34.9341C105.431 36.6796 105.995 38.2445 106.38 39.9599C109.909 39.9599 116.106 40.7725 118.685 38.5154C120.672 36.7699 120.494 33.0081 118.982 30.6306C117.944 29.0356 117.114 28.4036 116.758 27.8318C121.176 24.8525 119.99 17.7803 114.949 17.7803H106.617C106.469 19.4054 105.609 21.1809 105.491 22.8061Z" fill="#002C61"/>
<path fill-rule="evenodd" clip-rule="evenodd" d="M47.0879 22.8118C52.6232 22.8118 58.6913 21.8476 50.7583 27.6926C50.7583 27.6926 50.6103 27.783 49.9887 28.0843C56.3232 34.8934 58.1585 34.9536 46.6143 34.9536C47.0287 36.7011 47.5911 38.2678 47.9759 39.9851C50.4919 39.9851 54.8728 40.3165 57.0632 39.8646C58.2769 39.6236 59.3425 39.3524 60.2601 38.5389C62.2433 36.7915 62.0657 33.0254 60.5265 30.6452C59.4905 29.0484 58.6913 28.4157 58.3361 27.8433C62.717 24.8605 61.5625 17.7803 56.5304 17.7803H48.2127C48.0647 19.4072 47.2063 21.1848 47.0879 22.8118Z" fill="#002C61"/>
<path fill-rule="evenodd" clip-rule="evenodd" d="M194.333 27.6843L199.764 40.1023H206.807L201.495 27.7146L206.121 17.7803H199.317L194.333 27.6843Z" fill="#002C61"/>
<path fill-rule="evenodd" clip-rule="evenodd" d="M187.768 40.1023H193.676V17.7803H187.768V40.1023Z" fill="#002C61"/>
<path fill-rule="evenodd" clip-rule="evenodd" d="M47.9268 8.01703V12.6596H51.4636L51.524 13.8414H52.4007L52.4309 11.8718L51.9472 11.8437V8.01703H50.7985V11.7874H49.0452V8.01703H47.9268ZM62.346 9.84593H60.502V8.86114H62.4669V8.01703H59.3533V12.6596H62.5576V11.7874H60.502V10.69H62.346V9.84593ZM69.6312 8.01703V12.6596H70.7497V10.7182H72.6239V12.6596H73.7424V8.01703H72.6239V9.78966H70.7497V8.01703H69.6312ZM81.9949 12.6596H83.1436V8.88927H84.5039V8.01703H80.6648V8.88927H81.9949V12.6596ZM91.3961 12.6596H92.5146V10.9995C92.6053 10.9995 92.7564 11.0277 92.9076 11.0277C93.5726 11.0277 94.147 10.8589 94.5399 10.5212C94.812 10.268 94.9934 9.87407 94.9934 9.42388C94.9934 8.97369 94.7818 8.57977 94.4492 8.35467C94.1167 8.10144 93.6331 7.96075 92.9378 7.96075C92.2425 7.96075 91.7286 8.01703 91.3961 8.0733V12.6596ZM92.5146 8.80486C92.6053 8.77673 92.7564 8.77673 92.968 8.77673C93.5424 8.77673 93.8749 9.02996 93.8749 9.45201C93.8749 9.93034 93.4819 10.2117 92.9076 10.2117C92.7262 10.2117 92.6053 10.2117 92.5146 10.1836V8.80486ZM114.189 11.703C113.977 11.7874 113.584 11.8718 113.252 11.8718C112.254 11.8718 111.65 11.2809 111.65 10.3524C111.65 9.31133 112.345 8.80486 113.252 8.80486C113.645 8.80486 113.977 8.88927 114.189 8.97369L114.431 8.12958C114.219 8.04517 113.796 7.93262 113.191 7.93262C111.68 7.93262 110.471 8.80486 110.471 10.4087C110.471 11.7311 111.347 12.7159 113.07 12.7159C113.705 12.7159 114.159 12.6315 114.37 12.5189L114.189 11.703ZM121.051 8.01703L122.744 11.1965C122.774 11.2809 122.804 11.3372 122.744 11.4216C122.653 11.6186 122.441 11.8437 122.079 11.8437C121.927 11.8437 121.807 11.8437 121.716 11.8155L121.625 12.6596C121.776 12.7159 121.927 12.744 122.2 12.744C122.774 12.744 123.197 12.4908 123.499 12.125C123.892 11.703 124.195 10.9995 124.497 10.268L125.434 8.01703H124.255L123.711 9.62084C123.59 10.0148 123.499 10.3243 123.439 10.5212H123.409C123.288 10.2399 123.197 9.98662 123.046 9.64897L122.32 8.01703H121.051ZM132.477 8.01703V9.25506C132.477 9.8178 132.417 10.3243 132.296 10.8026C132.175 11.1684 132.024 11.506 131.812 11.8437L131.389 11.8718L131.45 13.8414H132.296L132.356 12.6596H135.289L135.349 13.8414H136.196L136.256 11.8718L135.772 11.8437V8.01703H132.477ZM133.535 8.86114H134.624V11.8155H132.961C133.082 11.5904 133.233 11.3091 133.324 11.0277C133.445 10.5494 133.535 10.0148 133.535 9.48015V8.86114ZM145.355 7.93262C143.874 7.93262 142.906 8.97369 142.906 10.3805C142.906 11.703 143.783 12.744 145.264 12.744C146.715 12.744 147.713 11.8155 147.713 10.2961C147.713 9.00182 146.866 7.93262 145.355 7.93262ZM145.325 8.77673C146.08 8.77673 146.534 9.48015 146.534 10.3243C146.534 11.2246 146.08 11.8999 145.325 11.8999C144.569 11.8999 144.116 11.2528 144.116 10.3524C144.116 9.45201 144.539 8.77673 145.325 8.77673ZM154.756 12.6596H155.875V10.9995C155.965 10.9995 156.116 11.0277 156.268 11.0277C156.933 11.0277 157.507 10.8589 157.9 10.5212C158.172 10.268 158.353 9.87407 158.353 9.42388C158.353 8.97369 158.142 8.57977 157.809 8.35467C157.477 8.10144 156.993 7.96075 156.298 7.96075C155.603 7.96075 155.089 8.01703 154.756 8.0733V12.6596ZM155.875 8.80486C155.965 8.77673 156.116 8.77673 156.328 8.77673C156.902 8.77673 157.235 9.02996 157.235 9.45201C157.235 9.93034 156.842 10.2117 156.268 10.2117C156.086 10.2117 155.965 10.2117 155.875 10.1836V8.80486ZM168.329 9.84593H166.485V8.86114H168.45V8.01703H165.367V12.6596H168.541V11.7874H166.485V10.69H168.329V9.84593ZM179.937 12.6596H181.025L180.753 8.01703H179.272L178.728 9.56456C178.577 10.071 178.395 10.69 178.274 11.2246H178.244C178.123 10.69 177.972 10.0992 177.821 9.56456L177.337 8.01703H175.826L175.493 12.6596H176.551L176.642 10.887C176.672 10.3243 176.702 9.5927 176.733 8.97369C176.854 9.56456 177.035 10.2399 177.186 10.7745L177.73 12.5752H178.607L179.211 10.7745C179.423 10.2117 179.635 9.56456 179.786 8.97369H179.816C179.816 9.64897 179.816 10.3243 179.846 10.887L179.937 12.6596ZM190.366 7.93262C188.885 7.93262 187.917 8.97369 187.917 10.3805C187.917 11.703 188.794 12.744 190.275 12.744C191.726 12.744 192.724 11.8155 192.724 10.2961C192.724 9.00182 191.908 7.93262 190.366 7.93262ZM190.336 8.77673C191.122 8.77673 191.545 9.48015 191.545 10.3243C191.545 11.2246 191.091 11.8999 190.336 11.8999C189.58 11.8999 189.127 11.2528 189.127 10.3524C189.127 9.45201 189.55 8.77673 190.336 8.77673ZM199.767 8.01703V12.6596H200.916V10.7182H202.76V12.6596H203.909V8.01703H202.76V9.78966H200.916V8.01703H199.767ZM212.131 12.6596H213.28V8.88927H214.64V8.01703H210.801V8.88927H212.131V12.6596ZM223.588 11.4779L223.981 12.6596H225.19L223.648 8.01703H222.137L220.625 12.6596H221.804L222.137 11.4779H223.588ZM222.318 10.69L222.62 9.67711C222.681 9.42388 222.771 9.0581 222.832 8.80486H222.862C222.923 9.0581 223.013 9.42388 223.104 9.67711L223.406 10.69H222.318Z" fill="#002C61"/>
<path d="M19.0842 47.3239C2.64341 35.9899 -4.55892 22.5403 3.00809 2.92498C7.74887 0.89998 14.0091 0.0537109 19.0842 0.0537109C24.1593 0.0537109 31.1185 1.59513 35.8592 3.62013C38.8374 11.569 38.6551 20.2433 36.2847 27.1343C33.6104 34.8112 27.806 41.2791 19.0842 47.3239ZM29.0216 21.2709L28.0795 22.8123L26.0434 22.4194L23.8857 24.2026C25.7395 24.4746 27.4413 24.6862 28.8392 24.6862C31.8174 24.6862 36.1631 22.6612 36.2847 21.8149C36.5886 19.9712 36.8013 18.0369 36.8013 16.0119L28.0795 18.7925C27.9883 19.0645 27.8972 19.3668 27.7756 19.6388L29.0216 21.2709ZM29.2039 11.3574L29.8421 13.0198L28.2922 14.3798C28.353 14.7123 28.3834 15.0448 28.4138 15.4074H36.8013C36.7709 12.0828 36.2239 8.5164 34.7652 4.67796C33.5192 4.16416 27.259 1.44401 19.0842 1.44401C10.9094 1.44401 5.34809 3.46901 4.10211 3.98282C2.58263 8.03282 1.70134 11.841 1.45822 15.3772L9.75458 15.4074L12.7024 5.25222L13.8268 8.24438C14.2826 7.94214 14.7689 7.70035 15.2855 7.45856L15.5286 5.43356L17.2912 5.01043L18.4764 6.73319L20.1782 6.79364L21.4546 5.16155L23.1868 5.67535L23.3387 7.7608C23.6426 7.94214 23.9769 8.12349 24.2504 8.33505L26.1346 7.42834L27.4413 8.63729L26.6512 10.6018C26.8031 10.8436 26.9855 11.0854 27.1374 11.3272L29.2039 11.3574ZM22.032 25.0489C21.5154 25.2302 20.9683 25.3511 20.4213 25.4418L21.0899 27.3157L21.3634 27.3761C23.7034 27.8295 25.8915 28.2828 27.9276 28.2828C31.1185 28.2828 34.0055 27.0134 35.1603 26.4392C35.4642 25.5324 35.7377 24.5653 35.9504 23.6283C31.1185 26.5298 27.958 26.016 22.032 25.0489ZM14.6169 24.5048C13.3406 23.8399 14.0699 23.8399 11.9426 23.8399C7.77926 23.8399 4.19328 25.9556 2.94731 26.7716C3.25121 27.5877 3.5551 28.3433 3.91978 29.1291C8.14393 26.5298 11.8515 25.7742 17.6255 26.6809L14.6169 24.5048ZM20.2998 23.5981C22.7006 23.175 24.7367 21.6336 25.8307 19.4877L19.0538 21.6336L19.7224 23.5074L20.2998 23.5981ZM26.56 15.4074C26.013 9.57423 19.2361 6.55185 14.4954 10.0276L16.5011 15.4074H26.56ZM5.74315 32.4537C15.4982 26.4089 21.3026 31.7586 27.0159 31.7586C29.2343 31.7586 32.8203 31.0936 33.7016 29.9451C34.0359 29.3104 34.3398 28.6455 34.6133 27.9504C29.7205 30.0358 26.6208 29.5824 21.1507 28.4944C14.3434 27.1343 10.0889 26.6205 4.4364 30.1567C4.83147 30.9425 5.25692 31.6981 5.74315 32.4537ZM32.6683 31.9097C28.9912 33.4813 25.2229 33.028 21.4546 31.8795C15.6198 30.1265 11.4564 30.2776 6.38133 33.4209C9.38991 37.8336 13.7052 41.8533 19.0842 45.6313C25.1621 41.3698 29.7205 36.8966 32.6683 31.9097ZM2.58263 25.6533C3.58549 25.0186 5.50004 23.9608 7.84004 23.2959L8.69094 21.0895L1.42783 16.163C1.27588 19.5481 1.67095 22.6914 2.58263 25.6533Z" fill="#002C61"/>
</svg>
