<svg xmlns="http://www.w3.org/2000/svg" width="34" height="30" viewBox="0 0 34 30"><g><g><path fill="#fff" d="M33.968 6.23L30.13 21.193a.982.982 0 0 1-.948.743H11.179a.982.982 0 0 1-.948-.743L6.393 6.23 5.305 1.986H.979A.986.986 0 0 1 0 .993c0-.549.44-.994.98-.994h5.083c.446 0 .836.306.949.743l1.088 4.246H33.02c.303 0 .59.142.775.385.186.244.25.56.173.858zM15.398 16.95h-4.23l.769 3h3.46zm0-1.987V11.96h-5.51l.77 3.002zm0-7.988h-6.79l.77 3h6.02zm7.607 9.975h-5.648v3h5.648zm0-4.989h-5.648v3.002h5.648zm0-4.986h-5.648v3h5.648zm6.189 9.975h-4.23v3h3.46zm1.28-4.989h-5.51v3.002h4.74zm1.28-4.986h-6.79v3h6.02zM17.356 26.371c0 2-1.606 3.629-3.579 3.629S10.2 28.372 10.2 26.37c0-2 1.605-3.628 3.578-3.628 1.973 0 3.579 1.628 3.579 3.628zm-1.96 0c0-.905-.726-1.641-1.619-1.641s-1.619.736-1.619 1.641.726 1.642 1.62 1.642c.892 0 1.618-.736 1.618-1.642zm14.765 0c0 2-1.606 3.629-3.579 3.629s-3.578-1.628-3.578-3.629c0-2 1.605-3.628 3.578-3.628 1.973 0 3.579 1.628 3.579 3.628zm-1.96 0c0-.905-.726-1.641-1.619-1.641s-1.619.736-1.619 1.641.726 1.642 1.619 1.642 1.62-.736 1.62-1.642z"/></g></g></svg>