<svg xmlns="http://www.w3.org/2000/svg" width="15" height="22" viewBox="0 0 15 22"><g><g><path fill="#ffffff" d="M14.91 19.858c-.178.558-.595.982-1.24 1.26-.15.068-1.999.881-3.87.881h-.001a5.067 5.067 0 0 1-1.563-.227c-2.713-.879-4.972-3.485-6.714-7.746C-.233 9.771-.471 6.3.816 3.71 1.892 1.536 4.863.298 5.079.21c.33-.14.648-.21.946-.21 1.611 0 2.097 1.907 2.28 2.625l.215.871c.253 1.014 1.024 4.105-1.049 4.989l-.795.342c-.048.02-.098.04-.153.06-.397.154-.766.324-.924.723-.144.361-.184 1.08.442 2.448.639 1.395 1.309 2.163 1.887 2.163.235 0 .463-.113.664-.212.074-.037.143-.072.215-.102l.785-.344c.266-.113.535-.168.806-.168 1.463 0 2.579 1.561 3.387 2.922l.45.766c.47.794.975 1.83.675 2.775zm-1.924-2.007l-.45-.766c-1.08-1.82-1.76-2.202-2.138-2.202a.602.602 0 0 0-.239.052l-.786.344c-.049.02-.094.043-.144.068-.273.136-.73.363-1.3.363-1.23 0-2.279-.989-3.21-3.022-.69-1.51-.845-2.701-.471-3.638.411-1.033 1.321-1.385 1.758-1.554l.11-.043.791-.34c.59-.252.66-1.406.199-3.252l-.213-.868c-.254-.996-.547-1.505-.868-1.505a1.045 1.045 0 0 0-.405.105c-.026.01-2.662 1.089-3.503 2.79-1.085 2.182-.832 5.232.75 9.068 1.57 3.84 3.524 6.162 5.81 6.902.322.105.7.158 1.122.158 1.595 0 3.268-.748 3.285-.755l.013-.006c.24-.104.384-.222.425-.351.061-.191.017-.615-.536-1.548z"/></g></g></svg>