<svg width="35" height="35" viewBox="0 0 35 35" fill="none" xmlns="http://www.w3.org/2000/svg">
<path d="M10.9375 7.65625H24.0625L27.0319 3.31276C27.4378 2.63717 27.4479 1.79553 27.0596 1.10975C26.6714 0.424033 25.9445 0 25.1562 0H21.875C21.295 0 20.7385 0.230713 20.3284 0.640869L18.5937 2.37494L16.8591 0.640869C16.449 0.230713 15.8925 0 15.3125 0H9.84374C9.05549 0 8.32862 0.424033 7.94034 1.10975C7.55206 1.79546 7.56225 2.63717 7.9681 3.31276L10.9375 7.65625Z" fill="white"/>
<path d="M24.0625 9.84375H10.9375C6.04611 13.5617 2.1875 20.5368 2.1875 26.0193C2.1875 35 10.3228 35 17.5 35C24.6772 35 32.8125 35 32.8125 26.0193C32.8125 20.5368 28.9539 13.5617 24.0625 9.84375Z" fill="white"/>
</svg>
