<svg xmlns="http://www.w3.org/2000/svg" viewBox="0 0 36737.57 9649.25" shape-rendering="geometricPrecision" text-rendering="geometricPrecision" image-rendering="optimizeQuality" fill-rule="evenodd" clip-rule="evenodd">
  <path d="M13154.22 7897.5h178.1v657.11l702.24-657.11h235.81l-844.11 785.6 909.98 966.15h-233.77l-770.16-818.14v818.14h-178.1V7897.5zm3509.55 0l817.34 1751.75h-188.27l-273.66-575.77h-759.2l-272 575.77h-195.21l827.09-1751.75h43.9zm-21.93 367.59l-301.3 637.6h601.38l-300.08-637.6zm3221.31-367.59h175.68v224.47h134.58c263.49 0 446.49 51.24 548.54 154.11 102.47 102.87 153.71 226.48 153.71 370.01 0 131.36-45.12 247.65-135.01 349.71-90.24 102.05-261.03 153.29-512.75 153.29h-189.05v500.15h-175.68v-500.15h-188.26c-132.97 0-243.57-13.01-330.61-38.63-87.41-26.02-162.24-81.31-224.44-165.9-62.23-84.58-93.55-183.79-93.55-298.47 0-142.71 50.84-265.92 152.48-369.22 101.69-103.27 285.06-154.91 550.98-154.91h133.39v-224.47zm175.68 395.24v685.58h184.59l93.92 1.21c122.39 0 215.95-31.7 280.6-95.55 64.65-63.43 97.15-143.53 97.15-240.31 0-106.55-38.22-191.93-114.23-255.36-76.48-63.85-191.53-95.57-345.64-95.57h-196.38zm-175.68 0h-196.39c-143.96 0-256.57 30.1-337.91 90.68-81.33 60.59-121.99 146.8-121.99 259.44 0 96.37 32.1 176.48 96.36 240.72 64.25 63.85 160.62 95.96 288.29 95.96l88.23-1.21h183.41v-685.58zm2717.47-395.24h1002.76v170.79h-827.08v548.95h819.78v170.77h-819.78v690.45h819.78v170.79h-995.46V7897.5z" fill="#cf7b37" fill-rule="nonzero"/>
  <path d="M29351.1 5258.59c-362.25 82.67-565.79-252.44-325.5-509.33 110.28-117.83 310.87-97.01 344.24 34.75 29.02 114.45-75.36 220.7-155.47 155.68 148.97-67.7 45.12-270.62-99.03-170.89-98.01 67.78-75.46 255.54 77.82 298.49 375.62 105.21 489.28-514.01 21.21-533.67 136.88-56.49 275.31-179.46 336.04-357.01 30.3-88.45 42.64-117.04 110.45-162.62-57.78-30.41-132.61-50.88-192.94 1.41-26.71-118.76-109.92-219.51-208.18-267.94-100.49-49.55-95.78-205.13-1.62-241.98-131.59-42.32-273.22 1.01-232.66 187.33-92.3-12.12-154.22 15.31-190.23 59.5-99.82 122.21-10.86 376.56 242.37 263.16-146.66-135.13 46.17-223.9 129.51-176.08 233.93 134.19 118.16 485.54-92.9 627.82 44.37-192.79-186.72-349.6-315.44-180.72 168.6-.4 149.22 213.29 91.19 320.15-191.07 351.95-89.71 789.06 371.52 797.72 175.11 3.31 624.8-54.07 654.21 115.17 139.58-440.31-349.52-309.97-564.57-260.97zM1273.54 165.43h5077.18v229.04c-320.07 0-596.61 4.21-784.69 294.8-84.18 130.05-80.62 685.42-80.62 847.03-267.04 3.96-348.95 63.21-525.41 210.67-160.4-147.42-264.56-200.39-505.27-210.67V572.63h-1896v2114.54c-132.03 104.66-210.48 269.59-236.4 469.94-71.54-86.76-111.38-111.43-208.97-166.59 0-266.46 67.5-2021.54-137.85-2341.55-91.19-139.97-324.48-224.79-701.98-254.49V165.44zm33285.82 1119.86c-94.63-583.59-391.26-903.56-1013.69-903.56-409.19 0-854.64 244.24-854.64 695.63l12.73 360.52c0 808.85-1056.19 800.62-1056.19-6.36 0-356.28 182.41-685.03 547.17-984.03C32559.54 148.46 33072.77 0 33732.32 0c644.61 0 1351.06 119.3 1699.32 688.69 146.88 240.25 167.4 471.87 184.96 750.68-201.43-27.72-322.6 27.47-490.62 214.33-161.08-276.5-281.07-377.35-566.62-368.4zM7113.76 2579.43c74.61-730.65 316.2-1319.09 723.64-1762.92C8335.78 271.46 8961.44 0 9714.31 0c636.23 0 1160.1 209.94 1569.41 629.86 409.31 419.92 615.02 981.94 615.02 1686.05H8382.05c-316.59-200.3-766.92 134.47-898.34 318.53-131.89-57.61-217.61-64.65-369.95-55.02zm853-619.83h2634.06c-21.22-364.76-63.64-621.38-129.37-769.84-103.95-231.16-258.78-413.56-464.47-545.05-203.62-133.61-417.8-199.34-642.59-199.34-343.59 0-651.12 133.61-922.54 400.83-271.47 267.22-428.41 638.35-475.08 1113.39zm8930.68-1386.98h-2455.89v955.52c-218.24 8.66-404.59 194.26-523.32 358.83-131.96-185.85-314.75-342.8-507.36-361.86 0-152.51 2.95-686.46-67.89-814.64-176.96-305.72-475.94-316-797.42-316V165.43h6247.87v229.04c-314.57 0-598.48 8.27-784.69 294.8-80.83 126.06-80.68 648.6-80.61 829.52-225.45 13.74-394.72 171.94-523.33 365.81-134.05-170.5-251.04-334.31-508.05-363.37l.68-948.61zm6088.96-469.54c1428.03 364.88 2201.58 1871.32 1997.32 3271.71-358.23-39.8-611.46 255-715.12 548.58-126.49-76.59-263.2-163.09-419.54-156.26 66.55-1126.52-217.98-3106.4-1546.32-3324.96 30.38-72.81 17.41-79.17 104.74-69.83 261.9 28.11 449.3-71.92 578.91-269.23zm2595.68 62.34h4924.51l248.13 1539.67h-279.95c-61.88-392.74-231.51-905.64-646.84-1051.9-313.27-111.9-904.74-80.58-1261.88-80.58v947.92c-197.47 14.07-364.88 169.53-523.33 345.1-164.21-176.83-304.08-318.63-507.37-343.48V572.61c-329.32 0-959.14-31.32-1236.43 65.73-398.63 130.73-584.85 705.8-672.29 1066.75h-279.96l235.41-1539.67zM32194 3563.41c-23.91-118.26-52.39-191.57-138.6-258.81 568.64-468.06 1733.61-909.49 2457.64-1185.85v384.05c-516.57 203.79-1538.74 578.81-1839.03 1064.35-141.33-65.33-290.98-58.68-480.01-3.74zM14903.22 5379.25c-8.13-61.52-2.59-107.28 26.86-161.83 205.23 338.3 759.48 238.35 778.4-128.94 19.63-381.11-438.73-347.03-416.25-56.27 108.08-38.46 163.31 22.15 161.66 90.07-7.45 306.81-762.62 200.56-337.99-655.99 103.24-208.33 135.13-432.07-105.16-555.37-183.56-94.16-298.61-171.04-340-380.08-1.87 176.83 12.62 321.37 148.14 457.82-164.71 77.27-217.14 370.66-29.49 407.45 215.3 42.17 229.65-243.27 57.2-253.34 26.5-139.75 360.56-90.25 181.65 277.61-88.46 181.9-311.7 382.56-335.83 588.94-13.94 119.3 57.89 320.68 210.81 369.94zM95.97 5430.92c-41.42-523.01 307.18-941.3 842.43-830.63-115.87-107.9-195.74-142.57-348.04-146.91 485.03-410.93 34.49-853.94-358.56-588.92-162.81 109.81-195.9 349.49-25.82 442.72 237.51 130.22 406.92-231.16 128.19-314.47 121.4-250.36 609.72 29.77 140.32 394.25-159.17 123.54-273.75 238.17-342.96 370.36-21.17-38.82-57.23-71-115.69-93.8-41.92 176.89 4.33 534.36 80.12 767.39zm21023.71-3784.83c-4.67-135.3 38.05-200.73 88.63-292.6-73.34 77.7-252.76 239.68-181.93 389.26 45.38 95.86 139.9 82.37 173.31 27 41.88-69.39-5.5-138.36-80.01-123.65zm-1525.9 3171.9c29.09-132.16-1.04-204.29-34.15-303.77 58.06 89.7 205.16 281.48 108.36 415.81-61.99 86.01-152.52 55.59-175.31-4.88-28.62-75.83 30.48-135.09 101.11-107.15zm-432.98-1266.52c80.41-108.91 82.23-187.04 92.48-291.38 16.54 105.56 72.74 340.64-70.33 423.88-91.62 53.31-161.95-11.29-158.14-75.83 4.75-80.94 82.84-110.96 135.98-56.67zm124.91-1412.61c100.38-90.79 117.68-167.02 148.39-267.26-4.71 106.71 3.81 348.29-152.88 401.51-100.39 34.12-156.51-43.14-139.98-105.63 20.68-78.39 103.16-92.34 144.47-28.62zm522.54-1191.92c129.91-38.01 178.7-99.1 250.03-175.94-50.77 94.02-148.31 315.15-312.56 294.84-105.23-13.02-122.06-107.01-80-156.08 52.78-61.49 133.11-38.19 142.53 37.18zm1529.14 3221.63c-113.15-74.28-141.95-146.95-187.76-241.26 21.07 104.73 49.83 344.74 212.89 373.25 104.45 18.22 147.96-66.78 122.03-125.99-32.5-74.21-116.14-75.32-147.16-6zm-249.6-781.74c-80.39-108.87-82.23-187-92.51-291.34-16.5 105.53-72.74 340.64 70.34 423.88 91.65 53.31 161.94-11.29 158.13-75.84-4.75-80.94-82.81-110.95-135.95-56.7zm-68.75-863.22c-48.53-126.34-29.52-202.14-11.65-305.48-44.01 97.36-160.76 309-44.98 427.29 74.14 75.8 159.1 32.22 172.62-31.02 16.93-79.24-50.38-128.97-116-90.79zM9818.75 4758.54c510.32 68.97 1117.03-115.94 1334.33-655.78 303.29-753.44-630.11-1276.95-981.46-617.5-85.14 159.86-125.74 224.68-290.81 248.1 110.71 180.67 297.21 199.59 471.91 93.01 78.13 227.67 387.02 270.89 531.45 86.08 142.92-182.84-21.82-497.77-256.39-307.21 73.95 33.48 94.05 155.23 36.02 194.84-196.14 134.05-302.49-357.93 52.57-382.34 225.04-15.46 431.25 287.32 305.36 660.97-40.44 119.98-97.22 219.26-166.47 301.31-16.11-64.39-57.61-98.87-113.69-108.37-44.95 421.83-613.4 474.26-922.83 486.89zm13417.47-447.13c295.56-12.33 301.92 466.3-21.64 535.18 97.25 166.86-79.75 357.82-252.48 279.23-160.5 403.71-802.21 254.67-670.64-158.6 24.12 130.19 139.4 202.96 251.72 189.88 144.46-16.8 238.85-163.89 188.69-303.36-92.73-258-717.31-233.38-664.45 290.51-89.1-124.4-108.8-206.81-102.22-310.87-134.84 33.8-266.54 37.14-398.1-60.15-98.63-72.9-126.82-255.88-19.67-328.77 150.52-102.36 334.82 75.73 163.49 233.71 196.86 185.98 586.29-150.87 987.29-66.3 133.18 28.04 208.08 69.17 360.31 69.86 186.25.87 301.34-211.6 177.69-370.34zm-121.59 539.5c32.14 99.71-33.05 201.71-142.78 189.02 3.09-100.42-25.32-194.52-95.9-267.91 82.2 45.92 143.72 75.66 238.68 78.89zm9720.68-436.41c-63 122.97-19.49 312.81 51.56 402.15 67.71 85.07 179.85 136.09 316.69 119.88 113.07-13.37 227.05-30.17 185.53 101.22 119.37-33.01 132.78-280.1-92.48-253.46 129.44-150.96-15.02-312.41-154.71-227.29 160.07 108.73-4.53 286.8-121.49 193.71-113.44-90.27-89.53-306.62 131.99-337 131.23-17.97 354.95 21.65 308.52 204.67 66.2-37.39 88.81-79.75 92.01-122.4 81.58 37.25 162.66 84.49 251.51 138.1 217.63 131.26 549.72 34.41 549.72-205.88 0-76.33-61.85-138.17-138.17-138.17-76.34 0-138.21 72.81-138.21 138.17 0 65.37 31.46 101.47 77.15 124.01-48.35 58.79-153.78 95.1-298.93 1.62-274.91-177.08-388.53-336.29-810.59-332.37-107.9.98-330.54 1.52-265.03-185.17-157.15 109.52-81.22 346.54 54.95 378.22z" fill="#cf7b37"/>
  <path d="M4999.45 1720.35c313.71-322.52 963.17-203.47 1077.65 277.61-202.38-126.74-523.25-182.33-523.25 168.7v2389.92c0 390-75.12 923.61 438.15 1007.96 141.52 23.23 284.2 22.66 427.12 22.66v381.95H3314.1V5587.2c158 0 314.78-.33 472.52-11.98 637.48-46.92 583.84-531.42 583.84-1020.8l.14-2387.76c-.68-355.12-332.73-296.05-521.75-162.87 135.63-501.98 764.91-605.7 1075.88-283.73 32.76 33.91 41.82 34.08 74.72.29zm27208.84 1842.86c359.91-126.38 623.57-2.87 785.55 296.16-202.51-67.17-462.31 88.7-467.63 363.51-11.72 596.31 448.68 1135.43 1105.69 926.74 318.21-101.12 636.51-330.32 883.63-525.95l.37-2711.1c-.72-354.31-323.57-295.05-523.73-165.72 178.16-566.33 922.94-646.84 1123.82-74.35l8.63-2.05c376.92-480.47 906.8-163.06 1066.44 304.4-216.45-111.25-492.27-134.26-492.27 194.19l-.25 1734.34c-.36 300.88-5.49 605.74 21.36 905.35 33.65 374.76 211.88 411.9 482.67 174.27 165.03-144.8 320-302.27 476.05-456.91v556.25c-177.26 237.98-373.22 469.44-604.78 656.51-710.87 573.85-1429.11 423.45-1607.74-479.36-519.09 408.67-981.94 824.16-1687.7 824.16-1140.86 0-1713.55-1183.93-1302.26-2172.65 133.79-321.72-42.39-394.5-321.26-329.78 157.56-231.55 407.31-401.58 699.69-362.86 202.57 26.83 288.04 135.8 319.17 321.44 4.96 29.74 7.87 32.76 34.55 23.41zM20295.15 2326.34c391.7 237.6 499.49 648.82 528.22 1090.35-413.78-222.35-649.03-380.34-678.87-872.75-3.49-58.17-63.1-86.8-86.65-11.54-135.95 433.84-278.55 597.51-630.01 896.22 4.49-466.55 60.88-970.82 555.37-1141.4 128.8-44.44 196.21-31.1 311.95 39.12zm124.4-706.7c-41.71 353.65 118.44 535.45 336.98 812.84 89.34-379.5 171.64-719.78-113.44-999.13-129.3-126.63-207.4-156.79-388.5-140.01-407.48 37.86-549.5 443.8-677.58 806.12 321.48-143.39 540.23-230.04 744.2-525.63 33.15-48.07 104.96-10.36 98.33 45.81zm505.5-874.94c-136.34 223.32-52.53 449.08 11.58 683.94 197-297.5 336.51-456.71 217.78-750.6-55.73-138.03-67.74-143.07-209.48-173.59-399.5-86.18-576.5 148.31-852.64 515.89 318.27-42.57 555.11-79.71 806.72-295.23 17.62-15.06 39.2-1.91 26.03 19.6zm-3497.37 1137.52c305.84-537.57 908.59-456.45 1089.81 120.7-215.04-140.66-520.92-181.87-520.92 163.74v2389.53c0 386.29-75.76 923.89 438.19 1008.35 141.56 23.23 284.2 22.66 427.11 22.66v381.95H15947.7V5587.2c163.35 0 327.84-.98 486.73-44.34 418.23-114.12 378.75-644.89 378.75-986.71l.21-2389.49c-.68-334.64-295.88-312.19-518.47-166.14 194.94-601.11 801.3-634.39 1087.57-118.26 16.26 29.23 30.17 26.36 45.19-.04zm-3480.61-31.17c301.02-430.96 857.35-505.5 1077.97 145.04-194.81-122.68-515.31-180.9-515.31 171.29l.03 2389.19c-1.08 341.71-38.11 872.52 378.86 986.29 158.85 43.36 323.35 44.34 486.73 44.34v381.95h-2914.28V5587.2c163.38 0 327.88-.98 486.72-44.34 419.07-114.34 378.76-648.16 378.76-986.64l.21-2389.56c-2.69-347.11-307.41-297.56-522.89-161.8 224.14-648.24 769.88-596.13 1084.12-155.21 14.28 20.07 45.3 21.14 59.07 1.41zm6405.47 1573.54c391.33 122.04 574.71 527 737.12 870.13 276.13 587.28 729.85 1205.38 1440.12 1228.58 487.12 15.93 836.68-302.6 1027.99-731.55 131.35-294.43 80.44-638.49-316.54-641.79 277.61-418.23 563.69-507.19 988.79-238.31 22.47 14.2 40.24 26.32 50.81-8.45 169.17-553.21 923.19-806.3 1197.13-128.65-400.65-70.33-495.93 60.84-632.23 416.33-398.32 1039.82-1309.52 1816.82-2429.82 1924.43-1020.66 98.01-1948.06-375.67-2552.33-1378.91-217.7-361.42-295.58-807.6-5.89-1167.94 156.44-194.66 256.25-218.21 494.85-143.86zm1406.61-3209.44c293.61-93.2 461.88-114.87 790.69-102.15 174.1 6.77 295.73 7.08 444.52-26.39-153.92 240.29-383.64 341.29-667.37 280.84-30.78 100.07-143.42 146.31-244.82 107.29 59.77-206.24-220.22-243.3-323.02-259.59zm6320.1 1615.33c159.57-157.63 326.04-329.06 569.42-315.19 260.24 14.82 434.06 243.56 496.08 477.09-212.45-128.39-509.88-163.92-509.88 184.92l-.68 2378.91c4.81 498.8-102.94 942.59 545.84 1003.43 190.92 17.91 382.6 24.28 574.21 30.14v379.36h-3245.01V5589.1c184.27-3.92 369.66-8.92 549.43-53.87 441.43-110.35 392.41-625.3 392.41-980.6l.83-2387.98c-.71-342.08-293.5-309.32-517.69-165.14 71.12-235.11 234.72-470.9 503.74-486.22 242.84-13.87 409.13 156.84 568.38 314.14 35.59 35.17 38.97 34.56 72.91 1.05zm-16189.8 1527.41c110.71 129.98 123.79 218.75 124.56 394.65 101.82-.1 164.28 12.77 261.03 37.89-288.21 107.48-347.98 252.56-439.88 526.5-341 993.14-1179.83 1787.03-2271 1787.03-1525.37 0-2434.5-1261.56-2546.79-2684.84-27.43-350.45-279.37-334.6-493.41-129.54 76.19-489.43 429.77-833.2 908.01-674.49 48.76 16.1 61.09 10.57 95.24-25.96 364.41-388.25 965.62-543.03 1084.09 125.59-325.03-155.21-587.54-31.49-512.65 357.08 187.15 969.67 877.81 1861.28 1936.34 1861.28 810.62 0 1552.52-578.44 1330.46-1450.25 73.45 25.96 136.2 56.27 200.48 102.3 82.6-121.35 176.87-194.2 323.53-227.24zM986.32 4761.65c106.02-77.15 242.69-106.13 367.6-121.45-154.42 200.95-48.52 545 250.06 478.87 425.2-94.16 414.06-1200.89 421.02-1551.64 6.38-293.22-128.81-342.69-398.07-293.25 159.55-305.26 449.77-453.36 704.32-90.97 5.71-29.02 7.33-57.38 10.63-86.4 26.56-218.35 170.34-445.45 401.64-481.37 248.6-38.58 354.18 156.19 395.81 368.47-452.2-76.7-508.42 251-517.96 606.96-19.1 713.32 1.48 1680.22-597.63 2178.45-404.78 336.67-1109.57 428.22-1548.67 112.8-142.85-102.58-200.03-111.06-353.59-32.5 11.62-146.41 49.05-263.3 150.01-376.78-89.43-469.79 196.81-812.29 714.84-711.19z" fill="#f9b33b" fill-rule="nonzero"/>
  <path d="M35116.92 1638.52c219.22 737.83 259.96 1205.43-9.49 1940.36-262.52-706.99-263.2-1237.3 9.49-1940.36zM35321.9 4646c-205.7-102.91-222.82-102.8-428.51 0 150.01 446.13 152.99 496.38-11.39 939.11-174.78-454.47-170.15-498.2 2.66-951.37-38.83-82.44-77.99-164.74-117.33-246.94 109.56-106.78 207.61-180.32 340.35-257.33 132.75 76.94 230.87 150.51 340.32 257.33-39.3 82.2-78.27 164.6-117.32 246.94 172.94 453.31 177.43 497.11 2.59 951.65-164.32-442.78-161.23-493.23-11.36-939.39zm-215.77-1063.7c50.34 81.33 108.59 167.26 151.76 251.08 77.89 150.93-33.76 224.76-150.11 288.54-133.68-73.03-233.25-137.46-142.06-304.37 42.93-78.56 94.7-157.19 140.41-235.25z" fill="#a7a6cc"/>
  <path d="M31807.17 5329.5c-240.57-304.79-282.39-819.13-149.47-1174.83 112.83-301.74 297.61-443.9 547.71-618.65-27.18 123.4-44.15 178.7-74.76 256.22-61.73 156.65-84.96 330.1-87.94 497.66-79.64 63.46-150.73 138.1-191 233.28-112.36 265.27 203.36 341.24 224.54 108.84 4.42-48.58-3.24-105.07-10.71-160.08-8.35-61.63-12.56-117.25-13.09-179.59 82.69-53.47 154.28-83.28 240.57-119.55-20.82 217.46 36.53 468.71 132.57 670.09 257.87 525.09-231.59 935.99-618.43 486.62zm1170.31 57.71c467.34 128.03 889.55-50.44 1160.05-173.09-412.41 319.22-644.58 471.3-1164.69 594.49-27.76-86.8-54.59-160.08-94.21-242.56 39.09-60.3 67.71-114.41 98.84-178.84zm-297.71-28.33c86.11 40.64 142.17 129.58 192 207.36-94.31 100.49-269.56 202.32-389.29 133.07-211.64-122.39-49.8-457.02 197.29-340.42z" fill="#e84735"/>
  <path d="M27848.66 2230.95c.87-65.76 1.66-131.52 2.23-197.29 66.48-54.32 129.11-109.98 192.4-167.87 63.32 57.89 125.92 113.22 192.4 167.63.65 63.2 1.44 126.38 2.27 189.55 8.73 648.63-7.81 1045.11-193.73 1670.45 56.56 107.65 109.41 205.81 177.55 306.84-58.21 77.41-110.45 135.73-178.48 204.3-67.99-68.57-120.24-126.96-178.48-204.33 68.29-100.96 121.06-199.05 177.59-306.74-185.03-622.6-202.07-1016.71-193.73-1662.54zm194.53 2182.63c73.81 56.06 140.51 102.3 225.04 142 67.88 31.42 111.93 90.68 116.85 166.32l49.48 756.81c5.14 92.66-67.31 168.95-159.82 168.95h-461.64c-96.5 0-161.04-72.63-161.04-167.15.04-232.52 33.95-520.74 49.51-758.62 5.03-77.78 49.94-135.04 118.98-167.33 83.63-39.48 149.4-85.29 222.64-140.99z" fill="#a1bcca"/>
  <path d="M20295.15 2326.34c391.7 237.6 499.49 648.82 528.22 1090.35-413.78-222.35-649.03-380.34-678.87-872.75-3.49-58.17-63.1-86.8-86.65-11.54-135.95 433.84-278.55 597.51-630.01 896.22 4.49-466.55 60.88-970.82 555.37-1141.4 128.8-44.44 196.21-31.1 311.95 39.12zm449.66 2240.92c121.56 194.76 196.56 470.68 320.57 695.19-236.8-94.63-582.08-213.26-733.31-416.04-312.31-418.76 123.18-743.01 412.74-279.15zm-325.26-2947.61c-41.71 353.65 118.44 535.45 336.98 812.84 89.34-379.5 171.64-719.78-113.44-999.13-129.3-126.63-207.4-156.79-388.5-140.01-407.48 37.86-549.5 443.8-677.58 806.12 321.48-143.39 540.23-230.04 744.2-525.63 33.15-48.07 104.96-10.36 98.33 45.81zm505.5-874.94c-136.34 223.32-52.53 449.08 11.58 683.94 197-297.5 336.51-456.71 217.78-750.6-55.73-138.03-67.74-143.07-209.48-173.59-399.5-86.18-576.5 148.31-852.64 515.89 318.27-42.57 555.11-79.71 806.72-295.23 17.62-15.06 39.2-1.91 26.03 19.6zm-572.51 2679.89c391.33 122.04 574.71 527 737.12 870.13-363.44-59.15-673.55-182.48-871.31-484.03-36.46-55.56-84.39-41.1-82.34 28.08 8.7 291.56-53.85 568.41-272.43 897.62-217.7-361.42-295.58-807.6-5.89-1167.94 156.44-194.66 256.25-218.21 494.85-143.86zm1406.61-3209.44c293.61-93.2 461.88-114.87 790.69-102.15 174.1 6.77 295.73 7.08 444.52-26.39-153.92 240.29-383.64 341.29-667.37 280.84-30.78 100.07-143.42 146.31-244.82 107.29 59.77-206.24-220.22-243.3-323.02-259.59z" fill="#f0e85c" fill-rule="nonzero"/>
  <path d="M17404.81 1891.61c252.44 748.66 273.9 1107.71 0 1856.88-273.98-749.07-252.41-1108.37 0-1856.88zm-9.71 3730.92c-202.85 74.58-340.31 7.52-374.04-229.14-46.78-328.85 194.23-830.49 383.75-1082.24 189.52 251.75 430.52 753.4 383.71 1082.24-33.68 236.59-171.15 303.75-374.01 229.14-11.14-4.1-8.24-4.1-19.42 0zm9.71-1855.57c66.41 111.72 127.21 208.57 206.02 312.59-71.73 71.16-138.54 141.77-205.99 216.96-67.59-75.19-134.15-145.8-206.2-216.77 78.85-104.09 139.68-200.99 206.16-312.77z" fill="#bbd155"/>
  <path d="M13749.6 2054.05c58.68-53.53 113.04-105.7 168.67-162.37 55.62 56.81 109.88 108.84 168.59 162.37-58.35 51.53-112.9 101.83-168.59 156.31-55.7-54.33-110.35-104.77-168.67-156.31zm523.72 2865.38c2.69 191.06-81.65 532.92-226.01 667.98-81.29 76.08-176.83 76.08-258.16 0-144.36-135.05-228.74-476.85-226.08-667.98 3.88-280.63 127.53-377.24 355.16-501.32 227.57 124.22 351.17 220.55 355.09 501.32zm-385.22-836.71c-118.58-407.49-168.2-839.49-157.7-1263.79 6.87-278.58 28.8-372.39 187.83-607.79 159.32 231.67 181 332.91 187.8 607.79 10.5 424.23-39.23 856.35-157.67 1263.79 59.37 33.07 150.48 59.87 164.39 136.88 18.45 102-120.59 151.59-194.33 190.16-73.03-37.54-213.43-86.68-194.74-190.16 13.88-77.09 105.07-103.81 164.43-136.88z" fill="#e2a2a8"/>
  <path d="M7496.19 2628.65c280.09 185.74 491.04 464.26 366.38 811.69-77.41-108.15-234.72-144.93-288.9-6.25-71.9 183.98 124.55 312.7 267.65 367.38 100.46 38.37 239.53 105.43 329.89 201.97 111.57 119.23 116.93 220.84 63.61 348.23-143.89-189.59-400.22-38.52-262.01 195.2 86.15 145.76 236.15 147.77 386.34 138.6 291.38-18.12 526.42-18.55 573.09 298.17-114.69-61.69-279.37-10.85-268.22 165.4 9.17 145.7 181.79 208.14 308.89 194.56 220.3-23.66 348.95-178.67 617.85-201.28 188.88-15.85 261.69 27.72 360.49 151.59-105.81-27.94-270.71 24.96-211.81 183.99 50.77 117.11 283.54 152.2 395.65 171.19-277.5 226.23-422 292.82-751.46 97.08 49.54-49.44 96.04-88.81 110.24-160.25 27.79-139.95-182.04-167.05-199.73-13.95-8.19 70.91 34.63 119.62 72.56 173.55-128.83 53.47-215.73 66.16-365.09 45.09-219.65-30.95-502.91-157.52-673.15-300.04-118.22-98.99-160.9-165.11-204-299.59 74.14 6.01 146.08 21.58 208.68-29.91 120.45-100.89 10.28-246.22-111.53-182.21-77.85 40.91-90.65 116.85-107.8 193.69-168.56-83.1-329.02-207-431.39-371.56-121.82-195.95-171.15-384.61-140.48-610.91 76.48 26.61 132.82 34.31 223.97 1.22 158.81-57.67 67.48-250.71-79.36-189.34-87.73 36.6-121.64 100.24-152.52 174.81-88.2-69.9-142.92-137.6-189.38-254.85-162.01-408.06-121.39-942.32 151.56-1293.24zm3628.35 2335.9c-318.02 409.1-465 559.83-976.22 682.26 351.18-371.46 469.54-517.65 976.22-682.26z" fill="#21bad6"/>
  <path d="M4962.05 2715.63c-258.47-368.62-233.88-594.56 0-965.98 233.86 371.42 258.45 597.37 0 965.98zm0 2911.08c-234.77-365.77-249.92-587.11 0-958.92 249.89 371.81 234.75 593.15 0 958.92zm270.31-2702.36v1540.62c-111.32 63.27-178.41 111.63-270.17 196.64-92.04-87.26-152.63-129.65-270.48-196.64V2924.35c109.29-62.34 178.62-116.13 270.33-201.2 91.69 85.07 161 138.86 270.31 201.2z" fill="#4db169"/>
  <path d="M27392.14 4556.57c.07 342.93 56.81 820.63-347.61 921.71-192.69 48.18-396.41 49.3-593.98 53.47v496.15h3362.61V5533c-209.33-6.47-419.17-12.15-627.78-31.71-582.33-55.09-478.68-394.32-492.02-944.72l.61-2389.92c-.71-346.13 365.27-179.23 528.69-64.25-48.65-303.2-248.45-607.39-576.9-631.55-269.96-19.81-428.95 141.16-602.47 310.65-174.27-170.29-334.78-331.98-605.63-310.4-327.51 26.13-525.27 329.49-573.7 631.3 163.82-115.23 528.79-281.81 528.79 64.25l-.61 2389.92zm5493.22-768.4c-177.52-218.1-391.67-269.56-654.07-178.8-8.82 77.77-26.71 144.79-51.75 218.53-42.13 124.26-62.27 235.37-75.32 364.85 85.89-39.66 163.24-70.98 255.38-94.32-39.76 235.19 17.37 506.04 119.01 719.17 79.54 166.72 94.17 288.65 49.77 466.7 176.14-18.23 246.51 49.5 347.11 178.3 24.24-48.9 45.95-98.09 66.2-148.75 561.17 194.38 1068.04-90.17 1508.46-417.65l59.54 13.91-15.39 104.09c-542.71 420.25-863.1 706.41-1568.11 863.9-18.12-76.2-37.39-141.06-65.51-213.76-201.67 178.48-493.38 167.05-535.23-130.66-425.6 172.3-703.97-285.66-769.48-642.87-98.49-536.34 79.57-1074.12 566.19-1354.86-22.29-159-114.59-246.08-274.16-267.23-230.7-30.56-422.23 84.25-582.3 237.92 295.73 1.98 377.68 134.58 257.41 423.88-397.85 956.25 150.08 2102.18 1255.26 2102.18 720.89 0 1190.26-452.35 1720.42-863.29 85.1 424.56 263.56 850.53 767.29 850.53 564.46 0 1050.43-537.1 1361.44-954.44v-417.28c-128 126.94-255.64 254.01-391.55 372.99-303 265.92-529.12 209.98-566.66-208.11-26.43-294.43-21.43-613.56-21.58-909.73l.25-1736.68c0-305.08 203.04-366.71 448.47-291.56-112.18-185.2-258.95-348.26-485.07-384.61-180.9-29.09-319.57 49.22-428.67 188.26 221.34 552.59 238.93 1338.22-14.67 1883.01 52.82 104.74 198.62 288.86 183.66 403.35-9.86 75.4-74.61 120.63-131.46 161.83 114.38 75.66 203.62 149.94 296.6 250.43-42.86 90.76-86.68 180.93-128.72 272.08 210.62 413.19 156.18 632.52-54.12 1022.77-209.32-387.31-257.15-572.37-78.99-993.54-124.91-64.65-168.78-65.12-294.76 0 178.2 421.02 130.31 606.42-79.03 993.54-210.45-390.65-264.52-609.19-54.08-1022.77-41.96-91.15-85.9-181.32-128.72-272.08 92.98-100.49 182.11-174.63 296.45-250.35-65.62-47.04-137.02-96.94-132.03-187.94 5.72-103.66 129.88-273.91 183.38-377.71-238.42-512.51-274.77-1391.15 12.33-1891.26-91.29-190.42-208.61-327.23-431.97-335.39-242.81-8.88-415.29 103.69-542.92 299 247.23-86.83 482.23-49.5 482.91 278.8l-.32 2735.73c-506.08 402.94-1325.77 967.58-1857.13 285.75-126.45-162.33-239.61-467.76-233.63-717.15 5.25-231.04 175.03-419.13 409.82-428.73zm220.08 179.59c-231.08-152.23-512.61-31.56-522.72 255.58-7.3 204.09 84.79 468.53 202.51 627.84 462.92 626.37 1216.07 100.02 1671.26-255.17l.29-2683.45c0-347.37-367.57-178.34-531.06-62.64 46.34-350.03 335.28-649.03 704.18-626.8 249.28 14.99 381.63 136.52 501.33 344.62 137.02-137.96 282.15-223.32 481.04-194.91 338.59 48.29 614.73 413.02 673.34 728.93-163.59-114.87-528.11-280.67-527.79 64.93l-.07 1736.68c0 293.8-17.58 601.57 18.08 891.94 45.66 371.63 190.13 321.76 422.4 112.9 186.25-167.29 362.07-346.06 539.33-522.78v716.37c-343.37 459.54-850.13 1027.91-1471.33 1027.91-502.58 0-703.04-337.14-834.81-770.65-521.85 397.16-948.25 783.37-1652.89 783.37-1173.04 0-1794.57-1233.04-1359.22-2255.23 164.96-387.68-198.26-282.39-406.62-195.96 178.09-311.84 464.87-579.89 849.45-530.99 201.64 26.71 322.23 138.17 365.59 334.42 436.86-124.3 704.76 68.1 877.71 473.09zm-8867.22-125.02c119.98-277.97 343.91-501.07 658.19-524.98 361.46-27.54 560.11 212.32 668.73 528.62-376.88-80.65-521.2-34.95-665.82 347.28-860.34 2271.11-3797.85 2775.86-5059.15 597.61l-.29-.51c-110.42-180.52-210.27-394.1-223.25-608.85-14.46-238.35 60.18-516.06 228.92-696.67 137.39-147.13 251.68-178.7 447.75-136.59 277.84 59.68 509.85 281.95 651.69 516.82 90.25 149.32 163.02 315.76 233.13 475.3 569.32 1295.71 1847.02 1533.55 2334.01 409.99 145.73-323.8 4.78-584.27-367.25-535.23 235.44-444.36 619.39-689.8 1093.32-372.78zm-903.02 257.58c361.46 47.72 389.15 443.05 268.27 713.57-538.54 1204.71-1941.87 925.38-2547.22-462.6-373.75-87.55-626.41-167.69-868.28-486.58-10.54 352.5-74.25 565.07-255.72 866.92 1213.75 2088.74 4030.01 1623.22 4865.9-558.85 119.84-312.49 217.16-497.66 591.71-465.23-115.3-183.19-255.96-297.92-485.33-280.45-308.38 23.48-468.24 231.38-575.25 499.53 70.62 119.94 139.98 194.87 249.57 278.68-129.51 114.09-215.15 225.34-305.08 371.42-91.55-142.56-170.25-238.63-302.03-347.04 90.51-88.16 157.63-172.08 215.27-285.62-335.36-219.58-615.65-169.42-851.81 156.25zM1388.43 5497.75c446.46-31.89 708.94-431.03 836.45-816.35-18.74 450.37-163.55 872.23-675.39 1080.01-757.78 307.67-788.2-478.2-367.57-461.3 115.01 4.67 200.52 84.53 206.5 197.64zm-110.25 110.85c12.9-82.63 5.97-194.84-100.54-199.15-179.5-7.23-244.9 272.72 3.78 306.8 230.19 31.61 533.13-133.32 686.56-297.57-177.23 138.26-365.93 195.99-589.79 189.92zm10008.33-2191.14c105.89 16.17 174.17 36.5 266.39 91.43 103.99-125.13 200.31-179.2 358.12-213.03 114.7 133.18 150.51 219.69 157.92 395 126.24 16.07 224.97 52.67 338.85 106.82-342.23 118.37-407.52 193.08-526.46 534.19-359.73 1031.73-1177.57 1830.88-2317.1 1830.88-1556.18 0-2490.62-1284.87-2605.43-2739.07-29.38-402.13-341.97-167.26-514.88 13.56 45.26-323.92 129.11-649.2 432.07-826.83 186.04-109.09 392.6-120.24 591.89-41.02 151.02-175.75 355.57-319.17 587.72-358.12 448.73-75.29 569.18 239.62 624.95 612.97-277.87-190.2-603.7-175.54-524.7 234.17 181.83 943.04 847.25 1815.88 1879.17 1815.88 801.4 0 1545.82-604.5 1251.49-1456.82zm153.39 152.81c140.65 870.23-607.44 1413.79-1404.92 1413.79-1083.58 0-1794.42-908.55-1986.28-1902.71-68.63-355.92 148.9-575.39 490.83-456.59-80.22-227.49-209.19-348.52-465.91-305.45-192.76 32.33-367.07 150.48-497.77 291.85 356.97 242.66 486.33 578.05 291.68 976.3-72.1-255.14-309.66-221.84-243.93-21.86 32.29 98.23 149.65 146.95 238.64 180.97 382.53 146.15 574.21 348.15 383.21 713.38-118.87-224.9-343.23-130.52-229.54 61.73 65.26 110.35 191.86 113.84 307.2 107.22 475.26-27.28 662.37 18.34 679.41 504.63-182.94-265.21-369.94-16.9-250.5 93.2 134.36 123.86 335.68 41.49 473.75-34.12l-.04-.11c375.06-205.48 677.98-168.63 817.16 186.68-244.1-119.44-321.55 64.55-213.25 125.85 90.42 51.12 192.61 74.1 296.77 75.22 409.35-402.2 532.04-570.68 1128.85-696.14-254.31 351.29-613.79 780.06-1083.76 805.15-224.61 222.35-500.67 327.3-801.12 114.23-145.19 72.19-390.29 87.01-751.11-76.91-371.45-168.78-512.94-359.63-540.15-510.43-160.9-67.77-349.74-241.4-439.85-386.23-108.05-173.79-193.98-419.37-156.76-624.57-81.26-57.24-142.27-152.78-185.6-261.86-151.37-381.26-137.32-939.44 101.46-1284.93-165.78-49.91-315.51-42.71-467.09 46.17-181.68 106.53-258.95 265.71-325 455.16 261.72-174.42 439.62-26.64 461.85 255.25 110.17 1396.71 997.32 2637.88 2496.01 2637.88 1069.2 0 1888.94-780.15 2222.83-1752.63 86.65-252.48 93.78-335.5 330.94-492.73-164.5-11.32-236.26-3.52-390.48 63.75-75.11-128.64-118.97-219.83-287.53-301.12zm-4048.1 332.91c30.67 77.27 77.3 145.36 127.09 190.92 37.22-73.2 97.26-124.69 175.35-149 183.23-57.02 309.83 213.69 88.96 293.9-72.67 26.39-138.25 29.49-197.07 14.67-18.55 171.44 49.77 376.17 139.44 520.38 74.96 120.56 229.25 254.6 355.23 321.65 15.1-67.52 56.78-130.55 119.08-162.91 171.54-89.13 333.27 126.35 167.2 265.92-47.32 39.81-103.73 54.52-165.18 49.58 44.58 112.61 172.04 253.7 458.36 383.79 296.7 134.79 502.55 133.89 626.7 88.42-31.68-45.02-49.8-98.88-43.4-154.33 28.23-243.96 400.44-167.01 280.17 88.6-13.06 27.75-32.26 55.48-57.89 81.08 198.15 117.68 373.9 88.42 550.3-55.37-86.08-14.6-159.14-44.22-235.19-86.37-154.46-85.6-137.42-320.64 50.09-352-142.45-103.77-413.82-29.62-552.56 46.42h-.21c-184.64 101.14-417.73 175.75-592.98 14.1-164.02-151.23-25.99-438.12 177.73-397.85-75.65-207.78-356.31-176.75-533.93-166.54-160.26 9.17-311.19-15.14-400.08-165.54-143.89-243.3 77.31-450.41 280.92-310.47 41.89-212.42-224.54-351.25-386.74-413.2-125.27-47.86-250.76-114.8-295.7-251.58-78.96-240.26 141.77-388.03 314.79-249.46 52.74-257.61-129.4-514.59-334.85-650.9-239.11 307.6-254.57 856.2-115.63 1206.09zm223.09 244.17c38.59 9.09 82.13 6.5 130.99-11.25 87.16-31.65 28.37-101.12-19.06-86.34-51.41 15.97-88.09 49.04-111.93 97.59zm570.07 988.4c38.69 7.77 80.41 5.76 111.79-20.64 66.16-55.66 9.71-114.08-46.27-84.99-38.55 20.03-60.3 63.85-65.51 105.63zm1196.85 529.12c19.73-18.01 33.9-37.39 42.86-56.41 47.85-101.69-63.28-107.01-72.2-29.88-3.6 31.07 10.9 62.13 29.34 86.3zm1600.8-600.74c-304.32 98.84-505.31 308.64-680.1 493.56 271.54-65.05 515.31-281.61 680.1-493.56zm977.09-1374.21c-71.95 8.49-125.02 20.97-193.48 45.16-41.25-57.49-79.75-105.89-128.73-156.98 70.15-83.92 128.97-123.55 232.35-159.57 67.78 96.57 83.45 154.89 89.85 271.38zm8847.69-2823.31c-36.9 260.13 27.79 434.23 114.69 673.15 220.33-297.24 456.71-593.63 241.8-970.44 136.28-92.77 267.51-176.08 428.37-218.03 189.42-49.37 543.4-94.82 441.5 151.44 127.65 48.21 242.12 33.87 324.75-80.55 331.62 46.38 584.34-103.08 727.09-402.7-182.62 54.08-338.67 51.2-526.57 45.02-528.18-16.64-1042.77 115.96-1475.17 427.55-537.17-213.65-825.28 185.71-1090.78 582.26 321.05-16.94 527.94-43.26 814.32-207.71zm265.2 4459.1c679.03 821.85 2465.1 629.69 2869.88-279.99 38.58-86.69 72.91-161.3 135.08-161.98 1.26 150.22 219.73 138.07 202.58-32.72-15.5-154.56-209.55-158.19-299.87-55.26-96.1 109.55-124.87 319.57-197.32 409.71-68.56-75.4-146.33-124.73-243.38-48.22 74.5 65.22 38.01 193.51-28.62 250.61-599.23 513.65-1814.16 478.42-2335.72-130.09-199.02-232.16-228.5-497.91-380.59-741.53-331.79-531.49-871.13-139.37-509.66 345.31 163.96 219.83 534.98 348.37 787.63 444.16zm-371.02-731.58c106.79 171.03 166.83 385.18 259.28 571.78-191.46-76.62-463.21-182.69-587.98-349.99-269.8-361.78 76.41-626.01 328.7-221.8zm3563.05-576.36c50.09 72.94 94.57 127.71 158.35 188.76-59.04 61.27-101.72 117.36-149.58 186.55-49.29-68.57-89.49-117.08-152.74-175.11 56.03-65.19 99.2-126.67 143.96-200.19zm-4396.96 613.68c-196.83-391.3-212.86-866.96 161.69-1160.78 89.13 452 62.77 755.03-161.69 1160.78zm1133.16-405.36c-464.33-125.31-754.81-276.61-855.88-787.24 442.75 26.97 651.98 356.9 855.88 787.24zm-912.47-1591.46c102.14 520.49 340.24 655 783.61 865.92 11.69-450.99-120.34-986.62-549.5-1220.51-164.02-89.38-339.3-81.58-502.79 13.88-421.61 246.22-468.5 801.55-434.09 1235.46 405.36-311.59 537.39-458.47 702.78-894.75zm-608.69 683.15c4.1-429.27 110.06-879.65 588.55-1003.15-132.27 478.38-218.57 688.69-588.55 1003.15zm1286.99 10.68c-470.19-252.66-590.68-464.23-573.17-1000.32 389.11 194.77 546.3 588.09 573.17 1000.32zm-413.92-1689.72c-5.62 417.9 170.06 609.52 429.52 905.42 141.09-433.26 237.12-1060.04-295.45-1272.74-585.46-199.08-885.94 450.99-991.47 919.88 364.16-144.66 603.04-235.62 857.4-552.56zm47.78-292.72c-211.95 380.51-343.34 483.63-736.11 658.8 124.76-353.04 292.6-707.92 736.11-658.8zm117.04 47.39c337.01 249.38 298.93 562.12 213.62 924.62-266.43-338.12-327.31-497.87-213.62-924.62zm469.51-822.62c-233.35 247.8-450.99 333.48-780.16 381.41 212.39-282.75 393.17-485.61 780.16-381.41zm90.75 66.4c134.55 271.14 30.88 439.45-121.74 669.95-76.65-280.91-99.41-450.69 121.74-669.95zm876.84-423.69c215.77-54.86 371.56-62.2 592.79-49.76 114.7 6.79 223.14 6.11 347.12-13.63-168.6 171.61-378.04 219.47-605.42 155.57-10.54 91.76-70.37 137.82-154.72 140.48 26.6-126.78-43.61-193.94-179.78-232.66zm10121.12 3579.21c-52.78 155.65-80.51 307.89-83.38 472.24-121.28 96.65-270.93 295.66-194.16 458.36 48.25 102.22 175.68 131.48 261.4 56.26 88.45-77.58 71.95-198.97 56.24-314.41-6.7-49.4-12.02-94.49-12.44-144.43 47.1-28.73 89.2-48.58 139.47-70.55 1.76 225.01 39.19 410.15 136.71 614.57 89.1 186.86 86.26 327.34-9.35 510.75-366.1 288.93-649.1-190.67-706.67-504.46-90.61-493.51 33.43-917.93 452.6-1210.79-13.02 44.34-25.52 88.7-40.41 132.46zm-75.87 604.12c3.2 37.39 5.79 73.21 11.76 110.31 10.47 64.62 23.98 147.92-24.05 190.1-30.92 27-73.28 15.49-90.32-20.68-41.75-88.42 53.94-212.57 102.61-279.73zm449.05 1189.61c-23.04-47.49-13.84-94.99 7.7-140.91 157.63-123.58 262.51-23.23 350.92 114.76-87.91 93.67-285.16 177.33-358.62 26.14zm556.09-139.51c328.72 86.22 497.25 40.27 809.34-42.6-291.64 174.23-466.85 263.09-807.55 343.84-20.21-63.07-41.39-118.54-70.11-178.37 26.5-40.88 47.17-79.14 68.32-122.87zm2207.64-1590.33c54.98 106.57-19.56 160.62-104.96 207.39-107.07-58.42-162.77-102.61-97.44-222.2 28.95-52.97 66.01-108.09 97.05-161.09 35.63 57.68 74.46 116.03 105.35 175.89zm-383.85 541.13c86.94-84.75 173.81-148.64 278.82-209.55 104.96 60.88 191.97 124.84 278.8 209.55-28.76 60.22-57.49 120.42-86.01 180.79-161.57-80.83-224.07-80.76-385.62 0-28.45-60.37-57.21-120.56-86-180.79zm281.67-2602.34c161.04 542.14 193.52 1099.38-3.46 1636.62-187.39-504.6-191.6-1133.67 3.46-1636.62zm220.66 2982.45c104.82 274.77 109.2 387.78 3.06 663.7-102.04-274.95-95.1-389.68-3.06-663.7zm-447.03.03c92.09 273.87 99.03 388.86-3.02 663.67-106.14-275.96-101.76-388.86 3.02-663.67zM5502.85 4556.54c0 440.59-69.75 967.62 480.97 1058.12 126.24 20.75 256.59 23.44 384.33 23.44v280.03H3365.04V5638.1c141.71 0 283.78-1.72 425.16-12.15 673.26-49.58 631.01-523.83 631.01-1069.41l.14-2389.92c-.71-332.62-242.38-368.75-482.98-278.82 139-212.75 299.08-298.76 559.72-297.5 156.94.71 278.93 64.93 391.61 170.18-218.02 301.3-227.99 646.8-2.87 948.57-80.15 72.94-157.98 127.56-253.95 178.51v1613.96c99.27 51.88 171.86 98.02 254.73 174.16-243.79 322.76-211.69 735.64 74.39 1020.81 285.99-285.82 318.49-697.5 74.46-1020.81 82.84-76.14 155.48-122.31 254.71-174.16V2887.56c-95.93-50.95-173.85-105.57-253.95-178.51 225.14-302.03 215.15-647.05-2.84-948.57 112.57-105.24 234.68-169.46 391.59-170.18 260.64-1.26 420.68 84.75 559.72 297.5-255.68-89.35-482.85-49.44-482.85 278.82v2389.92zm-2932.24-966.87c-18.7 695.41 2.81 1656.48-579.31 2140.63-345.14 287.06-1037.41 414.72-1429.44 150.72-133.45-89.81-201.29-172.11-383.6-116.6 96.63-352.19 346.48-457.07 693.78-409.14-40.83-346.18 15.45-572.26 385.46-652.04-89.63 270.15 72.4 528.53 357.4 465.36 461.76-102.23 451.47-1199.49 460.84-1600.18 5.78-265.28-99.6-373.72-346.57-364.12 50.6-63.82 95.5-122.93 173.05-157.3 189.9-84.21 357.93 92.16 436.64 247.2 41.48-52.61 46.99-123.08 53.12-187.37v-.5c22.71-196.49 150.29-408.27 359.29-440.75 183.39-28.44 275.97 95.64 321.11 256-448.31-11.58-492.27 312.92-501.8 668.09zm-1042.74-222.31c227.18-103.81 443.19-100.04 438.43 201.27-6.08 338.59-8.99 1387.72-357.51 1488.33-239.46 69.14-396.13-262.65-122.83-473.2-185.89-7.48-372.83 17.65-528.6 126.27-500.45-133.03-825.68 270.49-753.78 751.72-116.85 134.29-153.81 384.9-149.21 558.64 166.93-218.79 237.07-192.54 437.58-54.33 432.2 298.8 1181.38 169.9 1566.85-149.68 621.75-515.52 601.02-1490.95 621.35-2231.99 9.62-339.67 66.08-661.86 515.77-532.46-1.76-274.41-144.02-524.04-447.14-498.8-249.28 20.81-404.26 250.17-458.97 490.03-124.13-99.57-252.29-174.81-415.69-104.82-165.9 71.09-283.07 267.84-346.23 429.02zM305.88 5355.85c6.62-349.52 192.38-573.49 555.5-555.72-97.26 151.23-116.35 252.95-112.34 432.72-185.34-.47-287.57 23.94-443.16 123zm4005.53-799.31c.25 490.68 65.12 916.35-528.94 960.11-175.28 12.9-351.48 11.72-527.16 11.72v499.49h3222.62v-499.49c-157.45 0-320.9 3.81-476.48-21.76-474.5-77.88-388.79-568.01-388.79-950.07l.07-2389.92c-.71-346.36 365.63-179.05 529.01-64-61.38-409.57-297.49-623.64-716.19-621.66-183.8.86-330.54 74.86-463.5 197.57-133-122.71-279.72-196.72-463.57-197.57-418.66-1.98-654.78 212.1-716.11 621.66 163.74-115.31 529.11-282.25 529.11 64l-.07 2389.92zm650.64 976c-169.64-264.24-176.65-510.93 0-773.76 176.61 262.83 169.57 509.52 0 773.76zm0-2905.36c-184.09-262.44-166.41-517.94 0-782.21 166.36 264.27 184.06 519.77 0 782.21zm0 165.28c70.22 65.19 136.2 113.87 219.36 161.26v1481.72c-361.82 205.7-76.95 205.7-438.76 0V2953.72c83.16-47.39 149.14-96.07 219.39-161.26zm12983.53 1764.07c.1 440.59-69.75 967.62 481 1058.12 126.28 20.75 256.62 23.44 384.33 23.44v280.03h-2812.28v-280.03c149.89 0 303.78-6.65 449.11-46.3 448.84-122.47 416.15-644.36 416.15-1035.26l.21-2389.92c-.68-328.31-232.92-372.39-482.99-278.82 116.72-178.6 250.8-327.2 485.25-314.93 215.69 11.21 375.02 166.11 476.63 344.92-250.9 547.13-250.5 1273.47-2.59 1821.28-63.47 124.05-136.17 237.66-224.04 345.78 75.83 71.63 146.77 144.73 215.91 222.79-162.88 211.34-304.07 554.63-350.64 814.84h.11c-37.14 207.6-23.55 402.48 94.09 515.74 95.29 91.72 219.08 85.32 328.96 25.82 109.88 59.5 233.67 65.9 328.95-25.82 117.65-113.25 131.2-308.14 94.1-515.74h.1c-46.56-260.24-187.76-603.47-350.64-814.81 69.04-78.09 139.91-151.44 215.85-222.92-87.77-107.94-160.69-221.77-223.97-345.67 247.91-548.93 248.38-1273.04-2.59-1821.28 101.46-178.81 261.07-333.71 476.62-344.92 234.58-12.23 368.97 137.02 485.22 314.93-250.72-92.27-482.88-49.44-482.88 278.82v2389.92zm-540.77 141.53c-162.55 275.77-289.23 603.21-89.85 892.94-62.93 9.1-111.93 17.69-163.21-31.68-97.15-93.52-101.18-261.14-62.81-440.96 46.81-219.36 178.48-540.39 315.87-722.83 137.35 182.44 269.05 503.47 315.86 722.83 38.33 179.82 34.34 347.44-62.81 440.96-51.27 49.37-100.28 40.78-163.2 31.68 199.3-289.8 72.73-617.14-89.85-892.94zm76.04 492.86c14.56 136.49-.57 230.12-76.04 337.12-75.51-107.01-90.65-200.63-76.04-337.12 10.64-99.67 40.98-179.74 76.04-271.31 35.02 91.55 65.4 171.69 76.04 271.31zm-4968.83 447.18c149.89 0 303.83-6.65 449.15-46.3 448.8-122.47 416.14-644.36 416.14-1035.26l.21-2389.92c-.71-328.31-230.69-372.39-482.98-278.82 107.32-164.29 229.61-326.04 449.48-322.3 208 3.52 377.28 162.41 499.74 315.22-60.8 62.49-122.14 118-190.16 172.33 71.36 50.95 132.1 103.45 193.29 165.94-75.26 98.59-125.27 190.56-149.14 313.39-30.74 157.99-33.11 403.99-17.62 655.5 17.34 281.45 57.07 569.03 104.42 747.73 11.36 43.26 25.53 72.52 46.63 110.74-77.05 35.89-162.84 86.84-169.2 181.5-6.3 93.74 68.96 146.02 138.97 189.7-87.56 58.6-165.98 113.29-222.21 205.92-125.91 207.38-71.66 528.93 11.44 742.39 176.18 452.71 479.89 452.78 656.07.04 83.04-213.54 137.31-535.02 11.38-742.43-56.22-92.63-134.61-147.32-222.16-205.92 69.97-43.65 145.3-96 138.97-189.7-6.33-94.63-92.19-145.61-169.21-181.5 21.11-38.22 35.24-67.48 46.64-110.74 47.35-178.7 87.08-466.28 104.42-747.73 15.49-251.51 13.12-497.52-17.66-655.5-23.87-122.93-73.81-214.73-149.1-313.39 61.16-62.49 121.96-115.02 193.29-165.94-68.02-54.29-129.4-109.81-190.13-172.33 122.36-152.81 291.74-311.7 499.7-315.22 219.87-3.74 342.12 158.06 449.48 322.3-256.36-87.77-482.88-49.44-482.88 278.82v2389.92c.18 391.01-32.61 912.76 416.25 1035.26 145.33 39.66 299.26 46.3 449.12 46.3v280.03h-2812.35V5638.1zm1498.76-3584.62c-31.96 28.22-62.06 55.97-92.55 85.79-30.53-29.77-60.62-57.56-92.58-85.79 32.19-29.34 62.1-58.18 92.58-89.24 30.49 31.14 60.37 59.9 92.55 89.24zm-34.63 2100.33c51.86 23.47 81.63 46.95 86.65 74.71 5.58 30.85-16.9 58.25-70.4 85.8-2.84 2.83-62.96 32.39-74.11 38.22l-74.28-38.22c-53.5-27.55-75.97-54.9-70.41-85.8 5.03-27.75 34.78-51.24 86.58-74.71 20.25-8.92 38.8-18.88 58-29.67 19.2 10.75 37.78 20.71 57.95 29.67zm-288.07 1158.68c-71.05-193.62-127.72-495.21 9.39-672.39 57.34-74.11 139.97-120.12 220.76-164.17 80.83 44.12 163.31 90 220.73 164.17 137.09 177.18 80.39 478.8 9.39 672.39-137.6 375.19-322.63 375.05-460.26 0zm101.65-2126.03c-15.32-243.96-13.63-483.02 15.68-633.53 19.2-98.77 58.75-167.56 112.8-249.6 54.11 82.09 93.62 150.8 112.83 249.6 29.3 150.51 30.99 389.57 15.68 633.53-17.58 279.27-50.3 549.19-128.5 817.98-78.32-269.23-110.82-537.2-128.47-817.98zm-440.96-1717.12c-345.63 3.67-559.46 318.68-609.9 633.03 163.81-115.23 528.79-281.81 528.79 64.25l-.11 2389.92c.29 323.23 49.54 824.81-335.03 929.8-171.03 46.67-354.27 42.03-530.16 42.03v499.49h3031.71v-499.49c-175.89 0-359.13 4.64-530.16-42.03-384.69-105.03-335.15-606.53-335.15-929.8l.11-2389.92c-.72-346.17 365.27-179.2 528.68-64.25-50.3-313.31-262.83-627.64-607.14-632.99-243.08-3.81-426.56 146.52-572.21 327.2-145.04-179.96-327.45-329.75-569.43-327.24zm5571.92 4558.52v-499.49c-157.45 0-320.83 3.81-476.48-21.76-474.47-77.88-388.79-568.01-388.79-950.07l.03-2389.92c-.71-346.17 365.31-179.2 528.72-64.25-52.82-330.68-283.03-641.41-642.99-633.64-239.06 5.11-405.25 145.01-536.38 334.71-130.95-189.44-296.77-329.2-535.45-334.71-360.38-8.34-591.07 302.57-643.92 633.64 163.82-115.23 528.79-281.81 528.79 64.25l-.1 2389.92c.29 323.23 49.57 824.81-335.03 929.8-171 46.67-354.24 42.03-530.16 42.03v499.49h3031.75zm-1515.87-2427.37c-201.24-550.26-186.93-995.53 0-1549.93 186.93 554.4 201.2 999.63 0 1549.93zm-138.68 474.36c52.17-68.82 94.67-134.33 138.68-208.4 44.01 74.02 86.47 139.5 138.6 208.36-48.07 47.68-93.37 95.1-138.6 145.51-45.23-50.37-90.43-97.95-138.68-145.47zm11317.32 481.69c6.04 629.43-69.03 991.68 592.01 1053.62 175.17 16.44 352 23.41 527.83 28.84v279.12h-3143.08v-279.37c169.04-3.6 346.25-13.06 510.79-54.18 470.83-117.69 430.82-613.84 430.82-1028.03l.83-2389.92c-.72-328.34-229.04-367.85-482.99-278.82 101.8-155.72 214.33-309.97 421.12-321.77 223.75-12.79 375.84 150.01 521.71 291.78-55.63 50.52-111.46 99.71-169.96 146.88-4.68 622.86-35.35 1268.29 192.11 1860.55-52.17 118.22-113.76 227.88-191.03 331.54 51.52 75.47 103.69 140.23 166.36 206.46-55.09 38.72-107.29 71.83-168.45 100.35-86.29 40.09-142.24 119.34-148.53 214.61l-49.3 753.98c-8.22 127.14 89.07 234.24 217.21 234.24h464.86c128.14 0 225.48-107.11 217.21-234.24l-49.3-753.98c-6.26-95.35-62.2-174.46-148.46-214.69-61.16-28.26-113.55-61.63-168.56-100.28 62.74-66.23 114.91-131.02 166.44-206.46-77.42-103.87-138.61-213.21-191.1-331.54 227.52-589.2 196.82-1240.28 192.14-1860.55-58.5-47.14-114.38-96.36-169.96-146.88 145.91-141.77 297.96-304.54 521.71-291.78 206.75 11.8 319.36 166.08 421.12 321.77-255.25-86.11-482.88-49.41-482.88 278.82l-.65 2389.92zm-398.28-2498.67c6.07 596.53 31.39 1077.43-141.88 1660.24-173.45-583.56-147.42-1063.02-141.84-1660.16 48.76-39.84 95.43-80.98 141.84-123.44 46.5 42.5 93.09 83.45 141.88 123.36zm63.68 2544.66c49.87 23.27 81.86 67.24 85.46 122.54l49.3 753.98c2.69 67.41-40.13 114.98-107.87 117.64h-464.86c-66.23-2.55-112.14-51.01-107.87-117.64l49.3-753.98c3.6-55.3 35.59-99.27 85.46-122.54 75.26-35.09 139.48-74.89 205.52-125.19 66.13 50.26 130.26 90.07 205.56 125.19zm-321.59-403.78c44.34-65.62 79.36-127.96 116.03-197.82 36.75 69.93 71.73 132.1 116.1 197.82-37.17 49.41-72.63 89.78-116.1 133.62-43.47-43.84-78.85-84.21-116.03-133.62z" fill="#a86233"/>
</svg>
