<svg class="sphere-animation" version="1.1" id="Isolation_Mode4" xmlns="http://www.w3.org/2000/svg" xmlns:xlink="http://www.w3.org/1999/xlink" x="0px" y="0px" viewBox="86.1 127.4 457.3 479.7" enable-background="new 86.1 127.4 457.3 479.7" xml:space="preserve">
                            <g>
                                <circle class="circle-animation" fill="#e1e2e3" cx="214.7" cy="159.1" r="31.7"></circle>
                                <circle class="circle-animation" fill="#e1e2e3" cx="140.5" cy="584.3" r="22.8"></circle>
                                <circle class="circle-animation" fill="#e1e2e3" cx="527.7" cy="449.2" r="15.7"></circle>
                                <line fill="none" class="line-2" stroke="#0070c9" stroke-width="0.75" stroke-linecap="round" stroke-linejoin="round" stroke-miterlimit="10" x1="219.5" y1="454" x2="214.7" y2="159.1"></line>
                                <line fill="none" class="line-2" stroke="#0070c9" stroke-width="0.75" stroke-linecap="round" stroke-linejoin="round" stroke-miterlimit="10" x1="219.5" y1="454" x2="306.8" y2="403.3"></line>
                                <line fill="none" class="line-2" stroke="#0070c9" stroke-width="0.75" stroke-linecap="round" stroke-linejoin="round" stroke-miterlimit="10" x1="214.7" y1="159.1" x2="417.2" y2="222.5"></line>
                                <line fill="none" class="line-2" stroke="#0070c9" stroke-width="0.75" stroke-linecap="round" stroke-linejoin="round" stroke-miterlimit="10" x1="364.9" y1="247.4" x2="417.2" y2="222.5"></line>
                                <line fill="none" stroke="#0070c9" stroke-width="0.75" stroke-linecap="round" stroke-linejoin="round" stroke-miterlimit="10" x1="304.4" y1="311.5" x2="527" y2="449.9"></line>
                                <line fill="none" class="line-2" stroke="#0070c9" stroke-width="0.75" stroke-linecap="round" stroke-linejoin="round" stroke-miterlimit="10" x1="304.5" y1="311.6" x2="306.8" y2="403.3"></line>
                                <line fill="none" class="line-1" stroke="#0070c9" stroke-width="0.75" stroke-linecap="round" stroke-linejoin="round" stroke-miterlimit="10" x1="140.3" y1="584.3" x2="377.2" y2="446.4"></line>
                                <line fill="none" class="line-1" stroke="#0070c9" stroke-width="0.75" stroke-linecap="round" stroke-linejoin="round" stroke-miterlimit="10" x1="88.3" y1="379.2" x2="140.3" y2="584.3"></line>
                                <line fill="none" class="line-2" stroke="#0070c9" stroke-width="0.75" stroke-linecap="round" stroke-linejoin="round" stroke-miterlimit="10" x1="88.5" y1="379.5" x2="152.5" y2="348.9"></line>
                                <line fill="none" class="line-2" stroke="#0070c9" stroke-width="0.75" stroke-linecap="round" stroke-linejoin="round" stroke-miterlimit="10" x1="131.7" y1="412.1" x2="214.7" y2="159.1"></line>
                                <line fill="none" class="line-2" stroke="#0070c9" stroke-width="0.75" stroke-linecap="round" stroke-linejoin="round" stroke-miterlimit="10" x1="88.3" y1="379.2" x2="131.7" y2="412.1"></line>
                                <line fill="none" class="line-1" stroke="#0070c9" stroke-width="0.75" stroke-linecap="round" stroke-linejoin="round" stroke-miterlimit="10" x1="374.2" y1="595.7" x2="527.1" y2="449.9"></line>
                                <line fill="none" stroke="#0070c9" stroke-width="0.75" stroke-linecap="round" stroke-linejoin="round" stroke-miterlimit="10" x1="380.7" y1="540.9" x2="374.2" y2="595.7"></line>
                                <line fill="none" class="line-1" stroke="#0070c9" stroke-width="0.75" stroke-linecap="round" stroke-linejoin="round" stroke-miterlimit="10" x1="380.7" y1="540.9" x2="140.3" y2="584.3"></line>
                                <line fill="none" stroke="#0070c9" stroke-width="0.75" stroke-linecap="round" stroke-linejoin="round" stroke-miterlimit="10" x1="374.2" y1="595.7" x2="317" y2="552.5"></line>
                                <line fill="none" class="line-2" stroke="#0070c9" stroke-width="0.75" stroke-linecap="round" stroke-linejoin="round" stroke-miterlimit="10" x1="417.2" y1="222.5" x2="408.4" y2="301.8"></line>
                                <line fill="none" stroke="#0070c9" stroke-width="0.75" stroke-linecap="round" stroke-linejoin="round" stroke-miterlimit="10" x1="306.8" y1="403.3" x2="377.2" y2="446.4"></line>
                                <line fill="none" class="line-2" stroke="#0070c9" stroke-width="0.75" stroke-linecap="round" stroke-linejoin="round" stroke-miterlimit="10" x1="364.9" y1="247.4" x2="527.1" y2="449.9"></line>
                                <g> <line fill="none" class="line-3" stroke="#cccccc" stroke-width="0.25" stroke-miterlimit="10" x1="131.7" y1="412.1" x2="317.7" y2="552.9"></line> <line fill="none" class="line-3" stroke="#cccccc" stroke-width="0.25" stroke-miterlimit="10" x1="152.5" y1="348.9" x2="364.9" y2="247.4"></line> <line fill="none" class="line-3" stroke="#cccccc" stroke-width="0.25" stroke-miterlimit="10" x1="408.4" y1="301.8" x2="381" y2="540.6"></line> <line fill="none" class="line-3" stroke="#cccccc" stroke-width="0.25" stroke-miterlimit="10" x1="214.6" y1="159.4" x2="527" y2="449.9"></line> <line fill="none" class="line-3" stroke="#cccccc" stroke-width="0.25" stroke-miterlimit="10" x1="529.7" y1="449.9" x2="140.5" y2="584.2"></line> <line fill="none" class="line-3" stroke="#cccccc" stroke-width="0.25" stroke-miterlimit="10" x1="140.5" y1="584.2" x2="214.6" y2="159.4"></line>
                                    <g>
                                        <path class="circle-opacity" fill="#cccccc" d="M328.1,262.1c-1.6,0-2.9,1.3-2.9,2.9s1.3,2.9,2.9,2.9s2.9-1.3,2.9-2.9S329.7,262.1,328.1,262.1                L328.1,262.1z"></path>
                                    </g>
                                    <g>
                                        <path class="circle-opacity" fill="#cccccc" d="M184.1,331c-1.6,0-2.9,1.3-2.9,2.9s1.3,2.9,2.9,2.9s2.9-1.3,2.9-2.9S185.7,331,184.1,331L184.1,331z"></path> </g>
                                    <g> <path class="circle-opacity" fill="#cccccc" d="M290.6,529.8c-1.6,0-2.9,1.3-2.9,2.9c0,1.6,1.3,2.9,2.9,2.9s2.9-1.3,2.9-2.9S292.2,529.8,290.6,529.8                L290.6,529.8z"></path> </g>
                                    <g> <path class="circle-opacity" fill="#cccccc" d="M385.9,497.9c-1,0-1.7,0.8-1.7,1.7c0,1,0.8,1.7,1.7,1.7c1,0,1.7-0.8,1.7-1.7                C387.7,498.6,386.9,497.9,385.9,497.9L385.9,497.9z"></path> </g>
                                    <g> <path class="circle-opacity" fill="#cccccc" d="M165.8,436.2c-1,0-1.7,0.8-1.7,1.7c0,1,0.8,1.7,1.7,1.7s1.7-0.8,1.7-1.7S166.8,436.2,165.8,436.2                L165.8,436.2z"></path> </g>
                                    <g> <path class="circle-opacity" fill="#cccccc" d="M404.6,334.3c-1,0-1.7,0.8-1.7,1.7s0.8,1.7,1.7,1.7c1,0,1.7-0.8,1.7-1.7S405.6,334.3,404.6,334.3                L404.6,334.3z"></path> </g>
                                </g>
                                <g> <path class="circle-opacity" fill="#0070c9" d="M214.6,154.8c-2.6,0-4.6,2.1-4.6,4.6c0,2.6,2.1,4.6,4.6,4.6s4.6-2.1,4.6-4.6            C219.3,156.9,217.2,154.8,214.6,154.8L214.6,154.8z"></path> </g>
                                <g> <path class="circle-opacity" fill="#0070c9" d="M527.6,445c-2.6,0-4.6,2.1-4.6,4.6s2.1,4.6,4.6,4.6s4.6-2.1,4.6-4.6S530.1,445,527.6,445L527.6,445z"></path> </g>
                                <g> <path class="circle-opacity" fill="#0070c9" d="M377.2,443.4c-1.6,0-2.9,1.3-2.9,2.9s1.3,2.9,2.9,2.9s2.9-1.3,2.9-2.9S378.8,443.4,377.2,443.4            L377.2,443.4z"></path> </g>
                                <g> <path class="circle-opacity" fill="#0070c9" d="M304.3,309.1c-1.6,0-2.9,1.3-2.9,2.9s1.3,2.9,2.9,2.9s2.9-1.3,2.9-2.9S305.9,309.1,304.3,309.1            L304.3,309.1z"></path> </g>
                                <g> <path class="circle-opacity" fill="#0070c9" d="M317.7,550c-1.6,0-2.9,1.3-2.9,2.9s1.3,2.9,2.9,2.9s2.9-1.3,2.9-2.9S319.3,550,317.7,550L317.7,550z"></path> </g>
                                <g> <path class="circle-opacity" fill="#0070c9" d="M408.6,298.8c-1.6,0-2.9,1.3-2.9,2.9s1.3,2.9,2.9,2.9s2.9-1.3,2.9-2.9            C411.5,300.1,410.2,298.8,408.6,298.8L408.6,298.8z"></path> </g>
                                <g> <path class="circle-opacity" fill="#0070c9" d="M152.5,346c-1.6,0-2.9,1.3-2.9,2.9s1.3,2.9,2.9,2.9c1.6,0,2.9-1.3,2.9-2.9S154.2,346,152.5,346L152.5,346z            "></path> </g>
                                <g> <path class="circle-opacity" fill="#0070c9" d="M219.4,452.5c-0.8,0-1.4,0.6-1.4,1.4s0.6,1.4,1.4,1.4c0.8,0,1.4-0.6,1.4-1.4            C220.8,453.1,220.1,452.5,219.4,452.5L219.4,452.5z"></path> </g>
                                <g> <path class="circle-opacity" fill="#0070c9" d="M131.7,410.7c-0.8,0-1.4,0.6-1.4,1.4s0.6,1.4,1.4,1.4c0.8,0,1.4-0.6,1.4-1.4            C133.1,411.4,132.5,410.7,131.7,410.7L131.7,410.7z"></path> </g>
                                <g> <path class="circle-opacity" fill="#0070c9" d="M365.4,246c-0.8,0-1.4,0.6-1.4,1.4s0.6,1.4,1.4,1.4s1.4-0.6,1.4-1.4S366.2,246,365.4,246L365.4,246z"></path> </g>
                                <g> <path class="circle-opacity" fill="#0070c9" d="M417.2,220.1c-1.3,0-2.4,1.1-2.4,2.4c0,1.3,1.1,2.4,2.4,2.4s2.4-1.1,2.4-2.4            C419.6,221.1,418.6,220.1,417.2,220.1L417.2,220.1z"></path> </g>
                                <g> <path class="circle-opacity" fill="#0070c9" d="M140.5,579.6c-2.6,0-4.6,2.1-4.6,4.6c0,2.6,2.1,4.6,4.6,4.6s4.6-2.1,4.6-4.6            C145.1,581.7,143,579.6,140.5,579.6L140.5,579.6z"></path> </g>
                                <g> <path class="circle-opacity" fill="#0070c9" d="M88.5,377.4c-1.3,0-2.4,1.1-2.4,2.4s1.1,2.4,2.4,2.4s2.4-1.1,2.4-2.4C90.9,378.4,89.8,377.4,88.5,377.4            L88.5,377.4z"></path> </g>
                                <g> <path class="circle-opacity" fill="#0070c9" d="M381,538.2c-1.3,0-2.4,1.1-2.4,2.4c0,1.3,1.1,2.4,2.4,2.4s2.4-1.1,2.4-2.4S382.3,538.2,381,538.2            L381,538.2z"></path> </g>
                                <g> <path class="circle-opacity" fill="#0070c9" d="M374.3,592.4c-1.6,0-2.9,1.3-2.9,2.9s1.3,2.9,2.9,2.9s2.9-1.3,2.9-2.9S375.9,592.4,374.3,592.4            L374.3,592.4z"></path> </g>
                                <g> <path class="circle-opacity" fill="#0070c9" d="M306.3,398.9c-2.4,0-4.3,1.9-4.3,4.3s1.9,4.3,4.3,4.3s4.3-1.9,4.3-4.3S308.7,398.9,306.3,398.9            L306.3,398.9z"></path> </g>
                            </g>
                        </svg>