<svg version="1.1" id="Layer_13" xmlns="http://www.w3.org/2000/svg" xmlns:xlink="http://www.w3.org/1999/xlink" x="0px" y="0px" viewBox="0 0 63.9 63.9" enable-background="new 0 0 63.9 63.9" xml:space="preserve"><g> <g> <path fill="#888888" d="M44,63.9c-2.1,0-4.2-1-6.1-2.9l-35-35c-2.4-2.4-3.4-5.1-2.7-7.7c0.7-2.5,2.8-4.4,6.1-5.2L54,0.4            c3.6-1,6.8-0.1,8.5,2.1c1.4,1.9,1.8,4.5,1,7.4L50.8,57.6C49.8,61.6,47.2,63.9,44,63.9z M56.9,4c-0.6,0-1.2,0.1-1.9,0.3L7.4,17            c-1.8,0.5-3,1.4-3.3,2.4c-0.3,1.1,0.3,2.5,1.7,3.8l35,35c1.1,1.1,2.3,1.7,3.3,1.7c1.9,0,2.7-2.3,3-3.4L59.7,8.9            C60.1,7.2,60,5.8,59.4,5C58.8,4.2,57.7,4,56.9,4z"></path> </g> <g> <g> <path fill="#888888" d="M47.9,42c-0.1,0-0.2,0-0.3,0c-0.5-0.1-0.9-0.7-0.7-1.2l0.1-0.4c0.1-0.5,0.7-0.9,1.2-0.7                c0.5,0.1,0.9,0.7,0.7,1.2l-0.1,0.4C48.7,41.7,48.3,42,47.9,42z"></path> </g> <g> <path fill="#888888" d="M45.1,52.7c-0.1,0-0.2,0-0.3,0c-0.5-0.1-0.9-0.7-0.7-1.2l2.1-8.2c0.1-0.5,0.7-0.9,1.2-0.7                c0.5,0.1,0.9,0.7,0.7,1.2L46,52C45.9,52.4,45.5,52.7,45.1,52.7z"></path> </g> </g> <g> <path fill="#888888" d="M22.2,44.5c-0.5,0-1-0.2-1.4-0.6c-0.8-0.8-0.8-2,0-2.8l13.4-13.4c0.8-0.8,2-0.8,2.8,0c0.8,0.8,0.8,2,0,2.8            L23.6,43.9C23.2,44.3,22.7,44.5,22.2,44.5z"></path> </g></g></svg>