<svg version="1.1" id="Layer_14" xmlns="http://www.w3.org/2000/svg" xmlns:xlink="http://www.w3.org/1999/xlink" x="0px" y="0px" viewBox="0 0 66.8 66.7" enable-background="new 0 0 66.8 66.7" xml:space="preserve"><g> <g> <path fill="#888888" d="M33.5,64C17.2,64,4,50.7,4,34.4C4,18.1,17.2,4.9,33.5,4.9c16.3,0,29.6,13.3,29.6,29.6            C63.1,50.7,49.8,64,33.5,64z M33.5,8.9C19.4,8.9,8,20.3,8,34.4C8,48.5,19.4,60,33.5,60c14.1,0,25.6-11.5,25.6-25.6            C59.1,20.3,47.6,8.9,33.5,8.9z"></path> </g> <g> <path fill="#888888" d="M33.5,47.3c-7.1,0-12.9-5.8-12.9-12.9c0-7.1,5.8-12.9,12.9-12.9c7.1,0,12.9,5.8,12.9,12.9            C46.4,41.5,40.6,47.3,33.5,47.3z M33.5,23.5c-6,0-10.9,4.9-10.9,10.9c0,6,4.9,10.9,10.9,10.9c6,0,10.9-4.9,10.9-10.9            C44.4,28.4,39.5,23.5,33.5,23.5z"></path> </g> <g> <path fill="#888888" d="M51.4,66.7c-3.7,0-7.3-1.3-10.1-3.7c-0.8-0.7-0.9-2-0.2-2.8c0.7-0.8,2-0.9,2.8-0.2            c2.1,1.8,4.7,2.8,7.4,2.8c6.3,0,11.4-5.1,11.4-11.4c0-3-1.1-5.8-3.2-7.9c-0.8-0.8-0.7-2.1,0.1-2.8c0.8-0.8,2.1-0.7,2.8,0.1            c2.8,2.9,4.3,6.7,4.3,10.7C66.8,59.8,59.9,66.7,51.4,66.7z"></path> </g> <g> <path fill="#888888" d="M15.4,66.4C6.9,66.4,0,59.5,0,51c0-3.7,1.3-7.3,3.7-10.1c0.7-0.8,2-0.9,2.8-0.2c0.8,0.7,0.9,2,0.2,2.8            C5,45.6,4,48.3,4,51c0,6.3,5.1,11.4,11.4,11.4c3,0,5.8-1.1,7.9-3.2c0.8-0.8,2.1-0.7,2.8,0.1c0.8,0.8,0.7,2.1-0.1,2.8            C23.3,64.9,19.4,66.4,15.4,66.4z"></path> </g> <g> <path fill="#888888" d="M5.8,27.5c-0.5,0-1-0.2-1.4-0.6C1.5,24,0,20.2,0,16.2C0,7.7,6.9,0.8,15.4,0.8c4.3,0,8.2,1.6,11.3,4.6            c0.8,0.8,0.8,2,0.1,2.8C26,9,24.8,9.1,24,8.3c-2.4-2.3-5.3-3.5-8.5-3.5C9.1,4.8,4,9.9,4,16.2c0,3,1.1,5.8,3.2,7.9            C8,24.9,7.9,26.2,7.1,27C6.8,27.3,6.3,27.5,5.8,27.5z"></path> </g> <g> <path fill="#888888" d="M60.5,26.2c-0.5,0-0.9-0.2-1.3-0.5c-0.8-0.7-0.9-2-0.2-2.8c1.8-2.1,2.8-4.7,2.8-7.4            C61.8,9.1,56.7,4,50.4,4c-3,0-5.9,1.4-7.8,3.7c-0.7,0.9-2,1-2.8,0.3c-0.9-0.7-1-2-0.3-2.8C42.1,1.9,46.2,0,50.4,0            c8.5,0,15.4,6.9,15.4,15.4c0,3.7-1.3,7.3-3.7,10C61.7,25.9,61.1,26.2,60.5,26.2z"></path> </g> <g> <g> <path fill="#888888" d="M61,28.7h-9c-0.6,0-1-0.4-1-1s0.4-1,1-1h9c0.6,0,1,0.4,1,1S61.6,28.7,61,28.7z"></path> </g> <g> <path fill="#888888" d="M48,28.7h-4c-0.6,0-1-0.4-1-1s0.4-1,1-1h4c0.6,0,1,0.4,1,1S48.6,28.7,48,28.7z"></path> </g> <g> <path fill="#888888" d="M61,41.7H44c-0.6,0-1-0.4-1-1s0.4-1,1-1h17c0.6,0,1,0.4,1,1S61.6,41.7,61,41.7z"></path> </g> </g> <g> <g> <path fill="#888888" d="M23,28.7H6c-0.6,0-1-0.4-1-1s0.4-1,1-1h17c0.6,0,1,0.4,1,1S23.6,28.7,23,28.7z"></path> </g> <g> <path fill="#888888" d="M23,41.7H6c-0.6,0-1-0.4-1-1s0.4-1,1-1h17c0.6,0,1,0.4,1,1S23.6,41.7,23,41.7z"></path> </g> </g> <g> <g> <path fill="#888888" d="M41.4,62.7c-0.6,0-1-0.4-1-1v-17c0-0.6,0.4-1,1-1c0.6,0,1,0.4,1,1v17C42.4,62.2,42,62.7,41.4,62.7z"></path> </g> <g> <path fill="#888888" d="M28.4,63.7c-0.6,0-1-0.4-1-1v-5c0-0.6,0.4-1,1-1c0.6,0,1,0.4,1,1v5C29.4,63.2,29,63.7,28.4,63.7z"></path> </g> <g> <path fill="#888888" d="M28.4,54.7c-0.6,0-1-0.4-1-1v-8c0-0.6,0.4-1,1-1c0.6,0,1,0.4,1,1v8C29.4,54.2,29,54.7,28.4,54.7z"></path> </g> </g> <g> <g> <path fill="#888888" d="M41.4,25.7c-0.6,0-1-0.4-1-1v-18c0-0.6,0.4-1,1-1c0.6,0,1,0.4,1,1v18C42.4,25.2,42,25.7,41.4,25.7z"></path> </g> <g> <path fill="#888888" d="M28.4,24.7c-0.6,0-1-0.4-1-1v-17c0-0.6,0.4-1,1-1c0.6,0,1,0.4,1,1v17C29.4,24.2,29,24.7,28.4,24.7z"></path> </g> </g></g></svg>