<svg id="Capa_1" data-name="Capa 1" xmlns="http://www.w3.org/2000/svg" viewBox="0 0 463.75 510.13"><path d="M11.6,429H92.76v69.58a11.17,11.17,0,0,0,11.59,11.59h60.5a11.46,11.46,0,0,0,8.16-3.27,11,11,0,0,0,3.44-8.32V429h183A11.16,11.16,0,0,0,371,417.37V371a11.19,11.19,0,0,0-11.6-11.59h-183V316.65H299.62q72.47,0,118.3-44.2t45.83-114.13q0-69.9-45.83-114.12T299.62,0H104.35a11.16,11.16,0,0,0-11.6,11.59v227.9H11.6a11,11,0,0,0-8.34,3.44A11.46,11.46,0,0,0,0,251.08v54a11.16,11.16,0,0,0,11.6,11.6H92.76V359.4H11.6A11.18,11.18,0,0,0,0,371v46.38A11.15,11.15,0,0,0,11.6,429ZM176.44,77.18H292.38q38.4,0,61.95,22.46t23.55,58.69q0,36.24-23.55,58.69t-61.95,22.47H176.44Z"/></svg>