<svg xmlns="http://www.w3.org/2000/svg" xmlns:xlink="http://www.w3.org/1999/xlink" width="26" height="21" viewBox="0 0 26 21"><defs><path id="rsoia" d="M423.16 976.61l-.04.01h16.82l-5.29-5.29a1.37 1.37 0 0 1 0-1.95l.82-.82c.26-.26.6-.4.97-.4s.72.14.98.4l9.06 9.05c.26.26.4.6.4.97s-.14.72-.4.98l-9.06 9.05c-.26.26-.6.4-.98.4-.36 0-.7-.14-.97-.4l-.82-.82a1.36 1.36 0 0 1 0-1.93l5.35-5.32h-16.86c-.75 0-1.39-.65-1.39-1.4v-1.17c0-.75.65-1.36 1.41-1.36z"/></defs><g><g transform="translate(-421 -968)"><use fill="#12c839" xlink:href="#rsoia"/></g></g></svg>