<svg xmlns="http://www.w3.org/2000/svg" xmlns:xlink="http://www.w3.org/1999/xlink" width="27" height="27" viewBox="0 0 27 27"><defs><path id="t0dma" d="M206.16 734.98c.67 0 1.21.54 1.21 1.2v13.27c0 .66-.54 1.2-1.2 1.2h-2.97a1.2 1.2 0 0 1-1.21-1.2v-13.27c0-.66.54-1.2 1.2-1.2zm9.13-10.86a6.65 6.65 0 0 1 6.66 6.64 6.65 6.65 0 0 1-13.3 0 6.65 6.65 0 0 1 6.64-6.64zm.36 10.56c1.63-.1 2.73-.85 2.73-2.32 0-1.68-1.28-2.11-2.73-2.42v-2.08c1.21.02 1.2 1.2 1.92 1.2.37 0 .7-.26.7-.69 0-1.07-1.77-1.6-2.62-1.63v-.59c0-.18-.15-.37-.34-.37-.18 0-.32.19-.32.37v.59c-1.38.04-2.62.81-2.62 2.3 0 1.22.99 1.93 2.62 2.23v2.29c-1.83-.08-.87-1.6-2.1-1.6-.42 0-.69.26-.69.7 0 .87.93 1.97 2.79 2.02v.68c0 .18.14.37.32.37.2 0 .34-.19.34-.37zm-.66-6.82v1.96c-.83-.16-1.24-.48-1.24-1.03 0-.47.49-.91 1.24-.93zm2.01 4.62c0 .73-.7 1.04-1.35 1.08v-2.17c.59.13 1.35.35 1.35 1.1zm10.39 2.5c.67 0 1.2.54 1.2 1.2v13.27c0 .66-.53 1.2-1.2 1.2h-2.96a1.2 1.2 0 0 1-1.21-1.2v-13.27c0-.66.54-1.2 1.2-1.2zm-7.08 3.61c.67 0 1.21.54 1.21 1.21v9.65c0 .66-.54 1.2-1.2 1.2h-2.97a1.2 1.2 0 0 1-1.21-1.2v-9.65c0-.67.54-1.2 1.2-1.2zm-5.86 1.21v9.65c0 .66-.54 1.2-1.21 1.2h-2.97a1.2 1.2 0 0 1-1.2-1.2v-9.65c0-.67.54-1.2 1.2-1.2h2.97c.67 0 1.2.53 1.2 1.2z"/></defs><g><g transform="translate(-202 -724)"><use fill="#fff" xlink:href="#t0dma"/></g></g></svg>