<svg xmlns="http://www.w3.org/2000/svg" xmlns:xlink="http://www.w3.org/1999/xlink" width="231" height="231" viewBox="0 0 231 231"><defs><path id="sd2ha" d="M286 413.01v15.15c0 2.09-1.72 3.79-3.85 3.79h-3.85v11.36c0 2.09-1.72 3.78-3.85 3.78H66.55a3.82 3.82 0 0 1-3.85-3.78v-11.36h-3.85a3.82 3.82 0 0 1-3.85-3.8v-15.14c0-2.1 1.72-3.79 3.85-3.79h18.28l91.54-48.77a3.88 3.88 0 0 1 3.66 0l91.54 48.77h18.28c2.13 0 3.85 1.7 3.85 3.79zm-192.7-3.79h10.8l64.6-33.64a3.9 3.9 0 0 1 3.6 0l64.6 33.64h10.8l-77.2-41.14zm77.2-26.01l-49.95 26.01h99.9zm100.1 48.74H70.4v7.57h200.2zm7.7-15.15H62.7v7.57h215.6zM209 500.1c0 20.92-17.24 37.87-38.5 37.87S132 521.03 132 500.11c0-20.91 17.24-37.87 38.5-37.87 21.25.02 38.48 16.97 38.5 37.87zm-7.7 0c0-16.73-13.79-30.3-30.8-30.3s-30.8 13.57-30.8 30.3 13.79 30.3 30.8 30.3c17-.02 30.78-13.57 30.8-30.3zm-19.9 3.78a11.29 11.29 0 0 1-7.05 14.46v4.48h-7.7v-3.78h-3.85v-7.58h7.7c2.13 0 3.85-1.7 3.85-3.78 0-2.1-1.72-3.8-3.85-3.8-4.9.02-9.26-3.02-10.89-7.56a11.29 11.29 0 0 1 7.04-14.46v-4.48h7.7v3.79h3.85v7.57h-7.7a3.82 3.82 0 0 0-3.85 3.79c0 2.09 1.72 3.78 3.85 3.78 4.9 0 9.26 3.03 10.9 7.57zM286 572.07v15.14c0 2.1-1.72 3.79-3.85 3.79H58.85a3.82 3.82 0 0 1-3.85-3.79v-15.15c0-2.09 1.72-3.78 3.85-3.78h3.85v-11.36c0-2.1 1.72-3.79 3.85-3.79h207.9c2.13 0 3.85 1.7 3.85 3.79v11.36h3.85c2.13 0 3.85 1.7 3.85 3.79zM70.4 560.7v7.58h200.2v-7.58zm207.9 15.15H62.7v7.58h215.6zm-204.05-30.3a3.82 3.82 0 0 1-3.85-3.78v-83.32c0-2.09 1.72-3.78 3.85-3.78H93.5c2.13 0 3.85 1.7 3.85 3.78v83.32c0 2.09-1.72 3.79-3.85 3.79zm3.85-7.57h11.55v-75.74H78.1zm61.6-79.53v11.37H132v-7.58h-11.55v75.74H132v-7.57h7.7v11.36c0 2.09-1.72 3.79-3.85 3.79H116.6a3.82 3.82 0 0 1-3.85-3.8v-83.3c0-2.1 1.72-3.8 3.85-3.8h19.25c2.13 0 3.85 1.7 3.85 3.8zm69.3 71.96v7.57h11.55v-75.74H209v7.58h-7.7v-11.37c0-2.09 1.72-3.78 3.85-3.78h19.25c2.13 0 3.85 1.7 3.85 3.78v83.32c0 2.09-1.72 3.79-3.85 3.79h-19.25a3.82 3.82 0 0 1-3.85-3.8v-11.35zm38.5 15.15a3.82 3.82 0 0 1-3.85-3.8v-83.3c0-2.1 1.72-3.8 3.85-3.8h19.25c2.13 0 3.85 1.7 3.85 3.8v83.3c0 2.1-1.72 3.8-3.85 3.8zm3.85-7.58h11.55v-75.74h-11.55z"/><linearGradient id="sd2hb" x1="168" x2="173" y1="359.99" y2="591" gradientUnits="userSpaceOnUse"><stop offset="0" stop-color="#508ab3"/><stop offset="1" stop-color="#883759"/></linearGradient></defs><g><g transform="translate(-55 -360)"><use xlink:href="#sd2ha"/><use fill="url(#sd2hb)" xlink:href="#sd2ha"/></g></g></svg>