<svg xmlns="http://www.w3.org/2000/svg" xmlns:xlink="http://www.w3.org/1999/xlink" width="22" height="23" viewBox="0 0 22 23"><defs><path id="1obna" d="M745.64 204.97v9.26c0 .76-.61 1.38-1.37 1.38H726.4c-.76 0-1.38-.62-1.38-1.38V196.4c0-.76.62-1.37 1.38-1.37h9.27a1.03 1.03 0 1 1 0 2.05h-8.59v16.48h16.5v-8.58a1.03 1.03 0 0 1 2.05 0zm1.38-7.55c0 .2-.08.42-.24.58l-11.44 11.43h-4.13v-4.12l11.44-11.43a.82.82 0 0 1 .59-.24c.2 0 .42.08.58.24l2.96 2.95c.16.17.24.38.24.59zm-2.4 0l-1.38-1.37-9.96 9.95v1.37h1.37z"/></defs><g><g transform="translate(-725 -193)"><use fill="#cdcdcd" xlink:href="#1obna"/></g></g></svg>