<svg xmlns="http://www.w3.org/2000/svg" xmlns:xlink="http://www.w3.org/1999/xlink" width="8" height="16" viewBox="0 0 8 16"><defs><path id="12cza" d="M713.96 1072.79c-.03.96.55 1.54 1.54 1.54 1.18 0 2.08-.94 2.08-1.95 0-.8-.52-1.52-1.56-1.52a2 2 0 0 0-2.06 1.93zm3.75 10.85l-.47-.63c-.8.63-1.6.94-1.85.94-.2 0-.28-.26-.08-1l1.08-4.14c.4-1.52.27-2.5-.55-2.5-.99 0-3.3.99-5.3 2.68l.41.69c.64-.43 1.7-.87 1.95-.87.2 0 .17.25 0 .88l-.94 3.95c-.58 2.23.02 2.73.85 2.73.82 0 2.95-.76 4.9-2.73z"/></defs><g><g transform="translate(-710 -1071)"><use fill="#c9c9c9" xlink:href="#12cza"/></g></g></svg>