<svg xmlns="http://www.w3.org/2000/svg" xmlns:xlink="http://www.w3.org/1999/xlink" width="22" height="18" viewBox="0 0 22 18"><defs><path id="a" d="M504.64 4612.5a2.9 2.9 0 0 1-.68-1.68c0-.65.17-1.18.51-1.61.34-.43.83-.64 1.46-.64h18.17c.53 0 1 .2 1.38.58.4.39.6.85.6 1.4 0 .65-.21 1.27-.61 1.86-.4.6-.9 1.1-1.5 1.52l-5.78 4.02a47.23 47.23 0 0 0-1.2.85c-.17.12-.38.25-.64.4-.25.15-.48.26-.7.34-.23.07-.43.1-.62.1h-.03c-.19 0-.4-.03-.61-.1a3.75 3.75 0 0 1-.71-.34 13.05 13.05 0 0 1-1.31-.87l-.53-.38a629.45 629.45 0 0 0-5.76-4.02c-.5-.34-.99-.82-1.44-1.42zm21.43 1.68v9.82c0 .54-.2 1.01-.58 1.4a1.9 1.9 0 0 1-1.4.58h-18.16c-.54 0-1-.2-1.39-.58a1.9 1.9 0 0 1-.58-1.4v-9.82c.36.4.78.76 1.25 1.08a245.06 245.06 0 0 1 7.27 5.07c.3.2.68.4 1.17.6.48.2.93.3 1.35.3h.03c.42 0 .87-.1 1.36-.3.48-.2.87-.4 1.16-.6.3-.19.67-.46 1.14-.8 1.4-1.02 3.45-2.44 6.15-4.27.47-.32.88-.68 1.23-1.08z"/></defs><use fill="#fff" xlink:href="#a" transform="translate(-504 -4608)"/></svg>