<svg xmlns="http://www.w3.org/2000/svg" xmlns:xlink="http://www.w3.org/1999/xlink" width="34" height="19" viewBox="0 0 34 19"><defs><path id="203ca" d="M95.06 973.48a16.48 16.48 0 0 0-3.33-3.84l-.04-.03-.01-.02-.02-.02h-.02a18.94 18.94 0 0 1-1.36-1.34c-.35-.44-.43-.88-.24-1.33.13-.34.64-1.06 1.52-2.15l1.1-1.4c1.94-2.52 2.78-4.13 2.53-4.83l-.1-.16c-.07-.1-.25-.2-.53-.28-.28-.08-.64-.1-1.08-.04l-4.86.04a.64.64 0 0 0-.33 0l-.22.05-.09.05-.07.04a1.1 1.1 0 0 0-.35.46 26.35 26.35 0 0 1-2.95 5.47 5.98 5.98 0 0 1-1.52 1.67c-.2.14-.34.2-.44.17l-.29-.06a1.1 1.1 0 0 1-.38-.4c-.1-.17-.16-.39-.2-.65a6.91 6.91 0 0 1-.04-1.45l.02-.69a39.26 39.26 0 0 1 .06-2.51l.02-.9a2.51 2.51 0 0 0-.24-1.27.9.9 0 0 0-.34-.4 2 2 0 0 0-.57-.22c-.6-.14-1.35-.2-2.27-.22-2.1-.02-3.44.11-4.04.4-.23.12-.45.28-.64.49-.2.24-.23.37-.08.4.67.1 1.15.33 1.43.7l.1.2c.08.14.16.4.24.75a12.43 12.43 0 0 1 0 4.58 2.62 2.62 0 0 1-.44 1.14.3.3 0 0 1-.08.08c-.15.05-.3.08-.46.08-.16 0-.35-.07-.57-.23a3.99 3.99 0 0 1-.7-.63 8.46 8.46 0 0 1-.82-1.12 19.6 19.6 0 0 1-.95-1.71l-.27-.48a41.61 41.61 0 0 1-1.47-3.04c-.09-.23-.22-.4-.4-.52l-.08-.05a1.78 1.78 0 0 0-.66-.25l-4.63.03c-.47 0-.79.1-.96.32l-.07.1a.52.52 0 0 0-.05.26c0 .12.04.26.1.44a53.39 53.39 0 0 0 4.27 7.93 40.54 40.54 0 0 0 3.46 4.47l.42.4c.27.26.67.57 1.2.94.52.37 1.1.73 1.73 1.08a9.6 9.6 0 0 0 2.22.87c.85.23 1.67.32 2.46.28h1.95c.39-.04.69-.16.89-.37l.07-.08a1.64 1.64 0 0 0 .19-.76c-.02-.46.02-.89.1-1.27.09-.37.18-.66.29-.85a2.11 2.11 0 0 1 .65-.72l.13-.06c.27-.09.6 0 .96.25.36.26.7.58 1.03.96.32.37.7.8 1.15 1.27.45.47.85.82 1.18 1.05l.34.2c.23.13.52.25.88.36.36.1.67.14.94.08l4.32-.06a2 2 0 0 0 1-.2c.23-.15.37-.3.42-.46.04-.17.05-.35 0-.56-.03-.2-.07-.35-.11-.43z"/></defs><g><g transform="translate(-62 -957)"><use fill="#269bbb" xlink:href="#203ca"/></g></g></svg>