<svg xmlns="http://www.w3.org/2000/svg" xmlns:xlink="http://www.w3.org/1999/xlink" width="18" height="10" viewBox="0 0 18 10"><defs><path id="a" d="M155.9 8231.03a9.14 9.14 0 0 0-1.85-2.13l-.02-.02-.01-.02h-.02c-.4-.37-.66-.62-.76-.75-.2-.24-.24-.49-.13-.73.07-.2.35-.6.84-1.2.26-.32.46-.58.6-.78 1.09-1.4 1.56-2.3 1.41-2.68l-.05-.1c-.04-.05-.14-.1-.3-.14a1.52 1.52 0 0 0-.6-.03l-2.7.02a.35.35 0 0 0-.18 0l-.12.04-.05.02-.03.03a.4.4 0 0 0-.1.1.61.61 0 0 0-.1.15 14.7 14.7 0 0 1-1.64 3.04 4.75 4.75 0 0 1-.84.92c-.11.08-.2.12-.25.1l-.16-.03a.62.62 0 0 1-.2-.23.98.98 0 0 1-.12-.35 3.82 3.82 0 0 1-.02-.81v-.38a21.84 21.84 0 0 1 .04-1.4l.01-.5c0-.18 0-.32-.03-.42a1.4 1.4 0 0 0-.1-.3.5.5 0 0 0-.2-.21 1.1 1.1 0 0 0-.3-.12 6.33 6.33 0 0 0-1.27-.12 6.28 6.28 0 0 0-2.24.22c-.13.06-.25.16-.36.27-.1.13-.12.2-.04.22.37.06.64.19.8.4l.05.1a4.14 4.14 0 0 1 .22 1.09 6.9 6.9 0 0 1-.22 2.3l-.11.2a.16.16 0 0 1-.05.05.7.7 0 0 1-.25.05.6.6 0 0 1-.32-.13c-.13-.08-.26-.2-.39-.35a4.65 4.65 0 0 1-.45-.62 10.8 10.8 0 0 1-.53-.95l-.15-.27a22.25 22.25 0 0 1-.81-1.69.6.6 0 0 0-.23-.29l-.05-.03a.63.63 0 0 0-.15-.07 1.11 1.11 0 0 0-.21-.06l-2.57.01c-.26 0-.44.06-.53.18l-.04.05a.29.29 0 0 0-.03.15c0 .07.02.15.06.25a29.9 29.9 0 0 0 3.36 5.78 20.29 20.29 0 0 0 .93 1.1l.23.23a11.22 11.22 0 0 0 1.63 1.13 5.36 5.36 0 0 0 2.6.63h1.08a.75.75 0 0 0 .5-.2l.03-.05a.9.9 0 0 0 .1-.42c0-.26.02-.5.06-.7.05-.22.1-.37.16-.48a1.17 1.17 0 0 1 .37-.4.46.46 0 0 1 .07-.03c.15-.05.33 0 .53.14s.4.32.57.53l.64.7c.25.27.47.46.66.59l.19.1c.12.08.28.15.48.2.2.07.38.09.53.05l2.4-.03c.23 0 .42-.04.55-.12.13-.07.2-.16.23-.25s.03-.2 0-.3c-.01-.12-.03-.2-.06-.25z"/></defs><use fill="#fff" xlink:href="#a" transform="translate(-138 -8222)"/></svg>