<svg xmlns="http://www.w3.org/2000/svg" viewBox="255.8 296.1 89.9 199.7"><path fill="#666666" d="M273.7 484.5l-.1-61.2c0-20.4-.1-40.8-.1-61.2V308.6c0-1.3 0-2.6.1-3.8.1-1.3.5-2.5 1.1-3.7 1.2-2.3 3.5-3.9 6-4.4 1.3-.2 2.6-.2 3.8 0l3.8.7 15 2.9 15 2.8 7.5 1.4 3.8.7 1.9.4c.6.1 1.2.3 1.9.5l-.1.2c-1.4-.5-2.8-.9-4.3-1.2-1.5-.2-3-.5-4.4-.8l-8.9-1.7-17.7-3.4-8.9-1.7c-1.5-.3-2.9-.6-4.4-.8-1.5-.1-3-.1-4.5.1s-2.9.5-4.4.9c-1.4.5-2.8 1-4.1 1.8-1.2.8-2.4 1.8-3.3 3-.9 1.2-1.4 2.6-1.6 4v88.9l-.1 88.9c.1.5.1.9.2 1.4.1.4.2.9.4 1.3.1.4.3.9.5 1.3l.6 1.2c.3.4.5.8.8 1.1.3.4.6.7.9 1 .3.3.7.6 1 .9.4.3.7.5 1.1.8.4.2.8.5 1.2.6.4.2.8.4 1.3.5.4.2.9.3 1.3.4.4.1.9.2 1.4.3.5.1.9.1 1.4.1l1.4.1 2.8.2v.1l-1-.2c-.3-.1-.6-.2-1-.3-.6-.2-1.2-.5-1.8-.8-.6-.3-1.1-.7-1.7-1.1-.5-.4-1-.9-1.4-1.4-.4-.5-.8-1.1-1.1-1.6l-.5-.9-.4-.9-.3-1-.2-1-.1-1 .2-.9zm.1 0v1l.1 1 .2 1 .3.9.4.9.5.9c.3.6.7 1.1 1.1 1.6.4.5.9 1 1.4 1.4.5.4 1.1.8 1.6 1.1.6.3 1.2.6 1.8.8.3.1.6.2 1 .3l1 .2v.1l-2.8-.2-1.4-.1c-.5 0-.9 0-1.4-.1-.5-.1-.9-.1-1.4-.2-.5-.1-.9-.2-1.3-.4-.4-.1-.9-.3-1.3-.5s-.8-.4-1.2-.7c-.4-.3-.8-.5-1.2-.8-.4-.3-.7-.6-1-.9-.3-.3-.6-.7-.9-1-.3-.4-.5-.8-.8-1.1-.2-.4-.5-.8-.7-1.2-.2-.4-.4-.9-.5-1.3-.2-.4-.3-.9-.4-1.3-.1-.5-.2-.9-.2-1.4l-.1-88.9v-88.9c.2-1.5.8-3 1.7-4.2.9-1.3 2.1-2.2 3.4-3.1 1.3-.8 2.7-1.4 4.1-1.9 1.4-.5 2.9-.7 4.4-.9 1.5-.1 3-.2 4.6-.1 1.5.1 3 .5 4.5.8l8.9 1.7 17.7 3.5 8.9 1.7c1.5.3 2.9.6 4.4.8 1.5.3 2.9.7 4.4 1.2l-.1.2c-.6-.2-1.2-.3-1.8-.5l-1.9-.4-3.8-.7-7.5-1.4-15-2.9-15-2.8c-2.5-.4-5-1.2-7.5-.7s-4.7 2.1-5.9 4.3c-.6 1.1-1 2.3-1.1 3.6-.1 1.3 0 2.5-.1 3.8v53.5c.1 20.4 0 40.8-.1 61.2v61.1z"/><path fill="#666666" d="M342.3 483.7v.4c0 .2 0 .6-.1 1.1-.1 1-.3 2.4-1.1 4.1-.4.8-.9 1.7-1.7 2.6-.7.9-1.7 1.7-2.9 2.4-1.2.6-2.6 1.1-4.2 1.1-1.5.1-3.2 0-4.9.1-6.9.1-15.4.2-25 .2-4.8 0-10 .1-15.4.2-1.4 0-2.7.1-4.1-.2-1.4-.3-2.7-.8-3.9-1.6-2.4-1.6-4.3-4.1-4.9-7.1-.4-1.5-.2-3-.3-4.5v-4.6-9.5-19.9c0-13.6 0-28 .1-42.9 0-14.9 0-30.3.1-45.9 0-15.6 0-31.5-.1-47.4v-6c-.1-2 .4-4.1 1.5-5.8 1.1-1.7 2.8-3 4.7-3.6 1-.3 2-.4 3-.5 1 0 2 .2 3 .4 7.8 1.5 15.5 2.9 23.2 4.3 7.7 1.4 15.3 2.9 22.8 4.3 3.9.7 7.2 3.3 9.2 6.5 1 1.6 1.7 3.5 2 5.3.1.9.1 1.9.1 2.8v2.8c-.1 29.8-.3 57.5-.4 81.4-.5 47.7-.7 79.5-.7 79.5zm-.1 0s.1-31.7.2-79.4c.1-23.8.2-51.6.3-81.4v-2.8c0-.9 0-1.9-.1-2.8-.3-1.8-.9-3.6-1.9-5.2-2-3.2-5.2-5.6-8.9-6.3-7.5-1.4-15.1-2.9-22.8-4.3-7.7-1.5-15.4-2.9-23.2-4.4-1-.2-1.9-.4-2.9-.4s-1.9.1-2.9.4c-1.9.6-3.5 1.8-4.5 3.5-.5.8-.9 1.7-1.1 2.7-.2.5-.2 1-.3 1.4 0 .5-.1 1-.1 1.5v6c0 15.9 0 31.7-.1 47.4 0 15.6 0 31 .1 45.9 0 14.9 0 29.3.1 42.9v34c0 1.5-.1 3 .2 4.5.6 2.9 2.4 5.4 4.8 6.9 1.2.8 2.5 1.3 3.8 1.6 1.3.3 2.7.2 4.1.2 5.4 0 10.6-.1 15.4-.1 9.7-.1 18.1-.1 25.1-.2h4.9c1.5-.1 3-.5 4.1-1.1 1.2-.6 2.1-1.5 2.9-2.3.7-.9 1.3-1.8 1.7-2.6.8-1.7 1-3.1 1.1-4.1.1-.5.1-.8.1-1.1-.1-.3-.1-.4-.1-.4z"/><path fill="#666666" d="M339.5 469.8l-30.5-1.2-30.4-1.3h-.2v-36.1l.1-35.9v-35.9l-.1-35.9v-.2h.2l60.9 9.6h.2v68.5l-.2 68.4zm0 0l-.2-68.3v-68.3l.2.2-60.9-9.8.2-.1-.1 35.9v35.9l.1 35.9v35.9l-.2-.2 30.4 1.4 30.5 1.5z"/><path fill="#666666" d="M341.4 470.9l-32-1.2-31.9-1.3h-.2v-.2-36.6l.1-36.6v-36.6l-.1-36.6v-.2h.2l63.9 9.8h.2v69.8l-.2 69.7zm-.1 0l-.2-69.5v-69.6l.2.2-63.9-10 .2-.1-.1 36.6v36.6l.1 36.6v36.6l-.2-.2 31.9 1.4 32 1.4z"/><path fill="#666666" d="M277.1 321.7l.1 7.3-.1-.1 15.8 2.3c2.6.4 5.3.7 7.9 1.2l7.9 1.2 15.8 2.4 7.9 1.2 7.9 1.1-.2.1v-6.5l.2.2-15.8-2.5-15.8-2.5-15.8-2.6c-5.3-1-10.5-1.9-15.8-2.8zm0 0c5.3.8 10.5 1.6 15.8 2.4l15.8 2.4 15.8 2.5 15.8 2.6h.2v6.9h-.2l-7.9-1.2-7.9-1.2-15.8-2.3-7.9-1.1c-2.6-.4-5.3-.8-7.9-1.2l-15.8-2.4h-.1v-.1l.1-7.3z"/><g fill="#666666"><path d="M332.2 306.1s-7.7-1.5-21.2-4.1c-6.7-1.3-14.9-2.9-24.3-4.7-2.3-.4-4.9-.1-7 1.4-2.1 1.4-3.4 3.9-3.6 6.6-.1 5.3 0 11 0 16.9 0 11.8 0 24.5-.1 38 0 13.5-.1 27.7-.1 42.4s-.1 29.9-.1 45.4v35c0 2 .4 3.9 1.2 5.7.4.9.9 1.7 1.5 2.5s1.3 1.4 2.1 1.9c1.6 1.1 3.6 1.3 5.6 1.3h46l.7-.1c1.9-.3 3.6-1.1 5.1-2.2 3-2.3 4.8-6 4.7-9.7V460v-80.5c.1-23.6.1-43.2.1-56.9 0-1.7.1-3.3-.1-4.9-.2-1.5-.7-2.9-1.2-4.1-1.2-2.4-2.8-4.1-4.2-5.2-1.5-1.1-2.8-1.7-3.7-1.9-.4-.2-.8-.2-1-.3-.2-.1-.4-.1-.4-.1zm0 0s.1 0 .4.1c.2.1.6.1 1 .3.9.3 2.2.9 3.7 1.9 1.5 1.1 3.1 2.8 4.3 5.2.6 1.2 1.1 2.6 1.3 4.1.2 1.5.1 3.2.1 4.9 0 13.7.1 33.4.1 56.9v102.9c.1 3.9-1.8 7.7-4.9 10.1-1.6 1.2-3.4 2-5.4 2.3l-.7.1h-46c-1.9.1-4-.2-5.7-1.3-.9-.5-1.6-1.2-2.2-2-.6-.8-1.1-1.6-1.5-2.5-.8-1.8-1.2-3.8-1.2-5.8v-11.8c0-7.8.1-15.6.1-23.3v-45.4-42.4c0-13.5.1-26.3.1-38 0-5.9 0-11.5.1-16.9.2-2.7 1.6-5.3 3.7-6.7 2.1-1.5 4.8-1.8 7.2-1.4 9.4 1.8 17.6 3.4 24.3 4.8 13.5 2.4 21.2 3.9 21.2 3.9z"/><path d="M339.5 468.7l-30.5-1.2-30.4-1.2h-.2V430.4l.1-35.7V359l-.1-35.7v-.2h.2l60.9 9.5h.2v68l-.2 68.1zm0 0l-.2-67.8v-67.8l.2.2-60.9-9.7.2-.1-.1 35.7v35.7l.1 35.7v35.7l-.2-.2 30.4 1.3 30.5 1.3z"/></g><path fill="#666666" d="M317.6 482.1v.5c0 .3 0 .7-.1 1.3-.1.5-.3 1.2-.6 1.9s-.8 1.5-1.5 2.1c-.7.7-1.7 1.2-2.8 1.4-.3 0-.6.1-.9 0-.3 0-.6 0-.8-.1-.6-.1-1.1-.4-1.6-.7-1-.6-1.8-1.6-2.4-2.7-.6-1.1-.9-2.4-.9-3.6 0-1.2.2-2.6.8-3.7.5-1.1 1.4-2.1 2.5-2.8 1-.7 2.3-.9 3.4-.7 1.2.2 2.1.7 2.8 1.4.7.7 1.2 1.4 1.5 2.1.3.7.5 1.4.6 1.9.1.5.1 1 .1 1.3-.1.2-.1.4-.1.4zm-.1 0v-.4c0-.3-.1-.7-.2-1.2s-.3-1.2-.7-1.8c-.4-.7-.9-1.3-1.6-1.9-.7-.6-1.6-1-2.6-1.2-1-.2-2.1.1-3.1.6-1 .6-1.8 1.5-2.3 2.5-.6 1.1-.9 2.3-.9 3.5 0 1.2.2 2.5.8 3.6.5 1.1 1.4 2 2.4 2.6 1 .6 2.2.7 3.1.6 1-.2 1.9-.6 2.6-1.2.7-.6 1.2-1.3 1.6-1.9.3-.7.6-1.3.7-1.8.1-.5.2-1 .2-1.2v-.8zM269.9 332h-.3c-.2 0-.5-.2-.7-.4-.3-.3-.5-.7-.6-1.2 0-.5-.1-1.1-.1-1.7-.1-1.3 0-2.7.1-4.3 0-.8.1-1.6.1-2.4 0-.8.6-1.8 1.6-1.8s1.7.9 1.7 1.8V328.7c0 .6-.1 1.2-.1 1.7s-.3 1-.6 1.2c-.3.3-.6.4-.8.4h-.3zm0 0h.3c.2 0 .5-.2.7-.4.2-.3.4-.7.4-1.2s-.1-1.1-.1-1.7c0-.6-.1-1.3 0-2v-2.3-2.4c0-.7-.5-1.5-1.3-1.6-.4 0-.8.2-1 .5-.3.3-.4.7-.4 1.1 0 .8 0 1.6.1 2.4.1 1.6.1 3 .1 4.3 0 .6-.1 1.2-.1 1.7s.2.9.4 1.2c.2.3.5.4.7.4h.2z"/><path fill="#666666" d="M270.3 330.2v.3c0 .2-.2.4-.4.6-.3.2-.7.3-1.2 0-.2-.1-.4-.3-.5-.6-.1-.3-.1-.5-.1-.8-.1-1.1 0-2.4.1-3.7.1-1.4.1-2.8 0-4.2 0-.4.2-.8.6-1 .4-.2.9-.2 1.2 0 .4.2.6.7.5 1.1v4.8c-.1 1.1-.1 2-.2 2.6v.9zm0 0v-1c0-.6-.1-1.5-.2-2.6 0-.5-.1-1.1 0-1.8v-2-1c0-.3-.1-.6-.3-.7-.4-.4-1.3 0-1.3.6-.1 1.4-.1 2.9 0 4.2.1 1.4.1 2.6.1 3.7 0 .3-.1.5 0 .7 0 .2.2.4.3.5.3.2.7.2 1 .1.3-.2.4-.4.4-.5v-.2zM270.1 346.4h-.2c-.1 0-.4-.1-.6-.2-.5-.2-1.2-.8-1.6-1.7-.2-.5-.3-1-.4-1.6 0-.6.1-1.2.2-1.8.2-.6.5-1.2.9-1.6.4-.5 1-.8 1.7-.9.7 0 1.4.3 1.8.8.5.5.8 1.1.9 1.7.2.6.2 1.2.2 1.8 0 .6-.2 1.1-.4 1.6-.4.9-1.1 1.5-1.7 1.7-.3.1-.5.1-.6.2h-.2zm0 0s.3 0 .8-.2 1-.9 1.3-1.7c.1-.4.2-.9.3-1.4 0-.5 0-1.1-.2-1.6-.1-.6-.4-1.1-.7-1.5-.4-.4-.9-.8-1.5-.8s-1.2.3-1.6.7c-.4.5-.7 1-.8 1.6-.1.6-.1 1.1-.1 1.7 0 .5.2 1 .3 1.4.3.9.8 1.5 1.3 1.7.5.1.9 0 .9.1z"/><path fill="#666666" d="M272 342.5v.7c-.1.5-.2 1.2-.7 1.9-.3.3-.7.6-1.2.7-.5.1-1.1-.1-1.5-.4-.4-.3-.7-.8-.9-1.3-.2-.5-.3-1-.4-1.6-.1-1.1.3-2.3 1.2-3 .4-.3 1.1-.5 1.6-.4.6.1.9.4 1.2.8.5.7.6 1.4.7 1.9.1.4 0 .7 0 .7zm0 0v-.2c0-.1 0-.3-.1-.5-.1-.4-.4-1.1-.9-1.6-.3-.3-.6-.5-1-.5-.4-.1-.8 0-1.2.3-.4.3-.7.6-.9 1.1-.2.5-.3 1-.4 1.5 0 .5 0 1.1.2 1.5.2.5.5.9.9 1.1.4.3.9.3 1.3.2.4-.1.7-.3 1-.6.6-.5.8-1.2.9-1.6.1-.2.1-.4.1-.5.1-.1.1-.2.1-.2zM270.1 362.4h-.2c-.1 0-.4-.1-.6-.2-.5-.2-1.2-.8-1.6-1.7-.2-.5-.3-1-.4-1.6 0-.6.1-1.2.2-1.8.2-.6.5-1.2.9-1.6.4-.5 1-.8 1.7-.9.7 0 1.4.3 1.8.8.5.5.8 1.1.9 1.7.2.6.2 1.2.2 1.8 0 .6-.2 1.1-.4 1.6-.4.9-1.1 1.5-1.7 1.7-.3.1-.5.1-.6.2h-.2zm0 0s.3 0 .8-.2 1-.9 1.3-1.7c.1-.4.2-.9.3-1.4 0-.5 0-1.1-.2-1.6-.1-.6-.4-1.1-.7-1.5-.4-.4-.9-.8-1.5-.8s-1.2.3-1.6.7c-.4.5-.7 1-.8 1.6-.1.6-.1 1.1-.1 1.7 0 .5.2 1 .3 1.4.3.9.8 1.5 1.3 1.7.5.1.9.1.9.1z"/><path fill="#666666" d="M272 358.5v.7c-.1.5-.2 1.2-.7 1.9-.3.3-.7.6-1.2.7-.5.1-1.1-.1-1.5-.4-.4-.3-.7-.8-.9-1.3-.2-.5-.3-1-.4-1.6-.1-1.1.3-2.3 1.2-3 .4-.3 1.1-.5 1.6-.4.6.1.9.4 1.2.8.5.7.6 1.4.7 1.9.1.5 0 .7 0 .7zm0 0v-.2c0-.1 0-.3-.1-.5-.1-.4-.4-1.1-.9-1.6-.3-.3-.6-.5-1-.5-.4-.1-.8 0-1.2.3-.4.3-.7.6-.9 1.1-.2.5-.3 1-.4 1.5 0 .5 0 1.1.2 1.5.2.5.5.9.9 1.1.4.3.9.3 1.3.2.4-.1.7-.3 1-.6.6-.5.8-1.2.9-1.6.1-.2.1-.4.1-.5.1-.1.1-.2.1-.2zM317.1 318.9s0 .1-.1.3c-.1.2-.3.5-.6.8-.2.1-.4.2-.7.3-.3 0-.6 0-.9-.1-.6-.1-1.3-.2-2-.3-1.5-.3-3.2-.7-5-1.1-.9-.2-1.8-.4-2.8-.7-.2-.1-.5-.1-.7-.2-.3-.1-.5-.3-.6-.5-.3-.4-.4-1-.3-1.5.1-.5.4-1 .9-1.3.2-.1.5-.2.8-.2.3 0 .5.1.8.1 1 .2 1.9.4 2.8.6.9.2 1.8.4 2.6.6.8.2 1.6.4 2.3.5.7.2 1.4.4 2 .5.3.1.6.1.8.3.2.1.4.3.5.5.2.4.3.8.2 1v.4zm-.1 0v-.4c0-.2 0-.6-.3-.9-.1-.2-.3-.4-.5-.5-.2-.1-.5-.1-.8-.2-.6-.1-1.3-.2-2-.3-.7-.1-1.5-.3-2.4-.5-.8-.2-1.7-.4-2.6-.6-.9-.2-1.9-.4-2.8-.6-.5-.1-.9-.2-1.3 0s-.7.6-.8 1.1c-.1.4 0 1 .2 1.3.1.2.3.3.5.4.2.1.5.1.7.2 1 .2 1.9.4 2.8.5 1.8.3 3.6.6 5 1 .7.2 1.4.4 2 .5.3.1.6.2.8.2.3 0 .5-.1.7-.2.4-.2.5-.5.6-.7.2-.2.2-.3.2-.3z"/><path fill="#666666" d="M317.4 318.7s0 .1-.1.3c-.1.2-.3.5-.7.7-.2.1-.4.1-.7.1-.3 0-.5-.1-.8-.1-.6-.1-1.2-.2-2-.3-1.4-.2-3.1-.6-4.8-1.1l-2.7-.6c-.4-.1-1-.1-1.4-.5-.4-.3-.6-.9-.5-1.4.1-.5.5-1 1-1.1.3-.1.5-.1.8-.1l.7.1c.9.2 1.8.4 2.7.5.9.2 1.7.4 2.6.5.8.2 1.6.4 2.3.5.7.2 1.3.4 1.9.5.3.1.6.1.8.2.3.1.4.2.6.4.3.3.4.7.4.9-.1.4-.1.5-.1.5zm0 0v-.3c0-.2-.1-.6-.4-.8-.3-.3-.8-.4-1.4-.5-.6-.1-1.2-.2-2-.3-.7-.1-1.5-.3-2.3-.4-.8-.2-1.7-.4-2.6-.5l-2.7-.6c-.5-.1-.9-.3-1.3-.1-.4.1-.8.4-.9.9-.1.4 0 .9.4 1.2.3.3.8.4 1.3.5.9.2 1.8.4 2.7.5 1.8.3 3.4.6 4.9 1 .7.2 1.3.3 1.9.5.6.2 1.1.3 1.5.1.4-.1.6-.4.7-.6.1-.5.2-.6.2-.6z"/><path fill="#666666" d="M317.4 318.7s0 .1-.1.3c-.1.2-.3.5-.7.7-.2.1-.4.1-.7.1-.3 0-.5-.1-.8-.1-.6-.1-1.2-.2-2-.3-1.4-.2-3.1-.6-4.8-1.1l-2.7-.6c-.4-.1-1-.1-1.4-.5-.4-.3-.6-.9-.5-1.4.1-.5.5-1 1-1.1.3-.1.5-.1.8-.1l.7.1c.9.2 1.8.4 2.7.5.9.2 1.7.4 2.6.5.8.2 1.6.4 2.3.5.7.2 1.3.4 1.9.5.3.1.6.1.8.2.3.1.4.2.6.4.3.3.4.7.4.9-.1.4-.1.5-.1.5zm0 0v-.3c0-.2-.1-.6-.4-.8-.3-.3-.8-.4-1.4-.5-.6-.1-1.2-.2-2-.3-.7-.1-1.5-.3-2.3-.4-.8-.2-1.7-.4-2.6-.5l-2.7-.6c-.5-.1-.9-.3-1.3-.1-.4.1-.8.4-.9.9-.1.4 0 .9.4 1.2.3.3.8.4 1.3.5.9.2 1.8.4 2.7.5 1.8.3 3.4.6 4.9 1 .7.2 1.3.3 1.9.5.6.2 1.1.3 1.5.1.4-.1.6-.4.7-.6.1-.5.2-.6.2-.6z"/><g><path fill="#666666" d="M267 317c0-.4-.1-.7-.1-1.1v-.1h.1c.6-.2 1.1-.3 1.7-.5.6-.2 1.1-.3 1.7-.4.6-.1 1.2-.2 1.7-.3.6-.1 1.1-.3 1.7-.5h.2v.2c0 .4.1.8.1 1.2v.2h-.2c-2.3.6-4.5 1.1-6.9 1.3zm0 0c2.2-.8 4.5-1.4 6.8-1.8l-.2.2c0-.4 0-.8.1-1.2l.2.1c-.6.1-1.2.2-1.7.4-.6.1-1.1.3-1.7.5-.6.2-1.1.3-1.7.5-.6.1-1.1.3-1.7.3l.1-.1c-.1.4-.1.8-.2 1.1z"/></g><g><path fill="#666666" d="M266.9 474.4c0 .4.1.7.1 1.1l-.1-.1c.6-.1 1.2-.1 1.8-.2.6 0 1.2-.1 1.8 0h1.8c.6 0 1.2-.1 1.8-.1l-.1.1v-1.1l.2.2c-2.6.2-5 .3-7.3.1zm-.1 0c2.3-.4 4.7-.5 7.1-.5h.2v.2c0 .4-.1.7-.1 1.1v.1H272.1c-.6 0-1.2.1-1.8.2-.6.1-1.2.1-1.8.1h-2v-.1c.2-.4.3-.7.3-1.1z"/></g><g><path fill="#666666" d="M281.8 328.4c-.1.1-.3.1-.4.1-.1 0-.2 0-.4-.1l-.2-.1v-.1c0-.1.1-.2.1-.3 0-.1 0-.2-.1-.3v-.1h.2c.3-.1.5-.1.7 0l.3.1v.2c0 .1 0 .4-.2.6zm-.1-.1c-.1-.2-.2-.4-.2-.6l.2.3c-.2 0-.5-.1-.7-.2l.2-.1c0 .1-.1.2-.1.3 0 .1.1.2.1.3l-.2-.2h.4c.1.1.2.1.3.2z"/><path fill="#666666" d="M282.7 328.5c-.3.1-.5.1-.7.1h-.2v-.2c0-.2.1-.3.1-.5v-.6h.2c.3-.1.5 0 .7 0h.2v.3c0 .2-.1.6-.3.9zm0-.1c-.2-.3-.2-.7-.2-1l.2.3c-.2-.1-.5-.1-.7-.2l.2-.1c-.1.2-.1.3 0 .5 0 .2.1.3.1.5l-.2-.2c.2 0 .4.1.6.2z"/><path fill="#666666" d="M283.7 328.7c-.3.1-.5.1-.7.1h-.2v-.2c0-.2 0-.5.1-.7.1-.2 0-.5 0-.7v-.1H284V328c-.1.2-.2.4-.3.7zm0-.1c-.1-.2-.2-.5-.2-.7 0-.2-.1-.5 0-.7l.2.3c-.2-.1-.5-.1-.7-.2l.2-.1c-.1.2-.1.5 0 .7.1.2.1.5.1.7l-.2-.2c.1 0 .4.1.6.2z"/><path fill="#666666" d="M284.7 328.8c-.3.1-.5.1-.7.1h-.1v-.2c0-.3 0-.6.1-.9.1-.3.1-.6 0-.9v-.1H285.1v1.1c-.2.2-.3.6-.4.9zm-.1-.1c-.1-.3-.2-.6-.2-.9v-.9l.2.2c-.2 0-.5-.1-.7-.2l.2-.1c-.1.3-.1.6 0 .9.1.3.1.6.1.9l-.2-.2.6.3z"/><path fill="#666666" d="M285.6 328.9c-.3.1-.5.1-.7.1h-.1v-.2c0-.4 0-.7.1-1.1.1-.4.1-.7 0-1.1v-.1H286v.2c0 .7-.1 1.4-.4 2.2zm0 0c-.2-.7-.3-1.5-.2-2.2l.2.2c-.2 0-.5-.1-.7-.2l.2-.1c-.1.4-.1.7 0 1.1.1.4.1.7 0 1.1l-.2-.2c.3.1.5.1.7.3z"/><path fill="#666666" d="M286.6 329c-.3.1-.5.1-.7.1h-.1v-.2-.7c0-.2 0-.4.1-.7.1-.4.1-.9 0-1.3v-.1H287v.2c0 .4.1.9 0 1.3-.2.5-.2 1-.4 1.4zm0 0c-.1-.4-.2-.9-.2-1.3v-1.3l.2.2c-.2-.1-.5-.1-.7-.2l.2-.1c-.1.4-.1.9 0 1.3 0 .2.1.4.1.7v.7l-.2-.2c.1 0 .4.1.6.2z"/></g><g><path fill="#666666" d="M311.1 330.6c-.1.1-.2.2-.3.2l-.1.1-.1-.2-.1-.2-.1-.1.2-.1c.1-.1.3-.1.4-.2h.2c.1 0 .2 0 .2.1l.2.1v.1c-.1.3-.2.7-.1 1 0 .3.1.7.2 1v.3h-.8v-.2-.9c0-.5.1-.7.2-1zm0-.1c.1.3.2.6.2.9 0 .3.1.6 0 .9l-.2-.3.3.1-.3.2c0-.3.1-.7.1-1 0-.3-.1-.7-.1-1l.2.2h-.2c-.1 0-.2.1-.4.1l.1-.2v.2l-.2-.1h.5z"/><g fill="#666666"><path d="M313 332.6c-.1-.2-.1-.4-.1-.6l.1.2c-.3 0-.7 0-1-.1h-.2v-.2V331.6c.2-.2.4-.3.5-.5.2-.2.3-.4.4-.6h.5v.2c0 .4.1.8.1 1.3l-.2-.3.3.1h.2v.7l-.2-.1-.3-.1.2-.2c0 .2-.1.4-.1.6v.1h-.1c.1-.1 0-.1-.1-.2zm0 0h.2l-.1.1c0-.2-.1-.4-.1-.6v-.2h.6l-.3.2v-.2l.2.2h-.5v-.2c0-.4 0-.8.1-1.3l.2.2-.3-.1h.1c-.2.2-.4.3-.5.5-.1.2-.3.4-.4.6v-.1.2l-.2-.2c.3 0 .6.1 1 .2h.2v.1c-.1.2-.1.4-.2.6z"/><path d="M312.9 331.7c-.1-.1-.1-.3-.2-.4 0-.2.1-.3.1-.5l.1.1h.1c-.1.1-.1.2-.2.3 0 .1-.1.3-.2.4-.1.1-.1.2-.2.3l.1-.2-.2-.3c.3.1.5.2.6.3zm.1.1c-.2.1-.5.1-.7.1h-.2v-.4l.1-.1.3-.3c.1-.1.2-.2.3-.2.1-.1.2-.2.2-.3h.1v.1c.1.2.2.3.1.5 0 .3 0 .5-.2.6z"/></g><g fill="#666666"><path d="M313.8 331.4c0-.1-.1-.2 0-.3.1-.1.3 0 .3.1s.1.2.2.3c0 0 .1.2 0 .2 0 .1-.1.2-.2.2h-.2c-.1 0-.1-.1-.1-.1-.1-.2-.1-.2 0-.4 0 .1 0 0 0 0zm0 0s0 .1 0 0c.1.1.1.1.2 0v.1h.1c.1 0 0-.1 0-.1-.1.1 0 .1 0 0h-.3zM313.8 332.5c0-.1-.1-.2 0-.3.1-.1.1-.1.2 0l.1.1c0 .1.1.2.2.3 0 0 .1.2 0 .2 0 .1-.1.2-.2.2h-.2c-.1 0-.1-.1-.2-.1 0-.2 0-.3.1-.4 0 .1 0 0 0 0zm0 0s0 .1 0 0c.1.1.1.1.2 0v.1h.1c.1 0 0-.1 0-.1v.1c-.1-.1-.2-.1-.3-.1z"/></g><path fill="#666666" d="M314.4 332.8v-.2c.1-.2.3-.3.5-.5.1-.2.3-.3.3-.5 0-.1 0-.3-.1-.3-.1-.1-.3-.1-.5 0l-.1.1v-.1c0-.1 0-.1-.1-.2v-.1h.1c.3-.1.5-.2.8-.1.3.1.5.3.6.6.1.3-.1.7-.3.9-.2.2-.4.4-.6.5l.1-.2-.2-.3c.3 0 .6.1.9.2l.2.1v.7h-.2c-.5-.3-.9-.4-1.4-.6zm.1 0h1.3l-.2.2v-.2l.2.2c-.3 0-.6-.1-.9-.1l-.4-.1.1-.2v-.1l.1-.1c.2-.2.4-.3.6-.4.2-.2.3-.3.3-.5s-.1-.4-.3-.5c-.2-.1-.5-.1-.7.1v-.1c0 .1.1.1.1.2l-.2-.1c.2-.2.5-.2.8-.1.2.1.3.2.3.4v.2c0 .1 0 .2-.1.2-.1.3-.3.4-.5.6-.1.1-.3.2-.5.4v-.1.1z"/><path fill="#666666" d="M317.3 331.5h-.8l.2-.1v.5l-.2-.2c.1 0 .3 0 .4.1.1 0 .1.1.2.1.1.1.1.1.2.1.1.1.2.3.2.4v.5c-.1.3-.4.4-.7.4-.3 0-.5-.1-.8-.2h-.1v-.1l.1-.2v-.2l.2.1c.1 0 .2.1.2.1h.2c.1 0 .2-.1.2-.2v-.1l-.1-.1c-.1 0-.1 0-.2-.1h-.5v-.3c.1-.3.1-.6.2-.9l.1-.2h.2c.3.1.7.2 1 .3h.1l-.3.3zm0-.1v-.2l.1.1h-1l.2-.2c0 .3 0 .6-.1 1l-.2-.3H316.6c.1 0 .2 0 .4.1.1.1.2.1.3.3.1.1.1.3.1.4 0 .1-.1.3-.2.4-.1.1-.3.1-.4.1-.1 0-.2 0-.3-.1-.1 0-.2-.1-.3-.2l.2-.1-.1.2v-.1c.2.1.4.2.6.2.2 0 .4-.2.4-.4v-.3c0-.1-.1-.1-.2-.2l-.1-.1s-.1 0-.1-.1c-.1 0-.2 0-.3-.1h-.2v-.2c0-.2.1-.3.1-.5l.1-.2h.1c.1.3.3.4.6.5z"/></g><g><g fill="#666666"><path d="M335.6 334.3v-.4l.1.1c-.6 0-1.2-.1-1.8-.1-.6-.1-1.2-.2-1.7-.4l.2-.1c-.1.6-.1 1.3-.1 2l-.1-.1c.6 0 1.2.1 1.8.2.6.1 1.2.1 1.8.2l-.3.3v-.7h.3c.2 0 .5.1.7.2l-.3.2c0-.4.1-.8.1-1.2l.1.1c-.3-.1-.5-.2-.8-.3zm.1 0H336.5v.1c0 .4.1.8.1 1.2v.2h-.3c-.3 0-.5 0-.8-.1l.3-.2v.7h-.3c-.6-.1-1.2-.2-1.7-.3-.6-.1-1.2-.3-1.7-.4h-.1v-.1c.1-.7.1-1.3 0-2v-.1h.2c.6 0 1.2.1 1.8.2.6.1 1.2.2 1.7.4h.1v.1c-.1 0-.1.2-.1.3z"/><path d="M335.2 335.3c-.4.1-.8 0-1.3 0-.4 0-.8-.2-1.2-.3h-.1v-.1-1.1h.2c.8 0 1.7.1 2.5.3l.2.1v.2l-.3.9zm-.1 0c-.1-.3-.1-.6-.1-.9l.2.2c-.8 0-1.7-.2-2.5-.5l.2-.1c-.1.3-.1.6-.1 1l-.1-.1c.4 0 .8 0 1.3.1.4 0 .8.1 1.1.3z"/></g></g><g><path fill="#666666" d="M329.7 333.3h-.7l.2-.2c.1.5.1.9 0 1.4l-.1-.2c.2.1.4.2.7.2.3.3.6.5.9.7l-.3.1c-.1-.4-.1-.8-.1-1.2 0-.4 0-.8.1-1.3l.3.2c-.4.1-.7.2-1 .3zm0-.1c.2-.2.5-.4.8-.6l.2-.2v.3c0 .4.1.8.1 1.2 0 .4 0 .8-.1 1.3l-.1.4-.2-.3c-.2-.3-.5-.6-.8-.8H328.8v-.2c-.1-.5 0-.9 0-1.4v-.2l.2.1c.2.2.4.3.7.4z"/></g><g><circle opacity=".33" fill="#FFF" cx="274.8" cy="450.8" r="18.9"/><circle opacity=".33" fill="#FFF" cx="326.8" cy="398.7" r="18.9"/><circle opacity=".33" fill="#FFF" cx="275.1" cy="347" r="19.1"/><path fill="#FFF" d="M311.7 398.7c-.7 4.7-1.9 9.3-3.8 13.6-1 2.2-2.1 4.2-3.4 6.2-.7 1-1.4 1.9-2.1 2.8-.8.9-1.5 1.8-2.4 2.6l-1.3 1.2-1.4 1.2-1.4 1.1-1.5 1c-1 .7-2 1.3-3 1.8-1 .6-2.1 1.1-3.2 1.6s-2.2.9-3.3 1.3c-1.1.4-2.2.7-3.4 1.1-1.1.3-2.3.6-3.4.8-1.2.2-2.3.5-3.5.6v-.4c1.8 0 3.6.2 5.3.8.4.1.8.3 1.3.5l1.2.6 1.1.7.6.4c.2.2.4.3.5.4l1 .9.3.2c.1.1.2.2.2.3l.5.5c.6.7 1.2 1.4 1.6 2.1 1 1.5 1.7 3.2 1.9 5l.3 2.3.1.9h-.5c.2-1.2.4-2.3.6-3.5.2-1.2.5-2.3.9-3.4.7-2.3 1.5-4.5 2.5-6.6 1-2.1 2.2-4.2 3.6-6.1.7-1 1.4-1.9 2.2-2.8.8-.9 1.6-1.8 2.4-2.6l1.3-1.2 1.3-1.2 1.4-1.1 1.4-1c1-.7 2-1.3 3-1.9 1-.6 2.1-1.1 3.1-1.6 1.1-.5 2.2-.9 3.3-1.3 1.1-.4 2.2-.8 3.4-1.1 1.1-.3 2.3-.6 3.4-.8 1.2-.2 2.3-.4 3.5-.5v.3c-2 0-4.1-.3-6-1.1-.5-.2-.9-.4-1.4-.6l-1.3-.8-.6-.4-.6-.5-1.1-1c-1.4-1.4-2.6-3.2-3.4-5.1-.4-.9-.7-1.9-.8-2.9-.3-1.3-.3-2.3-.4-3.3.1 1 .2 2 .4 3s.5 2 .9 2.9c.8 1.9 2 3.6 3.4 5l1.2 1 .6.5.6.4 1.3.8c.5.2.9.4 1.4.6 1.9.7 3.9 1.1 5.9 1.1v.3c-1.2.1-2.3.3-3.5.6-1.1.2-2.3.5-3.4.8-1.1.3-2.2.7-3.3 1.1-1.1.4-2.2.9-3.2 1.3-1.1.5-2.1 1-3.1 1.6-1 .6-2 1.2-3 1.9l-1.4 1-1.4 1.1-1.3 1.1-1.3 1.2c-.8.8-1.6 1.7-2.4 2.6-.7.9-1.5 1.8-2.1 2.8-1.3 1.9-2.5 3.9-3.5 6.1-1 2.1-1.8 4.3-2.5 6.6-.3 1.1-.6 2.3-.8 3.4-.2 1.1-.4 2.3-.6 3.5l-.2 1.7-.3-1.7-.1-.9-.3-2.2c-.2-1.7-.9-3.4-1.8-4.8-.5-.7-1-1.4-1.6-2.1l-.4-.5-.2-.2-.3-.2-1-.9c-.2-.1-.4-.3-.5-.4l-.6-.4-1.1-.7c-.3-.2-.8-.4-1.2-.6-.4-.2-.8-.3-1.2-.5-1.7-.6-3.4-.8-5.1-.8v-.4c1.2-.2 2.3-.4 3.5-.6 1.1-.2 2.3-.5 3.4-.8 1.1-.3 2.3-.7 3.4-1 1.1-.4 2.2-.8 3.3-1.3 1.1-.5 2.1-1 3.2-1.5l3-1.8 1.4-1 1.4-1.1 1.3-1.1 1.3-1.2c.8-.8 1.6-1.7 2.4-2.6.7-.9 1.5-1.8 2.1-2.8 1.3-1.9 2.5-4 3.5-6.1 1.8-4.6 3-9.2 3.8-13.8zM267 437.7c-1.1.7-2 1.6-2.9 2.5s-1.6 2-2.2 3.1c-1.2 2.2-1.8 4.8-1.8 7.3h-.5c0-1.3.2-2.6.5-3.9.2-.6.4-1.2.6-1.9.1-.3.3-.6.4-.9.1-.3.3-.6.5-.9l1.1-1.6 1.3-1.4.7-.7c.2-.2.5-.4.7-.6.5-.2 1-.6 1.6-1l-1.5 1.2c-.2.2-.5.4-.7.7-.2.2-.4.4-.6.7l-1.2 1.5-1 1.6c-.2.3-.3.5-.4.8-.1.3-.3.6-.4.9l-.6 1.8c-.3 1.2-.5 2.5-.5 3.8h-.5c0-2.6.7-5.2 2-7.5.7-1.1 1.4-2.2 2.4-3.1.9-.9 1.9-1.7 3-2.4z"/><path fill="#FFF" d="M274.8 435.4c-1.3.2-2.5.5-3.7.8l-.1-.5 1-.2c.8-.1 1.5-.1 2.3-.1h.5c-.2.1-.4.1-.6.2-.7.2-1.5.3-2.2.4l-.9.2-.1-.5c.6-.2 1.3-.3 1.9-.3.6-.1 1.3-.1 1.9 0z"/><path fill="#FFF" d="M275 435.4h-.3l-.6.1-2.2.3c-.3.1-.7.1-1 .2-.3.1-.7.2-1 .3-.7.2-1.3.5-1.9.9-1.3.7-2.4 1.6-3.4 2.6-.5.5-.9 1.1-1.4 1.6-.1.1-.3.3-.3.4l-.3.5-.6.9c-.4.6-.7 1.2-.9 1.9-.3.7-.5 1.3-.6 2-.8 2.8-.7 5.7.2 8.4.2.7.5 1.3.8 2 .3.6.7 1.2 1.1 1.8l.1.2.1.1.1.1.4.4.7.8c.5.6 1 1 1.5 1.5l-.1-.1h.2c1.3 1.1 2.8 1.9 4.3 2.5.8.3 1.6.5 2.4.6s1.7.2 2.5.3c2 0 4-.3 5.9-1.1.5-.2.9-.4 1.4-.6l1.3-.8.6-.4.6-.5 1.2-1c.3-.3.7-.7 1-1.1l.9-1.2c.6-.8 1.1-1.7 1.4-2.6.4-.9.7-1.9.9-2.9s.2-2 .4-3l-.1-.9-.3-2.2c-.2-1.7-.9-3.3-1.8-4.8-.5-.7-1-1.4-1.6-2.1-.3-.3-.6-.7-.9-.9l-1-.9-.5-.4c-.1-.1-.4-.2-.5-.4l-1.1-.7c-.4-.2-.7-.4-1.1-.6-.4-.2-.8-.3-1.2-.5-1.8-.4-3.5-.7-5.3-.7 1.7 0 3.5.3 5.1.8.4.1.8.3 1.2.5l1.2.6 1.1.7c.2.1.4.2.6.4l.5.4 1 .8c.4.3.6.6.9.9.6.7 1.1 1.3 1.6 2.1 1 1.5 1.7 3.1 1.9 4.9l.3 2.2.1.9c-.1 1-.2 2-.4 3s-.5 2-.9 3c-.4.9-.9 1.9-1.5 2.7l-.9 1.2s-.7.8-1 1.1l-1.2 1c-.2.2-.4.3-.6.5l-.6.4-1.3.8c-.5.2-.9.5-1.4.6-1.9.8-4 1.2-6 1.1-.8-.1-1.7-.2-2.5-.3-.8-.2-1.7-.4-2.5-.7-1.6-.6-3.1-1.5-4.4-2.6h.1-.1l-.1-.1c-.5-.5-1.1-1-1.6-1.5l-.7-.8-.3-.1-.1-.1-.1-.1-.1-.2c-.4-.6-.8-1.2-1.1-1.9-.3-.6-.6-1.3-.8-2-.9-2.8-1-5.8-.3-8.6.2-.7.4-1.4.7-2.1.3-.7.6-1.3 1-1.9l.6-.9.3-.5c.1-.2.2-.3.4-.4.5-.5.9-1.1 1.4-1.6 1-1 2.2-1.9 3.5-2.5.6-.3 1.3-.6 2-.9.3-.1.7-.2 1-.3.4-.1.7-.1 1.1-.2l2.2-.3h.7zM342.2 398.8c0 2-.3 4.1-1.1 6-.2.5-.4.9-.7 1.4l-.8 1.3-.2.3c-.1.2-.2.2-.2.3l-.5.6c-.3.4-.6.8-1 1.2-.4.4-.7.7-1.1 1l-1.2.9c-.9.6-1.8 1-2.7 1.4-1 .4-2 .7-3 .8-.5.1-1 .1-1.5.2l-1.5.2v-.5c2 0 4-.3 5.9-1 .9-.4 1.8-.8 2.7-1.4.8-.5 1.6-1.2 2.4-1.9.4-.3.7-.7 1-1.1l.9-1.2c.6-.8 1.1-1.7 1.5-2.6.6-1.8 1.1-3.9 1.1-5.9 0 2-.3 4.1-1.1 6-.4 1-.9 1.9-1.4 2.7l-.9 1.2c-.3.4-.7.8-1 1.1-.7.7-1.5 1.4-2.4 2-.9.6-1.8 1-2.7 1.4-1.9.8-4 1.1-6.1 1.1v-.5l1.5-.2c.5-.1 1-.1 1.5-.2 1-.2 2-.4 2.9-.8.9-.4 1.8-.8 2.7-1.4l1.2-.9c.4-.3.8-.6 1.1-1 .3-.3.7-.7 1-1.1l.5-.6c.1-.1.2-.2.2-.3l.2-.3.8-1.3c.3-.4.5-.9.7-1.3.8-1.6 1.3-3.6 1.3-5.6zM275 331.7c-3.1 0-6.2 1-8.8 2.8l-1.8 1.5c-.6.5-1.1 1.1-1.5 1.8-.5.6-.9 1.3-1.3 2s-.7 1.4-.9 2.1c-.3.7-.5 1.5-.6 2.3-.1.4-.1.8-.2 1.2 0 .4-.1.8-.1 1.2 0 .8 0 1.6.1 2.3.1.8.3 1.5.5 2.3.3.6.5 1.3.8 2 .3.7.7 1.3 1.2 2l.3.5.1.1s0 .1 0 0v.1l.3.3.8.9c.5.6 1 1.1 1.7 1.6h-.1.1c2.1 1.7 4.7 2.9 7.4 3.2 1.4.1 2.8.3 4.1.5 1.4.2 2.7.5 4.1.9 1.3.4 2.7.8 4 1.2 1.3.5 2.6 1 3.8 1.6 1.3.6 2.5 1.3 3.7 2 1.2.7 2.3 1.5 3.4 2.4 1.1.8 2.2 1.7 3.2 2.7l1.5 1.5c.5.5.9 1 1.4 1.5.9 1.1 1.8 2.2 2.6 3.3.8 1.2 1.5 2.3 2.2 3.5.7 1.2 1.3 2.5 1.8 3.7.6 1.3 1 2.6 1.5 3.9.4 1.3.8 2.7 1.1 4 .3 1.4.5 2.7.7 4.1h-.5l.1-.9.3-2.3c.2-1.8.9-3.4 1.9-4.9.5-.7 1-1.4 1.6-2.1.3-.3.6-.6.9-1l1-.8.5-.4c.1-.1.1-.1.3-.2l.3-.2 1.1-.7c.2-.1.3-.2.6-.3l.6-.3c.4-.2.8-.4 1.2-.5 1.6-.6 3.4-.9 5.1-.9v.4c-4.7-.8-9.3-2-13.6-4-2.2-1-4.2-2.2-6.2-3.5-1-.7-1.9-1.4-2.8-2.2s-1.8-1.6-2.6-2.4-1.6-1.8-2.3-2.7-1.4-1.9-2.1-2.9c-.6-1-1.2-2-1.8-3.1-.5-1.1-1.1-2.1-1.5-3.2-.5-1.1-.9-2.2-1.3-3.3-.4-1.1-.7-2.3-1-3.4-.3-1.2-.6-2.3-.8-3.5-.2-1.2-.4-2.3-.6-3.5l-.3-2.2c-.2-1.7-.9-3.4-1.8-4.8-.5-.7-1-1.4-1.6-2.1-.3-.3-.6-.7-.9-.9l-1-.9c-.3-.3-.6-.6-1-.8l-1.1-.7c-.4-.2-.8-.4-1.1-.6-.4-.2-.8-.3-1.2-.5-2-.4-3.7-.7-5.5-.7 1.7 0 3.5.3 5.1.9.4.1.8.3 1.2.5l1.2.6 1.1.7c.4.2.7.5 1 .8l1 .8.9.9c.6.6 1.1 1.3 1.6 2.1 1 1.5 1.6 3.1 1.9 4.9l.3 2.2c.2 1.2.4 2.3.6 3.5.2 1.2.5 2.3.8 3.5.3 1.1.7 2.3 1 3.4.4 1.1.8 2.2 1.3 3.3.5 1.1 1 2.1 1.5 3.2.6 1 1.2 2.1 1.8 3 .7 1 1.3 1.9 2.1 2.9.7.9 1.5 1.8 2.3 2.7.8.8 1.7 1.6 2.6 2.4s1.8 1.5 2.8 2.1c1.9 1.3 4 2.5 6.2 3.5 4.3 2 8.9 3.2 13.6 4v.4c-1.7 0-3.4.3-5 .9-.4.1-.8.3-1.2.5l-.6.3c-.1.1-.4.2-.5.3l-1.1.7-.3.2s-.2.1-.2.2l-.5.4-1 .8-.9.9c-.6.6-1.1 1.3-1.5 2-.9 1.4-1.6 3-1.8 4.7l-.3 2.2-.1.9-.3 1.7-.2-1.7c-.2-1.4-.4-2.7-.7-4.1-.3-1.3-.7-2.7-1.1-4-.4-1.3-.9-2.6-1.4-3.9-.5-1.3-1.1-2.5-1.8-3.7-.7-1.2-1.4-2.4-2.2-3.5-.8-1.1-1.6-2.2-2.5-3.3-.4-.5-.9-1-1.4-1.5l-1.5-1.5c-1-1-2.1-1.8-3.1-2.7-1.1-.8-2.2-1.6-3.4-2.3-1.2-.7-2.4-1.4-3.6-2-1.2-.6-2.5-1.2-3.8-1.6-1.3-.5-2.6-.9-3.9-1.3-1.3-.4-2.7-.6-4-.9-1.4-.2-2.7-.4-4.1-.5-2.8-.3-5.4-1.5-7.6-3.3h.1-.1c-.6-.5-1.2-1.1-1.7-1.7l-.8-.9-.1-.2v-.1c0-.1 0-.1-.1-.1l-.1-.1-.3-.5c-.4-.7-.9-1.3-1.2-2.1-.3-.7-.6-1.5-.8-2.2-.2-.8-.4-1.5-.5-2.3 0-.7-.1-1.5 0-2.3 0-.4 0-.8.1-1.2 0-.4.1-.8.2-1.2.1-.8.4-1.5.6-2.3.3-.7.6-1.5 1-2.2.4-.7.8-1.3 1.3-2 .5-.6 1-1.2 1.6-1.8l1.8-1.5c2.6-1.6 5.7-2.5 8.7-2.5z"/><path fill="#FFF" d="M326.8 383.4c-1.7 0-3.4.4-5 1-.4.2-.8.3-1.2.5-.4.2-.8.4-1.1.6l-1.1.7c-.4.2-.7.5-1 .8l-1 .9-.9.9c-.6.6-1.1 1.3-1.5 2-.9 1.4-1.6 3.1-1.8 4.7l-.3 2.2-.1.9c.1 1 .2 2 .4 2.9.2 1 .4 1.9.8 2.8.7 1.8 1.8 3.5 3.2 4.9.3.3.7.6 1.1 1l.6.5.3.2.3.2 1.3.8.3.2c.1 0 .2.1.3.2.2.1.4.2.7.3 1.8.8 3.7 1.2 5.7 1.2l2.8-.3c.9-.1 1.8-.3 2.7-.7 1.7-.6 3.4-1.6 4.8-2.8l.5-.5.3-.2c.1 0 .1-.2.2-.2l.9-1.1c.1-.2.3-.4.4-.5l.2-.5.8-1.2c.9-1.6 1.4-3.4 1.7-5.3.2-1.8.1-3.7-.4-5.5-.2-.9-.6-1.8-.9-2.6l-.3-.6-.4-.6-.8-1.2c-.6-.7-1.2-1.5-1.8-2.1-.7-.7-1.4-1.3-2.2-1.8-1.5-1.1-3.3-1.9-5.1-2.1l-2.2-.3-1.2-.3 1.1.2 2.2.3c1.9.2 3.7 1 5.2 2 .8.5 1.5 1.1 2.2 1.8s1.3 1.4 1.9 2.1l.8 1.2.4.6.3.6c.4.9.7 1.8 1 2.7.5 1.8.6 3.8.4 5.7-.2 1.9-.8 3.7-1.7 5.4l-.7 1.2-.4.6c-.2.2-.3.4-.5.6l-.9 1.1c-.1.1-.1.2-.2.3l-.3.2c-.2.2-.4.3-.5.5-1.4 1.3-3.1 2.3-4.9 2.9-.9.3-1.8.6-2.8.7l-2.8.3c-2-.1-4-.5-5.8-1.3-.2-.1-.5-.2-.7-.3-.1-.1-.2-.1-.3-.2l-.3-.2-1.3-.8-.3-.2-.3-.2-.6-.5c-.4-.3-.8-.6-1.1-1-1.4-1.4-2.5-3.2-3.2-5-.4-.9-.6-1.9-.8-2.9-.2-1-.2-2-.3-3l.1-.9.3-2.2c.2-1.7.9-3.4 1.9-4.8.5-.7 1-1.4 1.6-2.1l.9-.9 1-.8c.3-.3.7-.6 1-.8l1.1-.7c.4-.2.8-.4 1.1-.6.4-.2.8-.3 1.2-.5 1.6-.7 3.3-1 5-1.1z"/><path fill="#FFF" d="M335.5 398.8v.6c0 .2 0 .4-.1.7 0 .3-.1.6-.2 1-.2.7-.5 1.6-1 2.4-.5.9-1.3 1.8-2.4 2.5-1 .7-2.4 1.2-3.8 1.4-.4 0-.7.1-1.1.1-.4 0-.7 0-1.1-.1-.8-.1-1.5-.3-2.3-.6-1.5-.6-2.8-1.7-3.7-3.1-.5-.7-.8-1.5-1.1-2.3-.2-.8-.4-1.7-.4-2.5s.1-1.7.4-2.5c.3-.8.6-1.6 1.1-2.3.9-1.4 2.3-2.5 3.7-3.1 1.5-.6 3.1-.8 4.5-.7 1.5.2 2.8.7 3.8 1.4 1.1.7 1.8 1.6 2.4 2.5.6.9.9 1.7 1 2.4.1.4.2.7.2 1 0 .3.1.5.1.7v.5zm0 0v-.6c0-.2 0-.4-.1-.7 0-.3-.1-.6-.2-.9-.2-.7-.5-1.5-1.1-2.3s-1.4-1.7-2.4-2.3c-1-.7-2.3-1.2-3.7-1.3-1.4-.1-2.9.1-4.3.7s-2.6 1.7-3.5 3c-.4.7-.8 1.4-1 2.2s-.3 1.6-.3 2.4c0 .8.1 1.6.3 2.4.2.8.6 1.5 1 2.2.9 1.3 2.1 2.4 3.5 3 .7.3 1.4.5 2.1.6.3.1.7.1 1.1.1h1.1c1.4-.2 2.7-.6 3.7-1.3 1-.7 1.8-1.5 2.4-2.3.6-.8.9-1.7 1.1-2.3.1-.3.2-.7.2-.9.1-.3.1-.5.1-.7v-1z"/><g fill="#FFF"><path d="M336.3 398.8c0 5.2-4.2 9.3-9.3 9.3-5.2 0-9.3-4.2-9.3-9.3 0-5.2 4.2-9.3 9.3-9.3 5.1 0 9.3 4.1 9.3 9.3z"/><path d="M336.3 398.8v.7c0 .2 0 .5-.1.8 0 .3-.1.7-.2 1.1-.2.8-.5 1.7-1.1 2.7-.6.9-1.5 1.9-2.6 2.7-1.2.8-2.6 1.4-4.2 1.6-.4 0-.8.1-1.2.1s-.8 0-1.2-.1c-.9-.1-1.7-.4-2.5-.7-1.6-.7-3.1-1.9-4.1-3.4-.5-.8-.9-1.6-1.2-2.5-.3-.9-.4-1.8-.4-2.8 0-.9.1-1.9.4-2.8.3-.9.7-1.7 1.2-2.5 1-1.5 2.5-2.7 4.1-3.4 1.6-.7 3.4-.9 4.9-.7 1.6.2 3 .8 4.2 1.6 1.2.8 2 1.8 2.6 2.7s.9 1.9 1.1 2.7c.1.4.2.7.2 1.1 0 .3.1.6.1.8v.3zm0 0v-.7c0-.2 0-.5-.1-.8 0-.3-.1-.7-.2-1-.2-.8-.6-1.7-1.2-2.6s-1.5-1.8-2.6-2.6c-1.1-.7-2.5-1.3-4.1-1.4-1.5-.2-3.2.1-4.7.8-1.5.7-2.9 1.8-3.9 3.3-.5.7-.9 1.5-1.1 2.4-.3.9-.4 1.7-.4 2.6s.1 1.8.4 2.6.6 1.7 1.1 2.4c1 1.5 2.4 2.6 3.9 3.3.8.3 1.6.6 2.4.7.4.1.8.1 1.2.1h1.2c1.5-.2 2.9-.7 4.1-1.4 1.1-.7 2-1.7 2.6-2.6.6-.9 1-1.8 1.2-2.6.1-.4.2-.7.2-1 .1-.3.1-.6.1-.8-.1-.5-.1-.7-.1-.7z"/></g><path fill="#FFF" d="M283.6 347v.6c0 .2 0 .4-.1.7 0 .3-.1.6-.2 1-.2.7-.5 1.6-1 2.4-.5.9-1.3 1.8-2.4 2.5-1 .7-2.4 1.2-3.8 1.4-.4 0-.7.1-1.1.1-.4 0-.7 0-1.1-.1-.8-.1-1.5-.3-2.3-.6-1.5-.6-2.8-1.7-3.7-3.1-.5-.7-.8-1.5-1.1-2.3-.2-.8-.4-1.7-.4-2.5s.1-1.7.4-2.5c.3-.8.6-1.6 1.1-2.3.9-1.4 2.3-2.5 3.7-3.1 1.5-.6 3.1-.8 4.5-.7 1.5.2 2.8.7 3.8 1.4 1.1.7 1.8 1.6 2.4 2.5s.9 1.7 1 2.4c.1.4.2.7.2 1 0 .3.1.5.1.7v.5zm0 0v-.6c0-.2 0-.4-.1-.7 0-.3-.1-.6-.2-.9-.2-.7-.5-1.5-1.1-2.3s-1.4-1.7-2.4-2.3c-1-.7-2.3-1.2-3.7-1.3s-2.9.1-4.3.7-2.6 1.7-3.5 3c-.4.7-.8 1.4-1 2.2s-.3 1.6-.3 2.4.1 1.6.3 2.4.6 1.5 1 2.2c.9 1.3 2.1 2.4 3.5 3 .7.3 1.4.5 2.1.6.3.1.7.1 1.1.1h1.1c1.4-.2 2.7-.6 3.7-1.3 1-.7 1.8-1.5 2.4-2.3s.9-1.7 1.1-2.3c.1-.3.2-.7.2-.9.1-.3.1-.5.1-.7v-1z"/><g fill="#FFF"><path d="M284.7 347c0 5.3-4.3 9.6-9.6 9.6s-9.6-4.3-9.6-9.6 4.3-9.6 9.6-9.6 9.6 4.4 9.6 9.6z"/><path d="M284.7 347v.7c0 .2 0 .5-.1.8 0 .3-.1.7-.2 1.1-.2.8-.5 1.8-1.2 2.7-.6 1-1.5 2-2.7 2.8-1.2.8-2.7 1.4-4.3 1.6-.4 0-.8.1-1.3.1-.4 0-.8 0-1.3-.1-.9-.1-1.7-.4-2.6-.7-1.7-.7-3.2-2-4.2-3.5-.5-.8-.9-1.7-1.2-2.6-.3-.9-.4-1.9-.4-2.9s.2-1.9.4-2.9c.3-.9.7-1.8 1.2-2.6 1.1-1.6 2.6-2.8 4.2-3.5 1.7-.7 3.5-.9 5.1-.7 1.7.2 3.1.8 4.3 1.6 1.2.8 2.1 1.8 2.7 2.8s1 1.9 1.2 2.7c.1.4.2.8.2 1.1 0 .3.1.6.1.8.1.4.1.7.1.7zm0 0v-.7c0-.2 0-.5-.1-.8 0-.3-.1-.7-.2-1.1-.2-.8-.6-1.7-1.3-2.7-.6-.9-1.5-1.9-2.7-2.7-1.2-.8-2.6-1.3-4.2-1.5-1.6-.2-3.3.1-4.9.8-1.6.7-3 1.9-4 3.4-.5.8-.9 1.6-1.2 2.5-.3.9-.4 1.8-.4 2.7s.1 1.8.4 2.7c.3.9.7 1.7 1.2 2.5 1 1.5 2.4 2.7 4 3.4.8.3 1.6.6 2.4.7.4.1.8.1 1.2.1h1.2c1.6-.2 3-.7 4.2-1.5 1.2-.8 2.1-1.7 2.7-2.7.7-.9 1-1.9 1.3-2.7.1-.4.2-.8.2-1.1.1-.3.1-.6.1-.8.1-.3.1-.5.1-.5z"/></g><path fill="#FFF" d="M283.6 450.8v.6c0 .2 0 .4-.1.7 0 .3-.1.6-.2 1-.2.7-.5 1.6-1 2.4-.5.9-1.3 1.8-2.4 2.5-1 .7-2.4 1.2-3.8 1.4-.4 0-.7.1-1.1.1-.4 0-.7 0-1.1-.1-.8-.1-1.5-.3-2.3-.6-1.5-.6-2.8-1.7-3.7-3.1-.5-.7-.8-1.5-1.1-2.3-.2-.8-.4-1.7-.4-2.5s.1-1.7.4-2.5c.3-.8.6-1.6 1.1-2.3.9-1.4 2.3-2.5 3.7-3.1 1.5-.6 3.1-.8 4.5-.7 1.5.2 2.8.7 3.8 1.4 1.1.7 1.8 1.6 2.4 2.5.6.9.9 1.7 1 2.4.1.4.2.7.2 1 0 .3.1.5.1.7v.5zm0 0v-.6c0-.2 0-.4-.1-.7 0-.3-.1-.6-.2-.9-.2-.7-.5-1.5-1.1-2.3s-1.4-1.7-2.4-2.3c-1-.7-2.3-1.2-3.7-1.3s-2.9.1-4.3.7-2.6 1.7-3.5 3c-.4.7-.8 1.4-1 2.2s-.3 1.6-.3 2.4c0 .8.1 1.6.3 2.4s.6 1.5 1 2.2c.9 1.3 2.1 2.4 3.5 3 .7.3 1.4.5 2.1.6.3.1.7.1 1.1.1h1.1c1.4-.2 2.7-.6 3.7-1.3s1.8-1.5 2.4-2.3.9-1.7 1.1-2.3c.1-.3.2-.7.2-.9.1-.3.1-.5.1-.7v-1z"/><g fill="#FFF"><path d="M283.9 450.8c0 4.9-3.9 8.8-8.8 8.8s-8.8-3.9-8.8-8.8 3.9-8.8 8.8-8.8 8.8 3.9 8.8 8.8z"/><path d="M283.9 450.8v.6c0 .2 0 .5-.1.7 0 .3-.1.6-.2 1-.2.7-.5 1.6-1.1 2.5-.6.9-1.4 1.8-2.5 2.6-1.1.7-2.4 1.3-4 1.5-.4 0-.8.1-1.2.1-.4 0-.8 0-1.2-.1-.8-.1-1.6-.3-2.4-.7-1.5-.7-2.9-1.8-3.9-3.3-.5-.7-.9-1.5-1.1-2.4-.3-.8-.4-1.7-.4-2.6s.1-1.8.4-2.6c.3-.8.6-1.6 1.1-2.4 1-1.5 2.4-2.6 3.9-3.3s3.2-.9 4.7-.7 2.9.8 4 1.5 1.9 1.7 2.5 2.6c.6.9.9 1.8 1.1 2.5.1.4.2.7.2 1 0 .3.1.5.1.7.1.6.1.8.1.8zm0 0v-.6c0-.2 0-.4-.1-.7 0-.3-.1-.6-.2-1-.2-.7-.6-1.6-1.2-2.4-.6-.9-1.4-1.7-2.5-2.4s-2.4-1.2-3.8-1.4c-1.5-.1-3 .1-4.5.7-1.4.6-2.7 1.7-3.7 3.1-.5.7-.8 1.5-1.1 2.3-.2.8-.3 1.6-.4 2.5 0 .8.1 1.7.4 2.5.3.8.6 1.6 1.1 2.3.9 1.4 2.2 2.5 3.7 3.1.7.3 1.5.6 2.2.7.4.1.8.1 1.1.1h1.1c1.4-.2 2.8-.7 3.8-1.4 1.1-.7 1.9-1.6 2.5-2.4.6-.9.9-1.7 1.2-2.4.1-.4.2-.7.2-1 .1-.3.1-.5.1-.7.1-.7.1-.9.1-.9z"/></g><g><path fill="#0070c9" d="M275 348.3c-1.7 0-2.9-3-2.9-4.6s1.3-2.9 2.9-2.9 2.9 1.3 2.9 2.9-1.2 4.6-2.9 4.6zm0-6.7c-1.2 0-2.2 1-2.2 2.2 0 1.4 1.1 3.9 2.2 3.9s2.2-2.5 2.2-3.9c0-1.2-1-2.2-2.2-2.2z"/><path fill="#0070c9" d="M273.7 344.1c-.1 0-.2-.1-.2-.2 0-1 .8-1.8 1.8-1.8.1 0 .2.1.2.2s-.1.2-.2.2c-.8 0-1.4.6-1.4 1.4-.1.1-.1.2-.2.2zM273.7 344.7s-.1 0 0 0l-.2-.2s0-.1.1-.1c.1-.1.2-.1.2 0l.1.1s0 .1-.2.2c.1 0 .1 0 0 0z"/><g><path fill="#0070c9" d="M275 352.6c-1 0-4.2-.1-4.2-1.4 0-1.9 1.2-3.6 3-4.1l.2-.1.2.2c.5.6 1.2.6 1.8 0l.2-.2.2.1c1.8.6 3 2.2 3 4.1-.1 1.3-3.4 1.4-4.4 1.4zm-1.1-4.8c-1.4.5-2.3 1.9-2.3 3.4 0 .2 1.1.7 3.5.7s3.5-.5 3.5-.7c0-1.5-.9-2.8-2.3-3.4-.4.4-.8.5-1.2.5-.4 0-.8-.1-1.2-.5z"/></g></g><g><path fill="#0070c9" d="M325.8 404.3h-.2c-.1-.1-.2-.2-.2-.3v-1.2h-.8c-.6 0-1.1-.5-1.1-1.1v-4.3c0-.6.4-1.1 1.1-1.1h6.5c.6 0 1.2.5 1.2 1.1v4.3c0 .6-.6 1.1-1.2 1.1h-3.2l-2.1 1.5c.1-.1 0 0 0 0zm-1.2-7.4c-.3 0-.4.2-.4.5v4.3c0 .3.2.5.4.5h1.2c.1 0 .2 0 .2.1.1.1.1.1.1.2v.9l1.6-1.2c.1 0 .1-.1.2-.1h3.3c.3 0 .5-.2.5-.5v-4.3c0-.3-.3-.5-.5-.5l-6.6.1z"/><path fill="#0070c9" d="M322.3 400c-.1 0-.1 0-.2-.1-.2-.2-.3-.5-.3-.8v-4.3c0-.6.4-1.1 1.1-1.1h6.5c.6 0 1.2.5 1.2 1.1v.2c0 .2-.1.3-.3.3s-.3-.1-.3-.3v-.2c0-.3-.3-.5-.5-.5H323c-.3 0-.4.2-.4.5v4.3c0 .1 0 .2.1.3.1.1.1.3 0 .5-.2.1-.3.1-.4.1z"/><path fill="#0070c9" d="M326.8 398.3h-1.3c-.1 0-.2-.1-.2-.2s.1-.2.2-.2h1.3c.1 0 .2.1.2.2-.1.1-.1.2-.2.2zM329.1 398.3h-1.6c-.1 0-.2-.1-.2-.2s.1-.2.2-.2h1.6c.1 0 .2.1.2.2-.1.1-.1.2-.2.2zM330.4 398.3h-.7c-.1 0-.2-.1-.2-.2s.1-.2.2-.2h.7c.1 0 .2.1.2.2-.1.1-.1.2-.2.2zM326.1 399.1h-.7c-.1 0-.2-.1-.2-.2s.1-.2.2-.2h.7c.1 0 .2.1.2.2 0 .2-.1.2-.2.2zM328.1 399.1h-1.3c-.1 0-.2-.1-.2-.2s.1-.2.2-.2h1.3c.1 0 .2.1.2.2-.1.2-.1.2-.2.2zM330.4 399.1h-1.6c-.1 0-.2-.1-.2-.2s.1-.2.2-.2h1.6c.1 0 .2.1.2.2-.1.2-.1.2-.2.2z"/><g><path fill="#0070c9" d="M327.1 400.1h-1.6c-.1 0-.2-.1-.2-.2s.1-.2.2-.2h1.6c.1 0 .2.1.2.2s-.1.2-.2.2zM329.4 400.1h-1.6c-.1 0-.2-.1-.2-.2s.1-.2.2-.2h1.6c.1 0 .2.1.2.2-.1.1-.1.2-.2.2zM330.4 400.1h-.3c-.1 0-.2-.1-.2-.2s.1-.2.2-.2h.3c.1 0 .2.1.2.2-.1.1-.1.2-.2.2z"/></g><g><path fill="#0070c9" d="M326.1 400.9h-.7c-.1 0-.2-.1-.2-.2s.1-.2.2-.2h.7c.1 0 .2.1.2.2 0 .2-.1.2-.2.2zM327.9 400.9h-1.1c-.1 0-.2-.1-.2-.2s.1-.2.2-.2h1.1c.1 0 .2.1.2.2 0 .2-.1.2-.2.2z"/></g></g><g><path fill="#0070c9" d="M272.6 457.1c-1 0-2-.4-2.7-1.1l-.1-.2c-1.5-1.5-1.5-3.9 0-5.4l2.7-2.7c.7-.7 1.7-1.1 2.7-1.1s2 .4 2.7 1.1l.1.1c1.5 1.5 1.5 3.9 0 5.4l-2.7 2.7c-.7.8-1.7 1.2-2.7 1.2zm2.4-9.7c-.8 0-1.6.3-2.2.9l-2.7 2.7c-1.2 1.2-1.2 3.1 0 4.3l.1.1c.6.6 1.3.9 2.2.9.8 0 1.6-.3 2.2-.9l2.7-2.7c1.2-1.2 1.2-3.1 0-4.3l-.1-.1c-.6-.6-1.4-.9-2.2-.9z"/><path fill="#0070c9" d="M270.4 454.4c-.1 0-.1 0-.2-.1-.7-1-.5-2.1.6-3.2l.6-.6c.1-.1.2-.1.3 0 .1.1.1.2 0 .3l-.6.6c-1 .9-1.1 1.8-.5 2.7.1.1 0 .2 0 .3h-.2zM270.9 455s-.1 0 0 0l-.2-.2c-.1-.1-.1-.2 0-.3s.2-.1.3 0l.1.1c.1.1.1.2 0 .3-.1 0-.2.1-.2.1zM277.2 453.6c-.1 0-.1 0 0 0-3.8-1.9-5.1-5-5.2-5.1 0-.1 0-.2.1-.2s.2 0 .2.1c0 0 1.3 3.1 4.9 4.9.1 0 .1.2 0 .3zM275 450.6s-.1 0 0 0c-.2-.2-.2-.3-.1-.4l.7-.7c.1-.1.2-.1.3 0s.1.2 0 .3l-.7.7c-.1.1-.1.1-.2.1zM277.7 448.7c-.2 0-.4-.2-.4-.4 0 0-.1-1.2 1.6-2.1.9-.4 1.2-1.4 1.2-1.5.1-.2.3-.3.5-.3.2.1.3.3.3.5 0 .1-.4 1.3-1.6 1.9-1.2.6-1.2 1.3-1.2 1.3 0 .4-.2.5-.4.6z"/></g></g></svg>