<svg xmlns="http://www.w3.org/2000/svg" xmlns:xlink="http://www.w3.org/1999/xlink" width="1167" height="211" viewBox="0 0 1167 211"><defs><path id="a" d="M-285.35 2481.75v25.48a2.82 2.82 0 0 1-5.65 0v-25.48a2.82 2.82 0 0 1 5.65 0zm1161.34 10v5.48a2.82 2.82 0 0 1-5.65 0v-5.48a2.82 2.82 0 0 1 5.65 0zm-16.13-20v25.48a2.82 2.82 0 0 1-5.65 0v-25.48a2.82 2.82 0 0 1 5.65 0zm-16.13 0v25.48a2.82 2.82 0 0 1-5.65 0v-25.48a2.82 2.82 0 0 1 5.65 0zm-16.13-20v45.48a2.82 2.82 0 0 1-5.65 0v-45.48a2.82 2.82 0 0 1 5.65 0zm-16.13 20v35.48a2.82 2.82 0 0 1-5.65 0v-35.48a2.82 2.82 0 0 1 5.65 0zm-16.13-20v45.48a2.82 2.82 0 0 1-5.65 0v-45.48a2.82 2.82 0 0 1 5.65 0zm-16.13 10v35.48a2.82 2.82 0 0 1-5.65 0v-35.48a2.82 2.82 0 0 1 5.65 0zm-16.13-30v65.48a2.82 2.82 0 0 1-5.65 0v-65.48a2.82 2.82 0 0 1 5.65 0zm-16.13 30v35.48a2.82 2.82 0 0 1-5.65 0v-35.48a2.83 2.83 0 0 1 5.65 0zm-16.13-50v85.48a2.82 2.82 0 0 1-5.65 0v-85.48a2.82 2.82 0 0 1 5.65 0zm-16.13 40v55.48a2.82 2.82 0 0 1-5.65 0v-55.48a2.82 2.82 0 0 1 5.65 0zm-16.13-50v95.48a2.82 2.82 0 0 1-5.65 0v-95.48a2.82 2.82 0 0 1 5.65 0zm-16.13-20v115.48a2.82 2.82 0 0 1-5.65 0v-115.48a2.82 2.82 0 0 1 5.65 0zm-16.13 50v65.48a2.82 2.82 0 0 1-5.65 0v-65.48a2.82 2.82 0 0 1 5.65 0zm-16.13 20v55.48a2.82 2.82 0 0 1-5.65 0v-55.48a2.82 2.82 0 0 1 5.65 0zm-16.12-30v85.48a2.82 2.82 0 0 1-5.66 0v-85.48a2.82 2.82 0 0 1 5.66 0zm-16.14 0v85.48a2.82 2.82 0 0 1-5.65 0v-85.48a2.82 2.82 0 0 1 5.65 0zm-16.12 10v65.48a2.82 2.82 0 0 1-5.65 0v-65.48a2.82 2.82 0 0 1 5.65 0zm-16.13 40v45.48a2.82 2.82 0 0 1-5.66 0v-45.48a2.82 2.82 0 0 1 5.66 0zm-16.13-20v45.48a2.82 2.82 0 0 1-5.65 0v-45.48a2.82 2.82 0 0 1 5.65 0zm-16.13 20v25.48a2.82 2.82 0 0 1-5.65 0v-25.48a2.82 2.82 0 0 1 5.65 0zm-16.13-10v65.48a2.82 2.82 0 0 1-5.65 0v-65.48a2.82 2.82 0 0 1 5.65 0zm-16.13-10v85.48a2.82 2.82 0 0 1-5.65 0v-85.48a2.82 2.82 0 0 1 5.65 0zm-16.13 20v75.48a2.82 2.82 0 0 1-5.65 0v-75.48a2.82 2.82 0 0 1 5.65 0zm-16.13 20v5.48a2.82 2.82 0 0 1-5.65 0v-5.48a2.82 2.82 0 0 1 5.65 0zm-16.13-40v95.48a2.82 2.82 0 0 1-5.65 0v-95.48a2.82 2.82 0 0 1 5.65 0zm-16.13 10v95.48a2.82 2.82 0 0 1-5.65 0v-95.48a2.82 2.82 0 0 1 5.65 0zm-16.13 10v105.48a2.82 2.82 0 0 1-5.65 0v-105.48a2.82 2.82 0 0 1 5.65 0zm-16.13 10v55.48a2.82 2.82 0 0 1-5.65 0v-55.48a2.82 2.82 0 0 1 5.65 0zm-16.13-20v55.48a2.82 2.82 0 0 1-5.65 0v-55.48a2.82 2.82 0 0 1 5.65 0zm-16.13-10v85.48a2.82 2.82 0 0 1-5.65 0v-85.48a2.82 2.82 0 0 1 5.65 0zm-16.13 20v75.48a2.82 2.82 0 0 1-5.65 0v-75.48a2.82 2.82 0 0 1 5.65 0zm-16.13-20v105.48a2.82 2.82 0 0 1-5.65 0v-105.48a2.82 2.82 0 0 1 5.65 0zm-16.13-30v95.48a2.82 2.82 0 0 1-5.65 0v-95.48a2.82 2.82 0 0 1 5.65 0zm-16.13 50v45.48a2.82 2.82 0 0 1-5.65 0v-45.48a2.82 2.82 0 0 1 5.65 0zm-16.13-20v45.48a2.82 2.82 0 0 1-5.65 0v-45.48a2.82 2.82 0 0 1 5.65 0zm-16.13-50v95.48a2.82 2.82 0 0 1-5.65 0v-95.48a2.82 2.82 0 0 1 5.65 0zm-16.13 50v45.48a2.82 2.82 0 0 1-5.65 0v-45.48a2.82 2.82 0 0 1 5.65 0zm-16.13-80v125.48a2.82 2.82 0 0 1-5.65 0v-125.48a2.82 2.82 0 0 1 5.65 0zm-16.13 20v117.48a2.82 2.82 0 0 1-5.65 0v-117.48a2.82 2.82 0 0 1 5.65 0zm-16.13 30v85.48a2.82 2.82 0 0 1-5.65 0v-85.48a2.82 2.82 0 0 1 5.65 0zm-16.13 30v45.48a2.82 2.82 0 0 1-5.65 0v-45.48a2.82 2.82 0 0 1 5.65 0zm-16.13-20v65.48a2.82 2.82 0 0 1-5.65 0v-65.48a2.82 2.82 0 0 1 5.65 0zm-16.13 20v55.48a2.82 2.82 0 0 1-5.65 0v-55.48a2.82 2.82 0 0 1 5.65 0zm-16.13 10v35.48a2.82 2.82 0 0 1-5.65 0v-35.48a2.82 2.82 0 0 1 5.65 0zm-16.13-10v45.48a2.82 2.82 0 0 1-5.65 0v-45.48a2.82 2.82 0 0 1 5.65 0zm-16.13 0v45.48a2.82 2.82 0 0 1-5.65 0v-45.48a2.82 2.82 0 0 1 5.65 0zm-16.13 10v45.48a2.82 2.82 0 0 1-5.65 0v-45.48a2.82 2.82 0 0 1 5.65 0zm-16.12 10v25.48a2.82 2.82 0 0 1-5.66 0v-25.48a2.82 2.82 0 0 1 5.66 0zm-16.13-30v55.48a2.82 2.82 0 0 1-5.66 0v-55.48a2.82 2.82 0 0 1 5.66 0zm-16.14 20v85.48a2.82 2.82 0 0 1-5.65 0v-85.48a2.82 2.82 0 0 1 5.65 0zm-16.12 20v15.48a2.82 2.82 0 0 1-5.65 0v-15.48a2.82 2.82 0 0 1 5.65 0zm-16.13-10v35.48a2.82 2.82 0 0 1-5.66 0v-35.48a2.82 2.82 0 0 1 5.66 0zm-16.13-20v75.48a2.82 2.82 0 0 1-5.65 0v-75.48a2.82 2.82 0 0 1 5.65 0zm-16.13 10v35.48a2.82 2.82 0 0 1-5.65 0v-35.48a2.82 2.82 0 0 1 5.65 0zm-16.13 10v25.48a2.82 2.82 0 0 1-5.65 0v-25.48a2.82 2.82 0 0 1 5.65 0zm-16.13-30v75.48a2.82 2.82 0 0 1-5.65 0v-75.48a2.82 2.82 0 0 1 5.65 0zm-16.13-10v115.48a2.82 2.82 0 0 1-5.65 0v-115.48a2.82 2.82 0 0 1 5.65 0zm-16.13 40v75.48a2.82 2.82 0 0 1-5.65 0v-75.48a2.82 2.82 0 0 1 5.65 0zm-16.13-20v105.48a2.82 2.82 0 0 1-5.65 0v-105.48a2.82 2.82 0 0 1 5.65 0zm-16.13-40v115.48a2.82 2.82 0 0 1-5.65 0v-115.48a2.82 2.82 0 0 1 5.65 0zm-16.13-10v175.48a2.82 2.82 0 0 1-5.65 0v-175.48a2.82 2.82 0 0 1 5.65 0zm-16.13-20v165.48a2.82 2.82 0 0 1-5.65 0v-165.48a2.82 2.82 0 0 1 5.65 0zm-16.13 70v55.48a2.82 2.82 0 0 1-5.65 0v-55.48a2.82 2.82 0 0 1 5.65 0zm-16.13-60v105.48a2.82 2.82 0 0 1-5.65 0v-105.48a2.82 2.82 0 0 1 5.65 0zm-16.13-10v155.48a2.82 2.82 0 0 1-5.65 0v-155.48a2.82 2.82 0 0 1 5.65 0zm-16.13 10v115.48a2.82 2.82 0 0 1-5.65 0v-115.48a2.82 2.82 0 0 1 5.65 0zm-16.13 80v35.48a2.82 2.82 0 0 1-5.65 0v-35.48a2.82 2.82 0 0 1 5.65 0zm-16.13-30v65.48a2.82 2.82 0 0 1-5.65 0v-65.48a2.82 2.82 0 0 1 5.65 0zm-16.13-20v85.48a2.82 2.82 0 0 1-5.65 0v-85.48a2.82 2.82 0 0 1 5.65 0zm-16.13 40v55.48a2.82 2.82 0 0 1-5.65 0v-55.48a2.82 2.82 0 0 1 5.65 0zm-18.95-12.8a2.82 2.82 0 0 1 2.82 2.8v55.48a2.82 2.82 0 0 1-5.65 0v-55.48c0-1.54 1.27-2.8 2.83-2.8z"/></defs><use fill="#cb1057" xlink:href="#a" opacity=".54" transform="translate(291 -2369)"/></svg>