<svg xmlns="http://www.w3.org/2000/svg" xmlns:xlink="http://www.w3.org/1999/xlink" width="42" height="42" viewBox="0 0 42 42"><defs><path id="a" d="M672.62 2257.38c0-.97.77-1.73 1.75-1.73h17.39c.98 0 1.75.76 1.75 1.73s-.77 1.73-1.75 1.73h-17.39c-.98 0-1.75-.76-1.75-1.73zm0 8.37c0-.97.77-1.74 1.75-1.74h17.39c.98 0 1.75.77 1.75 1.74s-.77 1.73-1.75 1.73h-17.39c-.98 0-1.75-.76-1.75-1.73zm-10.48 11.2v-30.78c0-.97.77-1.73 1.75-1.73h38.35c.98 0 1.75.76 1.75 1.73v30.83c0 .98-.77 1.74-1.75 1.74h-20.47l-9.4 7.06a1.88 1.88 0 0 1-1.85.17c-.6-.3-.98-.89-.98-1.57v-5.7h-5.65c-.94 0-1.75-.77-1.75-1.74zm3.5-1.73h5.65c.99 0 1.76.76 1.76 1.73v3.93l7.05-5.32c.3-.21.69-.34 1.07-.34h19.27v-27.31h-34.8z"/></defs><use fill="#fff" xlink:href="#a" opacity=".4" transform="translate(-662 -2244)"/></svg>