<svg xmlns="http://www.w3.org/2000/svg" xmlns:xlink="http://www.w3.org/1999/xlink" width="84" height="80" viewBox="0 0 84 80"><defs><path id="a" d="M413.3 1887.96v5.83a2.1 2.1 0 0 1-2.08 2.1 2.1 2.1 0 0 1-2.07-2.1v-5.83c0-2.52-2-4.56-4.49-4.56h-47.48a4.52 4.52 0 0 0-4.49 4.56v39.99l5.47-5.56c.8-.82 2.1-.82 2.92 0 .8.82.8 2.14 0 2.97l-9 9.14a2.04 2.04 0 0 1-2.93 0l-8.99-9.14a2.11 2.11 0 0 1 0-2.97c.81-.82 2.11-.82 2.92 0l5.45 5.54v-39.97a8.7 8.7 0 0 1 8.62-8.76h47.5c4.73 0 8.6 3.94 8.65 8.76zm-.68 15.12l9 9.14c.8.83.8 2.15 0 2.97-.82.82-2.12.82-2.93 0l-5.46-5.56v39.97a8.7 8.7 0 0 1-8.62 8.76h-47.48a8.7 8.7 0 0 1-8.62-8.76v-5.83c0-1.16.93-2.1 2.08-2.1 1.14 0 2.07.94 2.07 2.1v5.83c0 2.52 2 4.56 4.49 4.56h47.5a4.52 4.52 0 0 0 4.48-4.56v-39.97l-5.46 5.56c-.4.41-.93.62-1.47.62-.54 0-1.06-.2-1.47-.62a2.12 2.12 0 0 1 0-2.97l9-9.14a2.07 2.07 0 0 1 2.9 0zm-29.65-.78v3.22h3.81a2.1 2.1 0 0 1 2.08 2.1 2.1 2.1 0 0 1-2.08 2.12h-8.21c-1.67 0-3.04 1.56-3.04 3.46s1.37 3.46 3.04 3.46h4.65c3.95 0 7.17 3.43 7.17 7.67 0 4.18-3.15 7.61-7.07 7.66h-.35v3.3c0 1.16-.93 2.1-2.07 2.1a2.09 2.09 0 0 1-2.08-2.1v-3.29h-3.98a2.1 2.1 0 0 1-2.07-2.1c0-1.17.92-2.12 2.07-2.12h8.37c1.67 0 3.03-1.54 3.03-3.46 0-1.9-1.36-3.46-3.03-3.46h-4.66c-3.95 0-7.17-3.45-7.17-7.67s3.22-7.66 7.17-7.66h.27v-3.23a2.1 2.1 0 0 1 2.08-2.1 2.1 2.1 0 0 1 2.07 2.09z"/><linearGradient id="b" x1="380.55" x2="381.22" y1="1879.2" y2="1958.36" gradientUnits="userSpaceOnUse"><stop offset="0" stop-color="#508ab3"/><stop offset="1" stop-color="#883759"/></linearGradient></defs><g transform="translate(-339 -1879)"><use fill="#fff" xlink:href="#a"/><use fill="url(#b)" xlink:href="#a"/></g></svg>