<svg xmlns="http://www.w3.org/2000/svg" xmlns:xlink="http://www.w3.org/1999/xlink" width="90" height="109" viewBox="0 0 90 109"><defs><path id="a" d="M186.64 1238.33a2.11 2.11 0 0 1-2.13 2.1 2.1 2.1 0 1 1 0-4.21 2.11 2.11 0 0 1 2.13 2.1zm16.53 21.73a2.13 2.13 0 0 1-3-.24l-12.88-15.01a2.1 2.1 0 0 1 .24-2.97c.9-.75 2.24-.65 3 .24l12.88 15a2.1 2.1 0 0 1-.24 2.98zm-10.17-64.36v10.72c0 1.17-.95 2.11-2.13 2.11h-18.71a2.12 2.12 0 0 1-2.13-2.1v-10.73c0-1.16.96-2.1 2.13-2.1h18.71c1.18 0 2.13.94 2.13 2.1zm-4.25 2.1h-14.46v6.52h14.46zm64.26 32.76l-11.86 13.81c-.77.89-2.1 1-3 .24a2.1 2.1 0 0 1-.24-2.97l8.88-10.34h-76.1l30.79 35.84c.33.38.5.87.5 1.37v25.77l13.51-13.25v-12.52c0-.5.18-.99.51-1.37l10.97-12.76c.76-.89 2.1-1 3-.24.89.75 1 2.08.24 2.97l-10.46 12.17v12.62c0 .57-.23 1.1-.63 1.5l-17.76 17.43a2.14 2.14 0 0 1-2.32.45 2.1 2.1 0 0 1-1.3-1.94v-30.06l-33.27-38.72a2.1 2.1 0 0 1-.31-2.25 2.13 2.13 0 0 1 1.93-1.22h12.45v-5.49c0-1.16.96-2.1 2.13-2.1h16.59v-13.08c0-1.16.95-2.1 2.12-2.1h16.6v-5.49c0-1.16.94-2.1 2.12-2.1h18.71c1.18 0 2.13.94 2.13 2.1v28.26h12.45c.83 0 1.59.48 1.93 1.22a2.1 2.1 0 0 1-.3 2.25zm-55.75-6.85h-14.46v3.38h14.46zm18.71 0h-14.46v3.38h14.46zm0-15.18h-14.46v10.97h14.46zm18.71 7.59h-14.46v10.97h14.46zm0-15.18h-14.46v10.97h14.46zm1.22 48.76a2.1 2.1 0 0 1-2.13 2.11 2.11 2.11 0 0 1-2.13-2.1 2.11 2.11 0 0 1 2.13-2.11 2.11 2.11 0 0 1 2.13 2.1z"/><linearGradient id="b" x1="207.96" x2="209.52" y1="1193.6" y2="1301.44" gradientUnits="userSpaceOnUse"><stop offset="0" stop-color="#508ab3"/><stop offset="1" stop-color="#883759"/></linearGradient></defs><g transform="translate(-164 -1193)"><use fill="#fff" xlink:href="#a"/><use fill="url(#b)" xlink:href="#a"/></g></svg>