<svg xmlns="http://www.w3.org/2000/svg" xmlns:xlink="http://www.w3.org/1999/xlink" width="59" height="59" viewBox="0 0 59 59"><defs><path id="1vzya" d="M192.34 607.31l.03.03-.98.82-.3.23c-.46.37-.92.72-1.4 1.05a29.61 29.61 0 0 1-4.7 2.77 29.24 29.24 0 0 1-7.28 2.32l-.2.03c-.76.14-1.54.24-2.33.31l-.3.02a29.71 29.71 0 0 1-4.78 0l-.3-.02a29.4 29.4 0 0 1-9.68-2.6l-.15-.08a29.4 29.4 0 0 1-6.27-3.98l-.2-.15-.95-.8.03-.03A29.43 29.43 0 0 1 143 585.5a29.53 29.53 0 0 1 29.5-29.5 29.53 29.53 0 0 1 29.5 29.5c0 8.64-3.73 16.41-9.66 21.81zm-38.1-1.47c.26-.19.53-.36.8-.5l8.49-4.63a2.4 2.4 0 0 0 1.24-2.1v-3.1a20.16 20.16 0 0 1-3.32-6.86 3.9 3.9 0 0 1-1.43-3.03v-3.8c0-.93.34-1.83.95-2.54v-5a8.65 8.65 0 0 1 2.02-6.3c1.98-2.26 5.18-3.4 9.51-3.4s7.53 1.14 9.51 3.4a8.65 8.65 0 0 1 2.02 6.3v5c.61.7.95 1.6.95 2.54v3.8a3.9 3.9 0 0 1-2.23 3.53 21.86 21.86 0 0 1-3.47 6.37v3.17c0 .92.5 1.73 1.32 2.14l9.08 4.54c.33.17.65.36.96.58a27.29 27.29 0 0 0 9.21-20.45 27.39 27.39 0 0 0-27.35-27.35 27.39 27.39 0 0 0-27.35 27.35c0 8.07 3.51 15.33 9.09 20.34zm34.66 1.54l-.18-.09-9.08-4.54a4.51 4.51 0 0 1-2.5-4.06v-3.96l.26-.3a19.84 19.84 0 0 0 3.47-6.42l.17-.53.53-.17a1.8 1.8 0 0 0 1.27-1.69v-3.8c0-.5-.21-.96-.6-1.31l-.35-.32v-6.12c0-.02.3-2.65-1.51-4.7-1.56-1.75-4.2-2.64-7.88-2.64-3.69 0-6.35.9-7.9 2.66a6.46 6.46 0 0 0-1.5 4.68l.01.14v5.98l-.35.32c-.39.34-.6.8-.6 1.3v3.81c0 .6.31 1.16.83 1.5l.36.23.1.43c.88 3.82 3.2 6.64 3.22 6.66l.25.3v3.87c0 1.66-.9 3.18-2.37 3.98l-8.48 4.63-.1.05.14.12a27.28 27.28 0 0 0 3.52 2.24l.23.12c.6.3 1.2.6 1.83.87h.01c.66.29 1.33.54 2 .77l.13.05c1.36.45 2.75.8 4.17 1.04l.09.01c.67.11 1.35.2 2.03.25l.35.03a27.24 27.24 0 0 0 4.04 0l.36-.03c.67-.05 1.34-.13 2-.24l.07-.01a27.45 27.45 0 0 0 4.16-1.02l.13-.05c1.28-.43 2.53-.97 3.74-1.59l.35-.17a26.9 26.9 0 0 0 1.55-.9c.18-.1.35-.22.53-.34.39-.25.77-.52 1.15-.79l.35-.25z"/></defs><g><g transform="translate(-143 -556)"><use fill="#269bbb" xlink:href="#1vzya"/></g></g></svg>