<svg width="15" height="16" viewBox="0 0 15 16" fill="none" xmlns="http://www.w3.org/2000/svg">
<path fill-rule="evenodd" clip-rule="evenodd" d="M4.07816 5.93102L5.38785 4.70914C5.63972 4.45458 5.74046 3.84364 5.43823 3.48726L3.22182 1.14533C2.86921 0.738033 2.36548 0.687121 2.01287 0.992591C1.40839 1.55262 0.199439 2.67267 0.0986931 3.53817C-1.00951 7.20381 7.50352 16.4188 11.1807 15.5533C12.0371 15.5024 13.1957 14.3823 13.8001 13.7714C14.1527 13.4659 14.1527 12.9568 13.7498 12.5495L11.5837 10.1567C11.2815 9.85121 10.677 9.85121 10.4251 10.1058L9.11545 11.3277C6.89904 10.4112 4.83375 8.17113 4.07816 5.93102ZM11.0296 8.4766C10.9792 8.9348 10.2237 8.88389 10.274 8.37478C10.5259 6.33831 9.16582 4.86187 7.10053 4.9637C6.5968 4.9637 6.5968 4.20002 7.05016 4.20002C9.61918 4.0982 11.2815 5.93102 11.0296 8.4766ZM6.7983 1.0435C6.29457 1.09441 6.29457 0.33074 6.7983 0.33074C11.9867 0.228917 15.261 3.79273 14.8076 9.03663C14.7572 9.49483 14.052 9.44392 14.1024 8.9348C14.5054 4.20002 11.5334 0.992591 6.7983 1.0435ZM6.94941 2.97814C6.49606 2.97814 6.44568 2.21447 6.94941 2.21447C10.6266 2.06174 13.3972 5.06552 12.9438 8.73116C12.8934 9.24028 12.1882 9.13845 12.2386 8.62934C12.5912 5.47281 10.1733 2.82541 6.94941 2.97814Z" fill="#1CA236"/>
</svg>
