<svg xmlns="http://www.w3.org/2000/svg" xmlns:xlink="http://www.w3.org/1999/xlink" width="20" height="15" viewBox="0 0 20 15"><defs><path id="h0qka" d="M77.09 907.13H61.76a1.92 1.92 0 0 1-1.93-1.94v-9.87c0-1.07.85-1.93 1.93-1.93h15.29c1.07 0 1.93.86 1.93 1.93v9.92a1.85 1.85 0 0 1-1.89 1.89zm-15.33-12.45c-.35 0-.65.3-.65.64v1.07H77.7v-1.07c0-.34-.3-.64-.64-.64zm-.65 10.56c0 .34.3.64.65.64h15.29c.34 0 .64-.3.64-.64v-6.44H61.11zm13.54-3.52a1.42 1.42 0 1 1-.94 2.47 1.42 1.42 0 1 1 0-2.11c.25-.23.58-.36.94-.36zm-7.58-.86H62.9c-.13 0-.21-.09-.21-.22 0-.12.08-.21.21-.21h4.16c.13 0 .21.09.21.21 0 .09-.08.22-.21.22z"/></defs><g><g transform="translate(-59 -893)"><use fill="#12c839" xlink:href="#h0qka"/></g></g></svg>