<svg xmlns="http://www.w3.org/2000/svg" xmlns:xlink="http://www.w3.org/1999/xlink" width="21" height="23" viewBox="0 0 21 23"><defs><path id="w5z9a" d="M406.9 900.45c0-3.06 1.18-5.83 3.1-7.82a9.94 9.94 0 0 1 13.2-1.35c1.26.88 2.32 2.05 3.11 3.44l.43-1.17a.69.69 0 0 1 .91-.43c.37.15.54.58.4.97l-1 2.7a.76.76 0 0 1-.4.46.63.63 0 0 1-.55 0l-2.55-1.07c-.37-.14-.55-.57-.41-.96a.69.69 0 0 1 .91-.44l.81.33a9.37 9.37 0 0 0-2.46-2.62 8.71 8.71 0 0 0-5.03-1.62 8.78 8.78 0 0 0-6.39 2.8 9.81 9.81 0 0 0-2.65 6.78c0 .43-.33.76-.71.76-.4 0-.72-.35-.72-.76zm21.18 0c0 3.05-1.17 5.8-3.06 7.81a9.94 9.94 0 0 1-13.2 1.35 10.58 10.58 0 0 1-3.12-3.44l-.43 1.17a.69.69 0 0 1-.9.43c-.37-.14-.55-.57-.41-.96l.97-2.71c.07-.2.2-.37.4-.45a.63.63 0 0 1 .54 0l2.56 1.06c.37.15.54.58.4.97a.69.69 0 0 1-.9.43l-.82-.33a9.37 9.37 0 0 0 2.46 2.63 8.71 8.71 0 0 0 5.03 1.62c2.5 0 4.77-1.09 6.4-2.81a9.81 9.81 0 0 0 2.64-6.77c0-.43.33-.76.72-.76.39 0 .72.35.72.76z"/></defs><g><g transform="translate(-407 -889)"><use fill="#12c839" xlink:href="#w5z9a"/></g></g></svg>