<svg xmlns="http://www.w3.org/2000/svg" xmlns:xlink="http://www.w3.org/1999/xlink" width="68" height="68" viewBox="0 0 68 68"><defs><path id="a" d="M655.25 1548.56v36.56a4.21 4.21 0 0 1-4.2 4.22h-21.02v3.5a8.3 8.3 0 0 1 5.47 6.35h2.94v2.81h-33.64v-2.81h2.95a8.3 8.3 0 0 1 5.46-6.35v-3.5h-21.01a4.21 4.21 0 0 1-4.2-4.22v-36.56a4.21 4.21 0 0 1 4.2-4.22h2.8v-8.44c0-.78.63-1.4 1.4-1.4h44.84c.78 0 1.4.62 1.4 1.4v4.22h1.4c2.33 0 4.2 1.89 4.2 4.22h2.8c2.33 0 4.21 1.89 4.21 4.22zm-14 14.06h-37.85v1.4c0 .78.63 1.41 1.4 1.41h39.23c.78 0 1.4-.63 1.4-1.4v-19.7c0-.77-.62-1.4-1.4-1.4h-1.4v18.28c0 .78-.62 1.41-1.4 1.41zm-43.44-2.81h42.03v-22.5h-42.03zm28.02 35.16v-2.81h1.4v-2.82h-11.2v2.82h5.6v2.8h-4.2c-4.78 0-6.3 2.54-6.79 4.23h21.97c-.49-1.7-2-4.22-6.78-4.22zm26.62-9.85v-4.22h-61.65v4.22c0 .78.63 1.41 1.4 1.41h58.85c.77 0 1.4-.63 1.4-1.4zm0-36.56c0-.78-.63-1.4-1.4-1.4h-2.8v16.87a4.21 4.21 0 0 1-4.2 4.22h-39.25a4.21 4.21 0 0 1-4.2-4.22v-1.4h-4.2a1.4 1.4 0 0 1-1.4-1.42v-14.06h-2.8c-.78 0-1.4.63-1.4 1.4v29.54h61.64zm-23.82 0c0 5.44-4.39 9.84-9.8 9.84-5.42 0-9.81-4.4-9.81-9.84 0-5.44 4.39-9.85 9.8-9.85 5.42 0 9.81 4.41 9.81 9.85zm-11.2 5.62h-2.8a7 7 0 0 0 2.8 1.27zm-2.8 0v-2.8h5.6v-1.42h-4.2a1.4 1.4 0 0 1-1.4-1.4v-4.22c0-.78.62-1.4 1.4-1.4h1.4v-1.27a7.05 7.05 0 0 0-2.8 12.52zm0 0zm8.4-11.25a6.99 6.99 0 0 0-2.8-1.26v1.26h2.8v2.82h-5.6v1.4h4.2c.77 0 1.4.63 1.4 1.4v4.23c0 .77-.63 1.4-1.4 1.4h-1.4v1.23a7.05 7.05 0 0 0 2.8-12.47zm-23.82-4.22h2.8v2.82h-2.8zm36.43 0h2.8v2.82h-2.8zm0 16.88h2.8v2.81h-2.8zm-36.43 0h2.8v2.81h-2.8zm36.43 26.72h2.8v2.81h-2.8zm5.6 0h2.8v2.81h-2.8zm5.6 0h2.8v2.81h-2.8zm-50.43-9.84h4.2v2.8h-5.6a1.4 1.4 0 0 1-1.4-1.4v-5.62h2.8z"/><linearGradient id="b" x1="621" x2="622.25" y1="1534.49" y2="1602" gradientUnits="userSpaceOnUse"><stop offset="0" stop-color="#508ab3"/><stop offset="1" stop-color="#883759"/></linearGradient></defs><g transform="translate(-588 -1534)"><use xlink:href="#a"/><use fill="url(#b)" xlink:href="#a"/></g></svg>