<svg xmlns="http://www.w3.org/2000/svg" xmlns:xlink="http://www.w3.org/1999/xlink" width="68" height="70" viewBox="0 0 68 70"><defs><path id="a" d="M366.84 1561.44a4.24 4.24 0 0 1-6.05.3 4.24 4.24 0 0 1-5.75 0 4.35 4.35 0 0 1-.3-6.11 4.24 4.24 0 0 1 6.05-.3 4.2 4.2 0 0 1 2.85-1.12 4.31 4.31 0 0 1 3.2 7.23zm-7.47-2.9c0-.8-.64-1.45-1.43-1.45-.79 0-1.43.64-1.43 1.44 0 .8.64 1.45 1.43 1.45.8 0 1.42-.65 1.43-1.45zm5.7 0c0-.8-.64-1.45-1.43-1.45-.79 0-1.43.64-1.43 1.44 0 .8.64 1.45 1.43 1.45.79 0 1.43-.65 1.43-1.45zm50.43 21.85a21.53 21.53 0 0 1-20.2 22.74h-.55a21.07 21.07 0 0 1-12.57-4.32v.07h-18.54a4.3 4.3 0 0 1-4.28-4.32v-9.49l-1.86 1.87-2-2.03 4.28-4.32a1.42 1.42 0 0 1 2 0l4.28 4.32-2 2.03-1.85-1.87v9.5c0 .8.64 1.45 1.43 1.45h15.46a21.51 21.51 0 0 1-1.2-27.38h-28.5c-.8 0-1.43-.65-1.43-1.45v-31.7c0-.8.64-1.45 1.43-1.45h45.63c.79 0 1.43.65 1.43 1.45v7.2h11.4a4.3 4.3 0 0 1 4.28 4.32v9.5l1.86-1.87 2 2.03-4.27 4.32c-.55.55-1.44.55-2 0l-4.28-4.32 2-2.03 1.85 1.86v-9.5c0-.79-.64-1.44-1.43-1.44h-11.4v14.5a21.54 21.54 0 0 1 19.04 20.33zm-17.1-17.2c.44.51.83 1.06 1.23 1.6l.26.35c.5.75.99 1.5 1.43 2.3l.36.7c.3.56.6 1.13.85 1.72l.1.2h6.15c-2.77-3.59-5.95-6.03-10.38-6.87zm3.68 16.95c0-.37.03-.87 0-1.14-.04-.27-.12-.56-.12-.84a18 18 0 0 0-.5-2.69l-.38-1.45c-.1-.35-.23-.67-.35-1h-11.42l-.35 1c-.14.45-.3 1.11-.38 1.45-.08.34-.24.65-.24.99-.11.56-.2 1.13-.26 1.7-.04.27-.12.47-.12.84v1.14zm-14.12 2.9c0 .37-.03.87 0 1.14.04.27.12.56.12.84a17.96 17.96 0 0 0 .5 2.69l.38 1.44.35 1.02h11.42l.35-1.02c.14-.44.3-1.1.39-1.44.08-.34.24-.65.24-.99.1-.56.18-1.13.25-1.7.04-.27.12-.47.12-.84v-1.15zm.4-14.9l.36-.7c.43-.8.93-1.56 1.43-2.3l.26-.34c.4-.54.8-1.1 1.23-1.6-4.43.84-8.4 3.29-11.17 6.87h6.94l.1-.2c.26-.59.54-1.17.85-1.73zm5.46-3.04c-.3.36-.64.8-.87 1.1-.23.3-.42.54-.67.94l-.74 1.2-.57.98-.36.73h8.85c-.12-.24-.17-.39-.36-.73l-.58-.98a17.39 17.39 0 0 0-1.4-2.14l-.87-1.1-.77-.88-.46-.47-.45.47zm-43.02-25.3h42.79v-2.88h-42.79zm0 5.76h42.79v-2.87h-42.79zm29.77 20.18a21.23 21.23 0 0 1 13.02-5.67v-11.62h-42.79v17.3zm-4.1 14.42h8.63c.07-.45.04-1.06.07-1.34.04-.28.12-.6.12-.88.08-.62.16-1.24.28-1.85.05-.35.14-.67.21-1.01.14-.56.27-1.1.43-1.66.07-.17.13-.31.13-.48h-7.73a18.85 18.85 0 0 0-2.13 7.22zm9.8 10.09c-.06-.16-.13-.31-.13-.48-.16-.55-.3-1.09-.43-1.66-.06-.33-.2-.66-.2-1-.12-.62-.22-1.24-.29-1.86l-.12-.88c-.07-.44-.07-.89-.07-1.34h-8.55c.2 2.53.94 4.98 2.13 7.2zm5.37 9.74c-.44-.52-.84-1.06-1.23-1.61l-.26-.34c-.5-.75-.99-1.51-1.43-2.3l-.36-.7c-.3-.56-.6-1.13-.85-1.73l-.1-.2h-6.95a18.45 18.45 0 0 0 11.18 6.88zm5.45-3.03c.23-.3.42-.54.67-.93.26-.4.54-.87.74-1.2l.57-.99.36-.73h-8.84l.35.73.58.99a17.44 17.44 0 0 0 1.4 2.13c.28.38.58.74.87 1.1l.78.89.45.47.46-.47.77-.88a35 35 0 0 0 .87-1.1zm11.69-3.85h-6.14l-.1.2c-.26.6-.55 1.15-.85 1.73-.12.23-.22.46-.36.7-.43.79-.92 1.56-1.43 2.3l-.25.34c-.4.54-.8 1.1-1.23 1.6 4.42-.84 7.58-3.28 10.36-6.87zm3.93-10.09h-7.76c-.06.45-.04 1.05-.06 1.34-.04.28-.12.6-.12.88-.08.62-.16 1.24-.28 1.85-.06.35-.15.67-.22 1.01-.13.55-.26 1.1-.42 1.66-.07.16-.14.31-.14.47h6.91a19.09 19.09 0 0 0 2.09-7.2zm.05-2.88a18.62 18.62 0 0 0-2.14-7.2v-.01h-6.86c.07.16.14.31.14.47.16.56.3 1.1.43 1.66.06.34.21.68.21 1.02.1.6.21 1.23.28 1.85l.12.88c.07.44.07.89.07 1.33z"/><linearGradient id="b" x1="380.96" x2="383" y1="1534.04" y2="1603.13" gradientUnits="userSpaceOnUse"><stop offset="0" stop-color="#508ab3"/><stop offset="1" stop-color="#883759"/></linearGradient></defs><g transform="translate(-348 -1534)"><use xlink:href="#a"/><use fill="url(#b)" xlink:href="#a"/></g></svg>