<svg xmlns="http://www.w3.org/2000/svg" width="51" height="51" viewBox="0 0 51 51"><defs><clipPath id="4zmma"><path fill="#fff" d="M25.5 0C39.583 0 51 11.416 51 25.5 51 39.581 39.583 51 25.5 51S0 39.581 0 25.5C0 11.415 11.417 0 25.5 0z"/></clipPath></defs><g><g><path fill="#7944e6" d="M25.5 0C39.583 0 51 11.416 51 25.5 51 39.581 39.583 51 25.5 51S0 39.581 0 25.5C0 11.415 11.417 0 25.5 0z"/><path fill="none" stroke="#7944e6" stroke-linecap="round" stroke-linejoin="round" stroke-miterlimit="20" stroke-width="4" d="M25.5 0C39.583 0 51 11.416 51 25.5 51 39.581 39.583 51 25.5 51S0 39.581 0 25.5C0 11.415 11.417 0 25.5 0z" clip-path="url(&quot;#4zmma&quot;)"/></g><g><path fill="#7944e6" d="M11.504 23.68l1.414-1.414 9.9 9.9L39.08 15.902l1.415 1.415L24.232 33.58l-1.414 1.414-1.414-1.414z"/></g></g></svg>