<svg xmlns="http://www.w3.org/2000/svg" xmlns:xlink="http://www.w3.org/1999/xlink" width="121" height="163" viewBox="0 0 121 163"><defs><path id="a" d="M92.6 5392.85c0-8.76 7.1-15.85 15.88-15.85 8.77 0 15.88 7.1 15.88 15.85s-7.11 15.84-15.88 15.84c-8.78 0-15.89-7.09-15.89-15.84zm114.52 32.54l-.07 106a8.14 8.14 0 0 1-16.3 0v-48.48h-5.44v48.47c0 2.35.66 4.52 1.7 6.44a8.14 8.14 0 0 1-13.08-6.44v-73.46l9.2-3.58 2.5-.97a6.48 6.48 0 0 0 4.04-5.04l2.82-18.1-7.7 15.72a6.79 6.79 0 0 1-3.64 3.34l-25.13 9.77a6.8 6.8 0 0 1-8.8-3.85 6.78 6.78 0 0 1 3.86-8.77l22.66-8.82 6.54-13.34-6.36 6.74v-5.63c0-7.53 6.13-13.64 13.68-13.64h5.84c7.56 0 13.68 6.1 13.68 13.64zm-32.48-32.54c0-8.76 7.11-15.85 15.88-15.85 8.78 0 15.9 7.1 15.9 15.85s-7.12 15.84-15.9 15.84c-8.77 0-15.88-7.09-15.88-15.84zm-30.45 52.13a12.11 12.11 0 0 0-2.04 12.2c.27.68.61 1.3.98 1.91l-.14-.03-25.14-9.77a6.79 6.79 0 0 1-3.63-3.34l-7.19-14.66 2.3 17.04a6.27 6.27 0 0 0 3.94 5l2.6 1.01 9.21 3.58v13.92l16 57.36a8.14 8.14 0 0 1-7.86 10.32 8.16 8.16 0 0 1-7.85-5.96l-14.13-50.65h-3.88l-4.58 49.22a8.14 8.14 0 0 1-8.87 7.35 8.13 8.13 0 0 1-7.36-8.85l5.33-57.32v-47.92c0-7.53 6.13-13.65 13.68-13.65h5.84c7.55 0 13.68 6.12 13.68 13.65v5.89l-5.83-5.94 6.01 12.28z"/></defs><use fill="#cb1057" xlink:href="#a" transform="translate(-86 -5377)"/></svg>