<svg xmlns="http://www.w3.org/2000/svg" viewBox="0 0 10017.75 3262.88">
    <defs>
        <mask id="id0">
            <linearGradient id="id1" gradientUnits="userSpaceOnUse" x1="803.29" y1="476.46" x2="2515.9" y2="2189.07">
                <stop offset="0" style="stop-opacity:1; stop-color:white"/>
                <stop offset="1" style="stop-opacity:0; stop-color:white"/>
            </linearGradient>
            <rect style="fill:url(#id1)" width="2948.94" height="2948.94"/>
        </mask>
    </defs>
    <g>
        <path fill = "black" fill-rule = "nonzero" d="M3939.44 1547.67l0 160.43 315.42 0c-14.96,119.63 -115.56,217.52 -252.88,217.52 -175.38,0 -300.45,-122.35 -300.45,-324.93 0,-202.57 130.51,-324.94 289.58,-324.94 106.04,0 190.34,44.87 231.12,122.36l210.73 0c-62.54,-178.1 -224.33,-288.23 -445.93,-288.23 -277.36,0 -482.64,209.37 -482.64,496.24 0,269.19 198.49,485.36 482.64,485.36 329.01,0 474.48,-259.68 474.48,-498.96l0 -44.87 -522.07 0zm1298.37 -134.59l-176.74 0 0 84.29 -5.44 0c-35.34,-51.67 -96.53,-101.97 -198.5,-101.97 -165.86,0 -309.97,133.24 -309.97,342.6 0,246.08 169.94,348.05 296.38,348.05 106.04,0 169.94,-47.59 212.08,-103.33l5.44 0 0 81.57 176.74 0 0 -651.22zm-504.39 326.29c0,-93.81 54.38,-187.62 168.58,-187.62 91.09,0 161.78,74.78 161.78,188.98 0,110.13 -76.13,186.26 -163.14,186.26 -114.2,0 -167.22,-92.45 -167.22,-187.62zm1322.84 -653.94l-179.46 0 0 402.43 -5.44 0c-42.14,-55.74 -99.25,-96.53 -197.14,-96.53 -164.5,0 -308.61,138.68 -308.61,346.68 0,246.08 169.94,349.41 295.02,349.41 101.96,0 171.3,-47.59 213.44,-93.81l5.44 0 0 70.69 176.74 0 0 -978.88zm-504.39 653.94c0,-93.81 55.74,-191.7 168.58,-191.7 91.09,0 161.78,78.86 161.78,193.06 0,110.13 -76.13,187.62 -163.14,187.62 -112.84,0 -167.22,-93.81 -167.22,-188.98z"/>
        <path fill = "black" fill-rule = "nonzero" d="M7403.34 1391.32c-212.09,0 -334.44,156.34 -334.44,342.6 0,212.09 152.27,353.49 346.68,353.49 171.3,0 267.83,-95.17 309.98,-205.29l-178.1 0c-28.55,42.14 -70.7,67.97 -130.52,67.97 -92.45,0 -168.58,-77.49 -168.58,-167.22l484 0c2.72,-17.68 2.72,-33.99 2.72,-48.95 0,-182.18 -116.92,-342.6 -331.74,-342.6zm-1.36 127.8c85.65,0 144.12,62.54 152.28,138.67l-304.54 0c6.8,-72.05 62.54,-138.67 152.27,-138.67zm386.11 48.94l78.85 0 0 271.91c0,141.4 54.38,233.85 217.53,233.85 38.06,0 89.73,-6.8 127.79,-17.68l0 -149.55c-23.11,6.8 -54.38,10.88 -78.85,10.88 -58.46,0 -81.57,-20.4 -81.57,-96.53l0 -252.88 153.64 0 0 -154.99 -153.64 0 0 -208.01 -184.9 0 0 208.01 -78.85 0 0 154.99zm978.88 -460.89c-278.72,0 -481.28,208.01 -481.28,490.8 0,282.79 190.34,496.24 477.2,496.24 254.23,0 403.78,-153.64 462.25,-341.25l-216.17 0c-28.55,89.73 -104.69,175.38 -240.64,175.38 -169.95,0 -284.16,-150.91 -284.16,-329.01 0,-193.06 116.92,-326.3 281.44,-326.3 125.07,0 209.36,76.13 233.84,160.42l209.37 0c-32.63,-154.99 -183.54,-326.29 -441.85,-326.29zm554.7 630.83c0,197.14 148.19,349.41 348.04,349.41 203.93,0 348.04,-157.71 348.04,-349.41 0,-197.14 -142.75,-346.68 -348.04,-346.68 -198.5,0 -348.04,145.47 -348.04,346.68zm184.9 1.36c0,-106.05 61.18,-184.9 163.14,-184.9 103.33,0 161.78,84.29 161.78,184.9 0,104.69 -62.54,184.9 -161.78,184.9 -92.45,0 -163.14,-77.49 -163.14,-184.9z"/>
        <path fill = "#8047F5" fill-rule = "nonzero" d="M1474.47 2263.33c217.87,0 415.11,-88.29 557.84,-231.03 62.26,-62.25 114.15,-134.86 152.87,-215.03l-710.71 0 0 -685.6 1474.48 0 0 342.8c0,407.11 -165.05,775.74 -431.88,1042.58 -266.84,266.83 -635.47,431.88 -1042.59,431.88l0 -685.61zm-1474.47 -788.86c0,-407.12 165.05,-775.75 431.88,-1042.59 266.84,-266.83 635.47,-431.88 1042.58,-431.88l0 685.61c-217.86,0 -415.1,88.29 -557.83,231.03 -142.74,142.73 -231.03,339.97 -231.03,557.84l-685.61 0z"/>
        <path fill = "black" d="M6908.81 2071.32l-663.19 236.9 664.37 0 -1.18 -236.9zm-338.88 -712.13c100.44,0 191.4,40.72 257.24,106.56 65.83,65.83 106.55,156.8 106.55,257.24 0,100.44 -40.72,191.4 -106.56,257.24 -65.83,65.83 -156.79,106.55 -257.23,106.55 -100.44,0 -191.41,-40.72 -257.24,-106.55 -65.84,-65.84 -106.56,-156.8 -106.56,-257.24 0,-100.44 40.73,-191.42 106.56,-257.24 65.82,-65.83 156.78,-106.56 257.24,-106.56zm137.82 225.99c-35.27,-35.27 -83.99,-57.08 -137.82,-57.08 -53.83,0 -102.56,21.82 -137.82,57.08 -35.26,35.26 -57.08,83.99 -57.08,137.82 0,53.82 21.81,102.55 57.08,137.82 35.25,35.25 83.99,57.07 137.82,57.07 53.82,0 102.56,-21.82 137.81,-57.07 35.27,-35.27 57.08,-83.99 57.08,-137.82 0,-53.82 -21.82,-102.57 -57.07,-137.82z"/>
        <path fill = "black" fill-rule = "nonzero" d="M4539.29 3182.04l0 -119.42c0,-14.63 -0.45,-26.49 -1.33,-35.59l17.29 0c0.89,11.53 1.33,21.84 1.33,30.94l0.67 0c4.43,-10.65 11.47,-19.13 21.12,-25.45 9.64,-6.32 20.01,-9.48 31.1,-9.48 24.84,0 41.36,12.31 49.56,36.92l0.66 0c5.1,-11.75 12.42,-20.85 21.96,-27.27 9.54,-6.43 20.74,-9.65 33.6,-9.65 19.07,0 33.43,5.94 43.08,17.8 9.64,11.86 14.47,27.44 14.47,46.74l0 94.47 -17.96 0 0 -87.81c0,-16.86 -3.38,-30.44 -10.14,-40.75 -6.77,-10.31 -17.47,-15.46 -32.11,-15.46 -15.52,0 -27.44,5.98 -35.75,17.96 -8.32,11.97 -12.48,27.05 -12.48,45.23l0 80.83 -18.3 0 0 -91.15c0,-35.26 -13.19,-52.88 -39.58,-52.88 -13.31,0 -24.78,5.76 -34.43,17.29 -9.64,11.53 -14.47,27.5 -14.47,47.91l0 78.83 -18.29 0zm629.03 -77.5c0,23.51 -7.65,43.02 -22.95,58.54 -15.3,15.52 -34.93,23.29 -58.88,23.29 -23.73,0 -43.24,-7.77 -58.54,-23.29 -15.3,-15.52 -22.95,-35.04 -22.95,-58.54 0,-23.74 7.59,-43.25 22.78,-58.55 15.2,-15.3 34.77,-22.95 58.72,-22.95 23.95,0 43.58,7.65 58.88,22.95 15.3,15.3 22.95,34.82 22.95,58.55zm-35.93 46.9c11.53,-12.42 17.3,-28.06 17.3,-46.9 0,-18.85 -5.77,-34.55 -17.3,-47.07 -11.53,-12.53 -26.83,-18.8 -45.9,-18.8 -18.85,0 -34.04,6.26 -45.57,18.8 -11.54,12.52 -17.3,28.22 -17.3,47.07 0,18.84 5.76,34.48 17.3,46.9 11.53,12.42 26.71,18.62 45.57,18.62 19.07,0 34.38,-6.2 45.9,-18.62zm398.85 0c-6.43,11.09 -15.25,19.68 -26.45,25.78 -11.2,6.1 -23.01,9.15 -35.43,9.15 -23.29,0 -42.3,-7.77 -57.05,-23.29 -14.75,-15.52 -22.12,-35.04 -22.12,-58.54 0,-23.29 7.37,-42.7 22.12,-58.22 14.75,-15.52 33.76,-23.29 57.05,-23.29 12.42,0 24.23,3.11 35.43,9.32 11.19,6.2 20.01,14.97 26.45,26.27l0.66 0 0 -128.06 18.3 0 0 251.48 -18.3 0 0 -30.6 -0.66 0zm-105.29 -94.31c-11.19,12.75 -16.8,28.55 -16.8,47.41 0,18.84 5.6,34.6 16.8,47.23 11.2,12.64 26.23,18.96 45.08,18.96 18.18,0 33.21,-6.32 45.07,-18.96 11.86,-12.64 17.8,-28.39 17.8,-47.23 0,-18.85 -5.94,-34.65 -17.8,-47.41 -11.86,-12.75 -26.89,-19.12 -45.07,-19.12 -18.85,0 -33.88,6.37 -45.08,19.12zm377.05 36.76l113.1 0c-0.67,-16.63 -5.94,-30.1 -15.8,-40.42 -9.87,-10.31 -23.12,-15.46 -39.76,-15.46 -16.41,0 -29.93,5.82 -40.58,17.46 -10.65,11.64 -16.3,24.46 -16.97,38.43zm59.55 92.48c-22.63,0 -41.37,-7.77 -56.22,-23.29 -14.86,-15.52 -22.29,-35.15 -22.29,-58.88 0,-23.29 7.37,-42.64 22.12,-58.05 14.75,-15.42 32.99,-23.12 54.72,-23.12 23.29,0 41.3,7.27 54.05,21.79 12.75,14.53 19.13,32.54 19.13,54.05l0 9.32 -131.4 0c0.45,17.07 6.21,31.76 17.3,44.07 11.09,12.3 25.5,18.46 43.24,18.46 20.63,0 38.37,-8.76 53.22,-26.28l11.98 9.65c-16.63,21.51 -38.59,32.27 -65.86,32.27zm305.04 -123.75c0,-14.63 -0.45,-26.49 -1.33,-35.59l17.29 0c0.89,11.53 1.33,21.84 1.33,30.94l0.67 0c4.21,-10.87 10.92,-19.41 20.12,-25.61 9.2,-6.2 19.47,-9.32 30.77,-9.32 5.54,0 9.64,0.45 12.3,1.33l-1.99 16.63c-3.11,-0.88 -7.33,-1.33 -12.64,-1.33 -14.42,0 -26.06,5.66 -34.93,16.97 -8.88,11.31 -13.31,26.61 -13.31,45.9l0 79.5 -18.29 0 0 -119.42zm297.05 -35.59l17.29 0c0.89,11.53 1.33,21.84 1.33,30.94l0.67 0c4.43,-10.43 11.86,-18.85 22.28,-25.28 10.43,-6.43 21.52,-9.65 33.26,-9.65 19.29,0 33.76,5.88 43.41,17.63 9.64,11.76 14.47,27.39 14.47,46.91l0 94.47 -17.96 0 0 -87.81c0,-37.26 -14.64,-55.89 -43.91,-55.89 -14.41,0 -26.55,5.66 -36.42,16.97 -9.86,11.31 -14.8,27.28 -14.8,47.91l0 78.83 -18.29 0 0 -119.42c0,-14.63 -0.45,-26.49 -1.33,-35.59zm709.2 0l0 15.3 -44.25 0 0 98.13c0,10.43 2.11,17.8 6.32,22.13 4.21,4.32 10.31,6.48 18.3,6.48 6.43,0 12.75,-1.44 18.96,-4.32l1 15.63c-7.98,2.88 -16.18,4.33 -24.61,4.33 -10.87,0 -19.91,-3.16 -27.12,-9.48 -7.2,-6.32 -10.81,-16.47 -10.81,-30.44l0 -102.46 -32.59 0 0 -15.3 32.26 0 0 -44.24 18.3 0 0 44.24 44.25 0zm238.84 30.27l0.67 0c5.09,-11.09 12.52,-19.56 22.28,-25.44 9.76,-5.88 20.52,-8.82 32.27,-8.82 19.51,0 34.1,5.94 43.74,17.8 9.65,11.86 14.48,27.44 14.48,46.74l0 94.47 -17.96 0 0 -87.81c0,-37.26 -14.75,-55.89 -44.25,-55.89 -14.19,0 -26.27,5.66 -36.25,16.97 -9.99,11.31 -14.98,27.28 -14.98,47.91l0 78.83 -17.96 0 0 -251.48 17.96 0 0 126.73zm375.55 -30.27l0 155.01 -18.29 0 0 -155.01 18.29 0zm0.17 -71.18c2.77,2.66 4.16,5.88 4.16,9.64 0,3.77 -1.39,6.99 -4.16,9.65 -2.78,2.66 -5.94,3.99 -9.48,3.99 -3.55,0 -6.65,-1.33 -9.32,-3.99 -2.66,-2.66 -3.99,-5.88 -3.99,-9.65 0,-3.76 1.33,-6.98 3.99,-9.64 2.66,-2.66 5.76,-3.99 9.32,-3.99 3.54,0 6.7,1.33 9.48,3.99zm244 71.18l17.29 0c0.89,11.53 1.33,21.84 1.33,30.94l0.67 0c4.43,-10.43 11.86,-18.85 22.28,-25.28 10.43,-6.43 21.52,-9.65 33.26,-9.65 19.29,0 33.76,5.88 43.41,17.63 9.64,11.76 14.47,27.39 14.47,46.91l0 94.47 -17.96 0 0 -87.81c0,-37.26 -14.64,-55.89 -43.91,-55.89 -14.41,0 -26.55,5.66 -36.42,16.97 -9.86,11.31 -14.8,27.28 -14.8,47.91l0 78.83 -18.29 0 0 -119.42c0,-14.63 -0.45,-26.49 -1.33,-35.59zm369.9 205.25l11.64 -12.31c16.85,17.96 37.48,26.94 61.87,26.94 21.96,0 37.93,-6.38 47.91,-19.12 9.98,-12.75 14.97,-29.22 14.97,-49.4l0 -30.27 -0.66 0c-5.76,11.09 -14.36,19.73 -25.79,25.94 -11.41,6.21 -23.45,9.32 -36.09,9.32 -23.51,0 -42.58,-7.49 -57.21,-22.45 -14.64,-14.97 -21.96,-33.98 -21.96,-57.05 0,-22.84 7.37,-42.03 22.12,-57.55 14.75,-15.52 33.76,-23.29 57.05,-23.29 12.64,0 24.56,3.11 35.76,9.32 11.19,6.2 19.9,14.97 26.11,26.27l0.66 0 0 -31.6 18.3 0 0 151.36c0,10.65 -1.27,20.57 -3.83,29.77 -2.55,9.2 -6.7,18.13 -12.47,26.78 -5.77,8.65 -14.25,15.46 -25.45,20.45 -11.2,4.99 -24.56,7.49 -40.08,7.49 -29.49,0 -53.77,-10.21 -72.85,-30.6zm30.43 -175.3c-11.19,12.64 -16.8,28.05 -16.8,46.24 0,18.18 5.6,33.54 16.8,46.07 11.2,12.53 26.23,18.8 45.08,18.8 18.18,0 33.21,-6.16 45.07,-18.46 11.86,-12.31 17.8,-27.78 17.8,-46.4 0,-17.74 -5.99,-33.04 -17.96,-45.91 -11.98,-12.86 -26.94,-19.28 -44.91,-19.28 -18.85,0 -33.88,6.32 -45.08,18.96zm463.54 -7.65l-13.97 9.98c-8.43,-14.19 -21.4,-21.29 -38.91,-21.29 -9.32,0 -17.47,2.27 -24.46,6.82 -6.98,4.55 -10.48,11.25 -10.48,20.13 0,8.43 3,14.69 8.98,18.79 5.98,4.11 15.97,7.71 29.94,10.81 17.29,3.77 30.27,9.1 38.91,15.97 8.66,6.88 12.97,16.41 12.97,28.61 0,15.52 -5.49,27.21 -16.47,35.09 -10.97,7.87 -24.23,11.81 -39.75,11.81 -26.17,0 -45.79,-9.65 -58.88,-28.95l14.31 -10.3c4.65,7.1 10.93,12.86 18.8,17.29 7.87,4.43 16.46,6.65 25.78,6.65 10.65,0 19.69,-2.5 27.11,-7.49 7.43,-4.99 11.15,-12.58 11.15,-22.79 0,-7.76 -3.1,-13.86 -9.32,-18.29 -6.2,-4.43 -13.69,-7.71 -22.45,-9.81 -8.75,-2.11 -17.57,-4.43 -26.44,-6.99 -8.88,-2.55 -16.41,-7.04 -22.63,-13.47 -6.2,-6.43 -9.31,-14.97 -9.31,-25.61 0,-14.19 5.15,-24.94 15.46,-32.26 10.31,-7.33 22.79,-10.98 37.42,-10.98 11.54,0 21.9,2.28 31.1,6.82 9.21,4.55 16.25,11.04 21.12,19.47z"/>
        <path fill = "#B336B8" fill-rule = "nonzero" style="mask:url(#id0)" d="M1474.47 2263.33c217.87,0 415.11,-88.29 557.84,-231.03 62.26,-62.25 114.15,-134.86 152.87,-215.03l-710.71 0 0 -685.6 1474.48 0 0 342.8c0,407.11 -165.05,775.74 -431.88,1042.58 -266.84,266.83 -635.47,431.88 -1042.59,431.88l0 -685.61zm-1474.47 -788.86c0,-407.12 165.05,-775.75 431.88,-1042.59 266.84,-266.83 635.47,-431.88 1042.58,-431.88l0 685.61c-217.86,0 -415.1,88.29 -557.83,231.03 -142.74,142.73 -231.03,339.97 -231.03,557.84l-685.61 0z"/>
    </g>
</svg>