<svg xmlns="http://www.w3.org/2000/svg" viewBox="0 0 17 16"><g><g><path fill="#570094" d="M16.74-.022v15.717H-.025V-.022zm-2.915 10.979c-.212-.541-2.223-1.91-2.824-1.941-.462-.023-.712.27-.923.562-.4.55-.905.554-1.47.318a4.875 4.875 0 0 1-1.475-.925 4.532 4.532 0 0 1-.987-1.383c-.251-.529-.248-1.004.34-1.378.31-.198.624-.432.6-.865-.033-.564-1.494-2.449-2.071-2.648a1.114 1.114 0 0 0-.72 0C2.943 3.122 2.382 4.165 2.92 5.4 3.692 7.179 4.73 8.712 6.07 9.967c1.339 1.256 2.974 2.23 4.871 2.954 1.317.504 2.43-.021 2.885-1.29a.927.927 0 0 0 0-.674zm-1.909-3.763c-.027.198.123.38.335.405a.38.38 0 0 0 .432-.314c.027-.196.032-.397.013-.596-.066-.718-.418-1.408-.99-1.944a3.619 3.619 0 0 0-2.174-.963 3.395 3.395 0 0 0-.681.013c-.212.025-.362.207-.335.406.027.198.222.339.433.313.17-.02.343-.023.516-.01.629.052 1.23.32 1.694.754.443.415.716.947.766 1.494.014.148.01.297-.009.442zm-1.274-.196c-.015.2.147.373.36.386h.026a.377.377 0 0 0 .386-.337 1.526 1.526 0 0 0-.003-.253c-.086-.93-.96-1.723-1.99-1.807a2.269 2.269 0 0 0-.251-.006c-.214.009-.38.178-.37.378.008.2.189.355.402.347.05-.002.1 0 .152.004.644.052 1.234.577 1.286 1.147a.858.858 0 0 1 .002.141zm3.339-.413c-.093-1.001-.577-1.957-1.363-2.695a4.952 4.952 0 0 0-2.975-1.313 4.785 4.785 0 0 0-1.088.036c-.21.032-.355.218-.321.415.033.198.231.333.442.301.295-.043.598-.053.9-.028a4.153 4.153 0 0 1 2.495 1.102c.658.617 1.062 1.414 1.139 2.245.026.284.013.568-.038.846-.037.197.105.385.315.419a.393.393 0 0 0 .067.005.381.381 0 0 0 .38-.3 3.77 3.77 0 0 0 .047-1.033z"/></g></g></svg>