<svg id="Слой_1" data-name="Слой 1" xmlns="http://www.w3.org/2000/svg" viewBox="0 0 502.47 212.1"><defs><style>.cls-1{fill:#afca0b;}.cls-1,.cls-2,.cls-3{fill-rule:evenodd;}.cls-2{fill:#fff7b2;}.cls-3{fill:#fc0;}</style></defs><path class="cls-1" d="M183.8,439.43c.33.11,0,.8.36.87,3.16.54,9.35,0,16.05,3.66a13.66,13.66,0,0,1,7.17,10c1.68,8.2-6.55,16-15.09,20.66-14.46,7.89-52.24,13.95-52.69,9.26-.12-1.22,1.49-4,2.87-4.06,4.79-.2,17.12-.77,21.69-1.79,17.09-3.85,28.82-9.77,33.3-14.06,2.71-2.6,3.88-9.7-.83-12.78a19.43,19.43,0,0,0-9-5.13,54.21,54.21,0,0,0-18.87-.65c-4,.78-10.49,1.61-13,1.43a53.45,53.45,0,0,0-9.1,18c-.89,3.38-1.61,7.39-3.52,11.19-1.17,2.32-1.65,3.8-4.39,2-4-2.68,2.23-17.71,3.27-20.5.88-2.38,1.84-4.8,2.89-7.33a8,8,0,0,1-3.79-.64c-5.5-2.33,3-6.56,4.87-6.55a7.62,7.62,0,0,1,1.89.25c1.94-4.42,4.14-9.24,6.67-14.76l9.25-20.17c4.88-10,9-13.12,18-11.07,28.88,6.58,26.19,39.12,2,42.15Zm-1.06-31.83-.24-.11-.24-.09-.26-.1-.27-.08-.29-.09-.3-.07-.32-.08-.34-.06-.37-.06-.39-.06-.41-.05-.45-.05-.47,0-.5,0-.53,0h-.29l-.27.26-.39.46-.46.62-.52.77-.57.89-.6,1-.64,1.1-.66,1.19-.69,1.27-.71,1.34-.73,1.39-.73,1.44-.74,1.47-.75,1.5-.74,1.52-.74,1.52-.72,1.51-.72,1.5-.69,1.47-.67,1.44-.65,1.39-.61,1.33-.58,1.27-.54,1.19-.5,1.11-.46,1-.38.85.46,0,.6,0,.62-.07.65-.07.66-.09.68-.09.69-.09.71-.11.71-.11.73-.11.73-.12.74-.13.75-.13.74-.13.74-.14.75-.14.73-.14.74-.14.72-.15.72-.14.71-.15.69-.15.68-.14.66-.15.64-.14.63-.14.6-.14.56-.13,1.07-.29,1-.33,1-.38,1-.44,1-.48.93-.53.9-.57.85-.61.81-.64.76-.68.72-.71.65-.75.6-.76.54-.79.47-.81.41-.83.33-.84.26-.86.19-.87.11-.88,0-.89-.06-.89-.13-.91-.23-.92-.32-.93-.42-.94-.53-.95-.65-1-.75-1-.89-1-1-1-1.16-1-.35-.28-.35-.28-.33-.26-.32-.25-.3-.24-.29-.23-.27-.21-.27-.2-.25-.19-.25-.17-.24-.16-.24-.15-.23-.14-.23-.14-.23-.12-.24-.11Z" transform="translate(-54 -290)"/><path class="cls-1" d="M528.1,454.17c6.27-11.23,6.92-13.89,7-13.92a43.21,43.21,0,0,1,6.27-1.09c1.55-.16,1.63,1.55-.72,5.51-2.6,4.36-4.87,8.29-6.7,11.94,1.7-3.32,10.6-3.87,14.14-3.3,2.87.48,5.2,1,6.92,3.05s1.55,4.53,1.17,7.44c-.67,5.2-3.69,8.3-8.35,13.26a21.59,21.59,0,0,1-16.08,6.48,10.63,10.63,0,0,1-8.62-3.68c-2-2.44-2.08-4.9-1.55-9,0-.25.07-.52.11-.78-1.92,2.15-10.23,5.89-18.06,8.45-6.6,2.17-12.62,3.43-15.55,3.23-5.88-.42-7.74-2.11-7.1-6.72.54-3.87,3.13-11.15,8.9-22.22-11.61,13.35-21,20-25.65,23.85-8.12,6.75-26.63,8.17-25.27-5.73,0-.11-16,7.11-20.05,8.07-29,9.78-18.54-17.27-19-18-7.5,5.55-19.35,22.2-31.66,19.13-2.73-.68-3.9-5.22-3.5-7s.84-3.42,1.33-5.12c-.83.41-10.46,5-15.57,7.86-4.54,2.58-16.48,6.22-25.74,6.69-18,.92-9.9-18.16-9.93-18.31-.47-2.38-17.33.59-21.25-.49-2.11,6.51-3.23,11.1-5.77,17.52-.15.37-3.52.5-5.26.53-3.12,0-.29-8.69,3.4-17.73a55.8,55.8,0,0,1-10.72,7.23l-8.68,4.63c-5.4,2.87-20.65,6.22-24.33,7.19-2.75.73-7.15.73-9-1.38-4.77-5.35,5.14-23.43,2.22-20.63l-7.33,7c-5.49,5.28-11.17,10.79-15.34,11.47-25,4.09,12.15-46.19,31.28-43.21,18.52,2.87-3.12,26.73-3.37,36.3-.2,7.6,23.36-.76,26.41-1.87a66.8,66.8,0,0,0,16-9.06c2.1-1.6,1.46-3,2.58-3.27a6.16,6.16,0,0,1,2-.32,2.87,2.87,0,0,1,.69.18c2.55-5.83,5-11,5.87-13a7.92,7.92,0,0,1,1-1.73,4.32,4.32,0,0,1,1.39-1.27,5.89,5.89,0,0,1,2-.84c3.76-.7,5.81-2,3.89,2.64l-4.06,9.75-2.41,3.51c-.44.65,13.67.6,19.93.27,4.13-.22,2.54-14.37,11.93-15.75,1.43-.21,2.09.42,2,1.22a4.13,4.13,0,0,1-.33,1.06l-.4.89c-3.81,11.45-11,18.43-7.48,30.05,1.35,4.43,16.79,1.5,27.58-3.75.84-.41,14.91-7.54,18.7-9.32,2.18-6.06,4.88-12,7.71-18.13.53-1.14,7.35-5.26,7,1.15l-3.65,7.29c-1.85,3.1-10.25,20.72-5,20.62,4.14,0,6.41-1.74,8.95-4.13,2.88-2.71,6.39-6.46,9.14-9.19l9.34-9.29c.63-.8,1.83-1.12,2.63-1.75,3.87-3,7.22-4.58,4,5.25-.49,3.61-5.7,20.24.76,20.21,3.56,0,12.6.15,16.49-1.88,6.34-3.32,14-6.93,20.68-10.56.71-.39,1.6.5,3.27,3,1.06,1.58-2.8,5.3-1.95,8.46.62,2.31,3.59,2.72,6.13,2.72,4.42,0,10.8-3.93,19.07-11.38a154.5,154.5,0,0,0,19.84-20.86c2-2.5,9.43-.32,8.38,1.93-3.82,8.21-8.12,15.39-10.82,24a15.18,15.18,0,0,0-.26,3.44c-.33,1.82.6,2.53,2.78,2.72,7.52.66,20.79-5.54,30.41-10.55a82.35,82.35,0,0,1,5-11Zm1,16.66c-.85,7.19,9.84,7.41,14,3,3.34-3.53,5.63-7.05,4.89-10.17a5.32,5.32,0,0,0-6.57-4.27c-3.61.71-6.64.71-8.46,1.8-2.67,1.59-3.3,4.46-3.9,9.65ZM214,469.74c-.65,6.43,16.13-11.65,19.52-14.62,18.15-15.87,3.91-13.22-6.2-4.8-7.27,6.05-13,16.28-13.32,19.42Z" transform="translate(-54 -290)"/><path class="cls-1" d="M161,290c9,16.35-.41,39.87,1.3,44.16.28.71.68.8.92.24,6.09-12.84,17.13-35.59,31.82-40.11-.26,9.94-9.53,23.67-16.14,34.42-2.07,3.37-5.48,4.06-7.17,8.68-1.92,5.06-21.1,10.31-19.72,14.23,8.93-6.87,3.94.57,7.59-1.77,5.85-2.84,10.58-5.61,9.75-2.5-.14.52.45.24,2.27-.25,17-4.65,40.27-6.78,50,2.51-7.54,5.1-23.52,2-36.86,1.84-.18,0-.22.41.37.68,4.14,1.91,22.48,8.28,28.74,15.22-26.91,3-39.48-12.71-50.1-12.62-8.24-1.61-.84,5.8-6.79,3.8-3.15-1.94-5.2-.72-6.69-.85-2.17-.18-2.71-3.21-1.68-4.78,7.71-11.67,7.08-27,7.9-44.63.28-6.12,2.45-12.51,4.51-18.27Z" transform="translate(-54 -290)"/><path class="cls-1" d="M106.2,485.66c-5.08-.53-9.76-2.13-13.47-6.43a47,47,0,0,0,1.92-9.76c-1.75-16.58-13.94-32.69-19-47.85C69.88,404.3,67.78,386,61.86,367.81a88.53,88.53,0,0,0-5-11.37c-2.47-5-3.84-9.11-2.16-9.87,2.95-1.34,11.9.92,15.76,7.63a162.1,162.1,0,0,1,13.61,30.86c7.49,23,11.58,48,18.93,70.39l.71-.11c11-29.08,22.72-57.52,33.45-74,2.14-3.29,2.1-7.45,2.41-10.87.56-6.1,9-7.06,9.68-5.11,1.27,3.7,2.45,10.22-8.52,14.22-2.73.73-1.43,6.86-3.38,10.89-2.14,4.41-6.4,4.83-6.48,7.32-.55,18.15-20,38.16-24.1,57.56-3.74,10.65-2.36,19.56-.61,30.32ZM66.3,358.87c1.22.75,1.06.37.93,1.3-.07.49.17,1.08-.44,1.13-1,.08-1.57.43-1.42-1.13s-.3-2.05.93-1.3Zm1,5c13.53,22.33,19.44,48.88,23,74.54-14-22.47-15-49.67-23-74.54Z" transform="translate(-54 -290)"/><path class="cls-1" d="M110.94,495.61c3.24.3,1.77.39,3.5,1.74,1,.78,1.64,2.86.64,3.68-1.6,1.3-1.94,2-3.91-1.53-.62-1.11-1.32-1.54-1.65-2.15-.9-1.63.62-1.82,1.42-1.74Z" transform="translate(-54 -290)"/><path class="cls-2" d="M192.28,324.11c.09,2-21,12.07-18.25,13.44,6.63-4.21,19.91-14.45,25.41-3.4-6.21,1.21-10.85,7.12-16.95,9.08-4,1.3-8,.81-12.06,1.75l-.44.1a20.41,20.41,0,0,0-2.41,1.09l-9.17,4.25c-.79-.45-.65-1.9-1.34-1.78a13.92,13.92,0,0,0-5,3.05c-.32.32-.23-.42-.19-.62.3-1.75,1.92-2.81,7.1-5.45s11.35-5.77,12.08-7.25c2.19-4.46,4.13-6.73,8.65-9.25,3.09-1.72,7.17-2.89,12.53-5Z" transform="translate(-54 -290)"/><path class="cls-3" d="M195.09,314.63c1-2.51,1.71-4.17,5.56-3.62l1.57-1.11c2.06-.69,3.32.48,4.08,2.32l.92.27a3.56,3.56,0,0,1,3.06,3.9v1.39a.76.76,0,0,0,.36.83c3.39,1.6,5.74,4.12,5.11,7.89,2.2,2.22-1.23,4.91-2.78,6.31-3,6.33-5.09,5.11-8.64,3.93-1.4,1.71-4.56,2.94-5.07-1.05-.53-6.41-6.31-7.05-11.46-5.74-4.4,1.12-10,5.14-13.87,7.52-.65-2.77,13.63-8.57,18.56-13.19.94-.88-1.28-1.64-1.9-3.55-.79-2.46-.31-5.55,4.5-6.1Z" transform="translate(-54 -290)"/></svg>