<svg xmlns="http://www.w3.org/2000/svg" width="23" height="37" viewBox="0 0 23 37"><g><g><path fill="#ff5858" d="M22.436 11.363c0 3.396-1.83 8.599-5.44 15.463a128.155 128.155 0 0 1-5.413 9.286.4.4 0 0 1-.325.182h-.01a.4.4 0 0 1-.323-.164c-.028-.037-2.758-3.775-5.451-8.656C1.842 20.89 0 15.47 0 11.364 0 5.096 5.02 0 11.193 0h.05c6.172 0 11.193 5.097 11.193 11.363zM11.218 6.368c-2.863 0-5.192 2.365-5.192 5.273 0 2.907 2.329 5.273 5.192 5.273s5.192-2.366 5.192-5.273c0-2.908-2.33-5.273-5.192-5.273z"/></g></g></svg>