<?xml version="1.0" encoding="UTF-8"?>
<!DOCTYPE svg PUBLIC "-//W3C//DTD SVG 1.1//EN" "http://www.w3.org/Graphics/SVG/1.1/DTD/svg11.dtd">
<!-- Creator: CorelDRAW 2019 (64-Bit) -->
<svg xmlns="http://www.w3.org/2000/svg" xml:space="preserve" width="445.916mm" height="280.371mm" version="1.1" style="shape-rendering:geometricPrecision; text-rendering:geometricPrecision; image-rendering:optimizeQuality; fill-rule:evenodd; clip-rule:evenodd"
viewBox="0 0 36251.21 22793.04"
 xmlns:xlink="http://www.w3.org/1999/xlink">
 <defs>
  <style type="text/css">
   <![CDATA[
    .fil1 {fill:#FFF7B2}
    .fil2 {fill:#FECC00}
    .fil0 {fill:#B0CB1F}
   ]]>
  </style>
 </defs>
 <g id="Слой_x0020_1">
  <metadata id="CorelCorpID_0Corel-Layer"/>
  <g id="_2579081553680">
   <path class="fil0" d="M11220.78 336.99c948.34,1730.88 -42.68,4221.21 136.31,4676.05 29.58,75.07 71.01,84.49 96.37,24.58 638.58,-1359.35 1796.55,-3768.27 3336.71,-4246.75 -27.37,1053.29 -999.63,2506.97 -1692.63,3645.16 -217.17,356.58 -574,429.87 -751.42,918.05 -201.73,535.96 -2212.33,1092.54 -2067.93,1507.28 935.88,-727.29 412.95,59.91 795.38,-188.14 614.06,-299.95 1109.82,-593.88 1022.49,-264.29 -14.48,54.96 47.17,25.75 237.9,-26.77 1784.37,-491.6 4222.75,-716.9 5240.81,265.85 -790.3,540.07 -2465.93,208.37 -3864.43,194.81 -18.58,-3.19 -23.72,43.84 38.25,72.74 434.32,202.02 2357.12,876.13 3013.95,1610.71 -2821.51,315.1 -4139.49,-1345.61 -5252.88,-1335.86 -864.66,-170.05 -88.82,614.09 -712.71,402.02 -329.66,-204.57 -545.19,-75.69 -701.39,-89.38 -227.21,-19.89 -283.92,-340.58 -175.54,-506.28 808.03,-1235.81 741.78,-2862.4 827.86,-4725.72 29.78,-647.21 257.23,-1324.12 472.9,-1934.06z"/>
   <path class="fil0" d="M5473.66 21052.72c-532.43,-56.43 -1023.38,-225.57 -1412.67,-680.81 114.68,-347.45 159.41,-671.11 201.11,-1033.18 -182.92,-1755.06 -1461.6,-3461.47 -1991.48,-5066.42 -605.29,-1833.12 -825.99,-3775.46 -1446.27,-5696.62 -132.33,-409.85 -330.64,-814.81 -519.89,-1203.8 -259.55,-527.08 -402.99,-964.65 -226.41,-1045.66 308.8,-141.54 1247.44,98.13 1652.48,807.63 578.22,1012.71 1056.14,2118.28 1426.5,3268.02 785.74,2439.65 1214.6,5078.49 1985.06,7452.23l74.76 -10.89c1157.14,-3079.85 2382.41,-6090.78 3507.5,-7836.18 224.44,-348.2 220.25,-789.41 253.01,-1150.64 58.73,-646.5 944.31,-747.61 1014.67,-541.16 133.37,390.91 256.57,1081.95 -893.17,1505.57 -286.15,77.28 -149.93,726.33 -354.75,1152.69 -224.44,467.23 -671.48,511.8 -679.36,775.01 -57.46,1921.63 -2101.14,4040.69 -2526.87,6094.7 -392.29,1126.85 -248.1,2070.7 -64.23,3209.5zm-4184.16 -13423.98c128.58,79.62 111.4,38.66 97.58,137.55 -7.32,52.48 18.52,114.22 -45.78,119.51 -102.19,8.5 -164.7,45.53 -149.3,-119.51 14.63,-158.2 -31.09,-217.17 97.5,-137.55zm100.25 531.82c1418.53,2363.51 2038.3,5175.07 2414.93,7891.49 -1464.04,-2378.42 -1571.81,-5259.07 -2414.93,-7891.49z"/>
   <path class="fil0" d="M5970.76 22106.06c339.48,32.32 185.41,41.53 366.34,184.31 104.47,82.47 172.43,302.76 67.14,389.47 -167.34,137.79 -202.71,214.26 -409.65,-161.32 -65.06,-117.94 -138.21,-163.39 -173.14,-227.73 -93.84,-172.42 64.91,-192.83 149.3,-184.72z"/>
   <path class="fil1" d="M14499.92 3948.98c9.84,208.67 -2202.55,1277.2 -1914.2,1422.76 695.42,-445.95 2088.59,-1530.03 2664.67,-360.17 -650.65,127.88 -1137.41,753.52 -1777.15,961.77 -423,137.63 -836.66,85.56 -1264.26,184.55 -15.43,3.48 -30.95,7.29 -46.34,11.22 -83.59,21.61 -167.67,78.87 -252.42,115.31l-962.39 450.19c-82.72,-47.66 -67.83,-202.01 -139.88,-188.78 -128.35,23.62 -402.64,204.57 -520.17,322.81 -33.53,33.77 -23.78,-44.99 -20.1,-66.05 31.78,-184.76 201.59,-297.1 745.05,-576.63 556.37,-286.16 1189.42,-611.11 1265.84,-768.22 229.65,-471.88 433.7,-711.93 907.14,-978.62 324.43,-182.75 751.62,-305.8 1314.19,-530.13z"/>
   <path class="fil2" d="M14794.15 2944.64c105.9,-265.97 180.04,-441.3 582.8,-383.16l165.14 -117.86c215.82,-72.83 348.36,51.27 427.51,245.53l97.2 29.45c220.22,52.53 320.57,182.41 320.57,412.7l0 147.28c0,0 -13.64,62.9 37.63,87.15 355.79,169.4 602.32,436.84 535.53,836.3 231.52,234.21 -128.46,519.75 -291.41,668.1 -316.05,669.34 -533.83,540.83 -906.09,415.14 -146.56,181.15 -477.71,311.49 -531.73,-110.63 -55.46,-678.79 -661.64,-746.35 -1201.25,-607.54 -461.49,118.7 -1045.65,543.89 -1454.38,796.11 -68.15,-293.5 1429.53,-907.15 1946.48,-1396.42 98.03,-92.98 -134.64,-174.07 -199.23,-376.63 -83.05,-260.33 -33.14,-587.19 471.23,-645.51z"/>
  </g>
  <path class="fil0" d="M36251.21 7495.7c-1394.98,251.02 -3820.69,-919.04 -4868.56,-2106.28 1762.15,-546.74 3709.5,1003.89 4868.56,2106.28z"/>
  <path class="fil0" d="M24112.18 2617.78c900.3,-1081.76 2256.52,-2540.16 3549.45,-2617.78 -255.51,933.23 -1441.41,2016.17 -2309.11,2879.05 -271.86,270.31 -606.15,257.38 -871.45,653.76 -124.12,180.95 -529.86,295.98 -957.82,397.8l38.11 -54.79c111.8,-454.38 271.5,-816.51 550.83,-1258.03z"/>
  <path class="fil0" d="M25610.05 5432.75c-524.29,957.86 -1564.1,1540.66 -2437.17,1937.31 -354.69,157.19 -1207.9,679.02 -2495.46,395.64 -60.16,-5.54 -123.83,-29.86 -174.22,-27.84 1033.65,-315.99 2054.61,-989.11 3222.59,-1661.89 561.36,-323.5 1254.18,-496.43 1884.26,-643.23z"/>
 </g>
</svg>
