<svg xmlns="http://www.w3.org/2000/svg" width="13" height="14" viewBox="0 0 13 14"><defs><clipPath id="1kv0a"><path fill="#fff" d="M12.663 10.274l-1.822-1.955a1.18 1.18 0 0 0-2.018.49c-.195.627-.846.976-1.432.837-1.302-.35-3.059-2.164-3.384-3.63-.195-.628.195-1.326.78-1.535.847-.279 1.107-1.466.456-2.163L3.421.364c-.52-.489-1.302-.489-1.757 0L.427 1.69c-1.237 1.395.13 5.094 3.19 8.374 3.058 3.28 6.508 4.816 7.81 3.42l1.236-1.326c.456-.558.456-1.396 0-1.884z"/></clipPath></defs><g><g><path fill="#f6f8fb" d="M12.663 10.274l-1.822-1.955a1.18 1.18 0 0 0-2.018.49c-.195.627-.846.976-1.432.837-1.302-.35-3.059-2.164-3.384-3.63-.195-.628.195-1.326.78-1.535.847-.279 1.107-1.466.456-2.163L3.421.364c-.52-.489-1.302-.489-1.757 0L.427 1.69c-1.237 1.395.13 5.094 3.19 8.374 3.058 3.28 6.508 4.816 7.81 3.42l1.236-1.326c.456-.558.456-1.396 0-1.884z"/><path fill="none" stroke="#000" stroke-linecap="round" stroke-linejoin="round" stroke-miterlimit="20" stroke-width="2" d="M12.663 10.274l-1.822-1.955a1.18 1.18 0 0 0-2.018.49c-.195.627-.846.976-1.432.837-1.302-.35-3.059-2.164-3.384-3.63-.195-.628.195-1.326.78-1.535.847-.279 1.107-1.466.456-2.163L3.421.364c-.52-.489-1.302-.489-1.757 0L.427 1.69c-1.237 1.395.13 5.094 3.19 8.374 3.058 3.28 6.508 4.816 7.81 3.42l1.236-1.326c.456-.558.456-1.396 0-1.884z" clip-path="url(&quot;#1kv0a&quot;)"/></g></g></svg>