<svg xmlns="http://www.w3.org/2000/svg" width="39" height="33" viewBox="0 0 39 33"><g><g><path fill="#bb793a" d="M38.971 19.284a3.5 3.5 0 0 1-1.399 2.369l-10.308 7.752a6.273 6.273 0 0 1-3.72 1.238H7.313v1.178c0 .65-.546 1.179-1.219 1.179H1.22c-.673 0-1.22-.528-1.22-1.179v-16.5c0-.65.547-1.178 1.22-1.178h4.874c.673 0 1.22.528 1.22 1.178V16.5l13.405.002c.672 0 1.218.528 1.218 1.179 0 2.308-.992 4.391-2.578 5.89h2.09a4.931 4.931 0 0 0 2.974-.994l8.685-6.513a3.647 3.647 0 0 1 2.669-.717 3.68 3.68 0 0 1 2.454 1.349c.595.73.86 1.652.741 2.588zM4.875 16.5H2.437v14.143h2.438zm31.434 1.648a1.245 1.245 0 0 0-.83-.462 1.235 1.235 0 0 0-.868.235l-8.685 6.51a7.441 7.441 0 0 1-4.477 1.498h-8.044c-.672 0-1.218-.528-1.218-1.18 0-.65.546-1.178 1.218-1.178 2.942 0 5.407-2.027 5.972-4.712l-12.065-.002v9.429h16.233c.79 0 1.584-.264 2.23-.745l10.305-7.75c.266-.2.432-.484.473-.8a1.116 1.116 0 0 0-.244-.843zm-2.186-16.97v11.786c0 .65-.546 1.179-1.219 1.179-.672 0-1.218-.528-1.218-1.179V2.357h-7.312V8.25c0 .436-.249.834-.644 1.037a1.24 1.24 0 0 1-1.25-.056l-2.981-1.922-2.979 1.922c-.377.24-.855.264-1.252.056a1.169 1.169 0 0 1-.644-1.037V2.357H7.312v8.25c0 .65-.546 1.179-1.219 1.179-.672 0-1.218-.528-1.218-1.179V1.178C4.875.528 5.42 0 6.093 0h26.811c.673 0 1.22.528 1.22 1.178zm-12.187 1.18h-4.874v3.688l1.76-1.134c.409-.261.943-.261 1.352 0l1.762 1.134z"/></g></g></svg>