<svg width="37" height="37" fill="#bb793a" id="Capa_1" enable-background="new 0 0 512.002 512.002" viewBox="0 0 512.002 512.002" xmlns="http://www.w3.org/2000/svg"><g><path d="m168.544 153.008c-5.721-.165-10.854 2.826-13.551 7.542-.58 1.011 5.349-11.655-153.594 330.125-2.668 5.736-1.45 12.53 3.045 16.982 4.455 4.414 11.252 5.629 17.01 2.884 344.59-164.244 321.442-153.16 322.622-153.914 3.339-2.139 5.648-5.444 6.531-9.263.545-2.38.392-3.86.392-11.364.001-100.724-81.798-182.697-182.455-182.992zm-9.475 69.771c16.389 61.937 64.512 111.098 125.843 128.957l-238.73 113.786zm24.125-39.029c74.721 7.403 133.814 68.794 137.612 144.503-74.72-7.403-133.814-68.794-137.612-144.503z"/><path d="m150.71 373.071c-1.88-9.017-10.864-13.917-19.06-11.42-8.398 2.677-12.27 11.103-10 18.71 2.796 8.579 11.253 12.205 18.71 9.99 7.95-2.599 11.706-10.039 10.35-17.28z"/><path d="m174.71 301.071c-1.842-8.831-10.618-13.939-19.07-11.42-8.496 2.769-12.229 11.205-9.99 18.71 2.797 8.583 11.254 12.205 18.71 9.99 7.902-2.583 11.715-9.992 10.35-17.28z"/><path d="m214.93 350.521c-.889-8.567-8.79-14.937-17.86-13.23-8.106 1.69-13.341 9.343-11.78 17.64 1.672 8.058 9.292 13.343 17.64 11.78 7.955-1.658 12.749-8.901 12-16.19z"/><path d="m492.362 129.449-12.007 3.002c-18.461 4.615-31.355 21.13-31.355 40.159v16.399c0 7.571-7.24 13.041-14.525 10.956-19.986-5.71-41.232 4.391-49.42 23.496l-14.842 34.631c-3.263 7.614.264 16.433 7.878 19.696 7.615 3.263 16.433-.264 19.696-7.878l14.842-34.631c2.254-5.259 8.104-8.04 13.604-6.468 26.456 7.557 52.767-12.272 52.767-39.802v-16.399c0-5.238 3.549-9.784 8.631-11.054l12.007-3.002c8.037-2.01 12.923-10.154 10.914-18.19-2.009-8.037-10.152-12.924-18.19-10.915z"/><path d="m416.653 88.237 19.034-38.067c3.845-7.689 11.233-12.917 19.764-13.983 3.024-.376-11.141 1.62 43.705-6.341 8.198-1.19 13.88-8.801 12.689-16.999-1.189-8.198-8.8-13.878-16.999-12.689l-43.277 6.282c-18.439 2.358-34.398 13.681-42.715 30.314l-19.034 38.066c-4.374 8.747-13.166 14.181-22.945 14.181-33.873 0-59.879 30.031-55.095 63.525l1.371 9.597c1.069 7.481 7.486 12.88 14.831 12.88 9.166 0 16.156-8.105 14.868-17.124l-1.371-9.596c-2.208-15.457 9.8-29.282 25.396-29.282 21.216 0 40.291-11.788 49.778-30.764z"/><path d="m210.073 117.572c2.346 5.865 7.979 9.433 13.932 9.433 10.567 0 17.869-10.709 13.923-20.575-3.706-9.263 3.061-19.429 13.154-19.429h3.622c21.838 0 40.635-16.303 43.724-37.921l4.422-30.958c1.172-8.201-4.527-15.799-12.728-16.97-8.193-1.171-15.798 4.526-16.97 12.728l-4.422 30.958c-.991 6.934-7.021 12.164-14.025 12.164h-3.622c-31.183-.001-52.623 31.536-41.01 60.57z"/><path d="m337.291 26.931c1.669 8.044 9.279 13.345 17.64 11.78 8.182-1.706 13.321-9.41 11.78-17.64-1.852-8.882-10.659-13.927-19.07-11.42-7.942 2.588-11.711 10.049-10.35 17.28z"/><path d="m398.35 155.642c-2.969-9.119-12.496-12.694-20.09-9.49-8.007 3.382-11.172 12.34-8.11 19.59 3.393 8.042 12.375 11.158 19.59 8.11 7.161-3.029 10.835-10.754 8.61-18.21z"/><path d="m486.35 83.642c-2.965-9.108-12.491-12.696-20.09-9.49-7.992 3.375-11.177 12.327-8.11 19.59 3.359 7.96 12.296 11.191 19.59 8.11 7.198-3.045 10.823-10.795 8.61-18.21z"/><path d="m454.71 285.071c-1.842-8.831-10.618-13.939-19.07-11.42-8.52 2.777-12.221 11.232-9.99 18.71 2.815 8.637 11.385 12.211 18.7 9.99 7.733-2.473 11.756-9.826 10.36-17.28z"/><path d="m286.35 131.642c-2.982-9.159-12.545-12.673-20.09-9.49-8.062 3.405-11.149 12.394-8.11 19.59 3.393 8.042 12.375 11.158 19.59 8.11 7.147-3.024 10.839-10.739 8.61-18.21z"/><path d="m193.291 18.931c1.681 8.102 9.337 13.334 17.64 11.78 8.121-1.694 13.332-9.35 11.78-17.64-1.839-8.817-10.605-13.943-19.07-11.42-7.912 2.579-11.717 10.018-10.35 17.28z"/></g></svg>