<svg xmlns="http://www.w3.org/2000/svg" xmlns:xlink="http://www.w3.org/1999/xlink" width="29" height="29" viewBox="0 0 29 29"><defs><path id="a" d="M553.5 4242.04v2.19c0 .34-.28.63-.64.63h-2.23a.63.63 0 0 1-.64-.63v-2.2c0-.34.28-.62.64-.62h2.23c.36 0 .64.28.64.63zm5.6 2.19c0 .34-.3.63-.65.63h-2.23a.63.63 0 0 1-.65-.63v-2.2c0-.34.3-.62.65-.62h2.23c.35 0 .64.28.64.63zm5.58 0c0 .34-.29.63-.64.63h-2.24a.63.63 0 0 1-.64-.63v-2.2c0-.34.29-.62.64-.62h2.24c.35 0 .64.28.64.63zm-11.18 3.28v2.2c0 .34-.28.62-.64.62h-2.23a.63.63 0 0 1-.64-.62v-2.2c0-.34.28-.62.64-.62h2.23c.36 0 .64.28.64.62zm5.6 2.2c0 .34-.3.62-.65.62h-2.23a.63.63 0 0 1-.65-.62v-2.2c0-.34.3-.62.65-.62h2.23c.35 0 .64.28.64.62zm5.58-2.2v2.2c0 .34-.29.62-.64.62h-2.24a.63.63 0 0 1-.64-.62v-2.2c0-.34.29-.62.64-.62h2.24c.35 0 .64.28.64.62zm6.45-15.18v19.62c0 1.37-1.13 2.5-2.53 2.5h-22.54a2.52 2.52 0 0 1-2.53-2.5v-19.62c0-1.35 1.11-2.44 2.46-2.48v3.35a2.76 2.76 0 0 0 2.8 2.73h1.76a2.78 2.78 0 0 0 2.81-2.73v-3.36h7.95v3.36a2.78 2.78 0 0 0 2.8 2.73h1.77c1.54 0 2.8-1.22 2.8-2.73v-3.35a2.52 2.52 0 0 1 2.45 2.48zm-3.27 18.4v-10.14c0-.6-.5-1.07-1.1-1.07h-18.9c-.61 0-1.1.48-1.1 1.07v10.14c0 .59.49 1.07 1.1 1.07h18.9c.6 0 1.1-.48 1.1-1.07zm-20.04-17.54v-5.48c0-.52.43-.94.96-.94h1.74c.53 0 .96.42.96.94v5.48c0 .52-.43.94-.96.94h-1.74a.95.95 0 0 1-.96-.94zm15.32 0v-5.48c0-.52.43-.94.96-.94h1.74c.53 0 .96.42.96.94v5.48c0 .52-.43.94-.96.94h-1.74a.95.95 0 0 1-.96-.94z"/></defs><use fill="#b2b2b2" xlink:href="#a" transform="translate(-543 -4226)"/></svg>