<svg version="1.1" id="Layer_1" xmlns="http://www.w3.org/2000/svg" xmlns:xlink="http://www.w3.org/1999/xlink" x="0px" y="0px" viewBox="0 0 112 111.5" enable-background="new 0 0 112 111.5" xml:space="preserve">
                <g>
                    <path fill="none" stroke="#008FD5" stroke-miterlimit="10" d="M27.3,37.9v18.4c-5.5,0.9-9.7,5.6-9.7,11.3c0,5.7,4.2,10.5,9.7,11.3
                        v13.9c0,1.2,1,2.2,2.2,2.2s2.2-1,2.2-2.2v-14c5-1.2,8.8-5.7,8.8-11.2c0-5.4-3.8-10-8.8-11.2V37.9 M29.1,74.6c-3.9,0-7-3.1-7-7
                        s3.1-7,7-7s7,3.1,7,7S32.9,74.6,29.1,74.6z M56.3,29.6V10c0-1.2-1-2.2-2.2-2.2s-2.2,1-2.2,2.2v19.5c-5.5,0.9-9.7,5.6-9.7,11.3
                        c0,5.7,4.2,10.5,9.7,11.3v48.1c0,1.2,1,2.2,2.2,2.2s2.2-1,2.2-2.2V51.9c5-1.2,8.8-5.7,8.8-11.2C65.1,35.3,61.4,30.8,56.3,29.6z
                         M53.7,47.8c-3.9,0-7-3.1-7-7s3.1-7,7-7s7,3.1,7,7S57.5,47.8,53.7,47.8z M77.6,39.3v9.2c-5.5,0.9-9.7,5.6-9.7,11.3
                        c0,5.7,4.2,10.5,9.7,11.3v20.5c0,1.2,1,2.2,2.2,2.2c1.2,0,2.2-1,2.2-2.2V71c5-1.2,8.8-5.7,8.8-11.2c0-5.4-3.8-10-8.8-11.2v-6.3
                         M79.8,40.1 M79.4,66.8c-3.9,0-7-3.1-7-7s3.1-7,7-7s7,3.1,7,7S83.2,66.8,79.4,66.8z"></path>
                    <g>
                        <path fill="none" stroke="#008FD5" stroke-linecap="round" stroke-miterlimit="10" d="M31.5,40.3V9.4c0-2.6,4-4.9,6.4-5.8
                            c3.9-1.4,10.3-3.1,18-3.1c8.7,0,14.6,1.7,18.1,3.1c2.3,0.9,3.5,3.2,3.5,5.6v31.1"></path>
                        <path fill="none" stroke="#008FD5" stroke-linecap="round" stroke-miterlimit="10" d="M56,111C25.3,111,0.5,86.1,0.5,55.5
                            c0-17.6,8.2-33.2,20.9-43.4c2.2-1.8,5.9-0.1,5.9,2.7v25.5"></path>
                        <path fill="none" stroke="#008FD5" stroke-linecap="round" stroke-miterlimit="10" d="M56,111c30.6,0,55.5-24.8,55.5-55.5
                            c0-17.6-11.2-36.2-23.9-46.4c-2.2-1.7-5.4-0.2-5.4,2.6v33.1"></path>
                    </g>
                </g>
            </svg>