<svg xmlns="http://www.w3.org/2000/svg" xmlns:xlink="http://www.w3.org/1999/xlink" width="27" height="30" viewBox="0 0 27 30"><defs><path id="ghoja" d="M393.92 1200.17c-.47 1.79-1.56 2.18-2.14 2.26-.36.72-1.14 2.18-1.93 2.91-.31.3-.72.55-1.21.74a5.3 5.3 0 0 1-3.94 0c-.5-.2-.9-.44-1.21-.74-.8-.73-1.58-2.2-1.93-2.91-.59-.08-1.67-.47-2.14-2.26-.25-.95-.19-1.73.2-2.31.16-.26.36-.43.54-.55 0-.2.01-.43.04-.7-.34-.47-.8-1.48-.23-3.12.6-1.74 1.95-2 2.61-2.03.22-.4.64-1 1.4-1.53a5.4 5.4 0 0 1 3.1-.93c1.42 0 2.85.5 4.14 1.45 2.08 1.54 1.9 4.95 1.86 5.57.07.52.1.97.1 1.29.18.12.38.3.55.55.37.58.44 1.36.19 2.31zm6.1 13.3v4.84c0 .38-.31.69-.7.69h-25.31a.69.69 0 0 1-.69-.69v-4.84a4.8 4.8 0 0 1 3.03-4.48l6-2.4a.69.69 0 0 1 .9.4l1.5 4.17.3-.86-.48-1.16a.69.69 0 0 1 .64-.94h2.92a.69.69 0 0 1 .64.94l-.48 1.16.3.86 1.5-4.17a.69.69 0 0 1 .9-.4l6 2.4a4.8 4.8 0 0 1 3.02 4.48zm-4.34-.16h-4.6c-.38 0-.68.3-.68.69v2.13c0 .38.3.7.68.7h4.6c.38 0 .69-.32.69-.7V1214c0-.38-.31-.7-.69-.7z"/><linearGradient id="ghojb" x1="386.32" x2="387.01" y1="1189" y2="1219" gradientUnits="userSpaceOnUse"><stop offset="0" stop-color="#508ab3"/><stop offset="1" stop-color="#883759"/></linearGradient></defs><g><g transform="translate(-373 -1189)"><use fill="#8fa3aa" xlink:href="#ghoja"/><use fill="url(#ghojb)" xlink:href="#ghoja"/></g></g></svg>