<svg xmlns="http://www.w3.org/2000/svg" xmlns:xlink="http://www.w3.org/1999/xlink" width="32" height="30" viewBox="0 0 32 30"><defs><path id="kfjra" d="M72.03 1191.65v18.62a2.62 2.62 0 0 1-2.59 2.65H58.91v2.96h2.05c.34 0 .62.29.62.63v1.85c0 .35-.28.64-.62.64h-9.9a.63.63 0 0 1-.62-.64v-1.85c0-.34.28-.63.62-.63h2.06v-2.97H42.58a2.62 2.62 0 0 1-2.58-2.65v-18.6a2.62 2.62 0 0 1 2.58-2.66h26.86a2.63 2.63 0 0 1 2.59 2.65zm-3.53 17.62v-16.65H43.53v16.65zm-10.94-2.26h-3.1v-12.08h3.1zm-2.27-10.2l1-1.03h-1zm1.44 8.32l-1 1.03h1zm0-2.17l-1.44 1.48v1.04l1.44-1.47zm0-2.17l-1.44 1.48v1.04l1.44-1.47zm0-2.17l-1.44 1.48v1.05l1.44-1.48zm0-2.17l-1.44 1.48v1.04l1.44-1.47zm2.1 4.06h3.09v6.5h-3.1zm-5.63 6.5h-3.1v-9.14h3.1zm-.83-8.29h-1.44v7.44h1.44z"/></defs><g><g transform="translate(-40 -1189)"><use fill="#269bbb" xlink:href="#kfjra"/></g></g></svg>