<svg width="94" height="108" viewBox="0 0 94 108" fill="none" xmlns="http://www.w3.org/2000/svg">
<path d="M46.9393 14.1844C45.5571 14.1844 44.4365 15.305 44.4365 16.6872V18.2961C44.4365 19.6784 45.5571 20.7989 46.9393 20.7989C48.3215 20.7989 49.4421 19.6784 49.4421 18.2961V16.6872C49.4421 15.3046 48.3215 14.1844 46.9393 14.1844Z" fill="white"/>
<path d="M46.9393 66.329C45.5571 66.329 44.4365 67.4495 44.4365 68.8318V71.8441C44.4365 73.2263 45.5571 74.3468 46.9393 74.3468C48.3215 74.3468 49.4421 73.2263 49.4421 71.8441V68.8318C49.4421 67.4495 48.3215 66.329 46.9393 66.329Z" fill="white"/>
<path d="M46.9393 52.942C45.5571 52.942 44.4365 54.0626 44.4365 55.4448V58.4571C44.4365 59.8393 45.5571 60.9599 46.9393 60.9599C48.3215 60.9599 49.4421 59.8393 49.4421 58.4571V55.4448C49.4421 54.0626 48.3215 52.942 46.9393 52.942Z" fill="white"/>
<path d="M46.9393 26.1681C45.5571 26.1681 44.4365 27.2886 44.4365 28.6709V31.6831C44.4365 33.0654 45.5571 34.1859 46.9393 34.1859C48.3215 34.1859 49.4421 33.0654 49.4421 31.6831V28.6709C49.4421 27.2886 48.3215 26.1681 46.9393 26.1681Z" fill="white"/>
<path d="M46.9393 39.5554C45.5571 39.5554 44.4365 40.6759 44.4365 42.0582V45.0701C44.4365 46.4523 45.5571 47.5729 46.9393 47.5729C48.3215 47.5729 49.4421 46.4523 49.4421 45.0701V42.0582C49.4421 40.6756 48.3215 39.5554 46.9393 39.5554Z" fill="white"/>
<path d="M46.9393 79.7164C45.5571 79.7164 44.4365 80.8369 44.4365 82.2191V83.8281C44.4365 85.2103 45.5571 86.3308 46.9393 86.3308C48.3215 86.3308 49.4421 85.2103 49.4421 83.8281V82.2191C49.4421 80.8369 48.3215 79.7164 46.9393 79.7164Z" fill="white"/>
<path d="M89.6649 74.1484C81.5395 74.1484 74.9293 64.8002 74.9293 53.3092C74.9293 41.8183 81.5395 32.4697 89.6649 32.4697C90.9592 32.4697 92.1523 31.7704 92.7848 30.6409C93.4169 29.5114 93.3894 28.1288 92.7129 27.0255L83.034 11.2426C82.4615 10.3094 81.4933 9.68945 80.4057 9.56109C79.3181 9.43166 78.2326 9.80922 77.4578 10.5833C74.0919 13.9492 68.6158 13.9485 65.2503 10.5833C63.6199 8.95327 62.7222 6.78516 62.7218 4.47939C62.7214 2.50505 61.1207 0.90435 59.1464 0.90435H34.7315C32.7571 0.90435 31.1564 2.50505 31.1561 4.47939C31.1557 6.78516 30.2576 8.95327 28.6276 10.5833C25.2624 13.9492 19.7856 13.9485 16.4201 10.5833C15.6453 9.80922 14.5577 9.43166 13.4722 9.56109C12.3849 9.68945 11.4163 10.3094 10.8439 11.2426L1.16533 27.0255C0.488504 28.1288 0.460974 29.5114 1.09346 30.6409C1.72595 31.7704 2.91906 32.4697 4.21335 32.4697C12.3388 32.4697 18.949 41.8183 18.949 53.3092C18.949 64.8002 12.3388 74.1484 4.21335 74.1484C2.99414 74.1484 1.85895 74.7698 1.2018 75.7967C0.54428 76.8235 0.455968 78.1146 0.966892 79.2219L7.07045 92.448C7.73583 93.8896 9.27217 94.7216 10.8421 94.4863C11.0956 94.4491 36.3372 90.8791 43.5291 105.131C44.1315 106.324 45.3497 107.082 46.6865 107.095C46.698 107.095 46.7094 107.095 46.7212 107.095C48.0448 107.095 49.2615 106.363 49.8815 105.192C57.6126 90.5809 82.8749 93.4498 83.1291 93.4806C84.6304 93.664 86.0834 92.8828 86.7595 91.5302L92.8631 79.3224C93.4173 78.214 93.3579 76.8979 92.7065 75.8439C92.055 74.7902 90.9041 74.1484 89.6649 74.1484ZM81.4458 86.1685C74.7251 85.7763 56.5825 85.8839 46.7505 97.1929C39.185 88.4857 26.2517 86.9051 17.8545 86.9051C15.7168 86.9051 13.8737 87.0077 12.4875 87.121L9.43843 80.5137C13.4511 79.2787 17.0994 76.6151 20.0216 72.7186C23.9413 67.4925 26.0998 60.5998 26.0998 53.3096C26.0998 46.0194 23.9413 39.1267 20.0216 33.9006C17.2371 30.1879 13.7943 27.5943 10.0044 26.2896L14.9027 18.3022C20.8997 21.6059 28.6058 20.7177 33.6839 15.64C35.803 13.5208 37.2453 10.9051 37.9021 8.05514H55.9754C56.6322 10.9051 58.0745 13.5208 60.1936 15.64C65.2721 20.7181 72.9778 21.6059 78.9748 18.3022L83.8731 26.2896C80.0832 27.5943 76.6404 30.1879 73.8563 33.9002C69.9366 39.1264 67.7781 46.0194 67.7781 53.3092C67.7781 60.5995 69.9366 67.4921 73.8563 72.7183C76.7434 76.5679 80.3388 79.214 84.2947 80.4683L81.4458 86.1685Z" fill="white"/>
</svg>
