<svg width="19" height="19" viewBox="0 0 19 19" fill="none" xmlns="http://www.w3.org/2000/svg">
<path d="M18.4834 13.9441L15.8319 11.2926C14.885 10.3456 13.2751 10.7244 12.8963 11.9555C12.6122 12.8078 11.6653 13.2812 10.813 13.0918C8.91907 12.6183 6.36226 10.1562 5.88877 8.16759C5.60468 7.31528 6.17286 6.36831 7.02513 6.08426C8.25619 5.70547 8.63498 4.09563 7.68801 3.14866L5.0365 0.497158C4.27893 -0.165719 3.14257 -0.165719 2.47969 0.497158L0.680456 2.29639C-1.11878 4.19033 0.869849 9.20925 5.32059 13.66C9.77134 18.1107 14.7903 20.1941 16.6842 18.3001L18.4834 16.5009C19.1463 15.7433 19.1463 14.607 18.4834 13.9441Z" fill="#CA9F72"/>
</svg>
