<svg version="1.1" id="Layer_11" xmlns="http://www.w3.org/2000/svg" xmlns:xlink="http://www.w3.org/1999/xlink" x="0px" y="0px" viewBox="0 0 145.4 145.4" enable-background="new 0 0 145.4 145.4" xml:space="preserve">
                        <circle fill="#e1e2e3" cx="72.7" cy="72.7" r="72.7"></circle><circle fill="#888888" cx="72.7" cy="72.7" r="54.7"></circle><circle fill="#FFFFFF" cx="72.7" cy="72.7" r="52.7"></circle>
    <g> <g> <path fill="#0070c9" d="M72.8,105.5c-16.7,0-30.3-13.6-30.3-30.3c0-16.7,13.6-30.3,30.3-30.3c16.7,0,30.3,13.6,30.3,30.3            C103,91.9,89.5,105.5,72.8,105.5z M72.8,48.9c-14.5,0-26.3,11.8-26.3,26.3s11.8,26.3,26.3,26.3c14.5,0,26.3-11.8,26.3-26.3            S87.2,48.9,72.8,48.9z"></path> </g> <g> <path fill="#0070c9" d="M62,95.2c-0.2,0-0.3,0-0.5-0.1C54.3,91,49.9,83.4,49.9,75.2c0-0.6,0.4-1,1-1c0.6,0,1,0.4,1,1            c0,7.5,4.1,14.5,10.6,18.2c0.5,0.3,0.6,0.9,0.4,1.4C62.7,95,62.3,95.2,62,95.2z"></path> </g> <g> <path fill="#0070c9" d="M67.7,98.1c-0.1,0-0.2,0-0.3,0c-0.4-0.1-0.8-0.2-1.3-0.4c-0.5-0.2-0.8-0.7-0.6-1.3            c0.2-0.5,0.7-0.8,1.3-0.6c0.4,0.1,0.8,0.2,1.2,0.3c0.5,0.1,0.9,0.7,0.7,1.2C68.5,97.8,68.1,98.1,67.7,98.1z"></path> </g> <g> <path fill="#0070c9" d="M100,56c-0.5,0-1-0.2-1.4-0.6l-5.2-5.2c-0.8-0.8-0.8-2,0-2.8c0.8-0.8,2-0.8,2.8,0l5.2,5.2            c0.8,0.8,0.8,2,0,2.8C101,55.8,100.5,56,100,56z"></path> </g> <g> <path fill="#0070c9" d="M78.5,83.2c-0.5,0-1-0.2-1.4-0.5l-5.9-5.5c-0.4-0.4-0.7-0.9-0.7-1.5V58.8c0-1.1,0.9-2,2-2c1.1,0,2,0.9,2,2            v16l5.2,4.9c0.8,0.8,0.9,2,0.1,2.8C79.6,82.9,79.1,83.2,78.5,83.2z"></path> </g> <g> <path fill="#0070c9" d="M72.6,47.8c-1.1,0-2-0.9-2-2v-4c0-1.1,0.9-2,2-2c1.1,0,2,0.9,2,2v4C74.6,46.9,73.7,47.8,72.6,47.8z"></path> </g></g>
    <circle fill="#e1e2e3" cx="72.7" cy="72.7" r="72.7"></circle><circle fill="#888888" cx="72.7" cy="72.7" r="54.7"></circle><circle fill="#FFFFFF" cx="72.7" cy="72.7" r="52.7"></circle>
    <g> <g> <path fill="#0070c9" d="M72.8,105.5c-16.7,0-30.3-13.6-30.3-30.3c0-16.7,13.6-30.3,30.3-30.3c16.7,0,30.3,13.6,30.3,30.3            C103,91.9,89.5,105.5,72.8,105.5z M72.8,48.9c-14.5,0-26.3,11.8-26.3,26.3s11.8,26.3,26.3,26.3c14.5,0,26.3-11.8,26.3-26.3            S87.2,48.9,72.8,48.9z"></path> </g> <g> <path fill="#0070c9" d="M62,95.2c-0.2,0-0.3,0-0.5-0.1C54.3,91,49.9,83.4,49.9,75.2c0-0.6,0.4-1,1-1c0.6,0,1,0.4,1,1            c0,7.5,4.1,14.5,10.6,18.2c0.5,0.3,0.6,0.9,0.4,1.4C62.7,95,62.3,95.2,62,95.2z"></path> </g> <g> <path fill="#0070c9" d="M67.7,98.1c-0.1,0-0.2,0-0.3,0c-0.4-0.1-0.8-0.2-1.3-0.4c-0.5-0.2-0.8-0.7-0.6-1.3            c0.2-0.5,0.7-0.8,1.3-0.6c0.4,0.1,0.8,0.2,1.2,0.3c0.5,0.1,0.9,0.7,0.7,1.2C68.5,97.8,68.1,98.1,67.7,98.1z"></path> </g> <g> <path fill="#0070c9" d="M100,56c-0.5,0-1-0.2-1.4-0.6l-5.2-5.2c-0.8-0.8-0.8-2,0-2.8c0.8-0.8,2-0.8,2.8,0l5.2,5.2            c0.8,0.8,0.8,2,0,2.8C101,55.8,100.5,56,100,56z"></path> </g> <g> <path fill="#0070c9" d="M78.5,83.2c-0.5,0-1-0.2-1.4-0.5l-5.9-5.5c-0.4-0.4-0.7-0.9-0.7-1.5V58.8c0-1.1,0.9-2,2-2c1.1,0,2,0.9,2,2            v16l5.2,4.9c0.8,0.8,0.9,2,0.1,2.8C79.6,82.9,79.1,83.2,78.5,83.2z"></path> </g> <g> <path fill="#0070c9" d="M72.6,47.8c-1.1,0-2-0.9-2-2v-4c0-1.1,0.9-2,2-2c1.1,0,2,0.9,2,2v4C74.6,46.9,73.7,47.8,72.6,47.8z"></path> </g></g></svg>