<svg display="none" width="0" height="0" version="1.1" xmlns="http://www.w3.org/2000/svg" xmlns:xlink="http://www.w3.org/1999/xlink">

	<symbol id="edit" viewBox="0 0 611 611">
        <path d="M529.5,157.6l-76.3-76.3L216.8,317.9l77.2,75.4L529.5,157.6z M518.9,15.8l-39.1,39.1l76.3,76.3l39.1-39.1
	c21-21.1,21.1-55.2,0-76.3C574.2-5.3,540-5.3,518.9,15.8z M139.3,471.8l130.2-54.9l-75.9-74.1L139.3,471.8z M533.8,224.1l-73.6,72.6
	v239.8H71.3V149.2H316l68.1-72H0V611h533.8V224.1z"/>
	</symbol>

	<symbol id="user" viewBox="0 0 266.2 350">
        <path d="M133.1,171.2c38.9,0,70.5-38.3,70.5-85.6c0-47.3-10.4-85.6-70.5-85.6S62.6,38.3,62.6,85.6
	C62.6,132.9,94.2,171.2,133.1,171.2z M0,301.9C0,299,0,301,0,301.9z M266.2,304.1C266.2,303.3,266.2,298.6,266.2,304.1z M266,298.4
	c-1.3-82.3-12.1-105.8-94.4-120.7c0,0-11.6,14.8-38.6,14.8l-38.6-14.8c-81.4,14.7-92.8,37.8-94.3,118c-0.1,6.5-0.2,6.9-0.2,6.1
	c0,1.4,0,4.1,0,8.7c0,0,19.6,39.5,133.1,39.5c113.5,0,133.1-39.5,133.1-39.5c0-3,0-5,0-6.4C266.2,304.6,266.1,303.7,266,298.4
	L266,298.4z"/>
	</symbol>

	<symbol id="calendar" viewBox="0 0 512 512">
        <path d="M472,40h-8V24c0-13.2-10.8-24-24-24s-24,10.8-24,24v16H96V24C96,10.8,85.2,0,72,0S48,10.8,48,24v16h-8C17.9,40,0,57.9,0,80
	v352c0,22.1,17.9,40,40,40h88c4.4,0,8-3.6,8-8s-3.6-8-8-8H40c-13.2,0-24-10.8-24-24V128h384c4.4,0,8-3.6,8-8s-3.6-8-8-8H16V80
	c0-13.2,10.8-24,24-24h8v16c0,13.2,10.8,24,24,24s24-10.8,24-24V56h320v16c0,13.2,10.8,24,24,24s24-10.8,24-24V56h8
	c13.2,0,24,10.8,24,24v32h-16c-4.4,0-8,3.6-8,8s3.6,8,8,8h16v304c0,13.2-10.8,24-24,24h-88c-4.4,0-8,3.6-8,8s3.6,8,8,8h88
	c22.1,0,40-17.9,40-40V80C512,57.9,494.1,40,472,40z M80,72c0,4.4-3.6,8-8,8s-8-3.6-8-8V24c0-4.4,3.6-8,8-8s8,3.6,8,8V72z M440,80
	c-4.4,0-8-3.6-8-8V24c0-4.4,3.6-8,8-8s8,3.6,8,8v24l0,0l0,0v24C448,76.4,444.4,80,440,80z M448,128c4.4,0,8-3.6,8-8s-3.6-8-8-8h-16
	c-4.4,0-8,3.6-8,8s3.6,8,8,8H448z M248,200h16c4.4,0,8-3.6,8-8s-3.6-8-8-8h-16c-4.4,0-8,3.6-8,8S243.6,200,248,200z M248,240h16
	c4.4,0,8-3.6,8-8s-3.6-8-8-8h-16c-4.4,0-8,3.6-8,8S243.6,240,248,240z M304,200h16c4.4,0,8-3.6,8-8s-3.6-8-8-8h-16c-4.4,0-8,3.6-8,8
	S299.6,200,304,200z M304,240h16c4.4,0,8-3.6,8-8s-3.6-8-8-8h-16c-4.4,0-8,3.6-8,8S299.6,240,304,240z M192,200h16c4.4,0,8-3.6,8-8
	s-3.6-8-8-8h-16c-4.4,0-8,3.6-8,8S187.6,200,192,200z M192,240h16c4.4,0,8-3.6,8-8s-3.6-8-8-8h-16c-4.4,0-8,3.6-8,8
	S187.6,240,192,240z M136,200h16c4.4,0,8-3.6,8-8s-3.6-8-8-8h-16c-4.4,0-8,3.6-8,8S131.6,200,136,200z M136,240h16c4.4,0,8-3.6,8-8
	s-3.6-8-8-8h-16c-4.4,0-8,3.6-8,8S131.6,240,136,240z M136,280h16c4.4,0,8-3.6,8-8s-3.6-8-8-8h-16c-4.4,0-8,3.6-8,8
	S131.6,280,136,280z M130.3,317.7c1.5,1.5,3.6,2.3,5.7,2.3c2.1,0,4.2-0.9,5.7-2.3s2.3-3.6,2.3-5.7s-0.9-4.2-2.3-5.7
	c-1.5-1.5-3.6-2.3-5.7-2.3s-4.2,0.9-5.7,2.3s-2.3,3.5-2.3,5.7C128,314.1,128.9,316.2,130.3,317.7z M360,200h16c4.4,0,8-3.6,8-8
	s-3.6-8-8-8h-16c-4.4,0-8,3.6-8,8S355.6,200,360,200z M360,240h16c4.4,0,8-3.6,8-8s-3.6-8-8-8h-16c-4.4,0-8,3.6-8,8
	S355.6,240,360,240z M360,280h16c4.4,0,8-3.6,8-8s-3.6-8-8-8h-16c-4.4,0-8,3.6-8,8S355.6,280,360,280z M370.3,306.3
	c-1.5,1.5-2.3,3.5-2.3,5.7c0,2.1,0.9,4.2,2.3,5.7s3.5,2.3,5.7,2.3c2.1,0,4.2-0.9,5.7-2.3s2.3-3.6,2.3-5.7c0-2.1-0.9-4.2-2.3-5.7
	s-3.6-2.3-5.7-2.3C373.9,304,371.8,304.9,370.3,306.3z M408,192c0,4.4,3.6,8,8,8h16c4.4,0,8-3.6,8-8s-3.6-8-8-8h-16
	C411.6,184,408,187.6,408,192z M416,240h16c4.4,0,8-3.6,8-8s-3.6-8-8-8h-16c-4.4,0-8,3.6-8,8S411.6,240,416,240z M416,280h16
	c4.4,0,8-3.6,8-8s-3.6-8-8-8h-16c-4.4,0-8,3.6-8,8S411.6,280,416,280z M416,320h16c4.4,0,8-3.6,8-8s-3.6-8-8-8h-16c-4.4,0-8,3.6-8,8
	S411.6,320,416,320z M416,360h16c4.4,0,8-3.6,8-8s-3.6-8-8-8h-16c-4.4,0-8,3.6-8,8S411.6,360,416,360z M416,400h16c4.4,0,8-3.6,8-8
	s-3.6-8-8-8h-16c-4.4,0-8,3.6-8,8S411.6,400,416,400z M96,184H80c-4.4,0-8,3.6-8,8s3.6,8,8,8h16c4.4,0,8-3.6,8-8S100.4,184,96,184z
	 M96,224H80c-4.4,0-8,3.6-8,8s3.6,8,8,8h16c4.4,0,8-3.6,8-8S100.4,224,96,224z M96,264H80c-4.4,0-8,3.6-8,8s3.6,8,8,8h16
	c4.4,0,8-3.6,8-8S100.4,264,96,264z M96,304H80c-4.4,0-8,3.6-8,8s3.6,8,8,8h16c4.4,0,8-3.6,8-8S100.4,304,96,304z M96,344H80
	c-4.4,0-8,3.6-8,8s3.6,8,8,8h16c4.4,0,8-3.6,8-8S100.4,344,96,344z M96,384H80c-4.4,0-8,3.6-8,8s3.6,8,8,8h16c4.4,0,8-3.6,8-8
	S100.4,384,96,384z M256,272c-66.2,0-120,53.8-120,120s53.8,120,120,120s120-53.8,120-120S322.2,272,256,272z M264,495.7V488
	c0-4.4-3.6-8-8-8s-8,3.6-8,8v7.7c-51-3.9-91.8-44.7-95.7-95.7h7.7c4.4,0,8-3.6,8-8s-3.6-8-8-8h-7.7c3.9-51,44.7-91.8,95.7-95.7v7.7
	c0,4.4,3.6,8,8,8s8-3.6,8-8v-7.7c51,3.9,91.8,44.7,95.7,95.7H352c-4.4,0-8,3.6-8,8s3.6,8,8,8h7.7C355.8,451,315,491.8,264,495.7z
	 M320,384h-41.4c-2.4-6.8-7.8-12.2-14.6-14.6V328c0-4.4-3.6-8-8-8s-8,3.6-8,8v41.4c-9.3,3.3-16,12.2-16,22.6c0,13.2,10.8,24,24,24
	c10.4,0,19.3-6.7,22.6-16H320c4.4,0,8-3.6,8-8S324.4,384,320,384z M256,400c-4.4,0-8-3.6-8-8s3.6-8,8-8c4.4,0,8,3.6,8,8
	S260.4,400,256,400z"/>
	</symbol>
    
    <symbol id="growth" viewBox="0 0 56 56">
        <path d="M55,12H37c-0.6,0-1,0.4-1,1v11H19c-0.6,0-1,0.4-1,1v11H1c-0.6,0-1,0.4-1,1v18c0,0.6,0.4,1,1,1h54c0.6,0,1-0.4,1-1V13
	C56,12.4,55.6,12,55,12z M38,14h16v8H38V14z M2,48h16v2H2V48z M20,44h16v2H20V44z M20,40h16v2H20V40z M36,38H20v-2h16V38z M20,48h16
	v2H20V48z M38,48h16v2H38V48z M38,44h16v2H38V44z M38,40h16v2H38V40z M38,36h16v2H38V36z M38,32h16v2H38V32z M38,28h16v2H38V28z
	 M38,25v-1h16v2H38V25z M20,26h16v8H20V26z M2,38h16v8H2V38z M2,52h16v2H2V52z M20,52h16v2H20V52z M38,54v-2h16v2H38z M10,39
	c-1.7,0-3,1.3-3,3s1.3,3,3,3s3-1.3,3-3S11.7,39,10,39z M10,43c-0.6,0-1-0.4-1-1s0.4-1,1-1s1,0.4,1,1S10.6,43,10,43z M28,27
	c-1.7,0-3,1.3-3,3s1.3,3,3,3s3-1.3,3-3S29.7,27,28,27z M28,31c-0.6,0-1-0.4-1-1s0.4-1,1-1s1,0.4,1,1S28.6,31,28,31z M46,15
	c-1.7,0-3,1.3-3,3s1.3,3,3,3s3-1.3,3-3S47.7,15,46,15z M46,19c-0.6,0-1-0.4-1-1s0.4-1,1-1s1,0.4,1,1S46.6,19,46,19z M19,12.4
	l5.3,5.3c0.4,0.4,1,0.4,1.4,0L40,3.4V6h2V1c0-0.6-0.4-1-1-1h-5v2h2.6L25,15.6l-5.3-5.3c-0.4-0.4-1-0.4-1.4,0l-18,18l1.4,1.4
	C1.7,29.7,19,12.4,19,12.4z"/>
	</symbol>
    
    <symbol id="refund" viewBox="0 0 507.7 512">
        <path d="M499.7,359.1H396.6l-69-29.3c-1-0.4-2.1-0.6-3.1-0.6H198.3c-22.1,0-40.1,18-40.1,40.1v17.1c0,3.9,0.6,7.7,1.6,11.3
	l-98.7-42.7c-20-8.7-42.9,0-52.2,19.8L4,385.3c-4.6,9.9-5.1,20.9-1.2,31.1c3.8,10.2,11.4,18.2,21.4,22.6l72.5,31.9
	c4.1,1.8,8.8-0.1,10.6-4.1c1.8-4.1-0.1-8.8-4.1-10.6l-72.5-31.9c-6-2.6-10.5-7.4-12.8-13.6c-2.3-6.1-2-12.7,0.7-18.7l4.9-10.5
	c5.6-11.8,19.3-17.1,31.3-11.9l129.6,56.1c1,0.4,2.1,0.7,3.2,0.7h121.9c4.4,0,8-3.6,8-8c0-4.4-3.6-8-8-8H198.3
	c-13.3,0-24.1-10.8-24.1-24v-17.1c0-13.3,10.8-24,24.1-24h124.5l69,29.3c1,0.4,2.1,0.6,3.1,0.6h96.7v76.4l-107.5,43.8
	c-1,0.4-2,0.6-3,0.6H195.2c-1.1,0-2.2-0.2-3.2-0.7l-63.2-27.8c-4.1-1.8-8.8,0.1-10.6,4.1c-1.8,4.1,0.1,8.8,4.1,10.6l63.2,27.8
	c3.1,1.3,6.3,2,9.7,2h185.9c3.1,0,6.2-0.6,9.1-1.8l112.5-45.8c3-1.2,5-4.2,5-7.4v-89.8C507.7,362.7,504.1,359.1,499.7,359.1
	L499.7,359.1z M344,194c-1.2-4.3-5.6-6.8-9.8-5.6c-4.3,1.2-6.8,5.6-5.6,9.8c1.9,6.9,2.8,14.2,2.8,21.4c0,45.1-36.7,81.8-81.8,81.8
	s-81.8-36.7-81.8-81.8s36.7-81.8,81.8-81.8c26.7,0,51.8,13.1,67.1,35.1c2.5,3.6,7.5,4.5,11.2,2c3.6-2.5,4.5-7.5,2-11.2
	c-18.3-26.2-48.3-41.9-80.3-41.9c-53.9,0-97.8,43.9-97.8,97.8s43.9,97.8,97.8,97.8s97.8-43.9,97.8-97.8
	C347.4,211,346.2,202.4,344,194L344,194z M279.5,190.3c4.4,0,8-3.6,8-8c0-4.4-3.6-8-8-8h-21.9v-9.1c0-4.4-3.6-8-8-8
	c-4.4,0-8,3.6-8,8v9.1h-6.9c-10.3,0-18.7,8.4-18.7,18.7V210c0,10.3,8.4,18.7,18.7,18.7h6.9v22.4h-21.9c-4.4,0-8,3.6-8,8
	c0,4.4,3.6,8,8,8h21.9v9.1c0,4.4,3.6,8,8,8c4.4,0,8-3.6,8-8v-9.1h6.9c10.3,0,18.7-8.4,18.7-18.7v-17.1c0-10.3-8.4-18.7-18.7-18.7
	h-6.9v-22.4H279.5z M241.6,212.7h-6.9c-1.5,0-2.7-1.2-2.7-2.7v-17.1c0-1.5,1.2-2.7,2.7-2.7h6.9V212.7z M264.5,228.7
	c1.5,0,2.7,1.2,2.7,2.7v17.1c0,1.5-1.2,2.7-2.7,2.7h-6.9v-22.4L264.5,228.7L264.5,228.7z M500.8,250.2c-5.4-0.7-19.2-3.8-29-16.2
	c-7-8.9-8.6-18.5-9-23.5c-0.3-4.2-3.8-7.4-8-7.4s-7.7,3.2-8,7.4c-0.4,4.9-2,14.6-9,23.5c-9.8,12.5-23.5,15.5-29,16.2
	c-4,0.5-7,3.9-7,7.9s3,7.4,7,7.9c5.4,0.7,19.2,3.8,29,16.2c7,8.9,8.6,18.5,9,23.5c0.3,4.2,3.8,7.4,8,7.4s7.7-3.2,8-7.4
	c0.4-4.9,2-14.6,9-23.5c9.8-12.5,23.5-15.5,29-16.2c4-0.5,7-3.9,7-7.9C507.7,254.1,504.7,250.7,500.8,250.2L500.8,250.2z
	 M459.2,272.4c-1.7,2.1-3.1,4.3-4.4,6.4c-1.3-2.1-2.7-4.3-4.4-6.4c-5-6.4-10.8-11-16.4-14.3c5.6-3.3,11.4-7.9,16.4-14.3
	c1.7-2.1,3.1-4.3,4.4-6.4c1.3,2.1,2.7,4.3,4.4,6.4c5,6.4,10.8,11,16.4,14.3C470,261.4,464.2,266,459.2,272.4z M299.8,47.1
	c-5.4-0.7-19.2-3.8-29-16.2c-7-8.9-8.6-18.5-9-23.5c-0.3-4.2-3.8-7.4-8-7.4c-4.2,0-7.7,3.2-8,7.4c-0.4,4.9-2,14.6-9,23.5
	c-9.8,12.5-23.5,15.5-29,16.2c-4,0.5-7,3.9-7,7.9c0,4,3,7.4,7,7.9c5.4,0.7,19.2,3.8,29,16.2c7,8.9,8.6,18.5,9,23.5
	c0.3,4.2,3.8,7.4,8,7.4c4.2,0,7.7-3.2,8-7.4c0.4-4.9,2-14.6,9-23.5c9.8-12.5,23.5-15.5,29-16.2c4-0.5,7-3.9,7-7.9
	S303.8,47.6,299.8,47.1L299.8,47.1z M258.2,69.3c-1.7,2.1-3.1,4.3-4.4,6.4c-1.3-2.1-2.7-4.3-4.4-6.4c-5-6.4-10.8-11-16.4-14.3
	c5.6-3.3,11.4-7.9,16.4-14.3c1.7-2.1,3.1-4.3,4.4-6.4c1.3,2.1,2.7,4.3,4.4,6.4c5,6.4,10.8,11,16.4,14.3
	C269,58.3,263.3,62.9,258.2,69.3z M98.9,250.2c-5.4-0.7-19.2-3.8-29-16.2c-7-8.9-8.6-18.5-9-23.5c-0.3-4.2-3.8-7.4-8-7.4
	s-7.7,3.2-8,7.4c-0.4,4.9-2,14.6-9,23.5c-9.8,12.5-23.5,15.5-29,16.2c-4,0.5-7,3.9-7,7.9s3,7.4,7,7.9c5.4,0.7,19.2,3.8,29,16.2
	c7,8.9,8.6,18.5,9,23.5c0.3,4.2,3.8,7.4,8,7.4s7.7-3.2,8-7.4c0.4-4.9,2-14.6,9-23.5c9.8-12.5,23.5-15.5,29-16.2c4-0.5,7-3.9,7-7.9
	C105.8,254.1,102.8,250.7,98.9,250.2L98.9,250.2z M57.3,272.4c-1.7,2.1-3.1,4.3-4.4,6.4c-1.3-2.1-2.7-4.3-4.4-6.4
	c-5-6.4-10.8-11-16.4-14.3c5.6-3.3,11.4-7.9,16.4-14.3c1.7-2.1,3.1-4.3,4.4-6.4c1.3,2.1,2.7,4.3,4.4,6.4l0,0
	c5,6.4,10.8,11,16.4,14.3C68.1,261.4,62.3,266,57.3,272.4z"/>
	</symbol>
    
    <symbol id="" viewBox="">

	</symbol>
    
    <symbol id="" viewBox="">

	</symbol>
</svg>