<svg xmlns="http://www.w3.org/2000/svg" xmlns:xlink="http://www.w3.org/1999/xlink" width="91" height="93" viewBox="0 0 91 93"><defs><path id="a" d="M245.6 1382.75v46.15a6.66 6.66 0 0 1-6.66 6.65h-21.67l2.47 2.64h3.72a1.55 1.55 0 1 1 0 3.09h-45.66a1.55 1.55 0 1 1 0-3.09h3.73l2.46-2.64h-21.67a6.66 6.66 0 0 1-6.66-6.65v-46.15a6.66 6.66 0 0 1 6.66-6.64h19.06a20.42 20.42 0 0 1 19.26-27.15 20.41 20.41 0 0 1 19.26 27.15h19.05a6.66 6.66 0 0 1 6.67 6.64zm-3.09 44.45v-42.74h-12.36a29.92 29.92 0 0 1-29.53 34.72 29.92 29.92 0 0 1-29.52-34.72h-12.36v42.74zm-40.33-36.02v7.72a4.13 4.13 0 0 0 2.61-3.86 4.12 4.12 0 0 0-2.61-3.86zm-3.1-6.72h-2.54a4.12 4.12 0 0 0 2.54 3.04zm-5.67 0h-11.51a19.28 19.28 0 0 0 18.74 24.19 19.36 19.36 0 0 0 18.74-24.19h-17.2v3.5a7.2 7.2 0 0 1 3.6 1.96 7.18 7.18 0 0 1 2.12 5.12c0 1.94-.76 3.75-2.13 5.12a7.2 7.2 0 0 1-3.58 1.96v1.26a1.54 1.54 0 0 1-3.1 0v-1.26a7.22 7.22 0 0 1-5.72-7.08 1.55 1.55 0 0 1 3.1 0 4.12 4.12 0 0 0 2.62 3.86v-8.18a7.22 7.22 0 0 1-5.67-6.26zm-15.25 4.88c0-1.65.19-3.28.54-4.88h-4.46a26.82 26.82 0 0 0 26.39 31.63 26.82 26.82 0 0 0 26.38-31.63h-4.46a22.45 22.45 0 0 1-21.92 27.28 22.46 22.46 0 0 1-22.47-22.4zm6.53-13.23h2.06a15.45 15.45 0 1 1 27.76 0h2.05c.93-2.14 1.4-4.42 1.4-6.8a17.32 17.32 0 1 0-33.27 6.8zm14.6-12.64a2.45 2.45 0 0 0 0 4.11zm3.8 9.64c0-.86-.45-1.62-1.12-2.06v4.1a2.45 2.45 0 0 0 1.12-2.04zm2.68 0c0 1.12-.36 2.16-.98 3h6.15a12.17 12.17 0 0 0 2.05-6.8 12.36 12.36 0 1 0-22.68 6.8h6.15a5.09 5.09 0 0 1-.98-3 1.34 1.34 0 0 1 2.69 0c0 .86.44 1.61 1.12 2.05v-4.68a5.14 5.14 0 0 1 0-9.9v-.6a1.34 1.34 0 0 1 2.68 0v.6c2.19.59 3.8 2.58 3.8 4.95a1.34 1.34 0 0 1-2.68 0c0-.86-.45-1.62-1.12-2.06v4.69a5.14 5.14 0 0 1 3.8 4.95zm-46.75 8.26h83.21a3.58 3.58 0 0 0-3.29-2.17h-76.63c-1.47 0-2.74.9-3.29 2.17zm54.03 54.18h-24.85l-2.47 2.64h29.77zm29.18-5.27h-83.2a3.58 3.58 0 0 0 3.28 2.18h76.63c1.48 0 2.75-.9 3.3-2.18z"/><linearGradient id="b" x1="199.65" x2="201.61" y1="1348.96" y2="1441.28" gradientUnits="userSpaceOnUse"><stop offset="0" stop-color="#508ab3"/><stop offset="1" stop-color="#883759"/></linearGradient></defs><g transform="translate(-155 -1349)"><use xlink:href="#a"/><use fill="url(#b)" xlink:href="#a"/></g></svg>