<svg xmlns="http://www.w3.org/2000/svg" xmlns:xlink="http://www.w3.org/1999/xlink" width="78" height="75" viewBox="0 0 78 75"><defs><path id="a" d="M217.08 1047.94l22.04 23.97c.76.76.76 1.9 0 2.66l-5.7 5.33c-.38.38-.76.38-1.14.38-.38 0-.76-.38-1.14-.76l-22.04-23.97-2.66 2.66 1.14 1.52c.38.39.38 1.15.38 1.53 0 .38-.38.76-.76 1.14l-8.36 7.6c-.38.39-.76.39-1.14.39-.38 0-.76-.38-1.14-.76l-17.85-19.79c-.38-.38-.38-1.14-.38-1.52 0-.38.38-.76.76-1.14l8.36-7.6c.76-.77 1.9-.77 2.66 0l1.14 1.51 13.67-12.55-1.14-1.52a1.84 1.84 0 0 1 0-2.67l8.36-7.6c.38-.39 1.14-.39 1.52-.39.38 0 .76.38 1.14.76l17.86 19.4c.76.77.76 1.91 0 2.67l-8.36 7.61c-.38.38-.76.38-1.14.38-.38 0-.76-.38-1.14-.76l-1.14-1.52zm-8.74-22.83l1.14 1.53 12.92 14.07 1.14 1.52 5.7-4.94-15.58-16.74zm-4.56 35.39l-1.14-1.53-11.4-12.55-2.65-3.04-5.7 5.32 15.57 16.74zm.38-5.33l4.18-3.8 5.7-5.71 4.18-3.8-10.26-11.04-14.05 12.94zm11.02-4.95l-2.66 2.67 20.52 22.44 2.66-2.66zm-1.14 40.71h-49.39c-1.14 0-1.9-.76-1.9-1.9v-7.61c0-1.14.76-1.9 1.9-1.9h5.7v-5.7c0-1.15.76-1.91 1.9-1.91h34.2c1.13 0 1.9.76 1.9 1.9v5.7h5.7c1.13 0 1.9.77 1.9 1.91v7.6c0 1.15-.77 1.91-1.9 1.91zm-39.9-11.41h30.4v-3.8h-30.4zm38 7.6v-3.8h-45.59v3.8z"/><linearGradient id="b" x1="200.75" x2="201.69" y1="1016.36" y2="1090.93" gradientUnits="userSpaceOnUse"><stop offset="0" stop-color="#508ab3"/><stop offset="1" stop-color="#883759"/></linearGradient></defs><g transform="translate(-162 -1016)"><use xlink:href="#a"/><use fill="url(#b)" xlink:href="#a"/></g></svg>