<svg xmlns="http://www.w3.org/2000/svg" xmlns:xlink="http://www.w3.org/1999/xlink" width="81" height="82" viewBox="0 0 81 82"><defs><path id="a" d="M567.56 1012.81c11.1 0 21.15 4.52 28.44 11.8a40.12 40.12 0 0 1 11.8 28.45c0 11.1-4.51 21.15-11.8 28.44a40.12 40.12 0 0 1-28.44 11.8 40.12 40.12 0 0 1-28.45-11.8 40.11 40.11 0 0 1-11.8-28.44c0-5.36 1.04-10.56 3.03-15.38a40.17 40.17 0 0 1 8.71-13.03 2.12 2.12 0 0 1 3.63 1.5c0 .54-.2 1.09-.62 1.5a35.94 35.94 0 0 0-7.79 11.65 35.94 35.94 0 0 0-2.7 13.76c0 9.92 4.03 18.92 10.55 25.43a35.88 35.88 0 0 0 25.44 10.55c9.92 0 18.92-4.03 25.43-10.55a35.87 35.87 0 0 0 10.56-25.43c0-9.7-3.85-18.5-10.1-24.98a35.9 35.9 0 0 0-23.77-10.95v15.28a2.12 2.12 0 0 1-3.63 1.5 2.12 2.12 0 0 1-.62-1.5v-17.47a2.12 2.12 0 0 1 2.13-2.13zm-.8 46.93a5.5 5.5 0 0 1-1.76-1.57l-12.31-17.01a2.12 2.12 0 0 1 1.56-3.36c.48-.04.98.09 1.4.4l17.02 12.3a5.5 5.5 0 0 1 .66 8.33 5.5 5.5 0 0 1-3.89 1.61h-.2l-.23-.02a5.5 5.5 0 0 1-2.25-.68zm3.77-5.4c-.09-.16-.2-.3-.35-.4l-6.29-4.54 4.55 6.28a1.23 1.23 0 0 0 1.44.43 1.24 1.24 0 0 0 .66-1.77z"/><linearGradient id="b" x1="567.31" x2="567.8" y1="1012.81" y2="1093.3" gradientUnits="userSpaceOnUse"><stop offset="0" stop-color="#508ab3"/><stop offset="1" stop-color="#883759"/></linearGradient></defs><g transform="translate(-527 -1012)"><use fill="#4f4f4f" xlink:href="#a"/><use fill="url(#b)" xlink:href="#a"/></g></svg>