<svg xmlns="http://www.w3.org/2000/svg" xmlns:xlink="http://www.w3.org/1999/xlink" width="69" height="85" viewBox="0 0 69 85"><defs><path id="a" d="M200.63 724.6a1.9 1.9 0 1 1 0 3.82 1.9 1.9 0 0 1 0-3.81zm11.44-5.72v15.28c0 1.14-.76 1.9-1.9 1.9h-19.08c-1.14 0-1.9-.76-1.9-1.9v-15.28c0-1.15.76-1.91 1.9-1.91h1.91v-7.64c0-4.2 3.43-7.64 7.63-7.64 4.2 0 7.63 3.44 7.63 7.64v1.9c0 1.15-.77 1.92-1.91 1.92-1.15 0-1.9-.77-1.9-1.91v-1.91c0-2.1-1.72-3.82-3.82-3.82a3.83 3.83 0 0 0-3.82 3.82v9.55c0 1.14-.76 1.9-1.9 1.9h-1.91v11.47h15.26v-11.46h-5.73c-1.14 0-1.9-.77-1.9-1.91 0-1.15.76-1.91 1.9-1.91h7.63c1.15 0 1.9.76 1.91 1.9zm22.88-28.65v50.23c0 3.44-1.71 6.5-4.57 8.21l-28.8 17.76c-.19.2-.57.2-.95.2s-.77 0-.96-.2l-28.8-17.76a9.94 9.94 0 0 1-4.57-8.21v-50.23c0-.96.57-1.53 1.34-1.91l9.53-2.48a88 88 0 0 1 23.46-3.25c8.39 0 16.59 1.14 24.79 3.44l8.2 2.29c.76.38 1.33 1.14 1.33 1.9zm-3.81 1.34l-6.87-1.91a86.05 86.05 0 0 0-46.14-.2l-8.01 2.3v48.7a6 6 0 0 0 2.67 4.97l27.84 17.18 27.84-17.18a6 6 0 0 0 2.67-4.97zm-3.43 12.03v36.67a2 2 0 0 1-.96 1.72l-23.83 14.7c-.77.38-1.34.58-2.1.58s-1.53-.2-2.1-.58l-23.84-14.69a2.28 2.28 0 0 1-.95-1.72v-44.31c0-.77.57-1.53 1.33-1.91l3.82-.96a82.12 82.12 0 0 1 44.05.38l2.67.77c.95.19 1.72 1.34 1.33 2.3-.19.95-1.33 1.52-2.28 1.33l-2.3-.77a78.23 78.23 0 0 0-41.95-.19l-2.47.58v41.82l22.87 14.13 22.88-14.14v-35.71c0-1.15.77-1.91 1.91-1.91s1.9.76 1.9 1.9z"/><linearGradient id="b" x1="200.3" x2="200.95" y1="682.59" y2="766.62" gradientUnits="userSpaceOnUse"><stop offset="0" stop-color="#508ab3"/><stop offset="1" stop-color="#883759"/></linearGradient></defs><g transform="translate(-166 -682)"><use fill="#fff" xlink:href="#a"/><use fill="url(#b)" xlink:href="#a"/></g></svg>