<svg xmlns="http://www.w3.org/2000/svg" xmlns:xlink="http://www.w3.org/1999/xlink" width="32" height="28" viewBox="0 0 32 28"><defs><path id="t36ya" d="M618.93 1193.52v20.96c0 .76-.28 1.4-.83 1.95-.55.54-1.21.8-1.99.8h-26.39c-.77 0-1.44-.26-1.99-.8a2.63 2.63 0 0 1-.83-1.95v-20.96c0-.76.28-1.4.83-1.95a2.74 2.74 0 0 1 2-.8h26.38c.78 0 1.44.26 2 .8.54.54.82 1.2.82 1.95zm-2.25 10.48h-27.52v10.48c0 .15.05.28.17.39.1.1.24.16.4.16h26.38c.16 0 .29-.06.4-.16.11-.11.17-.24.17-.4zm0-6.62v-3.86a.52.52 0 0 0-.17-.39.55.55 0 0 0-.4-.16h-26.39a.55.55 0 0 0-.4.16.52.52 0 0 0-.16.4v3.85zm-25.27 13.24h4.5v2.2h-4.5zm6.76 0h6.76v2.2h-6.76z"/><linearGradient id="t36yb" x1="602.9" x2="602.93" y1="1190.76" y2="1217.24" gradientUnits="userSpaceOnUse"><stop offset="0" stop-color="#508ab3"/><stop offset="1" stop-color="#883759"/></linearGradient></defs><g><g transform="translate(-587 -1190)"><use fill="#8fa3aa" xlink:href="#t36ya"/><use fill="url(#t36yb)" xlink:href="#t36ya"/></g></g></svg>