<svg xmlns="http://www.w3.org/2000/svg" xmlns:xlink="http://www.w3.org/1999/xlink" width="27" height="30" viewBox="0 0 27 30"><defs><path id="q172a" d="M509.08 1192.64v22.72c0 2-1.77 3.64-3.95 3.64h-18.79c-2.18 0-3.95-1.63-3.95-3.64v-22.72c0-2 1.77-3.64 3.95-3.64h18.8c2.17 0 3.94 1.63 3.94 3.64zm-22.78 5.91h18.88v-5.8H486.3zm4.8 13.3c0-1.26-1.1-2.28-2.47-2.28-1.36 0-2.47 1.02-2.47 2.28 0 1.25 1.1 2.27 2.47 2.27s2.47-1.02 2.47-2.27zm0-7.85c0-1.26-1.1-2.28-2.47-2.28-1.36 0-2.47 1.02-2.47 2.28 0 1.26 1.1 2.28 2.47 2.28s2.47-1.02 2.47-2.28zm7.1 7.85c0-1.26-1.1-2.28-2.46-2.28-1.37 0-2.47 1.02-2.47 2.28 0 1.25 1.1 2.27 2.47 2.27 1.36 0 2.47-1.02 2.47-2.27zm0-7.85c0-1.26-1.1-2.28-2.46-2.28-1.37 0-2.47 1.02-2.47 2.28 0 1.26 1.1 2.28 2.47 2.28 1.36 0 2.47-1.02 2.47-2.28zm7.11 7.85c0-1.26-1.1-2.28-2.47-2.28-1.36 0-2.47 1.02-2.47 2.28 0 1.25 1.11 2.27 2.47 2.27 1.37 0 2.47-1.02 2.47-2.27zm0-7.85c0-1.26-1.1-2.28-2.47-2.28-1.36 0-2.47 1.02-2.47 2.28 0 1.26 1.11 2.28 2.47 2.28 1.37 0 2.47-1.02 2.47-2.28z"/><linearGradient id="q172b" x1="495.39" x2="496.08" y1="1189" y2="1219" gradientUnits="userSpaceOnUse"><stop offset="0" stop-color="#508ab3"/><stop offset="1" stop-color="#883759"/></linearGradient></defs><g><g transform="translate(-482 -1189)"><use fill="#8fa3aa" xlink:href="#q172a"/><use fill="url(#q172b)" xlink:href="#q172a"/></g></g></svg>