<svg xmlns="http://www.w3.org/2000/svg" xmlns:xlink="http://www.w3.org/1999/xlink" width="29" height="29" viewBox="0 0 29 29"><defs><path id="plqca" d="M181.1 1204.15c0 7.8-6.38 14.11-14.24 14.11a14.18 14.18 0 0 1-14.23-14.11c0-7.8 6.37-14.12 14.23-14.12s14.24 6.32 14.24 14.12zm-9.3 2.53a3.69 3.69 0 0 0-1.87-3.33c-.58-.32-1.36-.66-2.36-1.02a7.18 7.18 0 0 1-1.79-.84 1.17 1.17 0 0 1-.41-.97c0-.4.14-.76.43-1.05.29-.29.67-.43 1.15-.43.94 0 1.64.64 2.1 1.94l2.32-.94c-.56-1.9-1.78-2.95-3.66-3.18v-1.54h-1.69v1.54c-1.24.18-2.16.66-2.74 1.44a4.32 4.32 0 0 0-.38 4.6c.32.56.75 1 1.27 1.3.52.32 1.24.63 2.17.95 1.03.36 1.7.66 2 .9.3.23.44.58.44 1.03 0 .44-.15.82-.44 1.13-.3.31-.77.47-1.4.47-1.36 0-2.16-.73-2.4-2.18l-2.61.67c.53 2.32 1.89 3.59 4.1 3.81v1.99h1.68v-2a4.54 4.54 0 0 0 3.03-1.37 4.2 4.2 0 0 0 1.06-2.92z"/><linearGradient id="plqcb" x1="166.63" x2="167.1" y1="1190.03" y2="1218.26" gradientUnits="userSpaceOnUse"><stop offset="0" stop-color="#508ab3"/><stop offset="1" stop-color="#883759"/></linearGradient></defs><g><g transform="translate(-152 -1190)"><use fill="#8fa3aa" xlink:href="#plqca"/><use fill="url(#plqcb)" xlink:href="#plqca"/></g></g></svg>