<svg xmlns="http://www.w3.org/2000/svg" xmlns:xlink="http://www.w3.org/1999/xlink" width="32" height="26" viewBox="0 0 32 26"><defs><path id="1vx8a" d="M290.1 1214.86h-1.3v-22.25a.83.83 0 0 0-.85-.82h-4.14a.83.83 0 0 0-.84.82v22.25h-1.37v-19.04a.83.83 0 0 0-.85-.82h-4.14a.83.83 0 0 0-.84.82v19.04h-1.37v-14.06a.83.83 0 0 0-.85-.82h-4.14a.83.83 0 0 0-.84.82v14.06h-1.37v-9.48a.83.83 0 0 0-.85-.82h-4.14a.83.83 0 0 0-.84.82v9.48h-1.6a.83.83 0 0 0-.85.82c0 .45.38.82.84.82H290.1c.47 0 .84-.37.84-.82a.83.83 0 0 0-.84-.82z"/><linearGradient id="1vx8b" x1="274.92" x2="274.94" y1="1191.79" y2="1216.5" gradientUnits="userSpaceOnUse"><stop offset="0" stop-color="#508ab3"/><stop offset="1" stop-color="#883759"/></linearGradient></defs><g><g transform="translate(-259 -1191)"><use fill="#8fa3aa" xlink:href="#1vx8a"/><use fill="url(#1vx8b)" xlink:href="#1vx8a"/></g></g></svg>