<svg xmlns="http://www.w3.org/2000/svg" xmlns:xlink="http://www.w3.org/1999/xlink" width="29" height="29" viewBox="0 0 29 29"><defs><path id="v3w8a" d="M728 1205.91c0 .74-.6 1.34-1.36 1.34h-2.15a10.9 10.9 0 0 1-.92 2.22l1.52 1.5c.53.53.53 1.38 0 1.9l-2.52 2.5c-.51.51-1.4.51-1.91 0l-1.53-1.5c-.7.38-1.45.69-2.23.91v2.14c0 .74-.6 1.34-1.35 1.34h-3.57c-.74 0-1.35-.6-1.35-1.34v-2.14c-.77-.22-1.52-.53-2.23-.91l-1.52 1.5c-.5.5-1.43.5-1.92 0l-2.52-2.5a1.33 1.33 0 0 1 0-1.9l1.52-1.5c-.39-.7-.7-1.45-.92-2.22h-2.15c-.75 0-1.36-.6-1.36-1.34v-3.53c0-.74.61-1.34 1.36-1.34h2.15c.22-.77.53-1.51.92-2.22l-1.52-1.5a1.34 1.34 0 0 1 0-1.9l2.52-2.5c.51-.51 1.4-.51 1.92 0l1.52 1.5c.7-.38 1.46-.69 2.23-.91v-2.14c0-.74.6-1.34 1.35-1.34h3.57c.74 0 1.35.6 1.35 1.34v2.14c.78.22 1.52.53 2.23.92l1.53-1.51c.49-.5 1.42-.5 1.91 0l2.52 2.5a1.33 1.33 0 0 1 0 1.9l-1.52 1.5c.39.7.7 1.45.92 2.22h2.15c.75 0 1.36.6 1.36 1.34zm-14.23-6.65a4.92 4.92 0 0 0-4.94 4.89c0 2.7 2.22 4.89 4.94 4.89 2.71 0 4.93-2.2 4.93-4.9s-2.22-4.88-4.93-4.88z"/><linearGradient id="v3w8b" x1="713.53" x2="714" y1="1190.03" y2="1218.26" gradientUnits="userSpaceOnUse"><stop offset="0" stop-color="#508ab3"/><stop offset="1" stop-color="#883759"/></linearGradient></defs><g><g transform="translate(-699 -1190)"><use fill="#8fa3aa" xlink:href="#v3w8a"/><use fill="url(#v3w8b)" xlink:href="#v3w8a"/></g></g></svg>