<svg version="1.1" id="Layer_8" xmlns="http://www.w3.org/2000/svg" xmlns:xlink="http://www.w3.org/1999/xlink" x="0px" y="0px" viewBox="0 0 130 132.8" enable-background="new 0 0 130 132.8" xml:space="preserve">
                                        <path fill="none" stroke="#ffffff" stroke-linecap="round" stroke-miterlimit="10" d="M23.6,33.3
                                        C20.3,36.2,12.2,48.4,11,60.1c-0.3,2.5,1.6,4.6,4.1,4.6h0.5c2.3,0,4.1,1.9,4.1,4.1v1.4c0,2.3-1.9,4.1-4.1,4.1h0
                                        c-2.8,0-4.8,2.8-3.9,5.5c2.7,8.3,7.6,15.6,10.8,20c1.7,2.2,4.9,2.6,7,0.8L65,69.7V15c0-6.7-6.1-11.8-12.6-10.5
                                        c-29.6,5.9-51.9,32-51.9,63.3c0,35.9,29.4,65,65.5,64.5c34.3-0.5,62.5-28.3,63.5-62.6c0.6-21.3-9.1-40.4-24.5-52.6
                                        c-3.8-3-5.2-8.2-3.2-12.7L73,0.6l14.1,23.5c0,0,5-5.3,8.9-1.3c6.7,6.7,18.3,19.9,21.9,36.5c0.6,2.6-1.5,5.1-4.1,5.1h0
                                        c-2.3,0-4.2,1.9-4.2,4.2v1.6c0,2.3,1.9,4.2,4.2,4.2h0c2.7,0,4.7,2.5,4.1,5.1c-5.3,24.2-29.1,42.7-52.9,42.7"></path>
                                    </svg>