<svg version="1.1" id="Layer_6" xmlns="http://www.w3.org/2000/svg" xmlns:xlink="http://www.w3.org/1999/xlink" x="0px" y="0px" viewBox="0 0 112 112" enable-background="new 0 0 112 112" xml:space="preserve">
                                        <path fill="none" stroke="#ffffff" stroke-linecap="round" stroke-miterlimit="10" d="M18.9,84h8.9c1.7,0,3.1,1.4,3.1,3.1
                                        v3.2c0,1.7,1.4,3.1,3.1,3.1h0c1.7,0,3.1-1.4,3.1-3.1V73.4c0-1.7,1.4-3.1,3.1-3.1h13.4c1.7,0,3.1,1.4,3.1,3.1v16.9
                                        c0,1.7,1.4,3.1,3.1,3.1h0c1.7,0,3.1-1.4,3.1-3.1V59.1c0-1.7,1.4-3.1,3.1-3.1h13.4c1.7,0,3.1,1.4,3.1,3.1v31.2c0,1.7,1.4,3.1,3.1,3.1
                                        h0c1.7,0,3.1-1.4,3.1-3.1V45.2c0-1.7,1.4-3.1,3.1-3.1l15.7,0c1.4,0,2.6,1,2.9,2.3c0.9,4,1.3,8.2,1.2,12.5
                                        c-0.5,29.6-24.6,53.9-54.2,54.6C33,112,12.1,96.9,4,75.6c-0.9-2.5-0.3-5.2,1.5-7.1l22-21.9c1.8-1.8,4.6-1.8,6.4,0l7.8,7.8
                                        c1.8,1.8,4.6,1.8,6.4,0L84,18.7c1.8-1.8,4.6-1.8,6.4,0l5.1,5.1l7.3-20.8L89,7.2c-2.5,0.8-5.3,0.6-7.7-0.6C73.2,2.4,64,0.2,54.2,0.5
                                        C25.1,1.5,1.4,25.2,0.5,54.2c-0.1,3.1,0.1,6.1,0.4,9"></path>
                                    </svg>