<svg version="1.1" id="Layer_7" xmlns="http://www.w3.org/2000/svg" xmlns:xlink="http://www.w3.org/1999/xlink" x="0px" y="0px" viewBox="0 0 130 129.7" enable-background="new 0 0 130 129.7" xml:space="preserve">
                                        <path fill="none" stroke="#ffffff" stroke-linecap="round" stroke-miterlimit="10" d="M68.3,58.8h15.1c2.2,0,4-1.8,4-4v0
                                        l9.8,5.7c1.9,1.1,4.3-0.3,4.3-2.5l0-27.8h0c-2.1,0-4,0.7-5.6,2c-5.5,4.4-19.2,14.6-29.9,14.6c-13.7,0-38,0-38,0S19,47.8,19,63
                                        s8.9,16.2,8.9,16.2h0c3.5,0,6.9,1.4,9.2,4.1c2.5,2.9,4.2,6.3,5.4,9.6c2.7,7.7-1.4,16.1-9,19l0,0c-5.9,2.2-12.5,0.7-16.7-4
                                        C7.6,97.5,1.6,84.1,0.6,69.2C-1.6,35.3,23.3,5.2,57,1c37-4.6,70.2,23,72.4,60.2c2,33.5-22.5,63.2-55.8,67.7
                                        c-0.8,0.1-1.5,0.2-2.3,0.3c-6.2,0.6-11.8-3.7-12.9-9.8c0,0-3.8-31.2-5.2-35.5c-0.8-2.4,1-4.8,3.5-4.8l9.2,0
                                        c10.7,0,24.5,10.2,30,14.6c1.6,1.3,3.6,2,5.6,2l0,0V67.9c0-2.2-2.4-3.6-4.3-2.5l-9.8,5.7v0c0-2.2-1.8-4-4-4H68.3"></path>
                                    </svg>