<svg version="1.1" id="Layer_9" xmlns="http://www.w3.org/2000/svg" xmlns:xlink="http://www.w3.org/1999/xlink" x="0px" y="0px" viewBox="0 0 111.1 110" enable-background="new 0 0 111.1 110" xml:space="preserve">
                                    <path fill="none" stroke="#ffffff" stroke-linecap="round" stroke-miterlimit="10" d="M60.2,11.2v7.9
                                    c10.5,1.8,17.5,9,18.9,17.8H68.5c-1.2-5.9-6-10.1-13.5-10.1c-8.4,0-13.5,5-13.5,11.6c0,7.2,5.9,10.9,15.4,13.6
                                    c18.4,5.2,24.3,13.4,24.3,25.2c0,9.1-6.1,18.4-17.3,21.9c-2.1,0.7-3.6,2.6-3.7,4.8l0,0.4c0,3.2,3,5.6,6.1,4.9
                                    c25.9-5.6,45.9-29.5,44.1-57.4C108.7,24.2,86,1.9,58.3,0.6C26.6-1,0.5,24.2,0.5,55.5c0,26.4,17.5,48.5,42.3,53.8
                                    c3.1,0.7,6.1-1.7,6.1-4.9l0-0.8c0-2.2-1.4-4.1-3.5-4.8C36.9,96,30.5,90,27.9,79.5h10.9c2.2,7.8,7.8,12.8,16.9,12.8
                                    c10.3,0,15.4-7.5,15.4-14.5c0-8.7-5.7-13.6-17.5-17c-14.9-4.3-22.2-11-22.2-22.4c0-9.2,6.9-16.9,17.5-19.1v-8.1"></path>
                                </svg>