<svg xmlns="http://www.w3.org/2000/svg" xmlns:xlink="http://www.w3.org/1999/xlink" width="22" height="24" viewBox="0 0 22 24"><defs><path id="hk9ba" d="M81.1 1045.9c0 5.7-4.8 10.35-10.7 10.35-5.9 0-10.7-4.64-10.7-10.35 0-5.57 4.56-10.12 10.26-10.34l.32-1.52a.63.63 0 0 1 .48-.48c.24-.06.5.02.65.21l2.78 3.36a.6.6 0 0 1 .13.5.62.62 0 0 1-.32.43l-3.91 2.05a.66.66 0 0 1-.69-.05.6.6 0 0 1-.24-.62l.34-1.63a8.26 8.26 0 0 0-7.52 8.1c0 4.48 3.77 8.13 8.41 8.13 4.64 0 8.42-3.65 8.42-8.14 0-1.88-.64-3.65-1.86-5.1-.4-.48-.32-1.18.17-1.56.49-.38 1.2-.3 1.6.17a10.17 10.17 0 0 1 2.37 6.5zm-13.15-1.21c0-.33-.14-.87-1.03-.87-.37 0-.76.12-1.15.36a.47.47 0 0 1-.38.04.45.45 0 0 1-.28-.26l-.25-.6c-.08-.2 0-.42.18-.54.63-.38 1.42-.6 2.22-.6 1.62 0 2.67.92 2.67 2.33 0 1.17-.78 2.08-1.95 3.1h-.02l-.36.3h2c.26 0 .46.2.46.44v.74c0 .25-.2.44-.46.44h-4.47a.45.45 0 0 1-.46-.44v-.55c0-.13.06-.25.15-.33l.83-.72c1.54-1.34 2.28-2.1 2.3-2.84zm5.27-2.35h1.58c.25 0 .45.2.45.45v3.62h.4c.26 0 .46.2.46.44v.63c0 .24-.2.44-.45.44h-.4v1.21c0 .25-.21.44-.46.44h-.98a.45.45 0 0 1-.46-.44v-1.2h-2.72a.45.45 0 0 1-.45-.45v-.68c0-.08.02-.16.06-.23l2.58-4.02a.46.46 0 0 1 .4-.2zm.14 2.02l-1.2 2.05h1.2z"/></defs><g><g transform="translate(-59 -1033)"><use fill="#12c839" xlink:href="#hk9ba"/></g></g></svg>