<svg xmlns="http://www.w3.org/2000/svg" xmlns:xlink="http://www.w3.org/1999/xlink" width="24" height="17" viewBox="0 0 24 17"><defs><path id="auq9a" d="M446.19 1047.34h-18.2c-1.28 0-2.3-1-2.3-2.25v-11.52a2.26 2.26 0 0 1 2.3-2.26h18.15c1.27 0 2.29 1 2.29 2.26v11.57c.05 1.2-.97 2.2-2.24 2.2zm-18.2-14.52c-.41 0-.77.35-.77.75v1.25h19.68v-1.25c0-.4-.35-.75-.76-.75zm-.77 12.32c0 .4.36.75.77.75h18.15c.4 0 .76-.35.76-.75v-7.51h-19.68zm16.07-4.1c.93 0 1.68.73 1.68 1.65a1.69 1.69 0 1 1-2.8 1.23 1.69 1.69 0 0 1-2.8-1.23 1.69 1.69 0 1 1 2.8-1.23c.3-.27.7-.43 1.12-.43zm-9-1.01h-4.93c-.15 0-.26-.1-.26-.25s.1-.25.26-.25h4.93c.15 0 .25.1.25.25 0 .1-.1.25-.25.25z"/></defs><g><g transform="translate(-425 -1031)"><use fill="#12c839" xlink:href="#auq9a"/></g></g></svg>