<svg xmlns="http://www.w3.org/2000/svg" xmlns:xlink="http://www.w3.org/1999/xlink" width="17" height="18" viewBox="0 0 17 18"><defs><path id="76cna" d="M62.48 951.85a.38.38 0 0 1-.11-.28v-1.58a.38.38 0 0 1 .4-.4h2.8v-1.45h-2.8a.38.38 0 0 1-.4-.4v-1.83c0-.11.04-.2.11-.28a.38.38 0 0 1 .29-.12h2.8v-7.76a.38.38 0 0 1 .41-.4h6.76c1.67 0 3.03.5 4.1 1.51 1.05 1 1.58 2.3 1.58 3.89 0 1.58-.53 2.88-1.59 3.88a5.7 5.7 0 0 1-4.1 1.5h-4.26v1.46h6.34a.4.4 0 0 1 .28.11c.08.08.12.17.12.29v1.58a.38.38 0 0 1-.4.4h-6.34v2.36c0 .12-.03.2-.11.28a.4.4 0 0 1-.29.11h-2.09a.4.4 0 0 1-.29-.1.38.38 0 0 1-.11-.29v-2.37h-2.81a.4.4 0 0 1-.29-.11zm6-6.34h4a3 3 0 0 0 2.15-.76c.54-.51.82-1.18.82-2 0-.82-.28-1.5-.82-2a3 3 0 0 0-2.14-.77h-4.02z"/></defs><g><g transform="translate(-62 -937)"><use fill="#12c839" xlink:href="#76cna"/></g></g></svg>