<svg xmlns="http://www.w3.org/2000/svg" xmlns:xlink="http://www.w3.org/1999/xlink" width="22" height="22" viewBox="0 0 22 22"><defs><path id="m6ema" d="M81.1 1116.36a10.65 10.65 0 0 1-10.7 10.69 10.65 10.65 0 0 1-10.7-10.69 10.65 10.65 0 0 1 10.7-10.69 10.65 10.65 0 0 1 10.7 10.69zm-3.13 0a7.55 7.55 0 0 0-7.58-7.57 7.55 7.55 0 0 0-6.56 11.37 7.55 7.55 0 0 0 10.37 2.76 7.55 7.55 0 0 0 3.77-6.56zm-5.92-5.22c.09.09.13.2.13.32v6.24c0 .13-.04.24-.13.32a.43.43 0 0 1-.32.12h-4.46a.43.43 0 0 1-.32-.12.43.43 0 0 1-.12-.32v-.9c0-.12.04-.23.12-.31a.43.43 0 0 1 .32-.13h3.12v-4.9c0-.13.05-.23.13-.32a.43.43 0 0 1 .32-.12h.9c.12 0 .23.04.31.12z"/></defs><g><g transform="translate(-59 -1105)"><use fill="#12c839" xlink:href="#m6ema"/></g></g></svg>