<svg xmlns="http://www.w3.org/2000/svg" xmlns:xlink="http://www.w3.org/1999/xlink" width="20" height="18" viewBox="0 0 20 18"><defs><path id="m8fca" d="M81.1 1204.99v15.69c0 .46-.38.84-.84.84h-18.4a.84.84 0 0 1-.83-.84v-15.7c0-.45.38-.83.84-.83h18.39c.45 0 .83.38.83.84zm-1.68 9.95v-4.22h-5.76a2.1 2.1 0 0 0 0 4.22zm-16.72 4.9h16.72v-3.22h-5.76a3.78 3.78 0 0 1 0-7.58h5.76v-3.21H62.7zm11.38-7.85c.47 0 .84.38.84.84 0 .46-.37.84-.84.84a.83.83 0 0 1-.83-.83v-.01c0-.47.37-.84.83-.84z"/></defs><g><g transform="translate(-61 -1204)"><use fill="#12c839" xlink:href="#m8fca"/></g></g></svg>