<svg xmlns="http://www.w3.org/2000/svg" xmlns:xlink="http://www.w3.org/1999/xlink" width="24" height="21" viewBox="0 0 24 21"><defs><path id="cr6ja" d="M425.7 1206.95v-.65c0-1.64 2.95-2.97 6.6-2.97.64 0 1.26.04 1.84.12v6.35c-.58.08-1.2.12-1.84.12-3.65 0-6.6-1.33-6.6-2.97zm0 3.31v-.64c0-.21.05-.41.14-.61.62 1.35 3.28 2.36 6.46 2.36.64 0 1.26-.04 1.84-.11v1.86c-.58.07-1.2.11-1.84.11-3.65 0-6.6-1.33-6.6-2.97zm8.44 5.1c0 .36.09.71.25 1.04-.66.1-1.36.15-2.09.15-3.65 0-6.6-1.33-6.6-2.97v-.64c0-.21.05-.42.14-.61.62 1.35 3.28 2.36 6.46 2.36.64 0 1.26-.04 1.84-.12zm14.29-14.1v.65c0 1.64-2.96 2.97-6.6 2.97-3.65 0-6.61-1.33-6.61-2.97v-.64c0-1.64 2.96-2.97 6.6-2.97 3.65 0 6.6 1.33 6.6 2.97zm-.14 2.72c.09.2.14.4.14.6v.65c0 1.64-2.96 2.97-6.6 2.97-3.65 0-6.61-1.33-6.61-2.97v-.64c0-.21.05-.42.14-.61.62 1.35 3.28 2.36 6.46 2.36 3.19 0 5.85-1.01 6.47-2.36zm0 3.31c.09.2.14.4.14.61v.65c0 1.64-2.96 2.97-6.6 2.97-3.65 0-6.61-1.33-6.61-2.97v-.65c0-.2.05-.4.14-.6.62 1.34 3.28 2.36 6.46 2.36 3.19 0 5.85-1.02 6.47-2.37zm0 3.5c.09.2.14.4.14.61v.64c0 1.65-2.96 2.98-6.6 2.98-3.65 0-6.61-1.33-6.61-2.98v-.64c0-.2.05-.41.14-.6.62 1.34 3.28 2.35 6.46 2.35 3.19 0 5.85-1 6.47-2.36zm0 3.32c.09.2.14.4.14.6v.65c0 1.64-2.96 2.97-6.6 2.97-3.65 0-6.61-1.33-6.61-2.97v-.64c0-.21.05-.41.14-.61.62 1.35 3.28 2.36 6.46 2.36 3.19 0 5.85-1.01 6.47-2.36z"/></defs><g><g transform="translate(-425 -1198)"><use fill="#12c839" xlink:href="#cr6ja"/></g></g></svg>