<svg xmlns="http://www.w3.org/2000/svg" xmlns:xlink="http://www.w3.org/1999/xlink" width="20" height="22" viewBox="0 0 20 22"><defs><path id="d751a" d="M447.1 939.71v15.27c0 .41-.16.77-.47 1.07-.3.3-.66.46-1.08.46h-16.97c-.42 0-.78-.16-1.09-.46-.3-.3-.46-.66-.46-1.07V939.7c0-.41.16-.77.46-1.07.3-.3.67-.45 1.09-.45h1.54v-1.15c0-.52.19-.97.57-1.35.37-.37.83-.56 1.36-.56h.77c.53 0 .98.19 1.36.56.38.38.57.83.57 1.35v1.15h4.63v-1.15c0-.52.19-.97.56-1.35.38-.37.84-.56 1.37-.56h.77c.53 0 .98.19 1.36.56.38.38.57.83.57 1.35v1.15h1.54c.42 0 .78.15 1.08.45.3.3.46.66.46 1.07zm-15.05 11.83h-3.47v3.44h3.47zm0-4.58h-3.47v3.82h3.47zm0-4.2h-3.47v3.44h3.47zm0-1.9h.77c.1 0 .2-.04.27-.12a.37.37 0 0 0 .12-.26v-3.44c0-.1-.04-.2-.12-.27a.37.37 0 0 0-.27-.11h-.77c-.1 0-.2.04-.27.11a.36.36 0 0 0-.12.27v3.44c0 .1.04.19.12.26.07.08.16.12.27.12zm4.63 10.68h-3.86v3.44h3.86zm0-4.58h-3.86v3.82h3.86zm0-4.2h-3.86v3.44h3.86zm4.63 8.78h-3.86v3.44h3.86zm0-4.58h-3.86v3.82h3.86zm0-4.2h-3.86v3.44h3.86zm0-1.9h.77c.1 0 .2-.04.27-.12a.37.37 0 0 0 .11-.26v-3.44c0-.1-.03-.2-.11-.27a.37.37 0 0 0-.27-.11h-.77c-.1 0-.2.04-.28.11a.37.37 0 0 0-.1.27v3.44c0 .1.03.19.1.26.08.08.17.12.28.12zm4.24 10.68h-3.47v3.44h3.47zm0-4.58h-3.47v3.82h3.47zm0-4.2h-3.47v3.44h3.47z"/></defs><g><g transform="translate(-427 -935)"><use fill="#12c839" xlink:href="#d751a"/></g></g></svg>