<?xml version="1.0" encoding="utf-8"?>
<svg version="1.1" id="Слой_1" xmlns="http://www.w3.org/2000/svg" xmlns:xlink="http://www.w3.org/1999/xlink" x="0px" y="0px"
	 viewBox="0 0 537 480.5" style="enable-background:new 0 0 537 480.5;" xml:space="preserve">
<style type="text/css">
	.st0{fill:transparent;stroke:#000000;stroke-width:25;stroke-miterlimit:10;}
</style>
<path class="st0" d="M268.5,468c-7.3,0-14.3-2.6-19.8-7.4c-20.7-18.1-40.6-35.1-58.2-50.1l-0.1-0.1c-51.6-44-96.1-81.9-127.1-119.3
	c-34.6-41.8-50.8-81.4-50.8-124.7c0-42.1,14.4-80.9,40.6-109.3C79.6,28.3,116,12.5,155.5,12.5c29.6,0,56.6,9.3,80.4,27.8
	c12,9.3,22.9,20.7,32.5,34c9.6-13.3,20.5-24.7,32.5-34c23.8-18.4,50.9-27.8,80.4-27.8c39.5,0,75.9,15.8,102.4,44.6
	c26.2,28.4,40.6,67.2,40.6,109.3c0,43.3-16.1,82.9-50.8,124.7c-31,37.4-75.5,75.4-127.1,119.3c-17.6,15-37.6,32-58.3,50.2
	C282.8,465.4,275.8,468,268.5,468z"/>
</svg>