<svg xmlns="http://www.w3.org/2000/svg" xmlns:xlink="http://www.w3.org/1999/xlink" width="19" height="21" viewBox="0 0 19 21"><defs><path id="a" d="M747.15 47.09v8.25c0 .38-.14.7-.42.97-.29.27-.63.4-1.04.4h-14.65c-.41 0-.76-.13-1.04-.4-.29-.27-.43-.59-.43-.97v-8.25c0-.39.14-.71.43-.98.28-.27.63-.4 1.04-.4h.48v-2.75a6 6 0 0 1 2.02-4.53 6.8 6.8 0 0 1 4.82-1.89 6.8 6.8 0 0 1 4.83 1.9 6 6 0 0 1 2.01 4.52v2.75h.49c.4 0 .75.13 1.04.4.28.27.42.6.42.98zm-4.88-4.13c0-1.01-.38-1.88-1.14-2.6a3.89 3.89 0 0 0-2.77-1.07c-1.08 0-2 .36-2.76 1.08a3.43 3.43 0 0 0-1.15 2.6v2.74h7.82z"/></defs><use xlink:href="#a" transform="translate(-729 -36)"/></svg>