<svg xmlns="http://www.w3.org/2000/svg" xmlns:xlink="http://www.w3.org/1999/xlink" width="57" height="75" viewBox="0 0 57 75"><defs><path id="f8rna" d="M94.7 878.14c0 1.01-.67 1.69-1.67 1.69h-9.98c-1 0-1.67-.68-1.67-1.69 0-1 .67-1.68 1.67-1.68h9.98c1 0 1.66.68 1.66 1.68zm-3.34 5.05c0 1.01-.66 1.69-1.66 1.69h-6.65c-1 0-1.67-.68-1.67-1.69 0-1 .67-1.68 1.67-1.68h6.65c1 0 1.66.67 1.66 1.68zm-13.3-6.73c.91 0 1.66.76 1.66 1.68 0 .93-.75 1.69-1.66 1.69-.92 0-1.67-.76-1.67-1.69 0-.92.75-1.68 1.67-1.68zm0 5.05c.91 0 1.66.75 1.66 1.68 0 .93-.75 1.69-1.66 1.69-.92 0-1.67-.76-1.67-1.69 0-.93.75-1.68 1.67-1.68zM89.7 834.4c.92 0 1.66.75 1.66 1.68 0 .93-.74 1.68-1.66 1.68-.92 0-1.66-.75-1.66-1.68 0-.93.74-1.68 1.66-1.68zm11.64 3.03v3.7c0 1.85-1.5 3.36-3.32 3.36H81.38a3.12 3.12 0 0 1-3.16-3.36v-3.7c0-1.52 1-2.86 2.5-3.2l3-.84a6.57 6.57 0 0 1 5.98-4.04 7 7 0 0 1 6.16 4.04l2.99.84c1.5.34 2.5 1.68 2.5 3.2zm-3.32 3.7v-3.7l-4-1.01c-.5-.17-1-.5-1.16-1.18a3.21 3.21 0 0 0-3.16-2.52c-1.5 0-2.83 1-3.16 2.52-.17.5-.5 1-1.16 1.18l-4 1v3.7zm19.96-3.37v60.58a4.93 4.93 0 0 1-5 5.04H66.42a4.93 4.93 0 0 1-4.99-5.04v-60.58a4.93 4.93 0 0 1 5-5.04h8.3c1 0 1.67.67 1.67 1.68 0 1-.66 1.68-1.66 1.68H66.4c-1 0-1.66.67-1.66 1.68v60.58c0 1 .66 1.68 1.66 1.68H113c1 0 1.66-.68 1.66-1.68v-60.58c0-1-.66-1.68-1.66-1.68h-8.32c-1 0-1.66-.67-1.66-1.68 0-1.01.66-1.68 1.66-1.68H113a4.93 4.93 0 0 1 4.99 5.04zm-6.65 3.37v39.2c0 2.19-1 4.38-2.5 5.9l-7.82 7.9a7.76 7.76 0 0 1-5.82 2.52H69.74c-1 0-1.66-.67-1.66-1.68v-53.84c0-1.01.66-1.68 1.66-1.68h4.99c1 0 1.66.67 1.66 1.68 0 1-.66 1.68-1.66 1.68H71.4v50.48h21.63a3.36 3.36 0 0 0 3.32-3.37v-3.36a4.93 4.93 0 0 1 5-5.05h3.32a3.36 3.36 0 0 0 3.33-3.37v-35.33h-3.33c-1 0-1.66-.67-1.66-1.68 0-1.01.66-1.68 1.66-1.68h5c.99 0 1.66.67 1.66 1.68zm-5.5 43.58c-.5.17-.83.17-1.16.17h-3.33c-1 0-1.66.67-1.66 1.68v4.37zm-27.77-18.34v3.36c0 1.01-.67 1.68-1.67 1.68-1 0-1.66-.67-1.66-1.68v-3.36c0-1.01.66-1.69 1.66-1.69 1 0 1.67.68 1.67 1.69zm6.65-10.1v13.46c0 1.01-.67 1.68-1.66 1.68-1 0-1.67-.67-1.67-1.68v-13.46c0-1 .67-1.68 1.67-1.68 1 0 1.66.67 1.66 1.68zm13.3 5.05v8.41c0 1.01-.66 1.68-1.66 1.68-1 0-1.66-.67-1.66-1.68v-8.41c0-1.01.67-1.68 1.66-1.68 1 0 1.67.67 1.67 1.68zm-6.65-3.37v11.78c0 1.01-.66 1.68-1.66 1.68-1 0-1.66-.67-1.66-1.68v-11.78c0-1 .66-1.68 1.66-1.68 1 0 1.66.67 1.66 1.68zm13.31-6.73v18.51c0 1.01-.66 1.68-1.66 1.68-1 0-1.67-.67-1.67-1.68v-18.5c0-1.02.67-1.69 1.67-1.69 1 0 1.66.67 1.66 1.68z"/><linearGradient id="f8rnb" x1="89.42" x2="89.98" y1="829.35" y2="903.38" gradientUnits="userSpaceOnUse"><stop offset="0" stop-color="#508ab3"/><stop offset="1" stop-color="#883759"/></linearGradient></defs><g><g transform="translate(-61 -829)"><use xlink:href="#f8rna"/><use fill="url(#f8rnb)" xlink:href="#f8rna"/></g></g></svg>