<svg xmlns="http://www.w3.org/2000/svg" xmlns:xlink="http://www.w3.org/1999/xlink" width="171" height="98" viewBox="0 0 171 98"><defs><path id="a" d="M180.77 1302.94v12.42c0 .85-.68 1.54-1.52 1.54h-43.88c-.84 0-1.52-.69-1.52-1.54 0-.85.68-1.54 1.52-1.54h3.03l-7.84-28.37-7.26 3.06a1.5 1.5 0 0 1-.1.04c-.36.13-9.04 3.28-9.04 14.39v10.88h8.72v-11.45c0-.85.68-1.54 1.52-1.54.85 0 1.53.7 1.53 1.54v11.45h4.68c.84 0 1.52.69 1.52 1.54 0 .85-.68 1.54-1.52 1.54h-17.97c-.84 0-1.52-.69-1.52-1.54v-12.42c0-6.97 3-11.3 5.51-13.7a16.97 16.97 0 0 1 5.54-3.6l8.7-3.67.27-.08 6.36-4.26v-2.47a16.14 16.14 0 0 1-8.67-12.25 7.36 7.36 0 1 1-4.66-12.36v-9.28c0-11.85 9.5-21.49 21.2-21.49h1.63c11.68 0 21.2 9.64 21.2 21.49v9.39a7.37 7.37 0 0 1-4.76 12.25 16.14 16.14 0 0 1-8.68 12.25v2.64l.18.1 6.11 4.09 8.66 3.66a15.28 15.28 0 0 1 2.98 1.55c3.02 1.98 8.07 6.66 8.07 15.74zm-26-21.46v.08l-.01.2c.06.44-.08.91-.41 1.26l-6.01 6.33 5.68 4.24 4.58-9.55zm-8.75 9.97l-3.3 2.46 1.35 3.26h4.1l1.19-3.23zm.05-4.16l5.66-5.96v-5.01c-1.29.34-2.64.53-4.03.53h-3.12c-1.4 0-2.75-.19-4.04-.53v5.24l-.02.26zm17.53-35.87v8.37a4.24 4.24 0 0 0 3.46-4.19c0-2.09-1.5-3.83-3.46-4.18zm-34.92 0a4.24 4.24 0 0 0-3.46 4.18c0 2.1 1.5 3.83 3.46 4.19zm1.53-4.64c.24 0 14.95-.1 21.72-9.57a1.51 1.51 0 0 1 2.71.56c.02.07 1.82 7.68 7.77 9.05l.04.01.1.03.05.02.09.03.06.03a1.48 1.48 0 0 1 .26.16l.05.05.06.05.04.05.05.05a1.98 1.98 0 0 1 .14.18l.03.06.04.07.03.06.03.08.03.06.02.08.02.07.02.07.01.09v.06l.01.1v.02c.55.06 1.07.17 1.57.35v-7.38c0-10.15-8.14-18.4-18.16-18.4h-1.64c-10 0-18.15 8.25-18.15 18.4v7.34a7.1 7.1 0 0 1 1.47-.31v-.14l.02-.08v-.07l.03-.09.02-.06.03-.08.02-.06.03-.07.03-.07.04-.06.04-.06.04-.06.05-.06.04-.05.05-.06.05-.04.06-.06.05-.04.07-.05.05-.03.07-.04.06-.03.08-.04.06-.02.08-.03.08-.02.06-.02.1-.01.05-.01.16-.01zm14.37 26.98h3.12c7.09 0 12.85-5.84 12.85-13.03v-11.25c-4.43-1.55-6.8-5.54-7.96-8.28-6.64 7.06-16.98 8.37-20.87 8.61v10.92c0 7.19 5.77 13.03 12.86 13.03zm-11.14 10.28l4.58 9.55 5.73-4.28-5.79-5.71a1.56 1.56 0 0 1-.39-1.57c-.04-.15-.07-.3-.07-.47v-.23zm8.04 14.86l-1.28-3.1-1.84 1.37a1.5 1.5 0 0 1-1.27.25l-.07-.02 2.98 10.8zm8.6 14.92l-2.16-13.57h-3.57l-2.16 13.57zm2.2-5.56l3.03-10.98a1.52 1.52 0 0 1-.72.19c-.32 0-.64-.1-.9-.3l-1.78-1.33-1.12 3.03zm25.45-5.32c0-7.24-3.63-11.15-6.68-13.15-1.34-.88-2.35-1.24-2.36-1.24a1.27 1.27 0 0 1-.1-.04l-6.89-2.91-7.8 28.22h12.07v-11.45c0-.85.68-1.54 1.52-1.54s1.52.7 1.52 1.54v11.45h8.72zm-32.46-40.8c-.84 0-1.52-.69-1.52-1.54v-5.11c0-.85.68-1.55 1.52-1.55s1.52.7 1.52 1.55v3.57h1.13c.84 0 1.52.69 1.52 1.54 0 .85-.68 1.54-1.52 1.54zm114.94-15.4a1.9 1.9 0 0 1-2.7 0c-2.54-2.57-6.85-4.07-12.79-4.46-5.05-.34-9.92.23-12.38.6-.05.01-.1.07-.1.13v4.41a1.91 1.91 0 1 1-3.8 0v-4.4c0-1.98 1.4-3.63 3.34-3.92 6.14-.93 21.22-2.32 28.43 4.92.74.75.74 1.96 0 2.71zm20.93 53.51v14.75a1.91 1.91 0 1 1-3.81 0v-14.74c0-2.63-1.65-5-4.11-5.9l-12.36-4.51-5.15 7.75a3.92 3.92 0 0 1-6.07.6l-3.13-3.15v19.95a1.91 1.91 0 1 1-3.82 0v-19.95l-3.13 3.16a3.92 3.92 0 0 1-6.07-.6l-5.15-7.76-12.36 4.51a6.3 6.3 0 0 0-4.1 5.9v14.74a1.91 1.91 0 1 1-3.82 0v-14.74c0-4.23 2.66-8.05 6.62-9.5l11.72-4.28c-.04-.53.14-1.06.52-1.47l3.55-3.74v-6.44a23.45 23.45 0 0 1-8.15-17.86v-4.32a22.23 22.23 0 0 1-2.04-9.31v-4.1c0-10.08 8.17-18.29 18.2-18.29h28.53c1.05 0 1.9.86 1.9 1.92v20.47c0 3.22-.68 6.35-2.03 9.3v5.03a22.53 22.53 0 0 1-8.15 17.3v6.3l3.55 3.74c.38.4.56.94.52 1.47l11.72 4.28a10.13 10.13 0 0 1 6.62 9.5zm-37.77-24.07c5.17.34 10.1-1.43 13.86-4.97a18.43 18.43 0 0 0 5.84-13.55v-5.45c0-.29.06-.57.19-.83a18.44 18.44 0 0 0 1.84-8.05v-18.56h-26.6c-7.94 0-14.4 6.49-14.4 14.46v4.1c0 2.79.63 5.5 1.85 8.05.13.26.2.54.2.83v4.75c0 10.15 7.56 18.6 17.23 19.22zm-1.74 14.52l-9-6.18-1.9 2.02 5.93 8.93.1.06.1-.04zm13.29-9.69v-3.5a21.98 21.98 0 0 1-20.64-.07v3.57l10.32 7.09zm3.55 5.53l-1.9-2.02-9 6.18 4.77 4.79.1.04.1-.06zm-34.38 20.26v8.19a1.91 1.91 0 1 1-3.8 0v-8.2c0-1.05.85-1.9 1.9-1.9 1.05 0 1.9.85 1.9 1.9zm44.83 0v8.19a1.91 1.91 0 1 1-3.82 0v-8.2a1.91 1.91 0 0 1 3.81 0zm-75.75-19.68l-.49 3.2a22.56 22.56 0 0 1-17.39-13.83 23.02 23.02 0 0 1 6.94-26.69h-3.16v-3.23h10.63v10.75h-3.19v-6.55a19.36 19.36 0 0 0-8.27 9.5 19.66 19.66 0 0 0 0 14.99 19.28 19.28 0 0 0 14.93 11.86zm16.86-1.39h3.14v3.23h-10.63v-10.75h3.2v6.55a19.36 19.36 0 0 0 8.26-9.5 19.66 19.66 0 0 0 0-14.99 19.27 19.27 0 0 0-14.93-11.86l.5-3.2a22.56 22.56 0 0 1 17.38 13.83 22.9 22.9 0 0 1 0 17.45 22.66 22.66 0 0 1-6.92 9.24zm-12.31-25.38v6.23l.27.09c2.78.89 4.31 3 4.31 5.96a6.25 6.25 0 0 1-4.58 6.04v1.35h-3.2v-1.35a6.25 6.25 0 0 1-4.58-6.04h3.2c0 1.07.55 2.01 1.39 2.55v-6.23l-.27-.09a5.86 5.86 0 0 1-4.32-5.96 6.25 6.25 0 0 1 4.59-6.04v-1.35h3.19v1.35a6.25 6.25 0 0 1 4.58 6.04h-3.2c0-1.07-.55-2.01-1.38-2.55zm-3.2 0a3.03 3.03 0 0 0-1.38 2.55c0 1.28.42 2.09 1.39 2.6zm3.2 9.68v5.15a3.03 3.03 0 0 0 1.39-2.55c0-1.28-.43-2.09-1.39-2.6z"/><linearGradient id="b" x1="195.12" x2="197.14" y1="1219.78" y2="1316.9" gradientUnits="userSpaceOnUse"><stop offset="0" stop-color="#508ab3"/><stop offset="1" stop-color="#883759"/></linearGradient></defs><g transform="translate(-111 -1219)"><use xlink:href="#a"/><use fill="url(#b)" xlink:href="#a"/></g></svg>