<svg xmlns="http://www.w3.org/2000/svg" xmlns:xlink="http://www.w3.org/1999/xlink" width="106" height="96" viewBox="0 0 106 96"><defs><path id="b" d="M568.75 1247.89c-.75.75-1.97.75-2.73 0-2.58-2.56-6.94-4.06-12.95-4.46a61.4 61.4 0 0 0-12.54.61c-.06 0-.1.06-.1.13v4.41c0 1.06-.87 1.92-1.93 1.92a1.92 1.92 0 0 1-1.93-1.92v-4.41a3.94 3.94 0 0 1 3.38-3.92c6.23-.93 21.5-2.31 28.8 4.93a1.9 1.9 0 0 1 0 2.7zm.66 43.1l-5.21 7.76a3.98 3.98 0 0 1-3.33 1.76 4 4 0 0 1-2.82-1.16l-3.18-3.15v19.94c0 1.06-.86 1.92-1.93 1.92a1.92 1.92 0 0 1-1.93-1.92v-19.94l-3.18 3.15a4 4 0 0 1-6.14-.6l-5.22-7.76-12.52 4.52a6.3 6.3 0 0 0-4.16 5.9v14.73c0 1.06-.86 1.92-1.93 1.92a1.92 1.92 0 0 1-1.93-1.92v-14.73c0-4.24 2.7-8.05 6.7-9.5l11.88-4.28a1.9 1.9 0 0 1 .53-1.47l3.6-3.75v-6.44a23.32 23.32 0 0 1-8.26-17.85v-4.33a22 22 0 0 1-2.07-9.3v-4.1c0-10.09 8.27-18.3 18.44-18.3h28.9c1.06 0 1.92.86 1.92 1.92v20.48c0 3.22-.7 6.35-2.06 9.3v5.03a22.4 22.4 0 0 1-8.26 17.3v6.3l3.6 3.74c.39.4.57.94.52 1.47zm-17.72-13.65a18.65 18.65 0 0 0 14.04-4.98 18.31 18.31 0 0 0 5.92-13.54v-5.45c0-.3.06-.58.19-.84a18.25 18.25 0 0 0 1.87-8.04v-18.56h-26.96a14.54 14.54 0 0 0-14.58 14.46v4.1c0 2.78.63 5.5 1.87 8.04.13.26.2.55.2.84v4.75c0 10.15 7.66 18.59 17.45 19.22zm-1.76 14.51l-9.1-6.17-1.93 2.01 6 8.94.1.05.1-.03zm13.46-9.68v-3.5a22.5 22.5 0 0 1-20.9-.08v3.58l10.45 7.09zm3.6 5.52l-1.93-2.01-9.1 6.17 4.82 4.8.1.03.1-.05zm-34.82 20.27v8.18c0 1.06-.86 1.92-1.93 1.92a1.92 1.92 0 0 1-1.93-1.92v-8.18c0-1.06.87-1.92 1.93-1.92 1.07 0 1.93.86 1.93 1.92zm70.75-7.02a5.23 5.23 0 0 1-5.11 5.26h-.29v2.14c0 .82-.66 1.5-1.47 1.5a1.5 1.5 0 0 1-1.48-1.5v-2.14h-2.9a1.5 1.5 0 0 1-1.49-1.5c0-.83.67-1.5 1.48-1.5h6.07a2.25 2.25 0 0 0 2.23-2.26c0-1.25-1-2.27-2.23-2.27h-3.38a5.23 5.23 0 0 1-5.19-5.26c0-2.9 2.33-5.26 5.19-5.26h.2v-2.09c0-.82.67-1.5 1.48-1.5.82 0 1.48.68 1.48 1.5v2.09h2.8c.8 0 1.47.67 1.47 1.5 0 .82-.66 1.5-1.47 1.5h-5.96a2.25 2.25 0 0 0-2.23 2.26c0 1.25 1 2.26 2.23 2.26h3.38a5.23 5.23 0 0 1 5.19 5.27zm18.26 5.48c0 6.41-5.15 11.64-11.46 11.64h-27.96a11.57 11.57 0 0 1-11.47-11.64c0-4.82.99-9.58 2.93-14.15a43.5 43.5 0 0 1 6.4-10.42 48.8 48.8 0 0 1 8.1-7.83l-6.77-10.38c-.39-.6-.31-1.38.17-1.88 2.3-2.4 4.65-3.52 7.41-3.52 2.18 0 4.44.67 7.37 1.76.22.09.44.12.7.12.85 0 1.9-.45 3-.9 1.4-.6 3.02-1.28 4.78-1.28 1.92 0 3.65.78 5.27 2.4.48.46.58 1.18.28 1.77l-6.29 11.83a47.99 47.99 0 0 1 8.2 7.9 43.1 43.1 0 0 1 6.41 10.43 35.9 35.9 0 0 1 2.93 14.15zm-30.64-33.53h10.3l5.9-11.15a3.87 3.87 0 0 0-2.37-.83c-1.17 0-2.38.51-3.64 1.05-1.32.57-2.7 1.14-4.14 1.14-.6 0-1.17-.1-1.71-.3-2.63-.99-4.6-1.59-6.35-1.59-1.64 0-3 .55-4.43 1.8zm27.66 33.53c0-8.02-2.88-15.6-8.58-22.58a44.6 44.6 0 0 0-8.37-7.95h-11.05c-1.1.8-4.76 3.53-8.36 7.95-5.69 6.97-8.58 14.57-8.58 22.58a8.58 8.58 0 0 0 8.5 8.64h27.97c4.69 0 8.5-3.87 8.48-8.64z"/><linearGradient id="a" x1="567.93" x2="569.18" y1="1222.1" y2="1318.06" gradientUnits="userSpaceOnUse"><stop offset="0" stop-color="#508ab3"/><stop offset="1" stop-color="#883759"/></linearGradient></defs><use fill="url(#a)" xlink:href="#b" transform="translate(-516 -1222)"/></svg>