<svg xmlns="http://www.w3.org/2000/svg" xmlns:xlink="http://www.w3.org/1999/xlink" width="121" height="101" viewBox="0 0 121 101"><defs><path id="a" d="M629.28 645.27v29.97c0 4.06-3.3 7.37-7.34 7.37h-18.1l-17.98 13.13a2.66 2.66 0 0 1-3.08.06 2.67 2.67 0 0 1-1.1-2.88l2.57-10.31h-3.36a7.37 7.37 0 0 1-7.35-7.37v-29.97c0-4.07 3.3-7.38 7.35-7.38h24.36a1.75 1.75 0 0 1 0 3.5h-24.35a3.86 3.86 0 0 0-3.86 3.88v29.97a3.86 3.86 0 0 0 3.86 3.87h5.6a1.74 1.74 0 0 1 1.69 2.17l-2.57 10.31 16.64-12.15c.3-.22.66-.33 1.03-.33h18.66a3.86 3.86 0 0 0 3.85-3.87v-29.97a3.86 3.86 0 0 0-3.85-3.87h-9.33a1.75 1.75 0 0 1 0-3.5h9.33c4.04 0 7.34 3.3 7.34 7.37zm-16.44 13.8l-6.8 6.8a4.8 4.8 0 0 1-6.78 0l-2.27-2.27 2.27-2.26 2.26 2.26a1.6 1.6 0 0 0 2.26 0l6.8-6.78a1.6 1.6 0 0 0 0-2.27l-2.27-2.26a1.6 1.6 0 0 0-2.26 0l-2.43 2.42a6.37 6.37 0 0 0-3.66-.86l3.82-3.82a4.8 4.8 0 0 1 6.8 0l2.26 2.26a4.8 4.8 0 0 1 0 6.79zm-9.76 9.76l-3.82 3.82a4.8 4.8 0 0 1-6.8 0l-2.26-2.26a4.8 4.8 0 0 1 0-6.79l6.8-6.78a4.8 4.8 0 0 1 6.78 0l2.27 2.26-2.27 2.26-2.26-2.26a1.6 1.6 0 0 0-2.26 0l-6.8 6.78a1.6 1.6 0 0 0 0 2.27l2.27 2.26a1.6 1.6 0 0 0 2.26 0l2.43-2.42a6.4 6.4 0 0 0 3.66.86zm-23.54 56.01v12.42c0 .85-.69 1.55-1.54 1.55h-44.44a1.54 1.54 0 0 1 0-3.09h3.06l-7.94-28.37-7.35 3.06-.1.04c-.37.13-9.16 3.28-9.16 14.4v10.87h8.84v-11.44a1.54 1.54 0 1 1 3.08 0v11.44h4.75a1.54 1.54 0 0 1 0 3.09h-18.2c-.86 0-1.55-.7-1.55-1.55v-12.42c0-6.96 3.04-11.3 5.59-13.7a17.22 17.22 0 0 1 5.6-3.6l8.83-3.67.26-.08 6.44-4.26v-2.47a16.15 16.15 0 0 1-8.78-12.24 7.35 7.35 0 0 1-4.72-12.36v-9.3a21.5 21.5 0 0 1 21.47-21.47h1.66a21.5 21.5 0 0 1 21.47 21.48v9.4a7.35 7.35 0 0 1-4.82 12.26 16.15 16.15 0 0 1-8.78 12.23v2.64l.18.1 6.19 4.1 8.77 3.65c.3.1 1.5.57 3.02 1.55 3.05 1.98 8.17 6.67 8.17 15.74zm-26.33-21.46v.08l-.02.2c.06.45-.07.92-.41 1.27l-6.09 6.32 5.76 4.24 4.64-9.55zm-8.86 9.97l-3.35 2.46 1.37 3.26h4.15l1.2-3.23zm.04-4.16l5.74-5.96v-5c-1.3.33-2.68.52-4.09.52h-3.16c-1.4 0-2.78-.19-4.08-.53v5.24l-.03.26zm17.76-35.87v8.37a4.26 4.26 0 0 0 0-8.37zm-35.37 0a4.26 4.26 0 0 0 0 8.37zm1.55-4.64c.24 0 15.14-.09 22-9.57a1.54 1.54 0 0 1 2.75.56c.01.08 1.83 7.68 7.87 9.05l.04.01.1.03.05.02.08.03.07.03.07.04.06.04.06.04.07.05.05.04.06.05.05.05a1.83 1.83 0 0 1 .26.37l.03.05.03.08.02.06.03.08.02.07.02.07.01.1v.05l.01.1v.02c.55.06 1.08.18 1.59.35v-7.38c0-10.15-8.25-18.4-18.39-18.4h-1.66a18.41 18.41 0 0 0-18.39 18.4v7.34c.48-.15.97-.26 1.49-.3v-.15l.02-.08v-.07l.03-.08.02-.07.03-.08.02-.06.03-.07.03-.06.04-.07.04-.06.04-.06.05-.06.05-.05.05-.06.05-.04.06-.06.05-.03.07-.06.05-.03.07-.04.06-.03.08-.04.07-.02.07-.03.08-.02.07-.02.1-.01.05-.01h.16zm14.55 26.98h3.16c7.18 0 13.02-5.84 13.02-13.03v-11.25c-4.5-1.55-6.9-5.54-8.06-8.27-6.73 7.05-17.2 8.36-21.14 8.6v10.92c0 7.19 5.84 13.03 13.02 13.03zm-11.28 10.28l4.64 9.55 5.8-4.27-5.86-5.72a1.54 1.54 0 0 1-.4-1.57c-.04-.15-.07-.3-.07-.47v-.23zm8.15 14.86l-1.3-3.1-1.87 1.37a1.54 1.54 0 0 1-1.28.25l-.07-.02 3.02 10.8zm8.7 14.92l-2.18-13.57h-3.62l-2.19 13.57zm2.23-5.56l3.08-10.98a1.52 1.52 0 0 1-1.65-.11l-1.8-1.33-1.14 3.03zm25.78-5.32c0-7.24-3.68-11.15-6.77-13.15-1.35-.88-2.38-1.24-2.39-1.24a1.82 1.82 0 0 1-.1-.04l-6.97-2.9-7.9 28.21h12.22v-11.44a1.54 1.54 0 1 1 3.08 0v11.44h8.83zm-32.87-40.8c-.86 0-1.55-.69-1.55-1.54v-5.11a1.54 1.54 0 1 1 3.09 0v3.57h1.13a1.54 1.54 0 0 1 0 3.08z"/><linearGradient id="b" x1="567.99" x2="570.28" y1="637.89" y2="738.81" gradientUnits="userSpaceOnUse"><stop offset="0" stop-color="#508ab3"/><stop offset="1" stop-color="#883759"/></linearGradient></defs><g transform="translate(-509 -638)"><use xlink:href="#a"/><use fill="url(#b)" xlink:href="#a"/></g></svg>