<svg xmlns="http://www.w3.org/2000/svg" xmlns:xlink="http://www.w3.org/1999/xlink" width="128" height="93" viewBox="0 0 128 93"><defs><path id="a" d="M234.23 951.34a1.86 1.86 0 0 1-2.5.85c-2.95-1.5-9.03-1.82-11.12-1.82a1.88 1.88 0 0 1-1.86-1.89c0-1.04.83-1.88 1.86-1.88.34 0 8.46.02 12.79 2.21.92.47 1.29 1.6.83 2.53zm26.1 55.62c0 1.04-.84 1.89-1.87 1.89h-2.12v18.27c0 1.05-.84 1.89-1.87 1.89a1.88 1.88 0 0 1-1.86-1.89v-10.2h-111.8v10.2c0 1.05-.84 1.89-1.87 1.89a1.88 1.88 0 0 1-1.86-1.89v-18.27h-2.12a1.88 1.88 0 0 1-1.87-1.89c0-1.04.84-1.89 1.87-1.89h11.25a7.96 7.96 0 0 1-1.16-4.16v-15.95a7.9 7.9 0 0 1 4.33-7.1l4.81-2.43a32.53 32.53 0 0 1-6.35-2.13 3.9 3.9 0 0 1-1.98-4.94c1.63-4.46 2.92-12.28 3.17-15.98.64-9.04 7.43-15.86 15.8-15.86 8.38 0 15.17 6.82 15.8 15.86.27 3.7 1.55 11.52 3.19 15.98a3.9 3.9 0 0 1-1.99 4.94 32.5 32.5 0 0 1-6.35 2.13l4.81 2.43a7.9 7.9 0 0 1 4.34 7.05h4.11a3.88 3.88 0 0 1 3.86 3.9v16.13l-.01.13h8.24l-.01-.13v-16.13c0-2.15 1.73-3.9 3.86-3.9h.12v-1.62a7.96 7.96 0 0 1 5.69-7.63l6.72-1.94a2.15 2.15 0 0 0 1.54-2.06v-1.7a14.77 14.77 0 0 1-5.98-11.9v-3.08l-.95-1.93a10.1 10.1 0 0 1-1.04-4.45v-.12c0-6.6 5.3-11.96 11.82-11.96h17.93c1.03 0 1.86.84 1.86 1.88v9.72c0 1.85-.43 3.7-1.24 5.35l-.75 1.5v3.6a13.96 13.96 0 0 1-5.97 11.51v1.57c0 .96.63 1.8 1.53 2.07l6.72 1.94a7.96 7.96 0 0 1 5.69 7.63v17.62c0 1.53-.43 2.95-1.17 4.16h11.26c1.03 0 1.86.85 1.86 1.89zm-34.05-38.19a9.96 9.96 0 0 0 7.33-2.88 10.2 10.2 0 0 0 3.06-7.32v-4.04c0-.29.07-.58.2-.84l.94-1.9c.56-1.14.86-2.4.86-3.67v-7.83h-16.07a8.16 8.16 0 0 0-8.1 8.2v.1c0 .96.23 1.92.65 2.77l1.15 2.33c.13.26.2.55.2.84v3.53c0 5.74 4.38 10.55 9.78 10.71zm4.43 3.15a13.69 13.69 0 0 1-4.55.62 12.94 12.94 0 0 1-3.7-.66 5.93 5.93 0 0 1-.31 1.7l1.53 1.56a4.06 4.06 0 0 0 5.81 0l1.53-1.55a5.94 5.94 0 0 1-.31-1.67zm-22.18 12.99h20.05a3.88 3.88 0 0 1 3.85 3.9v8.2h4.24v-10.22c0-1.04.84-1.88 1.87-1.88 1.03 0 1.86.84 1.86 1.88v12.1c0 1.05-.83 1.89-1.86 1.89h-6.1v4.16l-.01.13h8.1a4.14 4.14 0 0 0 4.11-4.16v-17.62c0-1.85-1.22-3.5-2.98-4l-6.72-1.94a5.77 5.77 0 0 1-1.61-.76l-1.2 1.21a7.74 7.74 0 0 1-11.09 0l-1.2-1.21c-.48.33-1.02.59-1.6.76l-6.73 1.94a4.17 4.17 0 0 0-2.98 4zm-3.98 20.03c0 .07.05.13.13.13h23.9c.07 0 .13-.06.13-.13v-16.13a.13.13 0 0 0-.13-.13h-23.9a.13.13 0 0 0-.13.13zm-39.71-16.26a.13.13 0 0 0-.13.13v16.13c0 .07.06.13.13.13h23.9c.07 0 .13-.06.13-.13v-16.13a.13.13 0 0 0-.13-.13zm13.42-26.81a13.93 13.93 0 0 1-5.58 8.22v2.06a30.64 30.64 0 0 0 7.6-2.28c.1-.05.05-.17.04-.2-.8-2.16-1.5-4.98-2.06-7.8zm-25.97-5.09a1.88 1.88 0 0 1 2.46 1.79c0 5.63 4.52 10.2 10.09 10.2 5 0 9.2-3.67 9.96-8.62-1.44-3.22-4.11-5.5-7.95-6.77a20.34 20.34 0 0 0-5.22-.98l-2.8 2.94c-.71.75-1.9.77-2.63.05a1.9 1.9 0 0 1-.05-2.67l3.36-3.53c.34-.36.8-.56 1.3-.58.13 0 3.34-.07 7.08 1.14 4.28 1.4 7.54 3.93 9.55 7.38a62.08 62.08 0 0 1-.52-4.48 14.08 14.08 0 0 0-3.76-8.8 11.45 11.45 0 0 0-16.64 0 14.08 14.08 0 0 0-3.77 8.8 60.2 60.2 0 0 1-.46 4.13zm16.66 17.15v-2.01a13.7 13.7 0 0 1-8.23 0v2c0 .67-.16 1.3-.45 1.85l1.73 1.66a4.07 4.07 0 0 0 5.67 0l1.73-1.66a3.94 3.94 0 0 1-.45-1.84zm-11.95-1.78v-2.08a14.03 14.03 0 0 1-5.59-8.2 55.7 55.7 0 0 1-2.06 7.8c0 .03-.05.15.05.2 1.55.72 4.06 1.66 7.6 2.28zm-8.23 28.76c0 2.3 1.85 4.16 4.12 4.16h8.1v-4.29h-6.11a1.88 1.88 0 0 1-1.87-1.89v-9.6c0-1.04.84-1.89 1.87-1.89 1.03 0 1.86.85 1.86 1.89v7.71h4.24v-8.2c0-2.15 1.73-3.9 3.86-3.9h16.06a4.14 4.14 0 0 0-2.27-3.67l-6.23-3.15-2.16 2.08a7.77 7.77 0 0 1-10.8 0l-2.17-2.08-6.22 3.15a4.14 4.14 0 0 0-2.28 3.72zm103.84 12.23v-4.3h-111.8v4.3zm-71.97-16.26c0 1.04-.83 1.88-1.86 1.88h-3.98a1.88 1.88 0 0 1-1.87-1.88c0-1.04.84-1.89 1.87-1.89h3.98c1.03 0 1.86.85 1.86 1.89zm37.86 0c0 1.04-.83 1.88-1.86 1.88a1.88 1.88 0 0 1-1.88-1.88c0-1.04.83-1.89 1.86-1.89h.02c1.03 0 1.86.85 1.86 1.89z"/><linearGradient id="b" x1="196.09" x2="197.32" y1="936.52" y2="1029.01" gradientUnits="userSpaceOnUse"><stop offset="0" stop-color="#508ab3"/><stop offset="1" stop-color="#883759"/></linearGradient></defs><g transform="translate(-133 -936)"><use xlink:href="#a"/><use fill="url(#b)" xlink:href="#a"/></g></svg>