<svg xmlns="http://www.w3.org/2000/svg" xmlns:xlink="http://www.w3.org/1999/xlink" width="117" height="97" viewBox="0 0 117 97"><defs><path id="a" d="M563.35 989.41a4.88 4.88 0 0 1-1.44 3.58l-9.81 9.8a10.07 10.07 0 0 1-7.17 2.96h-9.8l-1.97 1.97 2.98 2.97-7.92 7.92-14.6-14.6 7.92-7.9 2 2 5.45-5.44a17.23 17.23 0 0 1-5.09-12.25 17.34 17.34 0 0 1 34.67 0c0 1.42-.18 2.83-.52 4.19l.23-.01a4.86 4.86 0 0 1 5.07 4.81zm-32.04.97c1.84-1.62 4.19-2.5 6.67-2.5h1.63v-1.15a4.14 4.14 0 0 1-2.51-3.8h3.25a.88.88 0 1 0 .89-.88 4.14 4.14 0 0 1-1.63-7.94v-1.39h3.25v1.4a4.14 4.14 0 0 1 2.51 3.8h-3.25a.88.88 0 1 0-.88.87 4.14 4.14 0 0 1 1.62 7.94v1.15h3.03a4.9 4.9 0 0 1 4.43 2.75l3-3a14.08 14.08 0 1 0-26.16-7.2 14 14 0 0 0 4.15 9.95zm.23 20.31l-10-9.98-3.32 3.3 10 10zm28.56-21.22c-.01-.46-.2-.88-.54-1.2a1.73 1.73 0 0 0-2.38.1l-7.26 7.26a5 5 0 0 1-4.11 2.1h-7.94v-3.25h7.94c.94 0 1.72-.72 1.76-1.61a1.66 1.66 0 0 0-1.68-1.74h-7.91c-1.84 0-3.57.71-4.86 2.01l-7.28 7.27 5.02 5 2.92-2.9h11.15c1.84 0 3.56-.72 4.86-2.02l9.82-9.8c.32-.33.5-.76.49-1.22zm47.98-28.32c-.76.75-1.98.75-2.73 0-2.58-2.56-6.94-4.06-12.96-4.45a61.48 61.48 0 0 0-12.54.6c-.05.01-.1.07-.1.13v4.41c0 1.06-.86 1.92-1.93 1.92a1.92 1.92 0 0 1-1.93-1.92v-4.4a3.94 3.94 0 0 1 3.39-3.92c6.22-.93 21.5-2.32 28.8 4.92a1.9 1.9 0 0 1 0 2.71zm21.2 53.52v14.74c0 1.06-.87 1.91-1.93 1.91a1.92 1.92 0 0 1-1.93-1.91v-14.74c0-2.63-1.67-5-4.16-5.9l-12.52-4.51-5.22 7.75a3.98 3.98 0 0 1-3.32 1.77 4 4 0 0 1-2.82-1.16l-3.18-3.16v19.95c0 1.06-.87 1.91-1.93 1.91a1.92 1.92 0 0 1-1.93-1.91v-19.95l-3.18 3.16a4 4 0 0 1-6.15-.6l-5.21-7.76-12.52 4.51a6.3 6.3 0 0 0-4.16 5.9v14.74c0 1.06-.87 1.91-1.93 1.91a1.92 1.92 0 0 1-1.93-1.91v-14.74c0-4.23 2.69-8.05 6.7-9.5l11.87-4.28a1.9 1.9 0 0 1 .53-1.47l3.6-3.74v-6.44a23.32 23.32 0 0 1-8.26-17.86v-4.32a21.99 21.99 0 0 1-2.06-9.31v-4.1c0-10.08 8.27-18.29 18.44-18.29h28.89c1.06 0 1.93.86 1.93 1.92v20.47c0 3.22-.7 6.35-2.07 9.3v5.03a22.4 22.4 0 0 1-8.25 17.3v6.3l3.6 3.74c.38.4.56.94.52 1.47l11.87 4.28a10.14 10.14 0 0 1 6.7 9.5zm-38.26-24.07a18.65 18.65 0 0 0 14.04-4.98 18.32 18.32 0 0 0 5.91-13.54v-5.45c0-.29.07-.57.2-.83a18.25 18.25 0 0 0 1.87-8.05v-18.56h-26.96a14.54 14.54 0 0 0-14.58 14.46v4.1c0 2.79.63 5.5 1.87 8.05.13.26.2.54.2.83v4.75c0 10.15 7.66 18.6 17.45 19.22zm-1.76 14.52l-9.1-6.18-1.94 2.02 6 8.93.1.06.1-.04zm13.46-9.69v-3.5a22.5 22.5 0 0 1-20.9-.07v3.57l10.45 7.09zm3.6 5.53l-1.94-2.02-9.1 6.18 4.83 4.79.1.04.1-.06zm-34.82 20.26v8.19c0 1.06-.87 1.91-1.93 1.91a1.92 1.92 0 0 1-1.93-1.91v-8.2c0-1.05.86-1.9 1.93-1.9 1.06 0 1.93.85 1.93 1.9zm45.4 0v8.19c0 1.06-.87 1.91-1.93 1.91a1.92 1.92 0 0 1-1.93-1.91v-8.2c0-1.05.86-1.9 1.93-1.9 1.06 0 1.93.85 1.93 1.9z"/><linearGradient id="b" x1="570.62" x2="572.28" y1="935.36" y2="1031.32" gradientUnits="userSpaceOnUse"><stop offset="0" stop-color="#508ab3"/><stop offset="1" stop-color="#883759"/></linearGradient></defs><g transform="translate(-513 -935)"><use xlink:href="#a"/><use fill="url(#b)" xlink:href="#a"/></g></svg>