<svg xmlns="http://www.w3.org/2000/svg" xmlns:xlink="http://www.w3.org/1999/xlink" width="363" height="303" viewBox="0 0 363 303"><defs><path id="a" d="M428.8 1599.85a5.2 5.2 0 0 1-7.34 0c-6.94-6.9-18.65-10.94-34.83-12.01-13.75-.91-27.02.63-33.7 1.64-.16.02-.27.17-.27.34v11.9a5.18 5.18 0 0 1-5.2 5.16 5.18 5.18 0 0 1-5.18-5.16v-11.9c0-5.32 3.83-9.76 9.1-10.55 16.74-2.51 57.8-6.25 77.41 13.28a5.14 5.14 0 0 1 0 7.3zm56.98 144.29v39.73a5.18 5.18 0 0 1-5.19 5.17 5.18 5.18 0 0 1-5.18-5.17v-39.73c0-7.09-4.5-13.48-11.2-15.9l-33.65-12.18-14 20.92a10.7 10.7 0 0 1-8.95 4.75c-2.83 0-5.55-1.1-7.58-3.13l-8.54-8.5v53.77a5.18 5.18 0 0 1-5.2 5.17 5.18 5.18 0 0 1-5.18-5.17v-53.77l-8.55 8.5a10.72 10.72 0 0 1-8.65 3.08 10.7 10.7 0 0 1-7.87-4.7l-14-20.92-33.66 12.18a16.97 16.97 0 0 0-11.2 15.9v39.73a5.18 5.18 0 0 1-5.18 5.17 5.18 5.18 0 0 1-5.19-5.17v-39.73c0-11.41 7.24-21.7 18.02-25.6l31.92-11.55a5.14 5.14 0 0 1 1.41-3.95l9.67-10.1v-17.37a62.96 62.96 0 0 1-22.19-48.14v-11.66a59.44 59.44 0 0 1-5.55-25.1v-11.03c0-27.2 22.24-49.32 49.57-49.32h77.65a5.18 5.18 0 0 1 5.19 5.16v55.2c0 8.68-1.87 17.12-5.55 25.1v13.54a60.45 60.45 0 0 1-22.19 46.65v16.96l9.67 10.1a5.14 5.14 0 0 1 1.41 3.96l31.92 11.55a27.34 27.34 0 0 1 18.02 25.6zm-102.84-64.9a50.05 50.05 0 0 0 37.73-13.4 49.45 49.45 0 0 0 15.9-36.52v-14.7c0-.78.18-1.55.52-2.25a49.32 49.32 0 0 0 5.03-21.7v-50.03h-72.46c-21.61 0-39.2 17.5-39.2 39v11.04c0 7.51 1.7 14.81 5.04 21.7.34.7.52 1.46.52 2.24v12.8c0 27.37 20.6 50.13 46.92 51.83zm-4.73 39.15l-24.48-16.65-5.2 5.42 16.14 24.09c.03.04.1.14.27.16.17.01.25-.07.29-.1zm36.18-26.12v-9.43a60.33 60.33 0 0 1-32.12 6.7c-8.66-.55-16.8-3-24.07-6.9v9.63l28.1 19.11zm9.66 14.9l-5.19-5.43-24.47 16.65 12.98 12.92c.03.03.12.11.29.1a.33.33 0 0 0 .26-.16zm-93.58 54.63v22.07a5.18 5.18 0 0 1-5.19 5.17 5.18 5.18 0 0 1-5.19-5.17v-22.07a5.18 5.18 0 0 1 5.2-5.17 5.17 5.17 0 0 1 5.18 5.17zm122.03 0v22.07a5.18 5.18 0 0 1-5.19 5.17 5.18 5.18 0 0 1-5.19-5.17v-22.07a5.18 5.18 0 0 1 5.2-5.17 5.17 5.17 0 0 1 5.18 5.17z"/><path id="c" d="M294.2 1561.85a36.95 36.95 0 0 1-9.5 15.54c-5.37 5.36-11.92 9.16-18.26 12.84-5.98 3.46-11.62 6.73-15.96 11.06a25.98 25.98 0 0 0-6.71 10.92 5.6 5.6 0 0 1-9.32 2.3l-28-27.97a5.6 5.6 0 0 1-1.4-5.61 36.97 36.97 0 0 1 9.5-15.53c5.36-5.36 11.91-9.17 18.26-12.84 5.97-3.46 11.62-6.74 15.95-11.07a25.95 25.95 0 0 0 6.71-10.92 5.61 5.61 0 0 1 9.32-2.3l28.01 27.98a5.6 5.6 0 0 1 1.4 5.6zm-5.36-1.65l-28.01-27.97-50.42 50.35 28 27.98 50.43-50.36zm-27.57 10.27c.32.79.43 1.66.33 2.63-.1.96-.4 2-.89 3.08a15.26 15.26 0 0 1-2 3.18c.48.44.97.85 1.47 1.24.2.17.32.4.35.69.03.29-.06.56-.27.82-.2.24-.46.38-.75.39a1 1 0 0 1-.77-.25 44.7 44.7 0 0 1-1.47-1.36 8.53 8.53 0 0 1-3.08 2.07 7 7 0 0 1-5.46-.18 5.7 5.7 0 0 1-1.85-1.34 2.43 2.43 0 0 1-.71-1.58c0-.52.23-.99.69-1.39.45-.38.85-.57 1.23-.56.38 0 .76.1 1.12.28.37.18.73.4 1.1.66.38.25.78.45 1.22.58.44.14.92.15 1.46.03a4.4 4.4 0 0 0 1.86-1.04 177.83 177.83 0 0 1-4.97-5.56 14.03 14.03 0 0 1-5.81 1.76c-1.8.1-3.36-.36-4.68-1.45a5.13 5.13 0 0 1-1.95-4.93c.1-.97.38-1.97.85-2.98.47-1 1.06-1.96 1.77-2.82l-.54-.47a1 1 0 0 1-.36-.7 1 1 0 0 1 .26-.8c.2-.24.46-.37.76-.37s.56.1.76.28l.55.51a9.84 9.84 0 0 1 4.44-2.42c.9-.2 1.76-.2 2.6-.06.86.15 1.57.56 2.16 1.24.46.52.67 1.06.64 1.6-.03.55-.25 1-.66 1.36a1.5 1.5 0 0 1-1.32.33c-.5-.1-1.04-.22-1.63-.37a6.27 6.27 0 0 0-1.83-.19c-.63.03-1.3.34-1.97.95 1.5 1.58 3 3.29 4.51 5.02.96-.47 1.9-.86 2.84-1.23a9.87 9.87 0 0 1 2.8-.64 7.5 7.5 0 0 1 5.53 1.83c.8.67 1.35 1.35 1.67 2.16zm-14.53-1.2c-1.42-1.6-2.84-3.15-4.26-4.56-.39.43-.7.87-.9 1.32a3.7 3.7 0 0 0-.39 1.3c-.04.42 0 .81.11 1.17.11.35.29.65.55.9.6.58 1.3.84 2.09.81.79-.03 1.73-.35 2.8-.94zm10.92 5.14c.07-.46.06-.92-.05-1.37-.1-.44-.35-.85-.74-1.24-.4-.39-.83-.64-1.29-.75-.46-.1-.91-.13-1.38-.06-.45.08-.9.2-1.36.4l-1.28.55a115.4 115.4 0 0 0 4.71 5.11 5.88 5.88 0 0 0 1.39-2.64zm-9.76 14.36a1.4 1.4 0 0 1 0 1.99l-.14.11a44.43 44.43 0 0 0-4.8 4.13 37.97 37.97 0 0 0-3.81 4.42l-1.8 2.45c-.05.1-.12.2-.2.28-.55.54-1.44.54-1.99 0a1.4 1.4 0 0 1-.18-1.75l1.9-2.62a40.93 40.93 0 0 1 4.1-4.76c1.58-1.58 3.29-3 5.04-4.34a1.4 1.4 0 0 1 1.88.1zm12.2-44.98l1.85-2.54a1.41 1.41 0 0 1 2.31 1.57h.01l-1.92 2.62a41.1 41.1 0 0 1-4.09 4.75 51.2 51.2 0 0 1-5.04 4.35 1.41 1.41 0 1 1-1.64-2.29 46.37 46.37 0 0 0 4.7-4.04 38 38 0 0 0 3.81-4.42z"/><path id="e" d="M541.21 1567.16a37.04 37.04 0 0 1-17.48-5.14c-6.57-3.79-11.95-9.13-17.14-14.29-4.9-4.87-9.53-9.47-14.83-12.53-3.98-2.3-8-3.49-12.3-3.65a5.62 5.62 0 0 1-4.64-8.39l19.8-34.26a5.61 5.61 0 0 1 5.07-2.8 37.06 37.06 0 0 1 17.48 5.14c6.57 3.8 11.95 9.13 17.14 14.3 4.9 4.86 9.53 9.46 14.84 12.52a26 26 0 0 0 12.3 3.65 5.62 5.62 0 0 1 4.68 2.89 5.6 5.6 0 0 1-.05 5.5l-19.8 34.27a5.62 5.62 0 0 1-5.07 2.79zm.21-5.59l19.8-34.27c-26.95-1-34.79-34.59-61.74-35.6l-19.8 34.26c26.95 1.01 34.8 34.59 61.74 35.61zm-17.06-23.94a5.5 5.5 0 0 1-2.46 1 9.8 9.8 0 0 1-3.2-.06c-1.17-.2-2.4-.57-3.6-1.12-.3.59-.57 1.17-.83 1.75-.1.24-.29.41-.57.52-.27.1-.56.09-.86-.05-.29-.13-.49-.34-.58-.63a1 1 0 0 1 .05-.8c.3-.58.6-1.17.94-1.77a8.52 8.52 0 0 1-2.81-2.43 6.97 6.97 0 0 1-1.24-5.32 5.7 5.7 0 0 1 .82-2.13c.4-.6.84-.96 1.35-1.1a1.8 1.8 0 0 1 1.52.31c.48.33.77.68.86 1.05.1.36.1.75.01 1.14-.08.4-.2.82-.34 1.24a4.6 4.6 0 0 0-.25 1.32c-.02.46.1.93.35 1.42.24.5.73 1 1.48 1.52 1.27-2.05 2.68-4.14 4.1-6.23a14 14 0 0 1-3.21-5.15 6.44 6.44 0 0 1 .2-4.89 5.14 5.14 0 0 1 4.25-3.16c.97-.15 2-.14 3.1.05 1.1.2 2.18.52 3.2.98l.3-.64a1 1 0 0 1 .6-.53c.26-.11.55-.09.83.04.29.14.48.35.56.64.08.3.05.56-.08.8l-.35.67a9.85 9.85 0 0 1 3.5 3.65c.42.82.65 1.65.73 2.5.07.87-.14 1.66-.64 2.4-.4.58-.86.92-1.4 1.04-.53.11-1.03.01-1.47-.29a1.5 1.5 0 0 1-.67-1.2c-.03-.5-.05-1.05-.06-1.66 0-.6-.1-1.2-.3-1.81a3.15 3.15 0 0 0-1.42-1.65 157.7 157.7 0 0 1-3.68 5.65c.7.8 1.32 1.6 1.92 2.42.6.81 1.04 1.67 1.34 2.54a7.47 7.47 0 0 1-.34 5.8 5.36 5.36 0 0 1-1.65 2.17zm-2.6-14.33c1.18-1.78 2.3-3.55 3.3-5.28a5.35 5.35 0 0 0-1.5-.54c-.49-.1-.94-.1-1.36-.03-.42.07-.79.2-1.1.4-.32.2-.56.45-.73.77-.41.73-.49 1.47-.25 2.22.24.76.79 1.58 1.63 2.46zm-2.15 11.86c.47-.05.9-.17 1.31-.4.4-.2.73-.55 1.01-1.03.27-.49.4-.97.4-1.43a3.6 3.6 0 0 0-.3-1.36c-.2-.41-.44-.82-.74-1.2-.3-.4-.6-.75-.87-1.1-1.32 1.98-2.6 3.94-3.72 5.87a5.88 5.88 0 0 0 2.9.65zm-16.42-5.7a1.4 1.4 0 0 1-1.91.52l-.15-.1a44.47 44.47 0 0 0-5.24-3.56c-1.73-1-3.5-1.86-5.26-2.54l-2.83-1.1a1.26 1.26 0 0 1-.33-.12 1.41 1.41 0 0 1-.51-1.92 1.41 1.41 0 0 1 1.65-.63l3.03 1.17a40.9 40.9 0 0 1 5.65 2.71 50.58 50.58 0 0 1 5.5 3.74c.58.43.77 1.22.4 1.84zm46.66.13l2.95 1.13c.13.04.27.08.4.15a1.4 1.4 0 0 1-1.32 2.5l-3.04-1.17a41.1 41.1 0 0 1-5.65-2.72 51.1 51.1 0 0 1-5.5-3.74 1.4 1.4 0 0 1-.47-1.9 1.42 1.42 0 0 1 2.25-.27 46.4 46.4 0 0 0 5.12 3.49c1.74 1 3.5 1.85 5.26 2.53z"/><path id="g" d="M540.68 1635.83c-1.9-.07-3.66-.58-5.38-1.56-2.03-1.15-3.68-2.77-5.28-4.34-1.51-1.47-2.94-2.87-4.57-3.8a8.1 8.1 0 0 0-3.79-1.1 1.75 1.75 0 0 1-1.44-.88c-.3-.52-.3-1.16.01-1.67l6.1-10.4c.32-.55.92-.87 1.56-.85 1.9.07 3.66.58 5.38 1.56 2.03 1.15 3.69 2.77 5.28 4.34 1.51 1.48 2.94 2.87 4.57 3.8a8.1 8.1 0 0 0 3.8 1.1 1.75 1.75 0 0 1 1.44.88c.29.53.28 1.16-.02 1.67l-6.1 10.4c-.32.55-.92.87-1.56.85zm.07-1.7l6.1-10.4-19.02-10.8-6.1 10.4 19.02 10.8zm-5.26-7.26a1.7 1.7 0 0 1-.76.3c-.3.05-.63.04-.99-.02a4.76 4.76 0 0 1-1.1-.33c-.1.17-.18.35-.26.53a.3.3 0 0 1-.17.15.34.34 0 0 1-.27-.01.3.3 0 0 1-.17-.2.3.3 0 0 1 0-.24l.3-.53a2.61 2.61 0 0 1-.87-.74 2.1 2.1 0 0 1-.38-1.62c.05-.24.13-.46.25-.64s.26-.3.42-.33a.56.56 0 0 1 .47.09c.15.1.23.2.26.32.03.1.03.22 0 .34a2.6 2.6 0 0 1-.1.38c-.05.13-.07.26-.08.4 0 .14.03.28.11.43.08.15.23.3.46.46.39-.62.82-1.26 1.26-1.89a4.24 4.24 0 0 1-.99-1.56 1.93 1.93 0 0 1 .06-1.48c.14-.3.3-.51.53-.67.22-.15.48-.25.78-.3.3-.04.62-.04.96.02.34.06.67.16.98.3l.1-.2a.3.3 0 0 1 .18-.16.31.31 0 0 1 .26.02c.08.04.14.1.17.19.02.09.01.17-.02.24l-.11.2a3.03 3.03 0 0 1 1.07 1.11c.13.25.2.5.23.76.02.26-.05.5-.2.73a.7.7 0 0 1-.43.32.58.58 0 0 1-.45-.1.45.45 0 0 1-.2-.35l-.03-.51c0-.18-.03-.37-.09-.55a.96.96 0 0 0-.44-.5c-.35.56-.74 1.14-1.13 1.71l.59.74c.18.25.32.5.41.77.1.27.14.54.14.83 0 .3-.09.6-.24.93-.14.29-.3.5-.51.66zm-.8-4.35c.36-.54.7-1.08 1.02-1.6a1.67 1.67 0 0 0-.47-.17 1.16 1.16 0 0 0-.41 0 .88.88 0 0 0-.34.12.62.62 0 0 0-.23.23.81.81 0 0 0-.08.67c.08.23.25.48.5.75zm-.66 3.6c.14-.01.28-.05.4-.12a.79.79 0 0 0 .31-.31c.09-.15.13-.3.12-.44 0-.14-.03-.28-.09-.41a1.89 1.89 0 0 0-.23-.37l-.26-.33c-.41.6-.8 1.2-1.15 1.78a1.82 1.82 0 0 0 .9.2zm-5.06-1.73a.44.44 0 0 1-.59.16l-.04-.04a13.65 13.65 0 0 0-3.24-1.84l-.87-.34a.39.39 0 0 1-.1-.03.43.43 0 0 1-.16-.59c.1-.17.32-.25.5-.19h.01l.93.35a12.68 12.68 0 0 1 3.44 1.96c.18.13.23.37.12.56zm14.37.04l.9.34.13.05c.21.12.28.38.16.58a.44.44 0 0 1-.56.17l-.94-.35a12.8 12.8 0 0 1-3.44-1.96.42.42 0 0 1-.14-.58.44.44 0 0 1 .7-.08 11.78 11.78 0 0 0 3.2 1.83z"/><path id="i" d="M276.58 1684.9a19.5 19.5 0 0 1-5 8.2c-2.84 2.82-6.3 4.83-9.64 6.77-3.15 1.82-6.13 3.55-8.42 5.83a13.7 13.7 0 0 0-3.54 5.76 2.95 2.95 0 0 1-4.91 1.22l-14.78-14.76a2.95 2.95 0 0 1-.73-2.96 19.5 19.5 0 0 1 5-8.19c2.84-2.82 6.3-4.83 9.64-6.77 3.15-1.83 6.13-3.56 8.42-5.84 1.71-1.7 2.87-3.6 3.54-5.76a2.96 2.96 0 0 1 4.9-1.21l14.78 14.75c.78.78 1.06 1.92.74 2.96zm-2.82-.87l-14.78-14.76-26.6 26.57 14.78 14.75 26.6-26.56zm-14.55 5.42c.17.41.23.87.18 1.39-.05.5-.2 1.05-.47 1.62a8.04 8.04 0 0 1-1.06 1.68c.26.23.52.44.78.65.1.09.17.2.18.36.02.16-.03.3-.14.43-.1.13-.24.2-.4.21a.53.53 0 0 1-.4-.13 23.5 23.5 0 0 1-.77-.72 4.5 4.5 0 0 1-1.63 1.1 3.69 3.69 0 0 1-2.88-.1c-.4-.19-.73-.42-.98-.7a1.28 1.28 0 0 1-.37-.84c0-.28.12-.52.36-.73.24-.2.45-.3.65-.3s.4.06.6.15c.18.1.38.21.58.35.2.13.4.23.64.3.23.07.48.08.77.02.28-.06.6-.24.97-.55a94.3 94.3 0 0 1-2.62-2.93 7.4 7.4 0 0 1-3.06.93 3.4 3.4 0 0 1-2.47-.77 2.7 2.7 0 0 1-1.03-2.6c.06-.5.2-1.04.45-1.57a6.8 6.8 0 0 1 .94-1.5c-.1-.07-.2-.15-.29-.24a.53.53 0 0 1-.19-.37.53.53 0 0 1 .14-.42c.1-.12.24-.2.4-.2.16 0 .3.06.4.15l.29.28a5.22 5.22 0 0 1 2.34-1.28c.48-.1.93-.11 1.38-.04.45.08.82.3 1.13.66.25.27.36.56.34.85a.99.99 0 0 1-.35.71.8.8 0 0 1-.7.18l-.86-.2c-.3-.08-.62-.11-.96-.1-.33.01-.68.18-1.04.5.8.84 1.59 1.74 2.38 2.65.5-.25 1-.46 1.5-.65.5-.2 1-.3 1.48-.34a3.95 3.95 0 0 1 2.91.97c.42.35.72.71.88 1.14zm-7.66-.63c-.75-.85-1.5-1.67-2.25-2.41-.2.23-.37.46-.47.7-.12.23-.19.46-.2.68-.03.22-.01.43.05.62.06.18.15.34.29.47.32.31.68.45 1.1.43.42-.02.91-.18 1.48-.5zm5.76 2.7a1.8 1.8 0 0 0-.03-.72 1.35 1.35 0 0 0-.39-.65 1.5 1.5 0 0 0-.68-.4 1.9 1.9 0 0 0-.73-.03c-.24.04-.47.11-.71.21l-.68.3c.83.94 1.66 1.85 2.49 2.69a3.1 3.1 0 0 0 .73-1.4zm-5.15 7.58c.29.29.29.76 0 1.05l-.08.06c-.93.71-1.7 1.35-2.52 2.18-.75.74-1.43 1.53-2.02 2.33l-.94 1.29a.66.66 0 0 1-.1.15.74.74 0 1 1-1.15-.93l1-1.38c.63-.86 1.36-1.7 2.16-2.5a26.7 26.7 0 0 1 2.66-2.3c.3-.23.72-.22.99.05zm6.43-23.73l.98-1.34a.74.74 0 0 1 1.22.83l-1 1.39c-.64.86-1.36 1.7-2.16 2.5-.84.83-1.74 1.58-2.66 2.3v-.01a.75.75 0 1 1-.87-1.2c.87-.67 1.71-1.36 2.48-2.13.75-.75 1.42-1.53 2.01-2.34z"/><linearGradient id="b" x1="383.81" x2="388.78" y1="1530.32" y2="1789.04" gradientUnits="userSpaceOnUse"><stop offset="0" stop-color="#508ab3"/><stop offset="1" stop-color="#883759"/></linearGradient><linearGradient id="d" x1="248.8" x2="250.44" y1="1526.63" y2="1616.15" gradientUnits="userSpaceOnUse"><stop offset="0" stop-color="#508ab3"/><stop offset="1" stop-color="#883759"/></linearGradient><linearGradient id="f" x1="520.07" x2="520.83" y1="1486.1" y2="1567.16" gradientUnits="userSpaceOnUse"><stop offset="0" stop-color="#508ab3"/><stop offset="1" stop-color="#883759"/></linearGradient><linearGradient id="h" x1="534" x2="534.57" y1="1611.23" y2="1635.83" gradientUnits="userSpaceOnUse"><stop offset="0" stop-color="#508ab3"/><stop offset="1" stop-color="#883759"/></linearGradient><linearGradient id="j" x1="252.43" x2="253.71" y1="1666.32" y2="1713.54" gradientUnits="userSpaceOnUse"><stop offset="0" stop-color="#508ab3"/><stop offset="1" stop-color="#883759"/></linearGradient></defs><g transform="translate(-204 -1486)"><use xlink:href="#a"/><use fill="url(#b)" xlink:href="#a"/></g><g transform="translate(-204 -1486)"><use xlink:href="#c"/><use fill="url(#d)" xlink:href="#c"/></g><g transform="translate(-204 -1486)"><use xlink:href="#e"/><use fill="url(#f)" xlink:href="#e"/></g><g transform="translate(-204 -1486)"><use xlink:href="#g"/><use fill="url(#h)" xlink:href="#g"/></g><g transform="translate(-204 -1486)"><use xlink:href="#i"/><use fill="url(#j)" xlink:href="#i"/></g></svg>