<svg xmlns="http://www.w3.org/2000/svg" xmlns:xlink="http://www.w3.org/1999/xlink" width="27" height="15" viewBox="0 0 27 15"><defs><path id="a" d="M173.86 522.55a13.74 13.74 0 0 0-2.78-3.2l-.03-.03-.01-.01-.02-.02h-.01c-.6-.55-.98-.93-1.14-1.12-.3-.36-.36-.73-.2-1.1.12-.29.54-.89 1.27-1.8l.91-1.16c1.62-2.1 2.33-3.45 2.11-4.03l-.08-.14c-.06-.08-.2-.15-.44-.22a2.26 2.26 0 0 0-.9-.04l-4.05.03a.53.53 0 0 0-.28 0l-.18.05-.07.03-.06.04a.91.91 0 0 0-.3.38 22 22 0 0 1-2.45 4.56 5.04 5.04 0 0 1-1.26 1.39c-.17.12-.29.17-.37.15l-.24-.05a.92.92 0 0 1-.32-.34 1.47 1.47 0 0 1-.16-.53 5.76 5.76 0 0 1-.04-1.22l.01-.57a32.77 32.77 0 0 1 .06-2.1l.01-.75a2.09 2.09 0 0 0-.2-1.06.74.74 0 0 0-.28-.33 1.66 1.66 0 0 0-.47-.18c-.5-.11-1.13-.17-1.9-.18-1.74-.02-2.86.09-3.36.33-.2.1-.37.23-.53.4-.17.2-.2.32-.07.34.56.08.96.27 1.19.58l.08.17c.07.12.14.33.2.63a10.38 10.38 0 0 1-.2 4.46l-.16.3a.24.24 0 0 1-.07.07c-.13.05-.25.07-.38.07a.9.9 0 0 1-.48-.2c-.19-.12-.38-.3-.59-.52-.2-.22-.42-.53-.68-.94-.25-.4-.51-.87-.78-1.42l-.23-.4a34.72 34.72 0 0 1-1.22-2.53.9.9 0 0 0-.34-.44l-.07-.04a1.48 1.48 0 0 0-.55-.2l-3.85.02c-.4 0-.66.09-.8.26l-.06.08a.43.43 0 0 0-.04.22c0 .1.03.23.09.37a44.57 44.57 0 0 0 3.55 6.62 33.81 33.81 0 0 0 2.88 3.72l.35.33c.23.22.56.48 1 .79.43.3.91.6 1.44.9a7.98 7.98 0 0 0 3.9.95h1.62c.33-.02.58-.13.75-.3l.05-.07a1.36 1.36 0 0 0 .15-.63c0-.39.03-.74.1-1.06.07-.31.15-.55.24-.71a1.76 1.76 0 0 1 .54-.6l.11-.05c.22-.07.49 0 .8.21.3.22.58.48.85.8.27.31.59.67.96 1.06.38.39.7.68.99.87l.28.17c.19.1.43.2.73.3.3.1.56.11.79.07l3.6-.06c.35 0 .63-.05.83-.17.2-.11.3-.24.35-.37a1.66 1.66 0 0 0-.1-.83z"/></defs><use fill="#fff" xlink:href="#a" transform="translate(-147 -509)"/></svg>