<svg xmlns="http://www.w3.org/2000/svg" viewBox="0 0 479 479" enable-background="new 0 0 479 479"><path fill="#5E0A2B" d="M239.5 176.5c17.4 0 33.2 7.1 44.6 18.5 11.8 11.8 18.5 27.8 18.5 44.6 0 17.4-7.1 33.2-18.5 44.6-11.8 11.8-27.8 18.5-44.6 18.5-16.1 0-31.7-6.2-43.4-17.3-11.7-11.1-18.7-26.2-19.6-42.4l4.1-.2c.8 15 7.3 29.2 18.3 39.6 10.9 10.4 25.4 16.2 40.5 16.1 15.6 0 30.6-6.2 41.6-17.3 11.1-11 17.3-26 17.3-41.6 0-15.6-6.2-30.6-17.3-41.6-11-11.1-26-17.3-41.6-17.3v-4.2zm0-44.3c29.6 0 56.4 12 75.8 31.4 40.6 40.6 42 105.9 3.3 148.3l-3-2.8c17.4-19 27-43.9 27-69.6 0-27.4-10.8-53.6-30.2-72.9-19.3-19.4-45.6-30.2-72.9-30.2v-4.2zm0-43.7c41.7 0 79.4 16.9 106.8 44.2 28.4 28.3 44.3 66.7 44.2 106.8 0 41.7-16.9 79.5-44.2 106.8-28.3 28.4-66.7 44.3-106.8 44.2-46.2 0-89.9-21.2-118.5-57.4l3.2-2.6c27.9 35.3 70.3 55.8 115.3 55.8 40.5 0 77.3-16.4 103.8-43 27.6-27.5 43.1-64.9 43-103.9 0-40.5-16.4-77.3-43-103.9-27.5-27.6-64.9-43.1-103.8-43v-4zm0-43.8c53.8 0 102.5 21.8 137.7 57 36.6 36.5 57.1 86 57.1 137.7 0 37.7-10.9 73.7-30.3 104.3-19.8 31.2-48 56.1-81.4 71.9l-1.8-3.8c32.7-15.4 60.3-39.8 79.7-70.3 19-30 29.7-65.2 29.7-102.1.1-50.6-20-99.1-55.8-134.8-35.7-35.8-84.2-55.9-134.8-55.8l-.1-4.1zm0-44.7c66.1 0 126 26.8 169.3 70.1 45 44.9 70.2 105.8 70.2 169.4 0 66.1-26.8 126-70.2 169.3-44.8 45-105.8 70.3-169.3 70.2-66.1 0-126-26.8-169.3-70.2-45-44.8-70.3-105.8-70.2-169.3 0-39.6 9.8-78.6 28.6-113.4l3.6 2c-18.4 34.2-28 72.5-28 111.4-.1 62.4 24.7 122.3 68.9 166.4 44.1 44.2 104 69 166.4 69 62.4.1 122.3-24.7 166.4-68.9 44.2-44.1 69-104 68.9-166.4.1-62.4-24.7-122.3-68.9-166.4-44.1-44.2-104-69-166.4-68.9v-4.3z"/><path fill="#CB1057" d="M239.6 176.5c17.4 0 33.1 7.1 44.6 18.5 24.6 24.6 24.6 64.5 0 89.1-2.7 2.7-5.6 5.1-8.7 7.3l-2.4-3.4c15.9-11 25.4-29.1 25.4-48.4 0-16.3-6.6-31-17.2-41.6-11-11.1-26-17.3-41.6-17.3v-4.2zm0-44.3c29.6 0 56.4 12 75.8 31.4 20.1 20.1 31.5 47.4 31.4 75.9h-4.1c0-28.5-11.5-54.3-30.2-72.9-19.3-19.4-45.5-30.2-72.9-30.2v-4.2zm0-43.7c40.1 0 78.5 15.9 106.8 44.2 28.4 28.3 44.3 66.7 44.2 106.8 0 41.2-16.5 78.6-43.4 105.9-27.8 28.3-65.6 44.5-105.2 45.1l-.1-4.1c40.1-.6 76.2-17.3 102.3-43.8 27.1-27.4 42.2-64.5 42.2-103 0-40.5-16.5-77.3-43-103.9-27.5-27.6-64.9-43.1-103.8-43v-4.2zm0-43.8c51.7-.1 101.2 20.5 137.7 57 36.6 36.5 57.1 86.1 57 137.7 0 19.6-3 39.1-8.8 57.9l-4-1.2c5.7-18.3 8.6-37.4 8.6-56.6.1-50.6-20-99.1-55.8-134.8-35.7-35.8-84.2-55.9-134.8-55.8l.1-4.2zm0-44.7c63.5-.1 124.4 25.2 169.3 70.2 45 44.9 70.2 105.8 70.1 169.4 0 66.1-26.8 126-70.1 169.3-44.8 45-105.8 70.2-169.3 70.2-61.2 0-120.1-23.5-164.6-65.5l2.8-3c43.7 41.4 101.6 64.4 161.7 64.4 65 0 123.8-26.4 166.4-68.9 44.2-44.1 69-104 68.9-166.4.1-62.4-24.7-122.3-68.9-166.4-44.1-44.2-104-69-166.4-68.9v-4.4z"/></svg>