<svg xmlns="http://www.w3.org/2000/svg" xmlns:xlink="http://www.w3.org/1999/xlink" width="41" height="41" viewBox="0 0 41 41"><defs><path id="q7aqa" d="M298.1 1037.44c8.73 0 15.8 7.06 15.8 15.76 0 8.71-7.07 15.77-15.8 15.77-8.72 0-15.79-7.06-15.79-15.77 0-8.7 7.07-15.76 15.8-15.76z"/><path id="q7aqb" d="M284.54 1065.54a19.98 19.98 0 0 1 0-28.3 20.08 20.08 0 0 1 28.36 0 19.98 19.98 0 0 1 0 28.3 20.08 20.08 0 0 1-28.36 0zm3.5-13.72l4.5 4.5 3.5 3.49 3.5-3.49 9.87-9.85-3.5-3.48-9.87 9.84-4.5-4.5z"/></defs><g><g transform="translate(-278 -1031)"><use fill="#fff" xlink:href="#q7aqa"/></g><g transform="translate(-278 -1031)"><use fill="#269bbb" xlink:href="#q7aqb"/></g></g></svg>