<svg xmlns="http://www.w3.org/2000/svg" xmlns:xlink="http://www.w3.org/1999/xlink" width="21" height="21" viewBox="0 0 21 21"><defs><path id="2h5ja" d="M92.46 1214.06l-4.75 5.14a.7.7 0 0 1-1.03 0l-4.75-5.14a.61.61 0 0 1-.11-.69.68.68 0 0 1 .62-.37h2.72v-8.36c0-.35.3-.64.68-.64h2.72c.37 0 .67.29.67.64v8.36h2.72c.27 0 .51.14.62.37.11.23.07.5-.1.7zm4.93 4.08v5.14c0 .71-.6 1.29-1.36 1.29H78.36c-.75 0-1.36-.58-1.36-1.29v-5.14h2.72v3.85h14.95v-3.85z"/></defs><g><g transform="translate(-77 -1204)"><use fill="#269bbb" xlink:href="#2h5ja"/></g></g></svg>