<svg width="76" height="76" viewBox="0 0 76 76" fill="none" xmlns="http://www.w3.org/2000/svg">
<circle cx="38.4804" cy="38" r="18.6835" stroke="#CA9F72" stroke-width="4"/>
<circle cx="38.4806" cy="38" r="11.9494" stroke="#CA9F72" stroke-width="4"/>
<path d="M33.1329 12.4304L38.0001 4L42.8674 12.4304H33.1329Z" stroke="#CA9F72" stroke-width="4"/>
<path d="M42.8671 63.5696L37.9999 72L33.1326 63.5696L42.8671 63.5696Z" stroke="#CA9F72" stroke-width="4"/>
<path d="M63.5696 33.1327L72 38L63.5696 42.8672L63.5696 33.1327Z" stroke="#CA9F72" stroke-width="4"/>
<path d="M12.4304 42.8673L4 38L12.4304 33.1328L12.4304 42.8673Z" stroke="#CA9F72" stroke-width="4"/>
<path d="M52.6386 16.4779L62.0415 13.9584L59.522 23.3612L52.6386 16.4779Z" stroke="#CA9F72" stroke-width="4"/>
<path d="M23.3614 59.5221L13.9585 62.0416L16.478 52.6388L23.3614 59.5221Z" stroke="#CA9F72" stroke-width="4"/>
<path d="M59.5224 52.6388L62.0419 62.0416L52.639 59.5221L59.5224 52.6388Z" stroke="#CA9F72" stroke-width="4"/>
<path d="M16.4776 23.3612L13.9581 13.9584L23.361 16.4779L16.4776 23.3612Z" stroke="#CA9F72" stroke-width="4"/>
</svg>
