<svg version="1.1" id="Layer_35" xmlns="http://www.w3.org/2000/svg" xmlns:xlink="http://www.w3.org/1999/xlink" x="0px" y="0px" viewBox="0 0 123.4 199.8" enable-background="new 0 0 123.4 199.8" xml:space="preserve">
                                <g>
                                    <g> <g> <g> <g> <path fill="#cc3341" d="M63.4,199.6l-2.8-0.2l-1.4-0.1c-0.5,0-0.9,0-1.4-0.1c-0.5-0.1-0.9-0.1-1.4-0.2                        c-0.5-0.1-0.9-0.2-1.3-0.4c-0.4-0.1-0.9-0.3-1.3-0.5c-0.4-0.2-0.8-0.4-1.2-0.6c-0.4-0.3-0.8-0.5-1.2-0.8                        c-0.4-0.3-0.7-0.6-1-0.9c-0.3-0.3-0.6-0.7-0.9-1c-0.3-0.4-0.5-0.8-0.8-1.1c-0.2-0.4-0.5-0.8-0.7-1.2c-0.2-0.4-0.4-0.9-0.5-1.3                        c-0.2-0.4-0.3-0.9-0.4-1.3c-0.1-0.5-0.2-0.9-0.2-1.4l0,0v0l-0.1-88.9l0.1-88.9l0,0l0,0c0.2-1.5,0.8-2.9,1.7-4.2                        c0.9-1.2,2.1-2.2,3.4-3c1.3-0.8,2.7-1.4,4.1-1.9c1.4-0.5,2.9-0.8,4.4-0.9c1.5-0.2,3-0.2,4.5-0.1c1.5,0.1,3,0.5,4.5,0.8l8.9,1.7                        L96,6.2l8.9,1.7c1.5,0.3,2.9,0.6,4.4,0.8c1.5,0.3,2.9,0.7,4.4,1.2l-0.1,0.3c-0.7-0.2-1.3-0.4-2-0.5l-2-0.4l-4-0.8l-8-1.5l-16-3                        l-16-3c-0.7-0.1-1.3-0.2-2-0.3c-0.3,0-0.7,0-1,0l-1,0.1C60.3,1,59,1.5,58,2.3c-2.2,1.5-3.6,4-3.8,6.7c-0.1,5.4,0,10.8,0,16.3                        l0,16.3l0,32.6l-0.1,65.2L54,171.8l0,16.3c-0.1,2.7,0.8,5.4,2.5,7.5C58.2,197.7,60.7,199.1,63.4,199.6L63.4,199.6z M63.4,199.6                        c-2.7-0.4-5.2-1.8-7-3.9c-1.7-2.1-2.6-4.9-2.6-7.6l0-16.3l-0.1-32.6l-0.1-65.2l0-32.6l0-16.3c0-5.4,0-10.8,0.1-16.3                        c0.2-2.8,1.6-5.5,4-7c1.2-0.8,2.5-1.3,3.9-1.4l1-0.1c0.3,0,0.7,0,1,0c0.7,0.1,1.4,0.2,2,0.3l16,3l16,3l8,1.5l4,0.8l2,0.4                        c0.7,0.1,1.3,0.3,2,0.5l-0.1,0.3c-1.4-0.5-2.8-1-4.3-1.2c-1.5-0.2-3-0.5-4.4-0.8L96,6.4L78.2,2.9l-8.9-1.7                        c-1.5-0.3-2.9-0.6-4.4-0.8c-1.5-0.1-3-0.1-4.5,0.1c-1.5,0.2-3,0.5-4.4,0.9c-1.4,0.5-2.8,1-4.1,1.9c-1.2,0.8-2.4,1.8-3.3,3                        c-0.9,1.2-1.4,2.6-1.6,4.1l0,0l0.1,88.9L47,188.2l0,0c0.1,0.5,0.1,0.9,0.2,1.4c0.1,0.4,0.2,0.9,0.4,1.3                        c0.1,0.4,0.3,0.9,0.5,1.3c0.2,0.4,0.4,0.8,0.6,1.2c0.3,0.4,0.5,0.8,0.8,1.1c0.3,0.4,0.6,0.7,0.9,1c0.3,0.3,0.7,0.6,1,0.9                        c0.4,0.3,0.7,0.5,1.1,0.8c0.4,0.2,0.8,0.5,1.2,0.7c0.4,0.2,0.8,0.4,1.3,0.5c0.4,0.2,0.9,0.3,1.3,0.4c0.4,0.1,0.9,0.2,1.4,0.3                        c0.5,0.1,0.9,0.1,1.4,0.1l1.4,0.1L63.4,199.6L63.4,199.6z"></path> <path fill="#cc3341" d="M123.1,22.9c0,0,0-0.1,0-0.4c0-0.2,0-0.6-0.1-1.1c-0.1-0.9-0.4-2.4-1.2-4c-0.8-1.7-2.1-3.6-4.3-5.2                        c-1.1-0.8-2.3-1.5-3.8-2c-1.5-0.5-3.1-0.7-4.8-1c-6.8-1.3-15.1-2.8-24.6-4.6c-4.8-0.9-9.8-1.8-15.1-2.8                        c-2.7-0.4-5.4-1.4-8.2-0.7c-2.8,0.6-5.2,2.7-6.1,5.4c-0.5,1.4-0.6,2.9-0.6,4.4c0,1.5,0,3.1,0,4.6c0,3.1,0,6.3,0,9.5                        c0,6.4,0,13.1,0,19.9c0,13.6,0,28-0.1,42.9c0,14.9,0,30.3-0.1,45.9c0,15.6,0,31.5,0.1,47.4l0,6c0,1,0,2,0.1,3                        c0.1,1,0.4,1.9,0.7,2.8c1.5,3.6,5,6.3,8.9,6.7c1,0.1,1.9,0.1,2.9,0.1l3,0c2,0,3.9,0,5.9-0.1c3.9,0,7.9-0.1,11.8-0.1                        c7.8-0.1,15.6-0.1,23.2-0.2c1,0,1.9,0,2.8-0.1c0.9-0.1,1.8-0.4,2.6-0.8c1.7-0.8,3.1-2.1,4.1-3.7c1-1.6,1.6-3.4,1.8-5.2                        c0.1-0.9,0.1-1.8,0.1-2.8c0-0.9,0-1.9,0-2.8c0.1-29.8,0.3-57.5,0.4-81.4C122.9,54.7,123.1,22.9,123.1,22.9z M123.1,22.9                        c0,0-0.1,31.7-0.2,79.4c-0.1,23.8-0.2,51.6-0.3,81.4c0,0.9,0,1.9,0,2.8c0,0.9,0,1.9-0.1,2.8c-0.2,1.9-0.8,3.8-1.9,5.4                        c-1,1.6-2.5,3-4.3,3.9c-0.9,0.4-1.8,0.7-2.8,0.8c-1,0.1-1.9,0.1-2.9,0.1c-7.7,0.1-15.4,0.1-23.2,0.2c-3.9,0-7.8,0.1-11.8,0.1                        c-2,0-3.9,0-5.9,0l-3,0c-1,0-2,0-3-0.1c-4-0.4-7.6-3.2-9.2-7c-0.4-0.9-0.6-1.9-0.8-2.9c-0.1-1-0.1-2-0.1-3l0-6                        c0-15.9,0-31.7,0.1-47.4c0-15.6,0-31-0.1-45.9c0-14.9,0-29.3-0.1-42.9c0-6.8,0-13.5,0-19.9c0-3.2,0-6.4,0-9.5                        c0-1.5,0-3.1,0-4.6c0-1.5,0.1-3.1,0.6-4.5c1-2.9,3.5-5.1,6.4-5.6c1.4-0.3,2.9-0.3,4.3,0c1.4,0.3,2.7,0.5,4,0.8                        c5.3,1,10.4,2,15.1,2.9c9.5,1.8,17.8,3.4,24.6,4.7c1.7,0.4,3.3,0.6,4.8,1.1c1.5,0.5,2.7,1.2,3.8,2.1c2.1,1.7,3.5,3.6,4.3,5.3                        c0.8,1.7,1.1,3.1,1.2,4.1c0.1,0.5,0.1,0.8,0.1,1.1C123.1,22.8,123.1,22.9,123.1,22.9z"></path> <path fill="#cc3341" d="M119.6,37.1l-30.4-4.7l-30.4-4.8l0.2-0.2c0,12,0,24,0,35.9l-0.1,35.9l0,35.9l0.1,35.9l-0.1-0.1                        l60.9,2.5l-0.2,0.2l0-68.3L119.6,37.1z M119.7,37.1l0.2,68.4l0,68.3l0,0.2l-0.2,0l-60.9-2.7l-0.1,0l0-0.1l0.1-35.9l0-35.9                        l-0.1-35.9c0-12,0-24,0-35.9l0-0.2l0.2,0l30.4,4.9L119.7,37.1z"></path> <path fill="#cc3341" d="M121.5,35.8L89.5,31l-31.9-4.9l0.2-0.2l0,18.3l0,18.3l-0.1,36.6l0,36.6l0.1,36.6l-0.1-0.1l63.9,2.6                        l-0.2,0.2l0-69.6L121.5,35.8z M121.5,35.7l0.2,69.6l0,69.6l0,0.2l-0.2,0l-63.9-2.7l-0.1,0l0-0.1l0.1-36.6l0-36.6l-0.1-36.6                        l0-18.3l0-18.3l0-0.2l0.2,0l31.9,5L121.5,35.7z"></path> <g> <path fill="#cc3341" d="M57.3,25.7l0.1,7.3l-0.1-0.1l15.8,2.3c2.6,0.4,5.3,0.7,7.9,1.2l7.9,1.2l15.8,2.4l7.9,1.2l7.9,1.1                            l-0.2,0.1l0-6.5l0.2,0.2l-15.8-2.5L88.8,31L73,28.3C67.8,27.5,62.5,26.6,57.3,25.7z M57.3,25.6c5.3,0.8,10.5,1.6,15.8,2.4                            l15.8,2.4l15.8,2.5l15.8,2.6l0.2,0l0,0.2l0,6.5l0,0.2l-0.2,0l-7.9-1.2l-7.9-1.2l-15.8-2.3l-7.9-1.1c-2.6-0.4-5.3-0.8-7.9-1.2                            L57.2,33l-0.1,0l0-0.1L57.3,25.6L57.3,25.6z"></path> </g> <g> <path fill="#cc3341" d="M123.1,23.2c0,0,0.1,31.4,0.2,78.5c0,11.8,0,24.5,0,38c0,13.5,0,27.7-0.1,42.4c0,1.8,0,3.7-0.1,5.5                            c-0.1,1.9-0.8,3.7-1.8,5.3c-1,1.6-2.4,3-4,4c-1.6,1-3.5,1.6-5.4,1.7c-7.6,0-15.2,0-23,0c-7.7,0-15.5,0-23.3,0                            c-1,0-2-0.1-2.9-0.3c-1-0.3-1.9-0.7-2.7-1.3c-0.8-0.6-1.5-1.3-2.1-2.1c-0.6-0.8-1-1.7-1.4-2.6c-0.7-1.9-1-3.8-1-5.8l0-5.9                            c0-31.4,0.1-62.8,0.1-92.3c0-14.7,0-29,0.1-42.4c0-6.7,0-13.3,0-19.7c0-3.2,0-6.3,0-9.4c0-1.5,0-3,0-4.6c0-1.5-0.1-3,0.3-4.5                            c0.6-2.9,2.7-5.5,5.5-6.5c1.3-0.5,2.8-0.7,4.2-0.5c1.4,0.2,2.7,0.5,4,0.7c5.3,1,10.3,2,15,2.9c9.4,1.8,17.6,3.4,24.3,4.8                            c1.7,0.4,3.3,0.6,4.8,1c1.5,0.5,2.7,1.2,3.8,2c2.1,1.7,3.4,3.6,4.2,5.3c0.8,1.7,1.1,3.1,1.2,4c0.1,0.5,0.1,0.8,0.1,1.1                            C123.1,23,123.1,23.2,123.1,23.2z M123.1,23.2c0,0,0-0.1,0-0.4c0-0.2,0-0.6-0.1-1.1c-0.1-0.9-0.4-2.3-1.2-4                            c-0.8-1.6-2.1-3.6-4.2-5.2c-1.1-0.8-2.3-1.5-3.8-2c-1.5-0.5-3.1-0.7-4.8-1c-6.7-1.3-14.9-2.9-24.3-4.7                            c-4.7-0.9-9.7-1.9-15-2.9c-1.3-0.2-2.7-0.6-4-0.7c-1.3-0.1-2.7,0-4,0.5c-2.6,1-4.6,3.4-5.2,6.2c-0.1,0.4-0.1,0.7-0.2,1.1                            c0,0.4,0,0.7-0.1,1.1c0,0.7,0,1.5,0,2.2c0,1.5,0,3,0,4.6c0,3.1,0,6.2,0,9.4c0,6.3,0,12.9,0,19.7c0,13.5-0.1,27.7-0.1,42.4                            c-0.1,29.4-0.2,60.9-0.3,92.3l0,5.9c0,1.9,0.3,3.9,1,5.7c0.4,0.9,0.8,1.8,1.4,2.6c0.6,0.8,1.2,1.5,2,2.1                            c0.8,0.5,1.7,1,2.6,1.3c0.9,0.3,1.9,0.4,2.9,0.3c7.8,0,15.6,0,23.3,0c7.7,0,15.4,0,23,0c1.9-0.1,3.7-0.7,5.3-1.7                            c1.6-1,2.9-2.3,3.9-3.9c1-1.6,1.6-3.4,1.7-5.2c0.1-1.8,0-3.7,0-5.5c0-14.7,0-29-0.1-42.4c0-13.5,0-26.3,0-38                            C123,54.6,123.1,23.2,123.1,23.2z"></path> <path fill="#cc3341" d="M119.6,37l-30.4-4.7l-30.4-4.8l0.2-0.2c0,11.9,0,23.8,0,35.7l-0.1,35.7l0,35.7l0.1,35.7l-0.1-0.1                            l60.9,2.5l-0.2,0.2l0-67.8L119.6,37z M119.7,37l0.2,67.8l0,67.8l0,0.2l-0.2,0l-60.9-2.7l-0.1,0l0-0.1l0.1-35.7l0-35.7L58.6,63                            c0-11.9,0-23.8,0-35.7l0-0.2l0.2,0l30.4,4.9L119.7,37z"></path> </g> <path fill="#cc3341" d="M91.9,179.1c0,0-0.2,0-0.4,0c-0.3,0-0.7,0.1-1.2,0.3c-0.5,0.2-1.1,0.5-1.6,1.1c-0.5,0.5-1,1.2-1.4,2                        c-0.4,0.8-0.7,1.8-0.8,2.8c-0.1,1,0,2.2,0.3,3.3c0.3,1.1,1,2.2,1.9,3c0.9,0.8,2.1,1.3,3.3,1.3c1.2,0,2.4-0.6,3.3-1.4                        c0.9-0.8,1.5-1.8,1.8-2.9c0.3-1.1,0.5-2.2,0.4-3.2c-0.1-1-0.4-2-0.7-2.8c-0.4-0.8-0.9-1.5-1.4-2c-0.5-0.5-1.1-0.9-1.6-1.1                        c-0.5-0.2-0.9-0.3-1.2-0.3C92.1,179.1,91.9,179.1,91.9,179.1z M91.9,179.1c0,0,0.2,0,0.5,0c0.3,0,0.7,0.1,1.3,0.3                        c0.5,0.2,1.1,0.5,1.7,1c0.6,0.5,1.2,1.2,1.7,2c0.5,0.9,0.8,1.9,0.9,3c0.1,1.1,0,2.3-0.4,3.4c-0.4,1.1-1.1,2.3-2,3.1                        c-1,0.8-2.3,1.3-3.5,1.3c-1.3,0-2.5-0.6-3.5-1.4c-0.9-0.8-1.6-1.9-2-3c-0.4-1.1-0.6-2.3-0.5-3.4c0.1-1.1,0.4-2.1,0.9-3                        c0.5-0.9,1.1-1.5,1.7-2c0.6-0.5,1.2-0.8,1.7-1c0.5-0.2,1-0.2,1.3-0.3C91.8,179.1,91.9,179.1,91.9,179.1z"></path> <path fill="#cc3341" d="M50.1,35.9c0,0,0.1,0,0.3,0c0.2,0,0.5-0.2,0.7-0.4c0.2-0.3,0.4-0.7,0.4-1.2c0-0.5-0.1-1.1-0.1-1.7                        c-0.1-1.3,0-2.7,0.1-4.3c0-0.8,0.1-1.6,0.1-2.4c0-0.4-0.2-0.8-0.4-1.1c-0.3-0.3-0.6-0.5-1-0.5c-0.8,0-1.3,0.8-1.3,1.6                        c0,0.8,0,1.6,0,2.4c0,0.8,0,1.5,0,2.3c0,0.7,0,1.4,0,2c0,0.6-0.1,1.2-0.1,1.7c0,0.5,0.2,0.9,0.4,1.2c0.2,0.3,0.5,0.4,0.7,0.4                        C49.9,35.9,50.1,35.9,50.1,35.9z M50.1,36c0,0-0.1,0-0.3,0c-0.2,0-0.5-0.2-0.8-0.4c-0.3-0.3-0.5-0.7-0.6-1.2                        c0-0.5-0.1-1.1-0.1-1.7c0-0.6-0.1-1.3,0-2c0-0.7,0-1.5,0-2.3c0-0.8,0-1.6,0-2.4c0-0.9,0.7-1.9,1.7-1.8c1,0,1.6,1,1.6,1.8                        c0,0.8,0,1.6,0.1,2.4c0.1,1.6,0.1,3,0.1,4.3c0,0.6-0.1,1.2-0.1,1.7c0,0.5-0.3,1-0.6,1.2c-0.3,0.3-0.6,0.4-0.7,0.4                        C50.2,36,50.1,36,50.1,36z"></path> <path fill="#cc3341" d="M50.4,25.7c0,0,0-0.1,0-0.3c0-0.2-0.2-0.4-0.4-0.5c-0.3-0.2-0.7-0.2-1,0.1c-0.2,0.1-0.3,0.3-0.3,0.5                        c0,0.2,0,0.5,0,0.7c0.1,1.1,0,2.4-0.1,3.7c-0.1,1.4-0.1,2.8,0,4.2c0,0.7,0.9,1,1.3,0.6c0.2-0.2,0.3-0.4,0.3-0.7                        c0-0.3,0-0.7,0-1c0-0.7,0-1.3,0-2c0-0.6,0-1.2,0-1.8c0.1-1.1,0.1-2,0.2-2.6C50.4,26.1,50.4,25.7,50.4,25.7z M50.5,25.7                        c0,0,0,0.4,0,1c0,0.6,0.1,1.5,0.2,2.6c0,0.5,0.1,1.1,0,1.8c0,0.6,0,1.3,0,2c0,0.3,0,0.7,0,1c0,0.4-0.2,0.9-0.5,1.1                        c-0.4,0.2-0.9,0.3-1.2,0c-0.4-0.2-0.6-0.6-0.6-1c0.1-1.5,0.1-2.9,0-4.3c-0.1-1.4-0.1-2.6-0.1-3.7c0-0.3,0-0.5,0.1-0.8                        c0.1-0.3,0.3-0.5,0.5-0.6c0.4-0.2,0.9-0.1,1.2,0c0.3,0.2,0.4,0.4,0.4,0.6C50.5,25.6,50.5,25.7,50.5,25.7z"></path> <g> <path fill="#cc3341" d="M50.2,50.3c0,0,0.3,0,0.8-0.2c0.5-0.2,1-0.9,1.3-1.7c0.1-0.4,0.3-0.9,0.3-1.4c0-0.5,0-1.1-0.1-1.7                            c-0.1-0.6-0.4-1.1-0.8-1.6c-0.4-0.5-1-0.8-1.6-0.7c-0.6,0-1.1,0.4-1.5,0.8c-0.4,0.4-0.6,1-0.7,1.5c-0.1,0.6-0.2,1.1-0.2,1.6                            c0,0.5,0.1,1,0.3,1.4c0.3,0.9,0.8,1.5,1.3,1.7C49.9,50.4,50.2,50.3,50.2,50.3z M50.2,50.4c0,0-0.1,0-0.2,0                            c-0.2,0-0.4-0.1-0.6-0.2c-0.5-0.2-1.2-0.8-1.7-1.7c-0.2-0.5-0.4-1-0.4-1.6c0-0.6,0-1.2,0.2-1.8c0.2-0.6,0.5-1.2,0.9-1.7                            c0.4-0.5,1.2-0.8,1.8-0.8c0.7,0,1.3,0.4,1.7,0.9c0.4,0.5,0.7,1.1,0.9,1.6c0.2,0.6,0.3,1.2,0.2,1.8c0,0.6-0.1,1.1-0.4,1.6                            c-0.4,0.9-1.1,1.5-1.6,1.7c-0.3,0.1-0.5,0.1-0.6,0.2C50.3,50.4,50.2,50.4,50.2,50.4z"></path> <path fill="#cc3341" d="M49.9,43.3c0,0-0.3,0-0.7,0.2c-0.4,0.2-0.9,0.7-1.1,1.5c-0.1,0.4-0.2,0.8-0.3,1.2c0,0.4,0,0.9,0.1,1.4                            c0.1,0.5,0.3,1,0.7,1.3c0.3,0.4,0.9,0.6,1.4,0.6c1-0.1,1.7-1.1,1.9-2c0.1-0.5,0.2-0.9,0.1-1.4c0-0.4-0.1-0.8-0.2-1.2                            c-0.2-0.7-0.7-1.3-1.1-1.5C50.2,43.3,49.9,43.3,49.9,43.3z M49.9,43.3c0,0,0.1,0,0.2,0c0.1,0,0.3,0,0.5,0.1                            c0.4,0.2,1.1,0.6,1.4,1.4c0.4,0.8,0.5,1.8,0.2,2.9c-0.2,0.5-0.4,1-0.8,1.4c-0.4,0.4-1,0.7-1.6,0.7c-0.6,0-1.1-0.3-1.5-0.8                            c-0.4-0.4-0.6-0.9-0.8-1.4c-0.2-0.5-0.3-1-0.2-1.5c0-0.5,0.1-0.9,0.3-1.3c0.4-0.8,1-1.2,1.4-1.4c0.2-0.1,0.4-0.1,0.5-0.1                            C49.8,43.3,49.9,43.3,49.9,43.3z"></path> </g> <g> <path fill="#cc3341" d="M50.2,66.3c0,0,0.3,0,0.8-0.2c0.5-0.2,1-0.9,1.3-1.7c0.1-0.4,0.3-0.9,0.3-1.4c0-0.5,0-1.1-0.1-1.7                            c-0.1-0.6-0.4-1.1-0.8-1.6c-0.4-0.5-1-0.8-1.6-0.7c-0.6,0-1.1,0.4-1.5,0.8c-0.4,0.4-0.6,1-0.7,1.5c-0.1,0.6-0.2,1.1-0.2,1.6                            c0,0.5,0.1,1,0.3,1.4c0.3,0.9,0.8,1.5,1.3,1.7C49.9,66.4,50.2,66.3,50.2,66.3z M50.2,66.4c0,0-0.1,0-0.2,0                            c-0.2,0-0.4-0.1-0.6-0.2c-0.5-0.2-1.2-0.8-1.7-1.7c-0.2-0.5-0.4-1-0.4-1.6c0-0.6,0-1.2,0.2-1.8c0.2-0.6,0.5-1.2,0.9-1.7                            c0.4-0.5,1.2-0.8,1.8-0.8c0.7,0,1.3,0.4,1.7,0.9c0.4,0.5,0.7,1.1,0.9,1.6c0.2,0.6,0.3,1.2,0.2,1.8c0,0.6-0.1,1.1-0.4,1.6                            c-0.4,0.9-1.1,1.5-1.6,1.7c-0.3,0.1-0.5,0.1-0.6,0.2C50.3,66.4,50.2,66.4,50.2,66.4z"></path> <path fill="#cc3341" d="M49.9,59.4c0,0-0.3,0-0.7,0.2c-0.4,0.2-0.9,0.7-1.1,1.5c-0.1,0.4-0.2,0.8-0.3,1.2c0,0.4,0,0.9,0.1,1.4                            c0.1,0.5,0.3,1,0.7,1.3c0.3,0.4,0.9,0.6,1.4,0.6c1-0.1,1.7-1.1,1.9-2c0.1-0.5,0.2-0.9,0.1-1.4c0-0.4-0.1-0.8-0.2-1.2                            c-0.2-0.7-0.7-1.3-1.1-1.5C50.2,59.3,49.9,59.4,49.9,59.4z M49.9,59.3c0,0,0.1,0,0.2,0c0.1,0,0.3,0,0.5,0.1                            c0.4,0.2,1.1,0.6,1.4,1.4c0.4,0.8,0.5,1.8,0.2,2.9c-0.2,0.5-0.4,1-0.8,1.4c-0.4,0.4-1,0.7-1.6,0.7c-0.6,0-1.1-0.3-1.5-0.8                            c-0.4-0.4-0.6-0.9-0.8-1.4c-0.2-0.5-0.3-1-0.2-1.5c0-0.5,0.1-0.9,0.3-1.3c0.4-0.8,1-1.2,1.4-1.4c0.2-0.1,0.4-0.1,0.5-0.1                            C49.8,59.3,49.9,59.3,49.9,59.3z"></path> </g> <g> <path fill="#cc3341" d="M97.2,22.8c0,0,0-0.1,0-0.4c0-0.2,0-0.6-0.3-0.9c-0.1-0.2-0.3-0.4-0.5-0.5c-0.2-0.1-0.5-0.1-0.8-0.2                            c-0.6-0.1-1.3-0.2-2-0.3c-1.5-0.3-3.2-0.7-5-1.1c-0.9-0.2-1.8-0.4-2.8-0.7c-0.2,0-0.5-0.1-0.7-0.1c-0.2,0-0.5,0.1-0.7,0.2                            c-0.4,0.2-0.7,0.7-0.7,1.1c-0.1,0.5,0,0.9,0.3,1.3c0.3,0.4,0.7,0.4,1.2,0.5c1,0.2,1.9,0.4,2.8,0.6c0.9,0.2,1.8,0.4,2.6,0.6                            c0.8,0.2,1.6,0.4,2.3,0.5c0.7,0.2,1.4,0.4,2,0.5c0.3,0.1,0.6,0.2,0.8,0.2c0.2,0,0.5-0.1,0.6-0.2c0.4-0.2,0.5-0.5,0.6-0.7                            C97.2,23,97.2,22.8,97.2,22.8z M97.2,22.9c0,0,0,0.1-0.1,0.3c-0.1,0.2-0.3,0.5-0.6,0.8c-0.2,0.1-0.4,0.2-0.7,0.3                            c-0.3,0-0.6,0-0.9-0.1c-0.6-0.1-1.3-0.2-2-0.3c-0.7-0.1-1.5-0.3-2.4-0.5c-0.8-0.2-1.7-0.4-2.6-0.6c-0.9-0.2-1.9-0.4-2.8-0.6                            c-0.2-0.1-0.5-0.1-0.7-0.2c-0.3-0.1-0.5-0.3-0.6-0.5c-0.3-0.5-0.4-1-0.3-1.5c0.1-0.5,0.5-1,0.9-1.2c0.2-0.1,0.5-0.2,0.8-0.2                            c0.3,0,0.5,0.1,0.7,0.1c1,0.2,1.9,0.4,2.8,0.5c1.8,0.3,3.6,0.6,5,1c0.7,0.2,1.4,0.4,2,0.5c0.3,0.1,0.6,0.1,0.8,0.3                            c0.2,0.1,0.4,0.3,0.5,0.5c0.2,0.4,0.3,0.8,0.2,1C97.3,22.7,97.2,22.9,97.2,22.9z"></path> <g> <path fill="#cc3341" d="M97.5,22.6c0,0,0-0.1,0-0.3c0-0.2-0.1-0.6-0.4-0.8c-0.3-0.3-0.8-0.4-1.4-0.5c-0.6-0.1-1.2-0.2-2-0.3                                c-1.4-0.2-3.1-0.6-4.8-1.1c-0.9-0.2-1.8-0.4-2.7-0.6c-0.5-0.1-0.9-0.3-1.4-0.1c-0.4,0.1-0.8,0.5-0.8,0.9                                c-0.1,0.4,0.1,0.9,0.4,1.1c0.3,0.3,0.8,0.3,1.3,0.4c0.9,0.2,1.8,0.4,2.7,0.5c0.9,0.2,1.7,0.4,2.6,0.5                                c0.8,0.2,1.6,0.4,2.3,0.5c0.7,0.2,1.3,0.4,1.9,0.5c0.6,0.2,1.1,0.3,1.5,0.1c0.4-0.1,0.6-0.4,0.7-0.6                                C97.5,22.8,97.5,22.6,97.5,22.6z M97.6,22.6c0,0,0,0.1-0.1,0.3c-0.1,0.2-0.3,0.5-0.7,0.7c-0.2,0.1-0.4,0.1-0.7,0.1                                c-0.3,0-0.5-0.1-0.8-0.1c-0.6-0.1-1.2-0.2-2-0.3c-0.7-0.1-1.5-0.3-2.3-0.4c-0.8-0.2-1.7-0.4-2.6-0.5                                c-0.9-0.2-1.8-0.4-2.7-0.6L85,21.6c-0.3-0.1-0.5-0.2-0.7-0.4c-0.4-0.4-0.6-0.9-0.5-1.5c0.1-0.5,0.6-0.9,1.1-1.1                                c0.5-0.2,1,0,1.5,0.1c0.9,0.2,1.8,0.4,2.7,0.5c1.8,0.3,3.4,0.6,4.9,1c0.7,0.2,1.3,0.3,1.9,0.5c0.3,0.1,0.5,0.1,0.8,0.2                                c0.2,0.1,0.4,0.2,0.6,0.4c0.3,0.3,0.4,0.7,0.4,0.9C97.6,22.5,97.6,22.6,97.6,22.6z"></path> <path fill="#cc3341" d="M97.5,22.6c0,0,0-0.1,0-0.3c0-0.2-0.1-0.6-0.4-0.8c-0.3-0.3-0.8-0.4-1.4-0.5c-0.6-0.1-1.2-0.2-2-0.3                                c-1.4-0.2-3.1-0.6-4.8-1.1c-0.9-0.2-1.8-0.4-2.7-0.6c-0.5-0.1-0.9-0.3-1.4-0.1c-0.4,0.1-0.8,0.5-0.8,0.9                                c-0.1,0.4,0.1,0.9,0.4,1.1c0.3,0.3,0.8,0.3,1.3,0.4c0.9,0.2,1.8,0.4,2.7,0.5c0.9,0.2,1.7,0.4,2.6,0.5                                c0.8,0.2,1.6,0.4,2.3,0.5c0.7,0.2,1.3,0.4,1.9,0.5c0.6,0.2,1.1,0.3,1.5,0.1c0.4-0.1,0.6-0.4,0.7-0.6                                C97.5,22.8,97.5,22.6,97.5,22.6z M97.6,22.6c0,0,0,0.1-0.1,0.3c-0.1,0.2-0.3,0.5-0.7,0.7c-0.2,0.1-0.4,0.1-0.7,0.1                                c-0.3,0-0.5-0.1-0.8-0.1c-0.6-0.1-1.2-0.2-2-0.3c-0.7-0.1-1.5-0.3-2.3-0.4c-0.8-0.2-1.7-0.4-2.6-0.5                                c-0.9-0.2-1.8-0.4-2.7-0.6L85,21.6c-0.3-0.1-0.5-0.2-0.7-0.4c-0.4-0.4-0.6-0.9-0.5-1.5c0.1-0.5,0.6-0.9,1.1-1.1                                c0.5-0.2,1,0,1.5,0.1c0.9,0.2,1.8,0.4,2.7,0.5c1.8,0.3,3.4,0.6,4.9,1c0.7,0.2,1.3,0.3,1.9,0.5c0.3,0.1,0.5,0.1,0.8,0.2                                c0.2,0.1,0.4,0.2,0.6,0.4c0.3,0.3,0.4,0.7,0.4,0.9C97.6,22.5,97.6,22.6,97.6,22.6z"></path> </g> </g> <g> <g> <path fill="#cc3341" d="M54,19.3c0-0.4-0.1-0.8-0.1-1.1l0.2,0.1c-1.1,0.4-2.3,0.7-3.4,0.9c-0.6,0.1-1.2,0.2-1.7,0.3                                c-0.6,0.1-1.1,0.3-1.7,0.5l0.1-0.1c0,0.4,0.1,0.7,0.1,1.1l-0.3-0.2C49.4,20.2,51.6,19.6,54,19.3z M54,19.4                                c-2.2,0.8-4.5,1.4-6.8,1.8l-0.3,0l0-0.2c0-0.4,0-0.7,0.1-1.1l0-0.1l0.1,0c0.6-0.1,1.2-0.2,1.7-0.4c0.6-0.1,1.1-0.3,1.7-0.5                                c1.1-0.4,2.3-0.6,3.4-0.8l0.2,0l0,0.2C54.1,18.6,54.1,19,54,19.4L54,19.4L54,19.4z"></path> </g> </g> <g> <path fill="#cc3341" d="M47,178.4c0,0.4,0.1,0.7,0.1,1.1l-0.1-0.1c0.6-0.1,1.2-0.1,1.8-0.2c0.6,0,1.2-0.1,1.8,0                            c0.6,0,1.2,0,1.8,0c0.6,0,1.2-0.1,1.8-0.1l-0.1,0.1c0-0.4,0-0.7,0-1.1l0.2,0.2C51.7,178.4,49.4,178.5,47,178.4z M47,178.3                            c2.3-0.4,4.7-0.5,7.1-0.5l0.2,0l0,0.2c0,0.4-0.1,0.7-0.1,1.1l0,0.1l-0.1,0c-0.6,0-1.2,0-1.8,0c-0.6,0-1.2,0.1-1.8,0.2                            c-0.6,0.1-1.2,0.1-1.8,0.1c-0.6,0-1.2,0-1.8,0l-0.2,0l0-0.1C46.9,179.1,46.9,178.7,47,178.3L47,178.3L47,178.3z"></path> </g> </g> <g> <path fill="#cc3341" d="M61.9,31.7c-0.1,0.1-0.2,0.1-0.3,0.1c-0.1,0-0.2,0-0.4-0.1l0.2-0.2c0,0.1-0.1,0.2-0.1,0.3                        c0,0.1,0,0.2,0.1,0.3l-0.1-0.1c0.3-0.1,0.5-0.1,0.7,0l-0.3,0.3C61.7,32.1,61.8,31.9,61.9,31.7z M62,31.7                        c0.2,0.2,0.2,0.4,0.2,0.6l0,0.3l-0.3,0c-0.2,0-0.5-0.1-0.7-0.2L61,32.3l0-0.1c0-0.1,0.1-0.2,0.1-0.3c0-0.1-0.1-0.2-0.1-0.3                        l0-0.1l0.3-0.1c0.1,0,0.2,0,0.4,0C61.7,31.5,61.8,31.5,62,31.7L62,31.7L62,31.7z"></path> <path fill="#cc3341" d="M62.9,31.4c-0.2,0.1-0.5,0.1-0.7,0.1l0.3-0.2c0,0.2-0.1,0.3-0.1,0.5c0,0.2,0,0.3,0,0.5l-0.1-0.1                        c0.3-0.1,0.5,0,0.7,0l-0.3,0.3C62.6,32.1,62.7,31.8,62.9,31.4z M62.9,31.4c0.2,0.3,0.2,0.7,0.2,1l0,0.3l-0.3-0.1                        c-0.2-0.1-0.5-0.1-0.7-0.2L62,32.4l0-0.1c0.1-0.2,0.1-0.3,0-0.5c0-0.2-0.1-0.3-0.1-0.5l0-0.3l0.2,0                        C62.5,31.1,62.7,31.2,62.9,31.4L62.9,31.4L62.9,31.4z"></path> <path fill="#cc3341" d="M63.8,31.2c-0.2,0.1-0.5,0.1-0.7,0.1l0.2-0.2c0,0.2,0,0.5-0.1,0.7c-0.1,0.2,0,0.5,0,0.7l-0.1-0.1                        c0.3,0,0.5,0,0.7,0l-0.3,0.2c0-0.2,0-0.5,0-0.7C63.7,31.6,63.7,31.4,63.8,31.2z M63.9,31.1c0.1,0.2,0.2,0.5,0.2,0.7                        c0,0.2,0.1,0.5,0,0.7l0,0.3l-0.2-0.1c-0.2-0.1-0.5-0.1-0.7-0.2L63,32.6l0-0.1c0.1-0.2,0.1-0.5,0-0.7c-0.1-0.2-0.1-0.5-0.1-0.7                        l0-0.3l0.2,0C63.4,30.9,63.7,31,63.9,31.1L63.9,31.1L63.9,31.1z"></path> <path fill="#cc3341" d="M64.8,30.9C64.6,31,64.3,31,64.1,31l0.2-0.2c0,0.3,0,0.6-0.1,0.9c-0.1,0.3-0.1,0.6,0,0.9l-0.1-0.1                        c0.2,0,0.5,0,0.7,0l-0.3,0.2c0-0.3,0-0.6,0-0.9C64.6,31.5,64.7,31.2,64.8,30.9z M64.9,30.9c0.1,0.3,0.2,0.6,0.2,0.9                        c0,0.3,0,0.6,0,0.9l0,0.3l-0.2,0c-0.2,0-0.5-0.1-0.7-0.2L64,32.7l0-0.1c0.1-0.3,0.1-0.6,0-0.9c-0.1-0.3-0.1-0.6-0.1-0.9l0-0.3                        l0.2,0.1C64.4,30.6,64.6,30.7,64.9,30.9L64.9,30.9L64.9,30.9z"></path> <path fill="#cc3341" d="M65.8,30.6c-0.2,0.1-0.5,0.1-0.7,0.1l0.2-0.2c0,0.4,0,0.7-0.1,1.1c-0.1,0.4-0.1,0.7,0,1.1l-0.1-0.1                        c0.2,0,0.5,0,0.7,0l-0.3,0.2C65.5,32.1,65.6,31.4,65.8,30.6z M65.8,30.6c0.2,0.7,0.3,1.5,0.2,2.2l0,0.3l-0.2,0                        c-0.2,0-0.5-0.1-0.7-0.2l-0.1,0l0-0.1c0.1-0.4,0.1-0.7,0-1.1c-0.1-0.4-0.1-0.7,0-1.1l0-0.2l0.2,0.1                        C65.4,30.4,65.6,30.5,65.8,30.6L65.8,30.6L65.8,30.6z"></path> <path fill="#cc3341" d="M66.7,30.4c-0.2,0-0.5,0.1-0.7,0.1l0.2-0.2c0,0.2,0,0.4,0,0.7c0,0.2,0,0.4-0.1,0.7                        c-0.1,0.4-0.1,0.9,0,1.3l-0.1-0.1c0.2,0,0.5,0,0.7,0L66.6,33c0-0.4-0.1-0.9,0-1.3C66.6,31.2,66.6,30.8,66.7,30.4z M66.8,30.3                        c0.1,0.4,0.2,0.9,0.2,1.3c0,0.4,0,0.9,0,1.3l0,0.3l-0.2-0.1c-0.2-0.1-0.5-0.1-0.7-0.2l-0.1,0l0-0.1c0.1-0.4,0.1-0.9,0-1.3                        c0-0.2-0.1-0.4-0.1-0.7c0-0.2,0-0.4,0-0.7l0-0.2l0.2,0.1C66.3,30.1,66.5,30.2,66.8,30.3L66.8,30.3L66.8,30.3z"></path> </g> <g> <g> <path fill="#cc3341" d="M91.3,36.2c0.1,0,0.2,0,0.3,0l-0.1,0.1c-0.1-0.3-0.1-0.7-0.1-1c0-0.3,0.2-0.7,0.1-1l0.1,0.1l-0.2,0                            l0,0c-0.1,0.1-0.3,0.1-0.4,0.2l0.1-0.2c0,0.1,0.1,0.1,0.1,0.2l-0.3-0.2c0.1-0.1,0.2-0.1,0.3-0.2l0.1,0l0.1,0l0,0l0.2,0l0,0.2                            c0,0.3,0,0.6,0,0.9C91.5,35.7,91.4,35.9,91.3,36.2z M91.2,36.3c-0.1-0.3-0.2-0.6-0.2-0.9c0-0.3-0.1-0.6,0-0.9l0.2,0.3l0,0                            l0.1,0c-0.1,0-0.2,0.1-0.4,0.1l-0.3,0.1l0-0.2c0-0.1,0-0.2,0-0.2l0-0.2l0.1,0c0.2,0,0.3-0.1,0.5-0.1l0,0l0,0l0.2,0l0.1,0                            l0,0.1c0,0.3,0.1,0.7,0.1,1c0,0.3,0,0.7-0.1,1l0,0.2l-0.1-0.1C91.4,36.4,91.4,36.3,91.2,36.3L91.2,36.3L91.2,36.3z"></path> </g> <g> <path fill="#cc3341" d="M93.4,36.5c-0.1-0.2-0.1-0.3-0.1-0.5l0-0.1l0.2,0c0.1,0,0.2,0,0.3,0l-0.2,0.2c0-0.1,0-0.1,0-0.2                            l0.2,0.2c-0.1,0-0.2,0-0.3,0l-0.2,0l0-0.2c0-0.4,0.2-0.8,0.1-1.3l0.1,0.1c-0.1,0-0.2,0-0.3,0l0.1,0c-0.2,0.4-0.5,0.9-0.8,1.3                            l0.1-0.2c0,0.1,0,0.1,0,0.2l-0.2-0.3c0.3,0,0.6,0.1,1,0.2l0.2,0.1l0,0.1c0,0.2-0.1,0.4-0.1,0.6l-0.1-0.1                            C93.3,36.5,93.3,36.5,93.4,36.5z M93.4,36.6c-0.1,0-0.2,0-0.3,0l-0.1,0l0-0.1c0-0.2-0.1-0.4-0.1-0.6l0.2,0.2                            c-0.3,0-0.7,0-1-0.1l-0.2,0l0-0.2c0-0.1,0-0.1,0-0.2l0-0.1l0-0.1c0.3-0.4,0.7-0.7,1.1-1l0.1,0l0,0c0.1,0,0.2,0,0.3,0.1l0.1,0                            l0,0.1c0,0.4,0.1,0.8,0.1,1.3l-0.2-0.2c0.1,0,0.2,0,0.3,0.1l0.2,0l0,0.2c0,0.1,0,0.1,0,0.2l0,0.2l-0.2,0                            c-0.1,0-0.2-0.1-0.3-0.1l0.2-0.2C93.6,36.2,93.5,36.4,93.4,36.6L93.4,36.6L93.4,36.6z"></path> <path fill="#cc3341" d="M92.5,35.7L92.5,35.7L92.5,35.7c0-0.4,0.2-0.6,0.4-0.8l0,0c0.1-0.1,0.2-0.1,0.3-0.2l0.1,0l0,0l0,0                            l0,0.1c0.1,0.2,0.1,0.3,0.1,0.5c0,0.2,0.1,0.3,0.1,0.5l0,0.3L93.1,36C92.9,36,92.7,35.9,92.5,35.7L92.5,35.7z M92.5,35.6                            c0.2-0.1,0.5-0.1,0.7-0.1l-0.3,0.3c0-0.2,0-0.3,0.1-0.5c0-0.2,0.1-0.3,0.1-0.5l0.1,0.1l0,0l0.1,0c0,0.1,0,0.2-0.1,0.4l0,0                            C93,35.4,92.8,35.6,92.5,35.6L92.5,35.6L92.5,35.6L92.5,35.6z"></path> </g> <g> <path fill="#cc3341" d="M94.1,35.6C94.1,35.6,94.2,35.6,94.1,35.6c0.1,0,0.1-0.1,0-0.1c-0.1,0,0,0,0.1,0c0.1-0.1,0-0.1-0.1,0                            c0,0,0,0.1,0,0.1c0,0,0.1,0,0.1,0c0,0,0,0,0,0c0,0,0,0,0,0C94.1,35.4,94.1,35.5,94.1,35.6C94.1,35.6,94.1,35.6,94.1,35.6z                            M94.1,35.6C94.1,35.6,94.1,35.6,94.1,35.6c-0.1,0-0.2,0-0.3,0c-0.1,0-0.1-0.1-0.1-0.2c0,0,0-0.1,0-0.2c0-0.1,0.1-0.2,0.2-0.2                            c0.1,0,0.2,0,0.2,0c0.1,0.1,0.1,0.1,0.3,0.2c0.1,0.1,0.2,0.2,0,0.3C94.3,35.8,94.2,35.7,94.1,35.6                            C94.2,35.6,94.1,35.6,94.1,35.6z"></path> <path fill="#cc3341" d="M94.1,36.7C94.1,36.7,94.2,36.7,94.1,36.7c0.1,0,0.1-0.1,0-0.1c-0.1,0,0,0,0.1,0c0.1-0.1,0-0.1-0.1,0                            c0,0,0,0.1,0,0.1c0,0,0.1,0,0.1,0c0,0,0,0,0,0c0,0,0,0,0,0C94.1,36.5,94.1,36.6,94.1,36.7C94.1,36.7,94.1,36.7,94.1,36.7z                            M94.1,36.7C94.1,36.7,94.1,36.7,94.1,36.7c-0.1,0-0.2,0-0.3,0c-0.1,0-0.1-0.1-0.1-0.2c0,0,0-0.1,0-0.2c0-0.1,0.1-0.2,0.2-0.2                            c0.1,0,0.2,0,0.2,0c0.1,0.1,0.1,0.1,0.3,0.2c0.1,0.1,0.2,0.2,0,0.3C94.3,36.8,94.2,36.8,94.1,36.7                            C94.2,36.7,94.1,36.7,94.1,36.7z"></path> </g> <g> <path fill="#cc3341" d="M95.9,36.9c0-0.1,0-0.1,0-0.2l0.1,0.1c-0.3,0-0.6,0-0.9,0l-0.2,0l0-0.2l0,0l0-0.1l0.1-0.1                            c0.2-0.2,0.4-0.3,0.6-0.5c0.2-0.2,0.3-0.3,0.3-0.5c0-0.2-0.1-0.4-0.4-0.5c-0.2-0.1-0.5,0-0.6,0.1l0-0.2l0.1,0.2L94.7,35                            c0.2-0.2,0.5-0.2,0.8-0.1c0.2,0.1,0.3,0.2,0.3,0.4c0,0.1,0,0.2,0,0.2c0,0.1,0,0.2,0,0.2c-0.1,0.3-0.3,0.5-0.5,0.6                            c-0.2,0.1-0.4,0.3-0.6,0.4l0.1-0.2l0,0.2l-0.2-0.2C95,36.6,95.5,36.8,95.9,36.9z M95.9,37c-0.5,0-0.9,0-1.3,0l-0.2,0l0-0.2                            l0-0.2l0-0.1l0.1-0.1c0.2-0.2,0.3-0.3,0.5-0.4c0.2-0.1,0.3-0.3,0.4-0.4c0,0,0,0,0-0.1c0,0,0-0.1,0-0.1c0-0.1,0-0.1-0.1-0.1                            c-0.1-0.1-0.3-0.1-0.4,0l-0.2,0.1l0-0.2L94.5,35l0-0.1l0.1,0c0.3-0.1,0.6-0.1,0.8,0c0.3,0.1,0.5,0.3,0.6,0.6                            c0.1,0.3-0.1,0.7-0.3,0.9c-0.2,0.2-0.4,0.4-0.6,0.5l0.1-0.1l0,0L95,36.4c0.3,0.1,0.6,0.1,0.9,0.3l0.1,0l0,0                            C96,36.8,96,36.9,95.9,37L95.9,37L95.9,37z"></path> </g> <g> <path fill="#cc3341" d="M97.4,35.2c-0.3,0-0.7,0-1,0l0.2-0.2c0,0.3-0.1,0.6-0.1,1l-0.2-0.3c0.1,0,0.2,0,0.3,0                            c0.1,0,0.2,0.1,0.3,0.1c0.2,0.1,0.4,0.4,0.3,0.6c0,0,0,0.1,0,0.2c0,0.1-0.1,0.1-0.1,0.1c-0.1,0.1-0.2,0.1-0.3,0.1                            c-0.2,0-0.4-0.1-0.6-0.2l0.2-0.1L96.3,37l0-0.2c0.1,0,0.2,0.1,0.3,0.1c0.1,0,0.1,0,0.2,0c0.1,0,0.1,0,0.2,0                            c0.2,0,0.3-0.1,0.3-0.3c0,0,0-0.1,0-0.1c0-0.1,0-0.1,0-0.1c0-0.1-0.1-0.1-0.1-0.2c-0.1-0.1-0.1-0.1-0.2-0.1l-0.1,0                            c0,0-0.1,0-0.2,0L96.3,36l0.1-0.2l0.1-0.5l0.1-0.2l0.2,0c0.3,0.1,0.5,0.1,0.8,0.2l-0.1,0.1L97.4,35.2z M97.5,35.1l0,0.2l0,0.1                            l-0.1,0c-0.3,0-0.5,0-0.8,0l0.2-0.2l0,0.5l-0.2-0.3c0.1,0,0.1,0,0.2,0c0.1,0,0.1,0,0.2,0c0.2,0,0.3,0.1,0.4,0.2                            c0.1,0.1,0.2,0.3,0.3,0.4c0,0.1,0,0.2,0,0.3c0,0.1,0,0.2,0,0.3c-0.1,0.4-0.5,0.6-0.8,0.6c-0.1,0-0.2,0-0.2,0                            c-0.1,0-0.1,0-0.2-0.1c-0.1-0.1-0.3-0.1-0.4-0.2L96,36.9l0-0.1l0.1-0.2l0.1-0.2l0.1,0.1c0.1,0.1,0.3,0.2,0.5,0.2                            c0.1,0,0.2,0,0.2-0.1c0,0,0-0.1,0.1-0.1c0,0,0-0.1,0-0.1c0-0.2-0.1-0.3-0.3-0.3c-0.1,0-0.1,0-0.2,0c-0.1,0-0.2,0-0.3,0l-0.2,0                            l0-0.2c0-0.3,0.1-0.6,0.2-0.9l0-0.2l0.2,0C96.8,34.9,97.2,35,97.5,35.1L97.5,35.1z"></path> </g> </g> <g> <path fill="#cc3341" d="M116.6,38.4c0.1,0.4,0.1,0.8,0.1,1.2l0,0.2l-0.2,0c-0.3,0-0.5,0-0.8-0.1l0.2-0.2l0,0.4l0,0.2l-0.3,0                        c-0.6-0.1-1.2-0.2-1.7-0.4c-0.6-0.2-1.2-0.2-1.8-0.3l-0.1,0l0-0.1c0-0.7-0.1-1.3-0.1-2l0-0.3l0.3,0c0.6,0.1,1.2,0.1,1.8,0.3                        c0.6,0.1,1.2,0.2,1.7,0.4l0.1,0l0,0.1l0,0.4l-0.1-0.1C116.1,38.2,116.3,38.3,116.6,38.4L116.6,38.4L116.6,38.4z M116.5,38.4                        c-0.2,0-0.5,0-0.7,0l-0.1,0l0-0.1l0-0.4l0.1,0.2c-0.6,0-1.2-0.1-1.8-0.2c-0.6-0.1-1.2-0.2-1.8-0.3l0.3-0.2c0,0.7-0.1,1.3-0.2,2                        l-0.1-0.1c0.6,0.1,1.2,0.2,1.8,0.3c0.6,0,1.2,0.1,1.8,0.2l-0.3,0.2l0-0.4l0-0.3l0.2,0c0.2,0.1,0.5,0.1,0.7,0.2l-0.2,0.2                        C116.4,39.2,116.4,38.8,116.5,38.4z"></path> <path fill="#cc3341" d="M115.3,38.3c-0.4,0.1-0.8,0-1.2,0c-0.4,0-0.8-0.2-1.2-0.3l0.1-0.1c0,0.3,0,0.7,0,1l-0.1-0.1                        c0.8,0,1.7,0.1,2.5,0.3l-0.2,0.2C115.2,38.9,115.2,38.6,115.3,38.3z M115.4,38.3c0.1,0.3,0.1,0.7,0.2,1l0,0.2l-0.3,0                        c-0.8,0-1.7-0.2-2.5-0.5l-0.1,0l0-0.1c0.1-0.3,0.1-0.6,0.1-1l0-0.1l0.1,0c0.4,0,0.8,0,1.3,0.1C114.6,38,115,38.1,115.4,38.3                        L115.4,38.3L115.4,38.3z"></path> </g> <path fill="#cc3341" d="M109.8,37.2c-0.2,0-0.5,0-0.7,0l0.2-0.2c0.1,0.5,0.1,0.9,0,1.4l-0.1-0.2c0.2,0.1,0.4,0.2,0.7,0.2l0,0                    l0,0c0.3,0.3,0.6,0.5,0.9,0.7l-0.3,0.1c-0.1-0.4-0.1-0.8-0.1-1.2c0-0.4,0-0.8,0.1-1.3l0.3,0.2C110.4,37.1,110.1,37.1,109.8,37.2                    L109.8,37.2L109.8,37.2z M109.8,37.2c0.2-0.2,0.5-0.4,0.8-0.6l0.2-0.2l0,0.3c0,0.4,0.1,0.8,0.1,1.2c0,0.4,0,0.8-0.1,1.3                    l-0.1,0.4l-0.2-0.3c-0.2-0.3-0.5-0.6-0.8-0.8l0,0c-0.2,0-0.5,0-0.7,0l-0.1,0l0-0.2c-0.1-0.5,0-0.9,0-1.4l0-0.2l0.2,0.1                    C109.4,37,109.6,37,109.8,37.2z"></path> </g> </g> </g>
                                    <circle opacity="0.33" fill="#cccccc" cx="19" cy="158" r="19"></circle>
                                    <circle opacity="0.33" fill="#cccccc" cx="71.2" cy="105.7" r="19"></circle>
                                    <circle opacity="0.33" fill="#cccccc" cx="19.4" cy="53.9" r="19.2"></circle>
                                    <g> <g> <path fill="#666666" d="M56.1,105.7c-0.7,4.7-1.9,9.3-3.8,13.6c-1,2.2-2.1,4.2-3.4,6.2c-0.7,1-1.4,1.9-2.1,2.8                c-0.8,0.9-1.5,1.8-2.4,2.6l-1.3,1.2l-1.4,1.2l-1.4,1.1l-1.5,1c-1,0.7-2,1.3-3,1.8c-1,0.6-2.1,1.1-3.2,1.6                c-1.1,0.5-2.2,0.9-3.3,1.3c-1.1,0.4-2.2,0.7-3.4,1.1c-1.1,0.3-2.3,0.6-3.4,0.8c-1.2,0.2-2.3,0.5-3.5,0.6l0-0.4                c1.8,0,3.6,0.2,5.3,0.8c0.4,0.1,0.8,0.3,1.3,0.5c0.4,0.2,0.8,0.4,1.2,0.6l1.1,0.7l0.6,0.4c0.2,0.2,0.4,0.3,0.5,0.4l1,0.9l0.3,0.2                c0.1,0.1,0.2,0.2,0.2,0.3l0.5,0.5c0.6,0.7,1.2,1.4,1.6,2.1c1,1.5,1.7,3.2,1.9,5l0,0l0.3,2.3l0,0l0.1,0.9l-0.5,0                c0.2-1.2,0.4-2.3,0.6-3.5c0.2-1.2,0.5-2.3,0.9-3.4c0.7-2.3,1.5-4.5,2.5-6.6c1-2.1,2.2-4.2,3.6-6.1c0.7-1,1.4-1.9,2.2-2.8                c0.8-0.9,1.6-1.8,2.4-2.6l1.3-1.2l1.3-1.2l1.4-1.1l1.4-1c1-0.7,2-1.3,3-1.9c1-0.6,2.1-1.1,3.1-1.6c1.1-0.5,2.2-0.9,3.3-1.3                c1.1-0.4,2.2-0.8,3.4-1.1c1.1-0.3,2.3-0.6,3.4-0.8c1.2-0.2,2.3-0.4,3.5-0.5l0,0.3c-2,0-4.1-0.3-6-1.1c-0.5-0.2-0.9-0.4-1.4-0.6                l-1.3-0.8l-0.6-0.4l-0.6-0.5l-1.1-1c-1.4-1.4-2.6-3.2-3.4-5.1c-0.4-0.9-0.7-1.9-0.8-2.9C56.2,107.7,56.2,106.7,56.1,105.7                c0.1,1,0.2,2,0.4,3c0.2,1,0.5,2,0.9,2.9c0.8,1.9,2,3.6,3.4,5l1.2,1l0.6,0.5l0.6,0.4l1.3,0.8c0.5,0.2,0.9,0.4,1.4,0.6                c1.9,0.7,3.9,1.1,5.9,1.1l0,0.3c-1.2,0.1-2.3,0.3-3.5,0.6c-1.1,0.2-2.3,0.5-3.4,0.8c-1.1,0.3-2.2,0.7-3.3,1.1                c-1.1,0.4-2.2,0.9-3.2,1.3c-1.1,0.5-2.1,1-3.1,1.6c-1,0.6-2,1.2-3,1.9l-1.4,1l-1.4,1.1l-1.3,1.1l-1.3,1.2                c-0.8,0.8-1.6,1.7-2.4,2.6c-0.7,0.9-1.5,1.8-2.1,2.8c-1.3,1.9-2.5,3.9-3.5,6.1c-1,2.1-1.8,4.3-2.5,6.6c-0.3,1.1-0.6,2.3-0.8,3.4                c-0.2,1.1-0.4,2.3-0.6,3.5l-0.2,1.7l-0.3-1.7l-0.1-0.9l0,0l-0.3-2.2l0,0c-0.2-1.7-0.9-3.4-1.8-4.8c-0.5-0.7-1-1.4-1.6-2.1                l-0.4-0.5c-0.1-0.1-0.2-0.2-0.2-0.2l-0.3-0.2l-1-0.9c-0.2-0.1-0.4-0.3-0.5-0.4l-0.6-0.4l-1.1-0.7c-0.3-0.2-0.8-0.4-1.2-0.6                c-0.4-0.2-0.8-0.3-1.2-0.5c-1.7-0.6-3.4-0.8-5.1-0.8l0-0.4c1.2-0.2,2.3-0.4,3.5-0.6c1.1-0.2,2.3-0.5,3.4-0.8                c1.1-0.3,2.3-0.7,3.4-1c1.1-0.4,2.2-0.8,3.3-1.3c1.1-0.5,2.1-1,3.2-1.5c1-0.6,2-1.2,3-1.8l1.4-1l1.4-1.1l1.3-1.1l1.3-1.2                c0.8-0.8,1.6-1.7,2.4-2.6c0.7-0.9,1.5-1.8,2.1-2.8c1.3-1.9,2.5-4,3.5-6.1C54.1,114.9,55.3,110.3,56.1,105.7z"></path> </g> <g> <path fill="#666666" d="M11.2,144.8c-1.1,0.7-2,1.6-2.9,2.5c-0.9,0.9-1.6,2-2.2,3.1c-1.2,2.2-1.8,4.8-1.8,7.3l-0.5,0                c0-1.3,0.2-2.6,0.5-3.9c0.2-0.6,0.4-1.2,0.6-1.9c0.1-0.3,0.3-0.6,0.4-0.9c0.1-0.3,0.3-0.6,0.5-0.9l1.1-1.6l1.3-1.4                c0.2-0.2,0.5-0.5,0.7-0.7c0.2-0.2,0.5-0.4,0.7-0.6C10.1,145.6,10.6,145.2,11.2,144.8c-0.5,0.4-1,0.8-1.5,1.2                c-0.2,0.2-0.5,0.4-0.7,0.7c-0.2,0.2-0.4,0.4-0.6,0.7l-1.2,1.5l-1,1.6c-0.2,0.3-0.3,0.5-0.4,0.8c-0.1,0.3-0.3,0.6-0.4,0.9                c-0.2,0.6-0.4,1.2-0.6,1.8c-0.3,1.2-0.5,2.5-0.5,3.8H3.8c0-2.6,0.7-5.2,2-7.5c0.7-1.1,1.4-2.2,2.4-3.1                C9.1,146.3,10.1,145.5,11.2,144.8z"></path> </g> <g> <path fill="#666666" d="M19,142.5c-1.3,0.2-2.5,0.5-3.7,0.8l-0.1-0.5l1-0.2l0,0c0.8-0.1,1.5-0.1,2.3-0.1l0,0                C18.6,142.5,18.8,142.5,19,142.5c-0.2,0.1-0.4,0.1-0.6,0.2l0,0c-0.7,0.2-1.5,0.3-2.2,0.4l0,0l0,0l-0.9,0.2l-0.1-0.5                c0.6-0.2,1.3-0.3,1.9-0.3C17.7,142.4,18.4,142.4,19,142.5z"></path> </g> <g> <path fill="#666666" d="M19.3,142.5l-0.3,0h0l-0.6,0.1l0,0l-2.2,0.3l0,0c-0.3,0.1-0.7,0.1-1,0.2c-0.3,0.1-0.7,0.2-1,0.3                c-0.7,0.2-1.3,0.5-1.9,0.9c-1.3,0.7-2.4,1.6-3.4,2.6c-0.5,0.5-0.9,1.1-1.4,1.6c-0.1,0.1-0.3,0.3-0.3,0.4l-0.3,0.5l-0.6,0.9                c-0.4,0.6-0.7,1.2-0.9,1.9c-0.3,0.7-0.5,1.3-0.6,2C4,157,4.1,159.9,5,162.6c0.2,0.7,0.5,1.3,0.8,2c0.3,0.6,0.7,1.2,1.1,1.8                l0.1,0.2c0,0,0.1,0.1,0.1,0.1l0.1,0.1l0.4,0.4l0.7,0.8c0.5,0.6,1,1,1.5,1.5l-0.1-0.1h0h0.1l0.1,0c1.3,1.1,2.8,1.9,4.3,2.5                c0.8,0.3,1.6,0.5,2.4,0.6c0.8,0.1,1.7,0.2,2.5,0.3l0,0c2,0,4-0.3,5.9-1.1c0.5-0.2,0.9-0.4,1.4-0.6l1.3-0.8l0.6-0.4l0.6-0.5l1.2-1                c0.3-0.3,0.7-0.7,1-1.1c0.3-0.4,0.6-0.8,0.9-1.2c0.6-0.8,1.1-1.7,1.4-2.6c0.4-0.9,0.7-1.9,0.9-2.9c0.2-1,0.2-2,0.4-3l0,0                l-0.1-0.9l0,0l-0.3-2.2l0,0c-0.2-1.7-0.9-3.3-1.8-4.8c-0.5-0.7-1-1.4-1.6-2.1c-0.3-0.3-0.6-0.7-0.9-0.9l-1-0.9l-0.5-0.4                c-0.1-0.1-0.4-0.2-0.5-0.4l-1.1-0.7c-0.4-0.2-0.7-0.4-1.1-0.6c-0.4-0.2-0.8-0.3-1.2-0.5C22.8,142.8,21.1,142.5,19.3,142.5                c1.7,0,3.5,0.3,5.1,0.8c0.4,0.1,0.8,0.3,1.2,0.5c0.4,0.2,0.8,0.4,1.2,0.6l1.1,0.7c0.2,0.1,0.4,0.2,0.6,0.4l0.5,0.4l1,0.8                c0.4,0.3,0.6,0.6,0.9,0.9c0.6,0.7,1.1,1.3,1.6,2.1c1,1.5,1.7,3.1,1.9,4.9l0,0l0.3,2.2l0,0l0.1,0.9l0,0l0,0c-0.1,1-0.2,2-0.4,3                c-0.2,1-0.5,2-0.9,3c-0.4,0.9-0.9,1.9-1.5,2.7c-0.3,0.4-0.6,0.8-0.9,1.2c-0.3,0.4-0.7,0.8-1,1.1l-1.2,1c-0.2,0.2-0.4,0.3-0.6,0.5                l-0.6,0.4l-1.3,0.8c-0.5,0.2-0.9,0.5-1.4,0.6c-1.9,0.8-4,1.2-6,1.1l0,0l0,0c-0.8-0.1-1.7-0.2-2.5-0.3c-0.8-0.2-1.7-0.4-2.5-0.7                c-1.6-0.6-3.1-1.5-4.4-2.6l0.1,0h0H9.6l-0.1-0.1c-0.5-0.5-1.1-1-1.6-1.5l-0.7-0.8L6.9,167l-0.1-0.1l-0.1-0.1l-0.1-0.2                c-0.4-0.6-0.8-1.2-1.1-1.9c-0.3-0.6-0.6-1.3-0.8-2c-0.9-2.8-1-5.8-0.3-8.6c0.2-0.7,0.4-1.4,0.7-2.1c0.3-0.7,0.6-1.3,1-1.9                l0.6-0.9l0.3-0.5c0.1-0.2,0.2-0.3,0.4-0.4c0.5-0.5,0.9-1.1,1.4-1.6c1-1,2.2-1.9,3.5-2.5c0.6-0.3,1.3-0.6,2-0.9                c0.3-0.1,0.7-0.2,1-0.3c0.4-0.1,0.7-0.1,1.1-0.2l0,0l2.2-0.3l0,0l0.6-0.1l0,0L19.3,142.5z"></path> </g> <g> <path fill="#666666" d="M86.7,105.8c0,2-0.3,4.1-1.1,6c-0.2,0.5-0.4,0.9-0.7,1.4l-0.8,1.3l-0.2,0.3c-0.1,0.2-0.2,0.2-0.2,0.3                l-0.5,0.6c-0.3,0.4-0.6,0.8-1,1.2c-0.4,0.4-0.7,0.7-1.1,1c-0.4,0.3-0.8,0.6-1.2,0.9c-0.9,0.6-1.8,1-2.7,1.4c-1,0.4-2,0.7-3,0.8                c-0.5,0.1-1,0.1-1.5,0.2l-1.5,0.2l0-0.5c2,0,4-0.3,5.9-1c0.9-0.4,1.8-0.8,2.7-1.4c0.8-0.5,1.6-1.2,2.4-1.9c0.4-0.3,0.7-0.7,1-1.1                c0.3-0.4,0.6-0.8,0.9-1.2c0.6-0.8,1.1-1.7,1.5-2.6C86.2,109.9,86.7,107.8,86.7,105.8c0,2-0.3,4.1-1.1,6c-0.4,1-0.9,1.9-1.4,2.7                c-0.3,0.4-0.6,0.8-0.9,1.2c-0.3,0.4-0.7,0.8-1,1.1c-0.7,0.7-1.5,1.4-2.4,2c-0.9,0.6-1.8,1-2.7,1.4c-1.9,0.8-4,1.1-6.1,1.1l0-0.5                l1.5-0.2c0.5-0.1,1-0.1,1.5-0.2c1-0.2,2-0.4,2.9-0.8c0.9-0.4,1.8-0.8,2.7-1.4c0.4-0.3,0.8-0.6,1.2-0.9c0.4-0.3,0.8-0.6,1.1-1                c0.3-0.3,0.7-0.7,1-1.1l0.5-0.6c0.1-0.1,0.2-0.2,0.2-0.3l0.2-0.3l0.8-1.3c0.3-0.4,0.5-0.9,0.7-1.3                C86.2,109.8,86.7,107.8,86.7,105.8z"></path> </g> <g> <path fill="#666666" d="M19.3,38.5c-3.1,0-6.2,1-8.8,2.8c-0.6,0.5-1.2,1-1.8,1.5c-0.6,0.5-1.1,1.1-1.5,1.8                c-0.5,0.6-0.9,1.3-1.3,2c-0.4,0.7-0.7,1.4-0.9,2.1c-0.3,0.7-0.5,1.5-0.6,2.3c-0.1,0.4-0.1,0.8-0.2,1.2c0,0.4-0.1,0.8-0.1,1.2                c0,0.8,0,1.6,0.1,2.3c0.1,0.8,0.3,1.5,0.5,2.3C5,58.6,5.2,59.3,5.5,60c0.3,0.7,0.7,1.3,1.2,2L7,62.5l0.1,0.1c0,0,0,0.1,0,0l0,0.1                L7.4,63l0.8,0.9c0.5,0.6,1,1.1,1.7,1.6l-0.1,0h0h0.1l0,0c2.1,1.7,4.7,2.9,7.4,3.2c1.4,0.1,2.8,0.3,4.1,0.5                c1.4,0.2,2.7,0.5,4.1,0.9c1.3,0.4,2.7,0.8,4,1.2c1.3,0.5,2.6,1,3.8,1.6c1.3,0.6,2.5,1.3,3.7,2c1.2,0.7,2.3,1.5,3.4,2.4                c1.1,0.8,2.2,1.7,3.2,2.7c0.5,0.5,1,1,1.5,1.5c0.5,0.5,0.9,1,1.4,1.5c0.9,1.1,1.8,2.2,2.6,3.3c0.8,1.2,1.5,2.3,2.2,3.5                c0.7,1.2,1.3,2.5,1.8,3.7c0.6,1.3,1,2.6,1.5,3.9c0.4,1.3,0.8,2.7,1.1,4c0.3,1.4,0.5,2.7,0.7,4.1l-0.5,0l0.1-0.9l0,0l0.3-2.3l0,0                c0.2-1.8,0.9-3.4,1.9-4.9c0.5-0.7,1-1.4,1.6-2.1c0.3-0.3,0.6-0.6,0.9-1l1-0.8l0.5-0.4c0.1-0.1,0.1-0.1,0.3-0.2l0.3-0.2l1.1-0.7                c0.2-0.1,0.3-0.2,0.6-0.3l0.6-0.3c0.4-0.2,0.8-0.4,1.2-0.5c1.6-0.6,3.4-0.9,5.1-0.9l0,0.4c-4.7-0.8-9.3-2-13.6-4                c-2.2-1-4.2-2.2-6.2-3.5c-1-0.7-1.9-1.4-2.8-2.2c-0.9-0.8-1.8-1.6-2.6-2.4c-0.8-0.8-1.6-1.8-2.3-2.7c-0.7-0.9-1.4-1.9-2.1-2.9                c-0.6-1-1.2-2-1.8-3.1c-0.5-1.1-1.1-2.1-1.5-3.2c-0.5-1.1-0.9-2.2-1.3-3.3c-0.4-1.1-0.7-2.3-1-3.4c-0.3-1.2-0.6-2.3-0.8-3.5                c-0.2-1.2-0.4-2.3-0.6-3.5l0,0l-0.3-2.2l0,0c-0.2-1.7-0.9-3.4-1.8-4.8c-0.5-0.7-1-1.4-1.6-2.1c-0.3-0.3-0.6-0.7-0.9-0.9l-1-0.9                c-0.3-0.3-0.6-0.6-1-0.8l-1.1-0.7c-0.4-0.2-0.8-0.4-1.1-0.6c-0.4-0.2-0.8-0.3-1.2-0.5C22.8,38.8,21.1,38.5,19.3,38.5                c1.7,0,3.5,0.3,5.1,0.9c0.4,0.1,0.8,0.3,1.2,0.5c0.4,0.2,0.8,0.4,1.2,0.6l1.1,0.7c0.4,0.2,0.7,0.5,1,0.8l1,0.8                c0.3,0.3,0.6,0.6,0.9,0.9c0.6,0.6,1.1,1.3,1.6,2.1c1,1.5,1.6,3.1,1.9,4.9l0,0l0.3,2.2l0,0c0.2,1.2,0.4,2.3,0.6,3.5                c0.2,1.2,0.5,2.3,0.8,3.5c0.3,1.1,0.7,2.3,1,3.4c0.4,1.1,0.8,2.2,1.3,3.3c0.5,1.1,1,2.1,1.5,3.2c0.6,1,1.2,2.1,1.8,3                c0.7,1,1.3,1.9,2.1,2.9c0.7,0.9,1.5,1.8,2.3,2.7c0.8,0.8,1.7,1.6,2.6,2.4c0.9,0.8,1.8,1.5,2.8,2.1c1.9,1.3,4,2.5,6.2,3.5                c4.3,2,8.9,3.2,13.6,4l0,0.4c-1.7,0-3.4,0.3-5,0.9c-0.4,0.1-0.8,0.3-1.2,0.5l-0.6,0.3c-0.1,0.1-0.4,0.2-0.5,0.3l-1.1,0.7                l-0.3,0.2c0,0-0.2,0.1-0.2,0.2l-0.5,0.4l-1,0.8c-0.3,0.3-0.6,0.6-0.9,0.9c-0.6,0.6-1.1,1.3-1.5,2c-0.9,1.4-1.6,3-1.8,4.7l0,0                l-0.3,2.2l0,0l-0.1,0.9l-0.3,1.7l-0.2-1.7c-0.2-1.4-0.4-2.7-0.7-4.1c-0.3-1.3-0.7-2.7-1.1-4c-0.4-1.3-0.9-2.6-1.4-3.9                c-0.5-1.3-1.1-2.5-1.8-3.7c-0.7-1.2-1.4-2.4-2.2-3.5c-0.8-1.1-1.6-2.2-2.5-3.3c-0.4-0.5-0.9-1-1.4-1.5c-0.5-0.5-1-1-1.5-1.5                c-1-1-2.1-1.8-3.1-2.7c-1.1-0.8-2.2-1.6-3.4-2.3c-1.2-0.7-2.4-1.4-3.6-2c-1.2-0.6-2.5-1.2-3.8-1.6c-1.3-0.5-2.6-0.9-3.9-1.3                c-1.3-0.4-2.7-0.6-4-0.9c-1.4-0.2-2.7-0.4-4.1-0.5c-2.8-0.3-5.4-1.5-7.6-3.3l0.1,0h0H9.6l0,0c-0.6-0.5-1.2-1.1-1.7-1.7l-0.8-0.9                L7,62.9l0-0.1c0-0.1,0-0.1-0.1-0.1l-0.1-0.1l-0.3-0.5c-0.4-0.7-0.9-1.3-1.2-2.1c-0.3-0.7-0.6-1.5-0.8-2.2                c-0.2-0.8-0.4-1.5-0.5-2.3C4,54.8,3.9,54,4,53.2c0-0.4,0-0.8,0.1-1.2c0-0.4,0.1-0.8,0.2-1.2c0.1-0.8,0.4-1.5,0.6-2.3                c0.3-0.7,0.6-1.5,1-2.2c0.4-0.7,0.8-1.3,1.3-2c0.5-0.6,1-1.2,1.6-1.8c0.6-0.5,1.2-1,1.8-1.5C13.1,39.4,16.2,38.5,19.3,38.5z"></path> </g> <g> <path fill="#666666" d="M71.2,90.4c-1.7,0-3.4,0.4-5,1c-0.4,0.2-0.8,0.3-1.2,0.5c-0.4,0.2-0.8,0.4-1.1,0.6l-1.1,0.7                c-0.4,0.2-0.7,0.5-1,0.8l-1,0.9c-0.3,0.3-0.6,0.6-0.9,0.9c-0.6,0.6-1.1,1.3-1.5,2c-0.9,1.4-1.6,3.1-1.8,4.7l0,0l-0.3,2.2l0,0                l-0.1,0.9l0,0c0.1,1,0.2,2,0.4,2.9c0.2,1,0.4,1.9,0.8,2.8c0.7,1.8,1.8,3.5,3.2,4.9c0.3,0.3,0.7,0.6,1.1,1l0.6,0.5l0.3,0.2                l0.3,0.2l1.3,0.8l0.3,0.2c0.1,0,0.2,0.1,0.3,0.2c0.2,0.1,0.4,0.2,0.7,0.3c1.8,0.8,3.7,1.2,5.7,1.2l0,0l2.8-0.3                c0.9-0.1,1.8-0.3,2.7-0.7c1.7-0.6,3.4-1.6,4.8-2.8c0.2-0.2,0.3-0.3,0.5-0.5l0.3-0.2c0.1,0,0.1-0.2,0.2-0.2l0.9-1.1                c0.1-0.2,0.3-0.4,0.4-0.5L84,114l0.8-1.2c0.9-1.6,1.4-3.4,1.7-5.3c0.2-1.8,0.1-3.7-0.4-5.5c-0.2-0.9-0.6-1.8-0.9-2.6                c-0.1-0.2-0.2-0.4-0.3-0.6l-0.4-0.6L83.7,97c-0.6-0.7-1.2-1.5-1.8-2.1c-0.7-0.7-1.4-1.3-2.2-1.8c-1.5-1.1-3.3-1.9-5.1-2.1l0,0                l-2.2-0.3l0,0L71.2,90.4l1.1,0.2l0,0l2.2,0.3l0,0c1.9,0.2,3.7,1,5.2,2c0.8,0.5,1.5,1.1,2.2,1.8c0.7,0.7,1.3,1.4,1.9,2.1l0.8,1.2                l0.4,0.6c0.1,0.2,0.2,0.4,0.3,0.6c0.4,0.9,0.7,1.8,1,2.7c0.5,1.8,0.6,3.8,0.4,5.7c-0.2,1.9-0.8,3.7-1.7,5.4l-0.7,1.2l-0.4,0.6                c-0.2,0.2-0.3,0.4-0.5,0.6l-0.9,1.1c-0.1,0.1-0.1,0.2-0.2,0.3l-0.3,0.2c-0.2,0.2-0.4,0.3-0.5,0.5c-1.4,1.3-3.1,2.3-4.9,2.9                c-0.9,0.3-1.8,0.6-2.8,0.7l-2.8,0.3l0,0l0,0c-2-0.1-4-0.5-5.8-1.3c-0.2-0.1-0.5-0.2-0.7-0.3c-0.1-0.1-0.2-0.1-0.3-0.2l-0.3-0.2                l-1.3-0.8l-0.3-0.2l-0.3-0.2l-0.6-0.5c-0.4-0.3-0.8-0.6-1.1-1c-1.4-1.4-2.5-3.2-3.2-5c-0.4-0.9-0.6-1.9-0.8-2.9                c-0.2-1-0.2-2-0.3-3l0,0l0,0l0.1-0.9l0,0l0.3-2.2l0,0c0.2-1.7,0.9-3.4,1.9-4.8c0.5-0.7,1-1.4,1.6-2.1c0.3-0.3,0.6-0.6,0.9-0.9                l1-0.8c0.3-0.3,0.7-0.6,1-0.8l1.1-0.7c0.4-0.2,0.8-0.4,1.1-0.6c0.4-0.2,0.8-0.3,1.2-0.5C67.8,90.8,69.5,90.5,71.2,90.4z"></path> </g> <g> <path fill="#666666" d="M79.9,105.8c0,0,0,0.2,0,0.6c0,0.2,0,0.4-0.1,0.7c0,0.3-0.1,0.6-0.2,1c-0.2,0.7-0.5,1.6-1,2.4                c-0.5,0.9-1.3,1.8-2.4,2.5c-1,0.7-2.4,1.2-3.8,1.4c-0.4,0-0.7,0.1-1.1,0.1c-0.4,0-0.7,0-1.1-0.1c-0.8-0.1-1.5-0.3-2.3-0.6                c-1.5-0.6-2.8-1.7-3.7-3.1c-0.5-0.7-0.8-1.5-1.1-2.3c-0.2-0.8-0.4-1.7-0.4-2.5c0-0.8,0.1-1.7,0.4-2.5c0.3-0.8,0.6-1.6,1.1-2.3                c0.9-1.4,2.3-2.5,3.7-3.1c1.5-0.6,3.1-0.8,4.5-0.7c1.5,0.2,2.8,0.7,3.8,1.4c1.1,0.7,1.8,1.6,2.4,2.5c0.6,0.9,0.9,1.7,1,2.4                c0.1,0.4,0.2,0.7,0.2,1c0,0.3,0.1,0.5,0.1,0.7C79.9,105.6,79.9,105.8,79.9,105.8z M79.9,105.8c0,0,0-0.2,0-0.6                c0-0.2,0-0.4-0.1-0.7c0-0.3-0.1-0.6-0.2-0.9c-0.2-0.7-0.5-1.5-1.1-2.3c-0.6-0.8-1.4-1.7-2.4-2.3c-1-0.7-2.3-1.2-3.7-1.3                c-1.4-0.1-2.9,0.1-4.3,0.7c-1.4,0.6-2.6,1.7-3.5,3c-0.4,0.7-0.8,1.4-1,2.2c-0.2,0.8-0.3,1.6-0.3,2.4c0,0.8,0.1,1.6,0.3,2.4                c0.2,0.8,0.6,1.5,1,2.2c0.9,1.3,2.1,2.4,3.5,3c0.7,0.3,1.4,0.5,2.1,0.6c0.3,0.1,0.7,0.1,1.1,0.1c0.3,0,0.7,0,1.1,0                c1.4-0.2,2.7-0.6,3.7-1.3c1-0.7,1.8-1.5,2.4-2.3c0.6-0.8,0.9-1.7,1.1-2.3c0.1-0.3,0.2-0.7,0.2-0.9c0.1-0.3,0.1-0.5,0.1-0.7                C79.9,106,79.9,105.8,79.9,105.8z"></path> </g> <g> <path fill="#ffffff" d="M80.7,105.8c0,5.2-4.2,9.3-9.3,9.3c-5.2,0-9.3-4.2-9.3-9.3c0-5.2,4.2-9.3,9.3-9.3                C76.5,96.5,80.7,100.6,80.7,105.8L80.7,105.8L80.7,105.8z"></path> <path fill="#ffffff" d="M80.7,105.8c0,0,0,0.2,0,0.7c0,0.2,0,0.5-0.1,0.8c0,0.3-0.1,0.7-0.2,1.1c-0.2,0.8-0.5,1.7-1.1,2.7                c-0.6,0.9-1.5,1.9-2.6,2.7c-1.2,0.8-2.6,1.4-4.2,1.6c-0.4,0-0.8,0.1-1.2,0.1c-0.4,0-0.8,0-1.2-0.1c-0.9-0.1-1.7-0.4-2.5-0.7                c-1.6-0.7-3.1-1.9-4.1-3.4c-0.5-0.8-0.9-1.6-1.2-2.5c-0.3-0.9-0.4-1.8-0.4-2.8c0-0.9,0.1-1.9,0.4-2.8c0.3-0.9,0.7-1.7,1.2-2.5                c1-1.5,2.5-2.7,4.1-3.4c1.6-0.7,3.4-0.9,4.9-0.7c1.6,0.2,3,0.8,4.2,1.6c1.2,0.8,2,1.8,2.6,2.7c0.6,0.9,0.9,1.9,1.1,2.7                c0.1,0.4,0.2,0.7,0.2,1.1c0,0.3,0.1,0.6,0.1,0.8C80.7,105.6,80.7,105.8,80.7,105.8z M80.7,105.8c0,0,0-0.2,0-0.7                c0-0.2,0-0.5-0.1-0.8c0-0.3-0.1-0.7-0.2-1c-0.2-0.8-0.6-1.7-1.2-2.6c-0.6-0.9-1.5-1.8-2.6-2.6c-1.1-0.7-2.5-1.3-4.1-1.4                c-1.5-0.2-3.2,0.1-4.7,0.8c-1.5,0.7-2.9,1.8-3.9,3.3c-0.5,0.7-0.9,1.5-1.1,2.4c-0.3,0.9-0.4,1.7-0.4,2.6c0,0.9,0.1,1.8,0.4,2.6                c0.3,0.8,0.6,1.7,1.1,2.4c1,1.5,2.4,2.6,3.9,3.3c0.8,0.3,1.6,0.6,2.4,0.7c0.4,0.1,0.8,0.1,1.2,0.1c0.4,0,0.8,0,1.2,0                c1.5-0.2,2.9-0.7,4.1-1.4c1.1-0.7,2-1.7,2.6-2.6c0.6-0.9,1-1.8,1.2-2.6c0.1-0.4,0.2-0.7,0.2-1c0.1-0.3,0.1-0.6,0.1-0.8                C80.7,106,80.7,105.8,80.7,105.8z"></path> </g> <g> <path fill="#666666" d="M27.9,53.9c0,0,0,0.2,0,0.6c0,0.2,0,0.4-0.1,0.7c0,0.3-0.1,0.6-0.2,1c-0.2,0.7-0.5,1.6-1,2.4                c-0.5,0.9-1.3,1.8-2.4,2.5c-1,0.7-2.4,1.2-3.8,1.4c-0.4,0-0.7,0.1-1.1,0.1c-0.4,0-0.7,0-1.1-0.1c-0.8-0.1-1.5-0.3-2.3-0.6                c-1.5-0.6-2.8-1.7-3.7-3.1c-0.5-0.7-0.8-1.5-1.1-2.3c-0.2-0.8-0.4-1.7-0.4-2.5c0-0.8,0.1-1.7,0.4-2.5c0.3-0.8,0.6-1.6,1.1-2.3                c0.9-1.4,2.3-2.5,3.7-3.1c1.5-0.6,3.1-0.8,4.5-0.7c1.5,0.2,2.8,0.7,3.8,1.4c1.1,0.7,1.8,1.6,2.4,2.5c0.6,0.9,0.9,1.7,1,2.4                c0.1,0.4,0.2,0.7,0.2,1c0,0.3,0.1,0.5,0.1,0.7C27.9,53.7,27.9,53.9,27.9,53.9z M27.9,53.9c0,0,0-0.2,0-0.6c0-0.2,0-0.4-0.1-0.7                c0-0.3-0.1-0.6-0.2-0.9c-0.2-0.7-0.5-1.5-1.1-2.3c-0.6-0.8-1.4-1.7-2.4-2.3c-1-0.7-2.3-1.2-3.7-1.3c-1.4-0.1-2.9,0.1-4.3,0.7                c-1.4,0.6-2.6,1.7-3.5,3c-0.4,0.7-0.8,1.4-1,2.2c-0.2,0.8-0.3,1.6-0.3,2.4c0,0.8,0.1,1.6,0.3,2.4c0.2,0.8,0.6,1.5,1,2.2                c0.9,1.3,2.1,2.4,3.5,3c0.7,0.3,1.4,0.5,2.1,0.6c0.3,0.1,0.7,0.1,1.1,0.1c0.3,0,0.7,0,1.1,0c1.4-0.2,2.7-0.6,3.7-1.3                c1-0.7,1.8-1.5,2.4-2.3c0.6-0.8,0.9-1.7,1.1-2.3c0.1-0.3,0.2-0.7,0.2-0.9c0.1-0.3,0.1-0.5,0.1-0.7C27.9,54.1,27.9,53.9,27.9,53.9                z"></path> </g> <g> <path fill="#ffffff" d="M29,53.9c0,5.3-4.3,9.6-9.6,9.6c-5.3,0-9.6-4.3-9.6-9.6c0-5.3,4.3-9.6,9.6-9.6C24.7,44.3,29,48.6,29,53.9                L29,53.9L29,53.9z"></path> <path fill="#ffffff" d="M29,53.9c0,0,0,0.2,0,0.7c0,0.2,0,0.5-0.1,0.8c0,0.3-0.1,0.7-0.2,1.1c-0.2,0.8-0.5,1.8-1.2,2.7                c-0.6,1-1.5,2-2.7,2.8c-1.2,0.8-2.7,1.4-4.3,1.6c-0.4,0-0.8,0.1-1.3,0.1c-0.4,0-0.8,0-1.3-0.1c-0.9-0.1-1.7-0.4-2.6-0.7                c-1.7-0.7-3.2-2-4.2-3.5c-0.5-0.8-0.9-1.7-1.2-2.6c-0.3-0.9-0.4-1.9-0.4-2.9c0-1,0.2-1.9,0.4-2.9c0.3-0.9,0.7-1.8,1.2-2.6                c1.1-1.6,2.6-2.8,4.2-3.5c1.7-0.7,3.5-0.9,5.1-0.7c1.7,0.2,3.1,0.8,4.3,1.6c1.2,0.8,2.1,1.8,2.7,2.8c0.6,1,1,1.9,1.2,2.7                c0.1,0.4,0.2,0.8,0.2,1.1c0,0.3,0.1,0.6,0.1,0.8C29,53.6,29,53.9,29,53.9z M29,53.9c0,0,0-0.2,0-0.7c0-0.2,0-0.5-0.1-0.8                c0-0.3-0.1-0.7-0.2-1.1c-0.2-0.8-0.6-1.7-1.3-2.7c-0.6-0.9-1.5-1.9-2.7-2.7c-1.2-0.8-2.6-1.3-4.2-1.5c-1.6-0.2-3.3,0.1-4.9,0.8                c-1.6,0.7-3,1.9-4,3.4c-0.5,0.8-0.9,1.6-1.2,2.5c-0.3,0.9-0.4,1.8-0.4,2.7c0,0.9,0.1,1.8,0.4,2.7c0.3,0.9,0.7,1.7,1.2,2.5                c1,1.5,2.4,2.7,4,3.4c0.8,0.3,1.6,0.6,2.4,0.7c0.4,0.1,0.8,0.1,1.2,0.1c0.4,0,0.8,0,1.2,0c1.6-0.2,3-0.7,4.2-1.5                c1.2-0.8,2.1-1.7,2.7-2.7c0.7-0.9,1-1.9,1.3-2.7c0.1-0.4,0.2-0.8,0.2-1.1c0.1-0.3,0.1-0.6,0.1-0.8C29,54.1,29,53.9,29,53.9z"></path> </g> <g> <path fill="#666666" d="M27.9,158c0,0,0,0.2,0,0.6c0,0.2,0,0.4-0.1,0.7c0,0.3-0.1,0.6-0.2,1c-0.2,0.7-0.5,1.6-1,2.4                c-0.5,0.9-1.3,1.8-2.4,2.5c-1,0.7-2.4,1.2-3.8,1.4c-0.4,0-0.7,0.1-1.1,0.1c-0.4,0-0.7,0-1.1-0.1c-0.8-0.1-1.5-0.3-2.3-0.6                c-1.5-0.6-2.8-1.7-3.7-3.1c-0.5-0.7-0.8-1.5-1.1-2.3c-0.2-0.8-0.4-1.7-0.4-2.5c0-0.8,0.1-1.7,0.4-2.5c0.3-0.8,0.6-1.6,1.1-2.3                c0.9-1.4,2.3-2.5,3.7-3.1c1.5-0.6,3.1-0.8,4.5-0.7c1.5,0.2,2.8,0.7,3.8,1.4c1.1,0.7,1.8,1.6,2.4,2.5c0.6,0.9,0.9,1.7,1,2.4                c0.1,0.4,0.2,0.7,0.2,1c0,0.3,0.1,0.5,0.1,0.7C27.9,157.8,27.9,158,27.9,158z M27.9,158c0,0,0-0.2,0-0.6c0-0.2,0-0.4-0.1-0.7                c0-0.3-0.1-0.6-0.2-0.9c-0.2-0.7-0.5-1.5-1.1-2.3c-0.6-0.8-1.4-1.7-2.4-2.3c-1-0.7-2.3-1.2-3.7-1.3c-1.4-0.1-2.9,0.1-4.3,0.7                c-1.4,0.6-2.6,1.7-3.5,3c-0.4,0.7-0.8,1.4-1,2.2c-0.2,0.8-0.3,1.6-0.3,2.4c0,0.8,0.1,1.6,0.3,2.4c0.2,0.8,0.6,1.5,1,2.2                c0.9,1.3,2.1,2.4,3.5,3c0.7,0.3,1.4,0.5,2.1,0.6c0.3,0.1,0.7,0.1,1.1,0.1c0.3,0,0.7,0,1.1,0c1.4-0.2,2.7-0.6,3.7-1.3                c1-0.7,1.8-1.5,2.4-2.3c0.6-0.8,0.9-1.7,1.1-2.3c0.1-0.3,0.2-0.7,0.2-0.9c0.1-0.3,0.1-0.5,0.1-0.7C27.9,158.2,27.9,158,27.9,158z                "></path> </g> <g> <path fill="#ffffff" d="M28.2,158c0,4.9-3.9,8.8-8.8,8.8c-4.9,0-8.8-3.9-8.8-8.8c0-4.9,3.9-8.8,8.8-8.8                C24.3,149.2,28.2,153.1,28.2,158L28.2,158L28.2,158z"></path> <path fill="#ffffff" d="M28.2,158c0,0,0,0.2,0,0.6c0,0.2,0,0.5-0.1,0.7c0,0.3-0.1,0.6-0.2,1c-0.2,0.7-0.5,1.6-1.1,2.5                c-0.6,0.9-1.4,1.8-2.5,2.6c-1.1,0.7-2.4,1.3-4,1.5c-0.4,0-0.8,0.1-1.2,0.1c-0.4,0-0.8,0-1.2-0.1c-0.8-0.1-1.6-0.3-2.4-0.7                c-1.5-0.7-2.9-1.8-3.9-3.3c-0.5-0.7-0.9-1.5-1.1-2.4c-0.3-0.8-0.4-1.7-0.4-2.6c0-0.9,0.1-1.8,0.4-2.6c0.3-0.8,0.6-1.6,1.1-2.4                c1-1.5,2.4-2.6,3.9-3.3c1.5-0.7,3.2-0.9,4.7-0.7c1.5,0.2,2.9,0.8,4,1.5c1.1,0.7,1.9,1.7,2.5,2.6c0.6,0.9,0.9,1.8,1.1,2.5                c0.1,0.4,0.2,0.7,0.2,1c0,0.3,0.1,0.5,0.1,0.7C28.2,157.8,28.2,158,28.2,158z M28.2,158c0,0,0-0.2,0-0.6c0-0.2,0-0.4-0.1-0.7                c0-0.3-0.1-0.6-0.2-1c-0.2-0.7-0.6-1.6-1.2-2.4c-0.6-0.9-1.4-1.7-2.5-2.4c-1.1-0.7-2.4-1.2-3.8-1.4c-1.5-0.1-3,0.1-4.5,0.7                c-1.4,0.6-2.7,1.7-3.7,3.1c-0.5,0.7-0.8,1.5-1.1,2.3c-0.2,0.8-0.3,1.6-0.4,2.5c0,0.8,0.1,1.7,0.4,2.5c0.3,0.8,0.6,1.6,1.1,2.3                c0.9,1.4,2.2,2.5,3.7,3.1c0.7,0.3,1.5,0.6,2.2,0.7c0.4,0.1,0.8,0.1,1.1,0.1c0.4,0,0.7,0,1.1,0c1.4-0.2,2.8-0.7,3.8-1.4                c1.1-0.7,1.9-1.6,2.5-2.4c0.6-0.9,0.9-1.7,1.2-2.4c0.1-0.4,0.2-0.7,0.2-1c0.1-0.3,0.1-0.5,0.1-0.7C28.2,158.2,28.2,158,28.2,158z                "></path> </g> </g> <g> <g> <path fill="#0070c9" d="M19.3,55.2c-1.7,0-2.9-3-2.9-4.6c0-1.6,1.3-2.9,2.9-2.9c1.6,0,2.9,1.3,2.9,2.9                C22.2,52.2,21,55.2,19.3,55.2z M19.3,48.4c-1.2,0-2.2,1-2.2,2.2c0,1.4,1.1,3.9,2.2,3.9c1.1,0,2.2-2.5,2.2-3.9                C21.5,49.4,20.5,48.4,19.3,48.4z"></path> </g> <g> <g> <path fill="#0070c9" d="M17.9,50.9c-0.1,0-0.2-0.1-0.2-0.2c0-1,0.8-1.8,1.8-1.8c0.1,0,0.2,0.1,0.2,0.2c0,0.1-0.1,0.2-0.2,0.2                    c-0.8,0-1.4,0.6-1.4,1.4C18,50.8,18,50.9,17.9,50.9z"></path> </g> <g> <path fill="#0070c9" d="M17.9,51.5c0,0-0.1,0-0.1-0.1c0,0-0.1-0.1-0.1-0.1c0,0,0-0.1,0.1-0.1c0.1-0.1,0.2-0.1,0.2,0                    c0,0,0.1,0.1,0.1,0.1c0,0,0,0.1-0.1,0.1C18,51.5,18,51.5,17.9,51.5z"></path> </g> </g> <g> <path fill="#0070c9" d="M19.3,59.5c-1,0-4.2-0.1-4.2-1.4c0-1.9,1.2-3.6,3-4.1l0.2-0.1l0.2,0.2c0.5,0.6,1.2,0.6,1.8,0l0.2-0.2                l0.2,0.1c1.8,0.6,3,2.2,3,4.1C23.6,59.4,20.3,59.5,19.3,59.5z M18.1,54.7c-1.4,0.5-2.3,1.9-2.3,3.4c0,0.2,1.1,0.7,3.5,0.7                c2.4,0,3.5-0.5,3.5-0.7c0-1.5-0.9-2.8-2.3-3.4c-0.4,0.4-0.8,0.5-1.2,0.5C18.9,55.2,18.5,55.1,18.1,54.7z"></path> </g> </g> <g> <g> <path fill="#0070c9" d="M70.2,111.3c-0.1,0-0.1,0-0.2,0c-0.1-0.1-0.2-0.2-0.2-0.3l0-1.2H69c-0.6,0-1.1-0.5-1.1-1.1v-4.3                c0-0.6,0.4-1.1,1.1-1.1h6.5c0.6,0,1.2,0.5,1.2,1.1v4.3c0,0.6-0.6,1.1-1.2,1.1h-3.2l-2.1,1.5C70.3,111.2,70.2,111.3,70.2,111.3z                M69,103.9c-0.3,0-0.4,0.2-0.4,0.5v4.3c0,0.3,0.2,0.5,0.4,0.5h1.2c0.1,0,0.2,0,0.2,0.1c0.1,0.1,0.1,0.1,0.1,0.2l0,0.9l1.6-1.2                c0.1,0,0.1-0.1,0.2-0.1h3.3c0.3,0,0.5-0.2,0.5-0.5v-4.3c0-0.3-0.3-0.5-0.5-0.5H69z"></path> </g> <g> <path fill="#0070c9" d="M66.7,107c-0.1,0-0.1,0-0.2-0.1c-0.2-0.2-0.3-0.5-0.3-0.8v-4.3c0-0.6,0.4-1.1,1.1-1.1h6.5                c0.6,0,1.2,0.5,1.2,1.1v0.2c0,0.2-0.1,0.3-0.3,0.3s-0.3-0.1-0.3-0.3v-0.2c0-0.3-0.3-0.5-0.5-0.5h-6.5c-0.3,0-0.4,0.2-0.4,0.5v4.3                c0,0.1,0,0.2,0.1,0.3c0.1,0.1,0.1,0.3,0,0.5C66.9,107,66.8,107,66.7,107z"></path> </g> <g> <g> <path fill="#0070c9" d="M71.2,105.3h-1.3c-0.1,0-0.2-0.1-0.2-0.2c0-0.1,0.1-0.2,0.2-0.2h1.3c0.1,0,0.2,0.1,0.2,0.2                    C71.3,105.2,71.3,105.3,71.2,105.3z"></path> </g> <g> <path fill="#0070c9" d="M73.5,105.3h-1.6c-0.1,0-0.2-0.1-0.2-0.2c0-0.1,0.1-0.2,0.2-0.2h1.6c0.1,0,0.2,0.1,0.2,0.2                    C73.6,105.2,73.6,105.3,73.5,105.3z"></path> </g> <g> <path fill="#0070c9" d="M74.8,105.3h-0.7c-0.1,0-0.2-0.1-0.2-0.2c0-0.1,0.1-0.2,0.2-0.2h0.7c0.1,0,0.2,0.1,0.2,0.2                    C74.9,105.2,74.9,105.3,74.8,105.3z"></path> </g> </g> <g> <g> <path fill="#0070c9" d="M70.5,106.1h-0.7c-0.1,0-0.2-0.1-0.2-0.2c0-0.1,0.1-0.2,0.2-0.2h0.7c0.1,0,0.2,0.1,0.2,0.2                    C70.7,106.1,70.6,106.1,70.5,106.1z"></path> </g> <g> <path fill="#0070c9" d="M72.5,106.1h-1.3c-0.1,0-0.2-0.1-0.2-0.2c0-0.1,0.1-0.2,0.2-0.2h1.3c0.1,0,0.2,0.1,0.2,0.2                    C72.6,106.1,72.6,106.1,72.5,106.1z"></path> </g> <g> <path fill="#0070c9" d="M74.8,106.1h-1.6c-0.1,0-0.2-0.1-0.2-0.2c0-0.1,0.1-0.2,0.2-0.2h1.6c0.1,0,0.2,0.1,0.2,0.2                    C74.9,106.1,74.9,106.1,74.8,106.1z"></path> </g> </g> <g> <g> <path fill="#0070c9" d="M71.5,107.1h-1.6c-0.1,0-0.2-0.1-0.2-0.2c0-0.1,0.1-0.2,0.2-0.2h1.6c0.1,0,0.2,0.1,0.2,0.2                    C71.7,107,71.6,107.1,71.5,107.1z"></path> </g> <g> <path fill="#0070c9" d="M73.8,107.1h-1.6c-0.1,0-0.2-0.1-0.2-0.2c0-0.1,0.1-0.2,0.2-0.2h1.6c0.1,0,0.2,0.1,0.2,0.2                    C73.9,107,73.9,107.1,73.8,107.1z"></path> </g> <g> <path fill="#0070c9" d="M74.8,107.1h-0.3c-0.1,0-0.2-0.1-0.2-0.2c0-0.1,0.1-0.2,0.2-0.2h0.3c0.1,0,0.2,0.1,0.2,0.2                    C74.9,107,74.9,107.1,74.8,107.1z"></path> </g> </g> <g> <g> <path fill="#0070c9" d="M70.5,107.9h-0.7c-0.1,0-0.2-0.1-0.2-0.2c0-0.1,0.1-0.2,0.2-0.2h0.7c0.1,0,0.2,0.1,0.2,0.2                    C70.7,107.9,70.6,107.9,70.5,107.9z"></path> </g> <g> <path fill="#0070c9" d="M72.3,107.9h-1.1c-0.1,0-0.2-0.1-0.2-0.2c0-0.1,0.1-0.2,0.2-0.2h1.1c0.1,0,0.2,0.1,0.2,0.2                    C72.5,107.9,72.4,107.9,72.3,107.9z"></path> </g> </g> </g> <g> <g> <path fill="#0070c9" d="M16.8,164.3c-1,0-2-0.4-2.7-1.1L14,163c-1.5-1.5-1.5-3.9,0-5.4l2.7-2.7c0.7-0.7,1.7-1.1,2.7-1.1                s2,0.4,2.7,1.1l0.1,0.1c1.5,1.5,1.5,3.9,0,5.4l-2.7,2.7C18.8,163.9,17.8,164.3,16.8,164.3z M19.3,154.6c-0.8,0-1.6,0.3-2.2,0.9                l-2.7,2.7c-1.2,1.2-1.2,3.1,0,4.3l0.1,0.1c0.6,0.6,1.3,0.9,2.2,0.9c0.8,0,1.6-0.3,2.2-0.9l2.7-2.7c1.2-1.2,1.2-3.1,0-4.3                l-0.1-0.1C20.9,154.9,20.1,154.6,19.3,154.6z"></path> </g> <g> <path fill="#0070c9" d="M14.6,161.6c-0.1,0-0.1,0-0.2-0.1c-0.7-1-0.5-2.1,0.6-3.2l0.6-0.6c0.1-0.1,0.2-0.1,0.3,0                c0.1,0.1,0.1,0.2,0,0.3l-0.6,0.6c-1,0.9-1.1,1.8-0.5,2.7c0.1,0.1,0,0.2,0,0.3C14.7,161.6,14.6,161.6,14.6,161.6z"></path> </g> <g> <path fill="#0070c9" d="M15.1,162.2c0,0-0.1,0-0.1-0.1l-0.1-0.1c-0.1-0.1-0.1-0.2,0-0.3c0.1-0.1,0.2-0.1,0.3,0l0.1,0.1                c0.1,0.1,0.1,0.2,0,0.3C15.2,162.1,15.1,162.2,15.1,162.2z"></path> </g> <g> <path fill="#0070c9" d="M21.5,160.8C21.4,160.8,21.4,160.8,21.5,160.8c-3.8-1.9-5.1-5-5.2-5.1c0-0.1,0-0.2,0.1-0.2                c0.1,0,0.2,0,0.2,0.1c0,0,1.3,3.1,4.9,4.9c0.1,0,0.1,0.2,0.1,0.3C21.6,160.8,21.5,160.8,21.5,160.8z"></path> </g> <g> <path fill="#0070c9" d="M19.3,157.8c0,0-0.1,0-0.1-0.1c-0.1-0.1-0.1-0.2,0-0.3l0.7-0.7c0.1-0.1,0.2-0.1,0.3,0                c0.1,0.1,0.1,0.2,0,0.3l-0.7,0.7C19.4,157.8,19.4,157.8,19.3,157.8z"></path> </g> <g> <path fill="#0070c9" d="M22,155.9c-0.2,0-0.4-0.2-0.4-0.4c0,0-0.1-1.2,1.6-2.1c0.9-0.4,1.2-1.4,1.2-1.5c0.1-0.2,0.3-0.3,0.5-0.3                c0.2,0.1,0.3,0.3,0.3,0.5c0,0.1-0.4,1.3-1.6,1.9c-1.2,0.6-1.2,1.3-1.2,1.3C22.4,155.7,22.2,155.8,22,155.9                C22,155.9,22,155.9,22,155.9z"></path> </g> </g>
                                </g>
                            </svg>