<svg class="flag-animation" version="1.1" id="Layer_0" xmlns="http://www.w3.org/2000/svg" xmlns:xlink="http://www.w3.org/1999/xlink" x="0px" y="0px" viewBox="-643.2 171.4 488.9 312.3" enable-background="new -643.2 171.4 488.9 312.3" xml:space="preserve">
                            <g>

                                <path fill="none" stroke="#66bbff" stroke-width="6" stroke-linecap="round" stroke-linejoin="round" stroke-miterlimit="10" d="
                                M-159.7,370.5c-4.3,61.5-55.7,107.8-118.6,107.8c-62.8,0-114.2-46.3-118.6-107.8"></path>

                                <polyline fill="none" stroke="#0070c9" stroke-width="5" stroke-linecap="round" stroke-linejoin="round" stroke-miterlimit="10" points="
                                -515.2,256 -515.2,175.9 -476.4,175.9 -495.8,194 -481.6,206.9 -502.3,206.9 	"></polyline>
                                <path fill="none" stroke="#000000" stroke-width="20" stroke-linecap="round" stroke-linejoin="round" stroke-miterlimit="10" d="
                                M-633.7,371"></path>

                                <path fill="none" stroke="#0070c9" stroke-width="10" stroke-linecap="round" stroke-linejoin="round" stroke-miterlimit="10" d="
                                M-633.2,370.5c4.3-61.5,55.7-107.8,118.6-107.8c62.8,0,114.2,46.3,118.6,107.8"></path>
                                <path fill="none" stroke="#000000" stroke-width="20" stroke-linecap="round" stroke-linejoin="round" stroke-miterlimit="10" d="
                                M-396.6,371"></path>
                                <g enable-background="new    ">
                                    <path fill="#0070c9" d="M-567.6,365.4v-36.4h25.8v6.8h-18v7.7h17.7v6.8h-17.7v15.1L-567.6,365.4L-567.6,365.4z"></path>
                                    <path fill="#0070c9" d="M-536.5,365.4v-36.4h25.8v6.8h-18.1v7.7h17.7v6.8h-17.7v8.2h18.1v6.8H-536.5z"></path>
                                    <path fill="#0070c9" d="M-476.7,365.4l-6.4-25.1l-6.4,25.1h-8.3l-10.4-36.5h8.7l6.4,26.3l6.9-26.3h6l6.9,26.3l6.4-26.3h8.7
                                    l-10.4,36.4L-476.7,365.4L-476.7,365.4z"></path>
                                </g>
                                <g enable-background="new    ">
                                    <path fill="#0070c9" d="M-549.9,393.1v-9.5c0-1.4-0.6-2.4-2.2-2.4c-1.4,0-2.5,1-3.1,1.7v10.1h-4v-9.5c0-1.4-0.6-2.4-2.2-2.4
                                    c-1.4,0-2.5,1-3.1,1.7v10.1h-4v-15h4v2c0.6-0.9,2.6-2.3,4.9-2.3c2.2,0,3.6,1,4.1,2.7c0.9-1.4,2.9-2.7,5.2-2.7
                                    c2.8,0,4.4,1.4,4.4,4.5v10.8L-549.9,393.1L-549.9,393.1z"></path>
                                    <path fill="#0070c9" d="M-542.5,374.2c0-1.3,1.1-2.3,2.4-2.3s2.4,1,2.4,2.3c0,1.3-1,2.4-2.4,2.4
                                    C-541.4,376.5-542.5,375.5-542.5,374.2z M-542.1,393.1v-15h4v15H-542.1z"></path>
                                    <path fill="#0070c9" d="M-524.1,393.1v-9.1c0-2.1-1.1-2.8-2.8-2.8c-1.6,0-2.8,0.9-3.4,1.7v10.1h-4v-15h4v2c1-1.1,2.8-2.3,5.2-2.3
                                    c3.3,0,4.9,1.8,4.9,4.8v10.6L-524.1,393.1L-524.1,393.1z"></path>
                                    <path fill="#0070c9" d="M-506.2,393.1v-1.9c-1,1.1-2.8,2.2-5.2,2.2c-3.3,0-4.9-1.8-4.9-4.7v-10.7h4v9.1c0,2.1,1.1,2.8,2.8,2.8
                                    c1.5,0,2.7-0.9,3.4-1.7v-10.2h4v15L-506.2,393.1L-506.2,393.1z"></path>
                                    <path fill="#0070c9" d="M-497.6,389.4v-7.8h-2.5v-3.4h2.5v-4.1h4v4.1h3v3.4h-3v6.8c0,1,0.5,1.7,1.4,1.7c0.6,0,1.1-0.2,1.4-0.4
                                    l0.9,2.9c-0.6,0.6-1.7,1-3.3,1C-496.1,393.5-497.6,392.1-497.6,389.4z"></path>
                                    <path fill="#0070c9" d="M-488.8,385.7c0-4.4,3.2-7.9,7.8-7.9c4.5,0,7.5,3.3,7.5,8.3v0.9h-11.1c0.2,1.9,1.7,3.5,4.3,3.5
                                    c1.3,0,3-0.6,4-1.5l1.7,2.5c-1.5,1.4-3.8,2.1-6.2,2.1C-485.3,393.5-488.8,390.4-488.8,385.7z M-481,380.9c-2.5,0-3.5,1.8-3.7,3.3
                                    h7.4C-477.4,382.8-478.4,380.9-481,380.9z"></path>
                                    <path fill="#0070c9" d="M-472,391.1l1.7-2.8c1.1,1,3.3,2.1,5.2,2.1c1.7,0,2.5-0.7,2.5-1.6c0-2.5-8.9-0.5-8.9-6.4
                                    c0-2.5,2.2-4.7,6.1-4.7c2.5,0,4.5,0.9,6,2.1l-1.6,2.7c-0.9-1-2.6-1.7-4.5-1.7c-1.4,0-2.4,0.6-2.4,1.5c0,2.2,8.9,0.4,8.9,6.4
                                    c0,2.7-2.3,4.8-6.5,4.8C-467.9,393.5-470.4,392.7-472,391.1z"></path>
                                </g>
                                <g enable-background="new    ">
                                    <path fill="#66bbff" d="M-308.3,412.4v-5.9c14.6-10.7,18.8-14.4,18.8-18.8c0-3.1-2.8-4.6-5.7-4.6c-4.1,0-7.2,1.6-9.5,4.1l-4.3-5
                                    c3.4-4,8.7-5.8,13.7-5.8c7.6,0,13.6,4.3,13.6,11.4c0,6-5,11.4-14.2,18.1h14.5v6.7h-26.7V412.4z"></path>
                                    <path fill="#66bbff" d="M-260.6,412.4v-7.3h-16.9v-6l14.1-22.2h10.4v21.5h4.6v6.7h-4.6v7.3H-260.6z M-260.6,383.6l-9.5,14.8h9.5
                                    V383.6z"></path>
                                </g>
                                <g enable-background="new    ">
                                    <path fill="#66bbff" d="M-297.8,437.8v-8.7c0-2-1-2.6-2.6-2.6c-1.4,0-2.6,0.8-3.3,1.7v9.5h-3.7v-19.6h3.7v7.2
                                    c0.9-1.1,2.7-2.2,5-2.2c3.1,0,4.6,1.7,4.6,4.5v10.1L-297.8,437.8L-297.8,437.8z"></path>
                                    <path fill="#66bbff" d="M-291.2,430.8c0-4.1,2.9-7.5,7.5-7.5c4.7,0,7.6,3.4,7.6,7.5c0,4.1-2.9,7.5-7.6,7.5
                                    C-288.4,438.2-291.2,434.8-291.2,430.8z M-280.1,430.8c0-2.2-1.4-4.1-3.7-4.1c-2.3,0-3.7,1.9-3.7,4.1s1.3,4.1,3.7,4.1
                                    C-281.4,434.9-280.1,433-280.1,430.8z"></path>
                                    <path fill="#66bbff" d="M-263.9,437.8V436c-1,1.1-2.7,2.1-5,2.1c-3.1,0-4.6-1.7-4.6-4.5v-10.1h3.7v8.6c0,2,1,2.6,2.6,2.6
                                    c1.4,0,2.6-0.8,3.3-1.6v-9.6h3.7v14.2L-263.9,437.8L-263.9,437.8z"></path>
                                    <path fill="#66bbff" d="M-256.4,437.8v-14.2h3.7v1.9c1-1.3,2.8-2.3,4.5-2.3v3.7c-0.2-0.1-0.6-0.1-1-0.1c-1.3,0-2.9,0.7-3.5,1.6
                                    v9.4L-256.4,437.8L-256.4,437.8z"></path>
                                </g>
                                <circle fill="#FFFFFF" cx="-396.8" cy="370.5" r="2.8"></circle>
                            </g>
                        </svg>