<svg xmlns="http://www.w3.org/2000/svg" xmlns:xlink="http://www.w3.org/1999/xlink" width="22" height="22" viewBox="0 0 22 22"><defs><path id="7h79a" d="M428.1 828.18c0 6-4.8 10.88-10.7 10.88a10.8 10.8 0 0 1-10.7-10.88c0-6 4.8-10.87 10.7-10.87 5.9 0 10.7 4.88 10.7 10.87zm-1.4 0c0-5.2-4.17-9.44-9.3-9.44a9.38 9.38 0 0 0-9.3 9.44c0 5.21 4.18 9.45 9.3 9.45 5.13 0 9.3-4.24 9.3-9.45zm-5.86 2.78a3.48 3.48 0 0 1-2.73 3.42v1.13c0 .4-.32.72-.7.72a.71.71 0 0 1-.71-.72v-1.14a3.43 3.43 0 0 1-2.17-1.5.72.72 0 0 1 .2-.98.7.7 0 0 1 .98.2c.24.37.59.65.99.8v-4.06a3.48 3.48 0 0 1-2.74-3.42 3.48 3.48 0 0 1 2.74-3.42v-1.13c0-.4.31-.72.7-.72.4 0 .7.32.7.72v1.13c.88.2 1.66.72 2.17 1.5.21.33.12.78-.2 1a.7.7 0 0 1-.98-.21 2.03 2.03 0 0 0-.98-.8v4.06a3.48 3.48 0 0 1 2.73 3.42zm-4.14-3.62v-3.86a2.06 2.06 0 0 0 0 3.86zm2.73 3.62c0-.88-.55-1.64-1.32-1.93v3.86a2.06 2.06 0 0 0 1.32-1.93z"/></defs><g><g transform="translate(-406 -817)"><use fill="#12c839" xlink:href="#7h79a"/></g></g></svg>