<svg xmlns="http://www.w3.org/2000/svg" xmlns:xlink="http://www.w3.org/1999/xlink" width="19" height="23" viewBox="0 0 19 23"><defs><path id="l026a" d="M69.75 839.78a.77.77 0 0 1-.5 0c-9.25-3.21-9.1-10.82-9-16.38l.02-1.7c0-.43.35-.78.77-.78 3.3 0 5.82-.95 7.92-3 .3-.29.78-.29 1.08 0 2.1 2.05 4.61 3 7.92 3 .43 0 .77.35.77.77l.02 1.71c.11 5.56.26 13.17-9 16.38zm7.46-16.35l-.02-.98a11.9 11.9 0 0 1-7.69-2.92 11.9 11.9 0 0 1-7.69 2.92l-.02.98c-.1 5.59-.22 11.91 7.71 14.8 7.94-2.9 7.82-9.21 7.7-14.8zm-3.95 2.64c.3.3.3.8 0 1.1l-4.28 4.28a.77.77 0 0 1-1.1 0l-2.13-2.14a.77.77 0 0 1 1.1-1.1l1.58 1.6 3.73-3.74c.3-.3.8-.3 1.1 0z"/></defs><g><g transform="translate(-60 -817)"><use fill="#12c839" xlink:href="#l026a"/></g></g></svg>