<svg xmlns="http://www.w3.org/2000/svg" xmlns:xlink="http://www.w3.org/1999/xlink" width="19" height="19" viewBox="0 0 19 19"><defs><path id="oo50a" d="M64.74 967.7a.82.82 0 0 1-.82.83.82.82 0 0 1-.82-.82.82.82 0 0 1 .82-.83.82.82 0 0 1 .82.83zm3.28-3.32v6.66c0 .46-.37.83-.82.83h-6.55a.83.83 0 0 1-.82-.83v-6.66c0-.46.36-.83.82-.83h6.55c.45 0 .82.37.82.83zm-1.64 5.83v-5h-4.91v5zm8.2-2.5c0 .22-.1.43-.25.59a.82.82 0 0 1-.58.24.82.82 0 0 1-.81-.83c0-.22.08-.44.23-.59a.82.82 0 0 1 .58-.24c.22 0 .43.08.58.24.16.15.24.37.24.59zm3.27-3.33v6.66c0 .46-.37.83-.82.83h-6.55a.83.83 0 0 1-.82-.83v-6.66c0-.46.36-.83.82-.83h6.55c.45 0 .82.37.82.83zm-1.64 5.83v-5H71.3v5zm-11.47 7.49a.82.82 0 0 1-.82.83.82.82 0 0 1-.82-.83c0-.22.1-.43.24-.59a.82.82 0 0 1 .58-.24.82.82 0 0 1 .82.83zm3.28-3.33v6.66c0 .46-.37.83-.82.83h-6.55a.83.83 0 0 1-.82-.83v-6.66c0-.46.36-.83.82-.83h6.55c.45 0 .82.37.82.83zm-1.64 5.83v-5h-4.91v5zm8.74-2.5c0 .46-.37.83-.82.83h-.55a.83.83 0 0 1-.82-.83c0-.46.37-.83.82-.83h.55c.45 0 .82.37.82.83zm2.73 1.66v1.67c0 .46-.37.83-.82.83H74.3a.83.83 0 0 1-.82-.83c0-.46.37-.83.82-.83h1.91v-.84c0-.46.37-.83.82-.83.45 0 .82.37.82.83zm-6.55-1.66v1.1c0 .47-.37.84-.82.84a.83.83 0 0 1-.82-.83v-1.11c0-.46.36-.83.82-.83.45 0 .82.37.82.83zm3.82-3.33c0 .46-.37.83-.82.83h-1.64a.83.83 0 0 1-.82-.83c0-.46.37-.83.82-.83h1.64c.45 0 .82.37.82.83z"/></defs><g><g transform="translate(-59 -963)"><use fill="#12c839" xlink:href="#oo50a"/></g></g></svg>