<svg xmlns="http://www.w3.org/2000/svg" width="29" height="33" viewBox="0 0 29 33"><g><g><path fill="#a5bdd9" d="M4.141 12.73v8.558c0 1.082-.91 1.968-2.026 1.968h-.088c-1.116 0-2.026-.884-2.026-1.968V12.73c0-1.08.91-1.966 2.026-1.966h.088c1.114 0 2.026.886 2.026 1.966zm.971-1.652h18.775v13.513c0 .994-.837 1.804-1.86 1.804h-1.993v4.623c0 1.085-.911 1.969-2.028 1.969h-.085c-1.115 0-2.03-.883-2.03-1.97v-4.622h-2.782v4.623c0 1.085-.913 1.969-2.03 1.969h-.087c-1.114 0-2.027-.883-2.027-1.97v-4.622h-1.99c-1.025 0-1.863-.81-1.863-1.804zM23.95 9.726c0 .18-.01.358-.026.534H5.077a5.998 5.998 0 0 1-.027-.534c0-2.931 1.923-5.486 4.776-6.843L8.244.517a.32.32 0 0 1 .099-.45.34.34 0 0 1 .466.095l1.636 2.45a10.974 10.974 0 0 1 4.055-.764c1.45 0 2.824.274 4.053.763l1.639-2.45a.34.34 0 0 1 .465-.094c.156.097.201.3.099.45l-1.58 2.366c2.85 1.357 4.775 3.912 4.774 6.843zM11.038 6.243a.89.89 0 0 0-.907-.877c-.5 0-.908.39-.908.877s.407.879.908.879a.892.892 0 0 0 .907-.88zm8.737 0a.89.89 0 0 0-.906-.877c-.5 0-.907.39-.907.877s.407.879.907.879a.89.89 0 0 0 .906-.88zm9.223 6.487v8.558c0 1.082-.91 1.968-2.027 1.968h-.085c-1.116 0-2.03-.884-2.03-1.968V12.73c0-1.08.914-1.966 2.03-1.966h.085c1.116 0 2.027.886 2.027 1.966z"/></g></g></svg>