<?xml version="1.0" encoding="UTF-8"?>
<!DOCTYPE svg PUBLIC "-//W3C//DTD SVG 1.1//EN" "http://www.w3.org/Graphics/SVG/1.1/DTD/svg11.dtd">
<!-- Creator: CorelDRAW 2019 (64-Bit) -->
<svg xmlns="http://www.w3.org/2000/svg" xml:space="preserve" width="300.86mm" height="49.449mm" version="1.1" style="shape-rendering:geometricPrecision; text-rendering:geometricPrecision; image-rendering:optimizeQuality; fill-rule:evenodd; clip-rule:evenodd"
viewBox="0 0 15797.16 2596.4"
 xmlns:xlink="http://www.w3.org/1999/xlink">
 <defs>
  <style type="text/css">
   <![CDATA[
    .fil1 {fill:#FF6600}
    .fil2 {fill:#FF9933}
    .fil0 {fill:#FFCC00}
    .fil3 {fill:white}
    .fil4 {fill:white;fill-rule:nonzero}
   ]]>
  </style>
 </defs>
 <g id="Слой_x0020_1">
  <metadata id="CorelCorpID_0Corel-Layer"/>
  <path class="fil0" d="M2270.08 2263.23c26.14,42.75 72.63,68.82 122.74,68.82 36.21,0 67.75,-7.42 94.33,-32.01 -230.22,191.74 -517.33,296.35 -813.41,296.35 -421.15,0 -815.94,-211.16 -1058.18,-565.99l-615.57 -1067.85 1134.97 0c217.9,0 419.04,116.92 526.9,306.26l608.22 994.42z"/>
  <path class="fil1" d="M2135.43 505.73l-1108.6 1912.1c196.68,116.98 419.79,178.57 646.91,178.57 431.03,0 833.75,-221.13 1074,-589.71l1152.52 -2005.13 -906.95 -1.56c-356.66,0 -685.18,193.67 -857.87,505.73z"/>
  <path class="fil2" d="M1677.85 1294.96l-651.01 1122.87 0.25 0.15 1.44 0.85c4.56,2.7 9.13,5.36 13.7,8l2.24 1.3c4.68,2.68 9.37,5.32 14.09,7.94l3.44 1.92c4.75,2.63 9.53,5.23 14.32,7.8l2.47 1.33c5.08,2.7 10.18,5.39 15.3,8.03l1.72 0.89c5.16,2.65 10.32,5.28 15.51,7.85l0.56 0.28 0.2 0.11c4.95,2.46 9.91,4.87 14.9,7.26l3.27 1.58c4.79,2.29 9.61,4.54 14.43,6.76l3.46 1.6c4.71,2.15 9.44,4.29 14.17,6.39l3.84 1.7c4.71,2.07 9.41,4.11 14.15,6.12l4.16 1.75c4.77,2.01 9.56,3.99 14.34,5.94l3.55 1.42 12.42 4.94 5.37 2.08c4.03,1.55 8.08,3.09 12.13,4.6l5.57 2.08c4.13,1.52 8.26,3.01 12.41,4.49l6.47 2.3c4.22,1.49 8.45,2.94 12.69,4.37l6.29 2.11c4.22,1.41 8.44,2.8 12.68,4.16l6.13 1.95 11.37 3.54 6.36 1.92 11.45 3.37 7.72 2.21 9.73 2.71 9.63 2.6 9.67 2.53 8 2.03 11.62 2.85 8.03 1.9 11.41 2.6 7.49 1.65 8.93 1.9 10.8 2.21 8.72 1.72 10.28 1.94 9.75 1.76 6.52 1.13c4.34,0.74 8.68,1.46 13.03,2.15l7.01 1.1c4.46,0.69 8.91,1.35 13.38,1.99l5.79 0.82c4.77,0.66 9.54,1.3 14.31,1.9l5.56 0.69 12.85 1.51 5.73 0.63c4.3,0.46 8.6,0.9 12.9,1.32l6.38 0.6c4.67,0.43 9.34,0.82 14.01,1.21l4.16 0.34c5.21,0.4 10.43,0.76 15.66,1.1l4.2 0.27c5.3,0.33 10.59,0.61 15.89,0.87l4.12 0.19c5.43,0.25 10.9,0.47 16.35,0.65l2.58 0.07c5.74,0.17 11.49,0.3 17.25,0.4l2.55 0.04c6.01,0.08 12.01,0.14 18.04,0.14 6.03,0 12.05,-0.06 18.07,-0.15l4.78 -0.08c4.93,-0.09 9.84,-0.2 14.76,-0.35l3.47 -0.09c5.67,-0.18 11.34,-0.42 17,-0.68l5.92 -0.29c4.35,-0.22 8.68,-0.48 13.03,-0.74l4.71 -0.28c5.64,-0.37 11.28,-0.78 16.91,-1.22l5.66 -0.47 11.8 -1.04 6.59 -0.61c5.38,-0.52 10.75,-1.09 16.11,-1.69l5.82 -0.67 10.95 -1.32 7.76 -0.98c3.6,-0.47 7.19,-0.96 10.79,-1.47 4.35,-0.6 8.68,-1.24 13.03,-1.9l7.29 -1.11 10.08 -1.62 5.81 -0.99c6.11,-1.03 12.19,-2.12 18.28,-3.24l5.56 -1.02 10.03 -1.95 6.84 -1.38 9.03 -1.86c4.47,-0.94 8.95,-1.92 13.42,-2.91l0.39 -0.09 9.96 -2.27 6.21 -1.46 10.1 -2.43 0.07 -0.02c4.44,-1.1 8.88,-2.2 13.31,-3.34l0.06 -0.02 8.19 -2.16 8.23 -2.2 8.71 -2.39 8.46 -2.4c4.45,-1.28 8.89,-2.58 13.32,-3.9l8.07 -2.44 8.99 -2.79 7 -2.23c4.09,-1.31 8.18,-2.64 12.26,-3.99l10.67 -3.59 7.44 -2.58 8.81 -3.11 7.15 -2.56c4.89,-1.77 9.77,-3.59 14.63,-5.43l6.16 -2.36 10.34 -4.02 6.08 -2.4c5.02,-2.01 10.03,-4.05 15.03,-6.12l4.48 -1.88c3.89,-1.63 7.78,-3.28 11.65,-4.95l5.47 -2.37c5.05,-2.21 10.1,-4.44 15.12,-6.71l0.51 -0.23 0.09 -0.05c5.21,-2.35 10.4,-4.76 15.57,-7.19l4.7 -2.22c4.6,-2.18 9.19,-4.38 13.76,-6.61l2.04 -1c5.31,-2.61 10.6,-5.26 15.87,-7.94l3.83 -1.96c4.17,-2.14 8.32,-4.3 12.47,-6.47l3.63 -1.91c5.2,-2.75 10.37,-5.54 15.53,-8.37l2.91 -1.62c4.15,-2.29 8.28,-4.6 12.41,-6.94l4.59 -2.6c5.02,-2.87 10.03,-5.77 15.02,-8.71l0.1 -0.06c5.11,-3.01 10.18,-6.08 15.25,-9.15l3.7 -2.27c4.43,-2.73 8.85,-5.47 13.25,-8.24l2.05 -1.28c4.95,-3.14 9.88,-6.31 14.79,-9.51l3.83 -2.51c3.92,-2.58 7.84,-5.18 11.74,-7.8l3.49 -2.35c4.76,-3.22 9.5,-6.48 14.23,-9.77l3.69 -2.6c3.57,-2.51 7.13,-5.02 10.67,-7.57l4.96 -3.58c3.45,-2.5 6.89,-5.03 10.32,-7.57l6.51 -4.85c3.57,-2.67 7.11,-5.36 10.65,-8.07l4.69 -3.62 9.67 -7.55 4.88 -3.86c3.87,-3.08 7.73,-6.19 11.57,-9.32 -24.24,17.67 -52.23,23.3 -83.74,23.3 -50.11,0 -96.6,-26.07 -122.74,-68.82l-592.23 -968.27zm-582.04 1161.07c5.16,2.65 10.32,5.28 15.51,7.85z"/>
  <path class="fil3" d="M3108.79 94.69c-495.28,-41.41 -775.47,145.93 -940.92,558.05 208.19,-320.95 472.6,-521.54 940.92,-558.05z"/>
  <path class="fil3" d="M1938.13 2483.99c-456.09,106.15 -774.2,-4.46 -1045.78,-321.05 294.41,224.36 603.68,348.94 1045.78,321.05z"/>
  <path class="fil4" d="M4490.62 2284.18l442.7 0c261.17,0 453.81,-142.63 453.81,-372.31 0,-142.63 -101.88,-277.85 -290.81,-307.49l0 -3.7c131.51,-25.93 237.1,-125.96 237.1,-263.03 0,-222.28 -190.79,-316.75 -451.97,-316.75l-390.84 0 0 1263.28zm564.96 -400.1c0,107.43 -66.68,163 -172.26,163l-85.21 0 0 -316.75 85.21 0c107.43,0 172.26,66.68 172.26,153.74zm-46.31 -513.09c0,83.35 -33.34,133.37 -138.92,133.37l-72.24 0 0 -251.91 62.98 0c103.73,0 148.18,50.01 148.18,118.54zm540.88 913.2l313.04 0 0 -887.26 -313.04 0 0 887.26zm0 -1055.82l313.04 0 0 -279.7 -313.04 0 0 279.7zm527.91 1055.82l313.04 0 0 -466.78c0,-114.84 66.68,-174.12 144.48,-174.12 81.51,0 131.52,51.87 131.52,155.59l0 485.31 313.04 0 0 -503.83c0,-257.47 -111.14,-411.21 -333.42,-411.21 -103.73,0 -203.76,46.31 -253.77,138.92l-7.41 0 0 -111.14 -307.48 0 0 887.26zm1291.06 0l333.42 0 0 -979.88 283.4 0 0 -283.4 -900.23 0 0 283.4 283.4 0 0 979.88zm1289.22 -903.93c-25.93,-5.56 -46.31,-7.41 -85.21,-7.41 -120.4,0 -213.01,72.24 -272.29,175.97l-9.26 0 0 -151.89 -301.93 0 0 887.26 313.04 0 0 -407.51c0,-120.4 57.42,-214.87 218.57,-214.87 57.43,0 101.88,5.56 137.07,11.11l0 -292.67zm1009.51 16.67l-296.37 0 0 105.59 -11.12 0c-40.75,-66.68 -116.7,-127.81 -242.65,-127.81 -201.9,0 -398.25,172.26 -398.25,464.93 0,363.06 242.65,474.19 374.17,474.19 140.78,0 213.02,-61.12 266.73,-135.22l11.12 0 0 105.58 296.37 0 0 -887.26zm-631.64 444.56c0,-100.03 55.57,-201.9 170.42,-201.9 92.62,0 163,81.5 163,203.76 0,118.55 -75.95,200.05 -163,200.05 -118.55,0 -170.42,-94.47 -170.42,-201.9zm1741.18 -890.96l-303.78 0 0 533.47 -9.26 0c-46.31,-66.68 -118.55,-116.7 -229.68,-116.7 -205.61,0 -405.66,179.67 -405.66,472.34 0,363.06 246.36,476.05 374.17,476.05 129.67,0 214.87,-61.12 266.73,-114.84l9.26 0 0 83.35 298.23 0 0 -1333.67zm-631.64 890.96c0,-100.03 55.57,-209.31 170.42,-209.31 92.62,0 163,88.91 163,211.17 0,118.55 -75.95,201.9 -163,201.9 -118.55,0 -170.42,-96.32 -170.42,-203.76zm1259.58 -474.19c-303.78,0 -466.78,211.17 -466.78,470.49 0,296.37 218.57,477.89 474.19,477.89 248.21,0 383.43,-133.37 440.86,-305.63l-288.96 0c-25.93,50.01 -79.65,83.35 -146.33,83.35 -101.88,0 -179.68,-81.5 -179.68,-181.53l622.38 0c3.7,-33.34 3.7,-51.87 3.7,-74.09 0,-279.7 -187.08,-470.49 -459.38,-470.49zm-3.7 201.9c90.76,0 151.89,61.12 161.15,144.48l-322.3 0c9.26,-77.79 66.68,-144.48 161.15,-144.48zm1242.9 -589.04c-368.61,0 -652.01,281.56 -652.01,668.69 0,387.14 263.03,676.1 652.01,676.1 309.34,0 489.02,-157.45 598.3,-388.98l-174.12 0c-66.68,150.04 -209.31,251.92 -416.77,251.92 -292.67,0 -500.13,-235.25 -500.13,-537.17 0,-348.23 238.95,-533.47 490.87,-533.47 207.46,0 346.38,98.17 407.51,227.84l174.12 0c-68.54,-161.15 -231.54,-364.91 -579.78,-364.91zm820.58 1304.03l146.33 0 0 -1333.67 -146.33 0 0 1333.67zm1146.58 -887.26l-146.33 0 0 474.2c0,205.61 -96.32,311.19 -248.21,311.19 -129.67,0 -214.87,-98.17 -214.87,-277.84l0 -507.54 -146.33 0 0 518.65c0,300.08 181.53,400.1 337.12,400.1 92.62,0 190.79,-35.2 268.58,-140.78l3.71 0 0 109.29 146.33 0 0 -887.26zm255.62 887.26l146.33 0 0 -118.55 3.71 0c64.83,77.8 175.97,150.04 337.12,150.04 227.84,0 442.7,-187.08 442.7,-476.05 0,-268.59 -196.34,-472.34 -446.41,-472.34 -179.68,0 -274.14,85.21 -333.42,155.59l-3.71 0 0 -572.36 -146.33 0 0 1333.67zm777.97 -444.56c0,170.42 -107.43,346.39 -322.3,346.39 -170.42,0 -322.3,-138.93 -322.3,-340.83 0,-211.17 140.78,-350.09 318.6,-350.09 218.57,0 326,172.26 326,344.53z"/>
 </g>
</svg>
