<svg xmlns="http://www.w3.org/2000/svg" xmlns:xlink="http://www.w3.org/1999/xlink" width="66" height="68" viewBox="0 0 66 68"><defs><path id="a" d="M117.2 1538.22h2.83v2.81h-2.82zm4.24 0h2.82v2.81h-2.82zm4.23 0h2.82v2.81h-2.82zm45.13 36.78v9.62c0 2.33-1.9 4.22-4.23 4.22h-18.33v3.5a8.32 8.32 0 0 1 5.5 6.34h2.96v2.81h-33.85v-2.8h2.96a8.32 8.32 0 0 1 5.5-6.35v-3.5h-18.33a4.22 4.22 0 0 1-4.23-4.22v-32.35c0-2.33 1.9-4.22 4.23-4.22v-12.65c0-.78.63-1.41 1.4-1.41h35.27c.78 0 1.4.63 1.4 1.4v12.66h15.52a4.23 4.23 0 0 1 4.23 4.22v8.22a10.74 10.74 0 0 1 0 14.5zm-19.74-18.5a18.26 18.26 0 0 1 7.05-1.41c3.5-.04 6.94.97 9.87 2.9v-5.72c0-.77-.63-1.4-1.4-1.4h-15.52zm-35.26-14.07h32.44v-5.63h-32.44zm0 19.69h28.43a13.54 13.54 0 0 1 4-4.14v-12.74h-32.43zm28.2 32.34v-2.81h1.42v-2.81h-11.29v2.81h5.65v2.81h-4.24c-4.8 0-6.33 2.53-6.82 4.22h22.11c-.5-1.69-2.01-4.22-6.82-4.22zm23.98-9.84v-7.12a17.68 17.68 0 0 1-9.87 2.9h-14.1a1.4 1.4 0 0 1-.99-2.4l2.68-2.68a11.23 11.23 0 0 1-3.1-7.58c0-.95.13-1.9.4-2.81h-28.61a1.4 1.4 0 0 1-1.41-1.4v-12.66a1.4 1.4 0 0 0-1.41 1.4v32.35c0 .78.63 1.4 1.4 1.4h53.6a1.4 1.4 0 0 0 1.41-1.4zm2.82-16.88c0-5.43-5.64-9.84-12.7-9.84-7.04 0-12.68 4.41-12.68 9.84a8.71 8.71 0 0 0 3.33 6.58c.54.57.5 1.46-.06 1.99l-1.29 1.28h8.8c.12-.02.26-.02.39 0h1.52c7.05 0 12.7-4.42 12.7-9.85zm-21.15-1.4h11.28v2.8h-11.28zm14.1 0h2.82v2.8h-2.82zm-46.54 14.06h4.23v2.81h-5.64a1.4 1.4 0 0 1-1.41-1.4v-5.63h2.82zm5.64-30.94h18.34v2.81h-18.34zm0 5.63h18.34v2.8h-18.34z"/><linearGradient id="b" x1="140.75" x2="141.63" y1="1534" y2="1601.5" gradientUnits="userSpaceOnUse"><stop offset="0" stop-color="#508ab3"/><stop offset="1" stop-color="#883759"/></linearGradient></defs><g transform="translate(-108 -1534)"><use xlink:href="#a"/><use fill="url(#b)" xlink:href="#a"/></g></svg>