<svg width="22" height="21" viewBox="0 0 22 21" fill="none" xmlns="http://www.w3.org/2000/svg">
<path d="M11.4352 0C8.63443 0 5.94841 1.07052 3.968 2.97606C1.98758 4.88159 0.875 7.46605 0.875 10.1609C0.875 12.8557 1.98758 15.4402 3.968 17.3457C5.94841 19.2513 8.63443 20.3218 11.4352 20.3218C14.2359 20.3218 16.9219 19.2513 18.9023 17.3457C20.8827 15.4402 21.9953 12.8557 21.9953 10.1609C21.9953 7.46605 20.8827 4.88159 18.9023 2.97606C16.9219 1.07052 14.2359 0 11.4352 0ZM11.4352 17.7816C9.8687 17.7816 8.33743 17.3346 7.03497 16.4972C5.73252 15.6599 4.71738 14.4697 4.11792 13.0772C3.51847 11.6847 3.36162 10.1524 3.66722 8.67417C3.97282 7.19591 4.72714 5.83803 5.83479 4.77226C6.94244 3.70649 8.35367 2.9807 9.89002 2.68665C11.4264 2.39261 13.0188 2.54352 14.4661 3.12031C15.9133 3.6971 17.1502 4.67386 18.0205 5.92707C18.8908 7.18029 19.3553 8.65366 19.3553 10.1609C19.3553 12.182 18.5208 14.1204 17.0355 15.5495C15.5502 16.9787 13.5357 17.7816 11.4352 17.7816ZM14.9354 6.56224L16.801 8.35733L10.2691 14.6507L6.06708 10.6097L7.9327 8.81457L10.2691 11.0584L14.9354 6.56224Z" fill="#FAEC0D"/>
</svg>
