<svg xmlns="http://www.w3.org/2000/svg" width="55" height="55" viewBox="0 0 55 55"><g><g><path fill="#bc0000" d="M55 35.752C55 46.365 46.364 55 35.75 55h-16.5C8.635 55 0 46.365 0 35.752c0-.508.41-.917.917-.917h53.166c.507 0 .917.41.917.917zm-1.857.916H1.857c.479 9.178 8.097 16.499 17.393 16.499h16.5c9.296 0 16.914-7.32 17.393-16.5zm-7.466-21.234a3.644 3.644 0 0 1-2.18 1.048c.355.6.542 1.305.502 2.051-.184 1.996-1.868 3.525-3.837 3.471h-1.238c.313.54.492 1.166.492 1.833a3.669 3.669 0 0 1-3.666 3.665H20.545l-5.229 5.229-1.296-1.296 5.23-5.23V12.992c-.033-1.952 1.475-3.636 3.436-3.818a3.655 3.655 0 0 1 2.064.482V8.409c-.033-1.952 1.475-3.636 3.435-3.818a3.643 3.643 0 0 1 2.065.486V3.672A3.664 3.664 0 0 1 34.113.006a3.826 3.826 0 0 1 3.266 2.553l1.127-1.144a4.819 4.819 0 0 1 7.117.345 4.908 4.908 0 0 1-.405 6.572L44.181 9.37a3.806 3.806 0 0 1 2.565 3.237 3.643 3.643 0 0 1-1.07 2.828zm-.757-2.593l-.002-.1c-.09-.965-.94-1.737-1.942-1.737h-.81a.917.917 0 0 1-.647-1.564l2.41-2.411a3.078 3.078 0 0 0 .27-4.118c-1.035-1.254-2.915-1.436-4.184-.393-.072.06-.142.123-.21.19L37.32 5.232a.915.915 0 0 1-1.57-.643v-.761a1.962 1.962 0 0 0-1.77-1.994c-.994-.05-1.84.726-1.893 1.736l-.002.102v4.583a.917.917 0 0 1-.917.916h-.001a.916.916 0 0 1-.916-.917V8.25c0-1.01-.821-1.83-1.831-1.832l-.1.002c-.974.092-1.753.96-1.736 1.975v4.443a.917.917 0 0 1-.916.916h-.001a.916.916 0 0 1-.916-.917v-.006c-.001-1.008-.821-1.83-1.83-1.83l-.1.002c-.975.092-1.754.96-1.737 1.974v11.396l1.832-1.832V16.5h1.833v4.208l3.667-3.666v-5.116h1.833v3.282l3.667-3.666V7.342h1.833v2.366l3.938-3.938 1.296 1.297-3.942 3.942h2.375v1.833h-4.209l-3.657 3.657h3.282v1.833h-5.115L26.049 22h4.199v1.833h-6.032l-1.839 1.838H35.75a1.835 1.835 0 0 0 1.833-1.833 1.835 1.835 0 0 0-1.833-1.834.916.916 0 1 1 0-1.833h4.427c1.043.021 1.9-.76 1.993-1.77.052-.974-.726-1.84-1.736-1.893l-.1-.003a.917.917 0 1 1 0-1.833h2.752c.49 0 .95-.19 1.296-.535.347-.345.537-.806.538-1.295zm-28.783-2.94l-.811.633v.47a4.588 4.588 0 0 1-4.583 4.583 4.589 4.589 0 0 1-4.583-4.583v-.47l-.772-.602a4.21 4.21 0 0 1-.78-.594A4.191 4.191 0 0 1 3.32 6.38 4.185 4.185 0 0 1 4.5 3.376a4.221 4.221 0 0 1 5.912-.155l.318.228.33-.251a4.23 4.23 0 0 1 6.046 1.037c0 .002.003.004.004.006a4.22 4.22 0 0 1-.973 5.66zM15.58 5.25a2.377 2.377 0 0 0-1.52-1.015 2.38 2.38 0 0 0-1.796.357l-.966.726a.916.916 0 0 1-1.09.014l-.917-.66a.952.952 0 0 1-.1-.083 2.373 2.373 0 0 0-1.654-.667c-.625 0-1.25.243-1.716.727a2.367 2.367 0 0 0-.668 1.698 2.369 2.369 0 0 0 1.204 2.028.865.865 0 0 1 .11.074l1.174.916c.223.174.352.44.352.723v.916a2.753 2.753 0 0 0 2.75 2.75 2.753 2.753 0 0 0 2.75-2.75v-.916c0-.283.13-.55.352-.723l1.174-.916c.999-.76 1.24-2.16.56-3.2zM20.165.917h1.833V2.75h-1.833zm5.5 29.33h1.833v1.834h-1.833zM53.167 9.172a3.67 3.67 0 0 1-3.667 3.666v-1.833a1.835 1.835 0 0 0 1.833-1.833A1.835 1.835 0 0 0 49.5 7.338V5.505a3.67 3.67 0 0 1 3.667 3.666zM1.832 13.758h1.833v1.834H1.832zM0 10.092h1.833v1.833H0zm39.417 22.91h-1.834a1.835 1.835 0 0 0-1.833-1.834 1.835 1.835 0 0 0-1.833 1.833h-1.834a3.67 3.67 0 0 1 3.667-3.666 3.67 3.67 0 0 1 3.667 3.666zm-24.75-8.25A3.67 3.67 0 0 1 11 28.42h-.917v2.75c0 .506-.41.916-.916.916H5.5a.916.916 0 0 1-.917-.917v-2.75h-.916A3.67 3.67 0 0 1 0 24.753a3.67 3.67 0 0 1 3.667-3.666h.115a3.674 3.674 0 0 1 3.551-2.75 3.674 3.674 0 0 1 3.552 2.75H11a3.67 3.67 0 0 1 3.667 3.666zm-1.833.001A1.835 1.835 0 0 0 11 22.92h-.917a.917.917 0 0 1-.916-.917 1.835 1.835 0 0 0-1.834-1.833A1.835 1.835 0 0 0 5.5 22.003c0 .506-.41.917-.917.917h-.916a1.835 1.835 0 0 0-1.834 1.833c0 1.011.823 1.833 1.834 1.833H11a1.835 1.835 0 0 0 1.834-1.833zM8.25 30.252v-1.833H6.417v1.833zm43.083-3.667a2.753 2.753 0 0 1-2.75 2.75 2.753 2.753 0 0 1-2.75-2.75 2.753 2.753 0 0 1 2.75-2.75 2.753 2.753 0 0 1 2.75 2.75zm-1.833.001a.917.917 0 1 0-1.834 0 .917.917 0 0 0 1.834 0zm5.5 0A6.424 6.424 0 0 1 48.583 33a6.424 6.424 0 0 1-6.416-6.416 6.424 6.424 0 0 1 6.416-6.416A6.424 6.424 0 0 1 55 26.585zm-1.833 0a4.588 4.588 0 0 0-4.584-4.583A4.588 4.588 0 0 0 44 26.586a4.589 4.589 0 0 0 4.583 4.583 4.588 4.588 0 0 0 4.584-4.583z"/></g></g></svg>