<svg xmlns="http://www.w3.org/2000/svg" width="62" height="46" viewBox="0 0 62 46"><g><g><path fill="#bc0000" d="M29.967 46H9.3C4.173 46 0 41.78 0 36.59V32.41a1.04 1.04 0 0 1 1.033-1.046H40.906l3.83-3.875c.193-.197.456-.307.73-.307H58.9c1.71 0 3.1 1.408 3.1 3.137s-1.39 3.136-3.1 3.136H46.928l-3.83 3.876a1.024 1.024 0 0 1-.731.306H39.21C38.694 42.334 34.746 46 29.967 46zM37.2 33.454H2.067v3.137c0 4.034 3.244 7.318 7.233 7.318h20.667c3.987 0 7.233-3.284 7.233-7.318zm22.733-3.136a1.04 1.04 0 0 0-1.033-1.046H45.895l-3.831 3.876a1.023 1.023 0 0 1-.73.306h-2.067v2.091h2.672l3.83-3.875c.194-.197.456-.307.73-.307h12.4a1.04 1.04 0 0 0 1.034-1.045zM37.2 19.863c0 .355-.025.704-.074 1.046h2.746l3.83-3.876c.194-.196.456-.306.731-.306h10.334c.57 0 1.033-.47 1.033-1.046a1.04 1.04 0 0 0-1.033-1.045h-10.94l-3.83 3.876a1.023 1.023 0 0 1-.73.306H37.2zm-7.233 7.318h-18.6c-3.989 0-7.234-3.283-7.234-7.318v-2.09a1.04 1.04 0 0 1 1.034-1.046h33.672l3.83-3.876c.194-.196.456-.306.73-.306h11.368c1.709 0 3.1 1.407 3.1 3.136 0 1.73-1.391 3.137-3.1 3.137H44.86l-3.83 3.875A1.023 1.023 0 0 1 40.3 23H36.5c-1.163 2.47-3.655 4.181-6.534 4.181zm5.166-7.318v-1.045H6.2v1.045c0 2.883 2.318 5.228 5.167 5.228h18.6c2.849 0 5.166-2.345 5.166-5.228zM29.967 11.5H13.433c-2.849 0-5.166-2.345-5.166-5.228V3.136A1.04 1.04 0 0 1 9.3 2.091h27.472L38.536.306c.193-.197.456-.306.73-.306h11.367c1.71 0 3.1 1.407 3.1 3.136 0 1.73-1.39 3.136-3.1 3.136h-9.905l-1.764 1.785a1.023 1.023 0 0 1-.73.306h-3.532c-.799 1.845-2.62 3.137-4.735 3.137zm3.1-5.228v-2.09H10.332v2.09c0 1.73 1.391 3.137 3.1 3.137h16.534c1.709 0 3.1-1.407 3.1-3.137zm4.738 0l1.764-1.784c.194-.197.456-.307.731-.307h10.333c.57 0 1.034-.469 1.034-1.045a1.04 1.04 0 0 0-1.034-1.046H39.694L37.93 3.875a1.022 1.022 0 0 1-.73.306h-2.067v2.091z"/></g></g></svg>