<svg xmlns="http://www.w3.org/2000/svg" xmlns:xlink="http://www.w3.org/1999/xlink" width="172" height="176" viewBox="0 0 172 176"><defs><path id="thywa" d="M249 2613.43v87.98c0 6.98-5.72 12.66-12.74 12.66h-41.44l4.72 5.04h7.12a2.95 2.95 0 0 1 2.96 2.95 2.95 2.95 0 0 1-2.96 2.94h-87.32a2.95 2.95 0 0 1-2.96-2.94 2.95 2.95 0 0 1 2.96-2.95h7.12l4.72-5.04H89.74A12.72 12.72 0 0 1 77 2701.41v-87.98c0-6.98 5.72-12.67 12.74-12.67h36.44a38.26 38.26 0 0 1-2.23-12.95c0-21.4 17.52-38.81 39.05-38.81 21.53 0 39.05 17.41 39.05 38.81 0 4.48-.75 8.82-2.23 12.95h36.44c7.02 0 12.74 5.69 12.74 12.67zm-5.92 84.73v-81.48h-23.62c.5 3.07.76 6.19.76 9.3 0 31.37-25.67 56.89-57.22 56.89-31.55 0-57.23-25.52-57.23-56.88 0-3.12.26-6.24.77-9.3H82.92v81.47zm-77.12-68.67v14.72a7.9 7.9 0 0 0 5-7.36 7.85 7.85 0 0 0-5-7.36zm-5.92-12.8h-4.86a7.85 7.85 0 0 0 4.86 5.79zm-10.84 0h-22.04c-.79 3.02-1.2 6.14-1.2 9.3 0 20.3 16.62 36.8 37.04 36.8 20.42 0 37.03-16.5 37.03-36.8 0-3.16-.4-6.28-1.2-9.3h-32.87v6.67c2.58.55 4.95 1.83 6.86 3.73a13.67 13.67 0 0 1 4.07 9.76c0 3.7-1.45 7.16-4.07 9.77a13.77 13.77 0 0 1-6.86 3.72v2.4a2.95 2.95 0 0 1-2.96 2.95 2.95 2.95 0 0 1-2.96-2.94v-2.4a13.82 13.82 0 0 1-10.93-13.5 2.95 2.95 0 0 1 2.96-2.94 2.95 2.95 0 0 1 2.96 2.94 7.85 7.85 0 0 0 5.01 7.36v-15.6a13.8 13.8 0 0 1-10.84-11.93zm-29.16 9.3c0-3.15.36-6.27 1.04-9.3h-8.53a51.15 51.15 0 0 0-.86 9.3c0 28.12 23.02 51 51.31 51 28.29 0 51.3-22.88 51.3-51 0-3.13-.29-6.25-.85-9.3h-8.53a42.56 42.56 0 0 1 1.03 9.3c0 23.54-19.27 42.69-42.95 42.69-23.69 0-42.96-19.15-42.96-42.7zm12.49-25.23h3.93c-1.98-4-3.02-8.39-3.02-12.95a29.5 29.5 0 0 1 29.56-29.38 29.5 29.5 0 0 1 29.56 29.38 29 29 0 0 1-3.02 12.95h3.93a32.38 32.38 0 0 0 2.66-12.95c0-18.16-14.86-32.93-33.13-32.93-18.27 0-33.13 14.77-33.13 32.93 0 4.52.9 8.87 2.66 12.95zm27.9-24.09a4.67 4.67 0 0 0 0 7.83zm7.27 18.37c0-1.64-.85-3.08-2.14-3.92v7.83a4.67 4.67 0 0 0 2.14-3.91zm5.13 0c0 2.14-.7 4.11-1.87 5.72h11.76a23.16 23.16 0 0 0 3.92-12.95 23.6 23.6 0 0 0-23.64-23.5 23.6 23.6 0 0 0-23.64 23.5c0 4.67 1.35 9.12 3.92 12.95h11.76a9.68 9.68 0 0 1-1.87-5.72c0-1.41 1.14-2.55 2.56-2.55a2.56 2.56 0 0 1 2.56 2.55c0 1.64.86 3.08 2.15 3.91v-8.93a9.8 9.8 0 0 1-7.27-9.43 9.8 9.8 0 0 1 7.27-9.44v-1.14a2.56 2.56 0 1 1 5.13 0v1.14a9.8 9.8 0 0 1 7.26 9.44 2.56 2.56 0 1 1-5.13 0c0-1.64-.85-3.08-2.14-3.92v8.93a9.8 9.8 0 0 1 7.27 9.44zm-89.38 15.76h159.1a6.84 6.84 0 0 0-6.3-4.15H89.76a6.84 6.84 0 0 0-6.3 4.15zm103.3 103.27h-47.5l-4.7 5.04h56.9zm55.8-10.03H83.45a6.84 6.84 0 0 0 6.3 4.15h146.5a6.84 6.84 0 0 0 6.3-4.15z"/><linearGradient id="thywb" x1="161" x2="165" y1="2549" y2="2725" gradientUnits="userSpaceOnUse"><stop offset="0" stop-color="#508ab3"/><stop offset="1" stop-color="#883759"/></linearGradient></defs><g><g transform="translate(-77 -2549)"><use xlink:href="#thywa"/><use fill="url(#thywb)" xlink:href="#thywa"/></g></g></svg>