<svg xmlns="http://www.w3.org/2000/svg" xmlns:xlink="http://www.w3.org/1999/xlink" width="119" height="105" viewBox="0 0 119 105"><defs><path id="a" d="M165 699.05a1.73 1.73 0 0 1-2.31.77c-2.73-1.35-8.37-1.65-10.31-1.65-.96 0-1.73-.77-1.73-1.71 0-.95.77-1.71 1.73-1.71.32 0 7.84.02 11.85 2a1.7 1.7 0 0 1 .78 2.3zm-16.43 32.17v12.81c0 .95-.78 1.71-1.73 1.71-.96 0-1.73-.76-1.73-1.7v-12.82c0-.94.77-1.7 1.73-1.7.95 0 1.73.76 1.73 1.7zm56.7-37.19a5.36 5.36 0 0 1-1.43 5.1l-31.45 31.16a5.55 5.55 0 0 0-1.66 3.96v9.78c0 .95-.77 1.71-1.73 1.71-.95 0-1.73-.76-1.73-1.7v-9.79c0-2.4.95-4.68 2.67-6.38l28.02-27.75-2.43-2.41-24.27 22.77a5.43 5.43 0 0 1-3.73 1.48h-.37c-.87 0-1.7-.2-2.42-.57l-.06.07-1.62 1.6a7.28 7.28 0 0 1-5.14 2.1c-1.86 0-3.72-.7-5.14-2.1l-1.11-1.1c-.45.3-.96.54-1.5.69l-6.23 1.76a3.8 3.8 0 0 0-2.76 3.63v16c0 .94-.78 1.7-1.73 1.7-.96 0-1.73-.76-1.73-1.7v-16c0-3.2 2.17-6.04 5.27-6.92l6.23-1.76c.84-.24 1.43-1.01 1.43-1.88v-1.54a13.31 13.31 0 0 1-5.54-10.8v-2.79l-.89-1.75a9 9 0 0 1-.96-4.04v-.1c0-5.99 4.92-10.86 10.97-10.86h16.62c.95 0 1.73.76 1.73 1.71v8.82c0 1.68-.4 3.36-1.16 4.86l-.69 1.36v3.26a12.53 12.53 0 0 1-5.54 10.44v.54c0 1.07.88 1.94 1.96 1.94h.38c.5 0 .98-.19 1.35-.53l34.03-31.93c.69-.65 1.78-.62 2.44.06a1.7 1.7 0 0 1-.07 2.42l-1.13 1.07zm-42.97 24.95c-.2-.4-.36-.84-.45-1.29a12.95 12.95 0 0 1-4.32.6 12.2 12.2 0 0 1-3.43-.6 5.29 5.29 0 0 1-.3 1.55l1.42 1.4a3.84 3.84 0 0 0 5.4 0l1.62-1.6.06-.06zm4.97-13.37v-3.66c0-.27.07-.53.19-.77l.87-1.73c.52-1.02.8-2.17.8-3.32v-7.1h-14.9a7.48 7.48 0 0 0-7.51 7.43v.1c0 .87.2 1.73.6 2.5l1.06 2.12c.12.24.19.5.19.77v3.2c0 5.2 4.06 9.57 9.06 9.72a9.34 9.34 0 0 0 9.64-9.26zm34.64-10.75l-.64-2.54-3.23 3.03 2.36 2.35 1-.99c.48-.48.68-1.19.51-1.85zm53.78-47.8v47.57a5.4 5.4 0 0 1-5.42 5.37h-39.5c-.96 0-1.73-.77-1.73-1.71 0-.95.77-1.71 1.72-1.71h39.51c1.09 0 1.97-.88 1.97-1.95v-47.57c0-1.08-.88-1.95-1.97-1.95h-59.1c-1.09 0-1.97.87-1.97 1.95v46.43c0 .94-.77 1.7-1.73 1.7-.95 0-1.73-.76-1.73-1.7v-46.43a5.4 5.4 0 0 1 5.43-5.37h59.1a5.4 5.4 0 0 1 5.42 5.37zm-9.23 7.32v9.14c0 .95-.77 1.72-1.73 1.72-.95 0-1.73-.77-1.73-1.72v-5.01l-20.13 19.95c-.68.67-1.77.67-2.45 0l-8.01-7.94-14.48 14.34a1.73 1.73 0 0 1-2.44 0 1.7 1.7 0 0 1 0-2.42l15.7-15.55a1.74 1.74 0 0 1 2.44 0l8.01 7.94 18.92-18.74h-5.06c-.96 0-1.73-.77-1.73-1.71 0-.95.77-1.72 1.73-1.72h9.23c.96 0 1.73.77 1.73 1.72z"/><linearGradient id="b" x1="195.72" x2="197.69" y1="641.69" y2="745.74" gradientUnits="userSpaceOnUse"><stop offset="0" stop-color="#508ab3"/><stop offset="1" stop-color="#883759"/></linearGradient></defs><g transform="translate(-137 -641)"><use xlink:href="#a"/><use fill="url(#b)" xlink:href="#a"/></g></svg>