<?xml version="1.0" encoding="UTF-8"?>
<!DOCTYPE svg PUBLIC "-//W3C//DTD SVG 1.1//EN" "http://www.w3.org/Graphics/SVG/1.1/DTD/svg11.dtd">
<!-- Creator: CorelDRAW 2019 (64-Bit) -->
<svg xmlns="http://www.w3.org/2000/svg" xml:space="preserve" width="397.006mm" height="98.9067mm" version="1.1" style="shape-rendering:geometricPrecision; text-rendering:geometricPrecision; image-rendering:optimizeQuality; fill-rule:evenodd; clip-rule:evenodd"
viewBox="0 0 39011.55 9719"
 xmlns:xlink="http://www.w3.org/1999/xlink">
 <defs>
  <style type="text/css">
   <![CDATA[
    .fil0 {fill:#ffffff;fill-rule:nonzero}
    .fil1 {fill:#ffffff;fill-rule:nonzero}
   ]]>
  </style>
 </defs>
 <g id="Слой_x0020_1">
  <metadata id="CorelCorpID_0Corel-Layer"/>
  <path class="fil0" d="M4433.21 69.34c0,-38.28 31.05,-69.34 69.34,-69.34 38.28,0 69.34,31.05 69.34,69.34l0 437.34 139.59 -92.21c31.85,-21.09 74.78,-12.35 95.87,19.5 21.09,31.85 12.35,74.78 -19.5,95.87l-215.97 142.67 0 356.83 267.22 -176.5c31.85,-21.09 74.78,-12.35 95.87,19.5 21.09,31.85 12.35,74.78 -19.5,95.87l-343.59 226.95 0 356.81 394.83 -260.79c31.85,-21.09 74.78,-12.35 95.87,19.5 21.09,31.85 12.35,74.78 -19.5,95.87l-471.2 311.24 0 356.83 522.44 -345.08c31.85,-21.09 74.78,-12.35 95.87,19.5 21.09,31.85 12.35,74.78 -19.5,95.87l-598.81 395.53 0 356.83 650.05 -429.38c31.85,-21.09 74.78,-12.35 95.87,19.5 21.09,31.85 12.35,74.78 -19.5,95.87l-726.42 479.82 0 356.81 777.67 -513.67c31.85,-21.09 74.78,-12.35 95.87,19.5 21.09,31.85 12.35,74.78 -19.5,95.87l-854.04 564.12 0 356.83 905.28 -597.96c31.85,-21.09 74.78,-12.35 95.87,19.5 21.09,31.85 12.35,74.78 -19.5,95.87l-981.65 648.41 0 356.83 1032.9 -682.25c31.85,-21.09 74.78,-12.35 95.87,19.5 21.09,31.85 12.35,74.78 -19.5,95.87l-1109.27 732.7 0 356.82 1160.5 -766.54c31.85,-21.09 74.78,-12.35 95.87,19.5 21.09,31.85 12.35,74.78 -19.5,95.87l-1236.87 816.99 0 356.82 1288.13 -850.82c31.85,-21.09 74.78,-12.35 95.87,19.5 21.09,31.85 12.35,74.78 -19.5,95.87l-1364.5 901.27 0 356.83 1415.73 -935.12c31.85,-21.09 74.78,-12.35 95.87,19.5 21.09,31.85 12.35,74.78 -19.5,95.87l-1492.1 985.56 0 356.83 1543.35 -1019.41c31.85,-21.09 74.78,-12.35 95.87,19.5 21.09,31.85 12.35,74.78 -19.5,95.87l-1619.72 1069.85 0 356.84 1671.47 -1104.04c31.85,-21.09 74.78,-12.35 95.87,19.5 21.09,31.85 12.35,74.78 -19.5,95.87l-1747.84 1154.48 0 356.22 1795.96 -1196.38c31.85,-21.09 74.78,-12.35 95.87,19.5 21.09,31.85 12.35,74.78 -19.5,95.87l-1872.33 1247.26 0 356.86 1925.58 -1274.25c31.85,-21.09 74.78,-12.35 95.87,19.5 21.09,31.85 12.35,74.78 -19.5,95.87l-2001.95 1324.79 0 490.74c0,340.76 -139.38,650.54 -363.9,875.06 -224.53,224.52 -534.3,363.9 -875.07,363.9 -340.78,0 -650.55,-139.38 -875.07,-363.9 -224.52,-224.52 -363.9,-534.29 -363.9,-875.06l0 -873.08 -359.99 232.36c-32.15,20.64 -74.97,11.29 -95.6,-20.86 -20.64,-32.15 -11.29,-74.97 20.86,-95.6l434.73 -280.6 0 -376.67 -778.1 502.22c-32.15,20.64 -74.97,11.29 -95.6,-20.86 -20.64,-32.15 -11.29,-74.97 20.86,-95.6l852.84 -550.47 0 -357.93 -1181.71 762.73c-32.15,20.64 -74.97,11.29 -95.6,-20.86 -20.64,-32.15 -11.29,-74.97 20.86,-95.6l1256.45 -810.98 0 -357.92 -1585.33 1023.26c-32.15,20.64 -74.97,11.29 -95.6,-20.86 -20.64,-32.15 -11.29,-74.97 20.86,-95.6l1660.07 -1071.5 0 -357.93 -1987.37 1282.75c-32.15,20.64 -74.97,11.29 -95.6,-20.86 -20.64,-32.15 -11.29,-74.97 20.86,-95.6l2062.11 -1330.99 0 -357.93 -1796.16 1159.34c-32.15,20.64 -74.97,11.29 -95.6,-20.86 -20.64,-32.15 -11.29,-74.97 20.86,-95.6l1870.9 -1207.58 0 -357.93 -1605.73 1036.41c-32.15,20.64 -74.97,11.29 -95.6,-20.86 -20.64,-32.15 -11.29,-74.97 20.86,-95.6l1680.47 -1084.65 0 -357.94 -1415.27 913.49c-32.15,20.64 -74.97,11.29 -95.6,-20.86 -20.64,-32.15 -11.29,-74.97 20.86,-95.6l1490.01 -961.73 0 -357.94 -1224.83 790.57c-32.15,20.64 -74.97,11.29 -95.6,-20.86 -20.64,-32.15 -11.29,-74.97 20.86,-95.6l1299.57 -838.8 0 -357.92 -1034.38 667.64c-32.15,20.64 -74.97,11.29 -95.6,-20.86 -20.64,-32.15 -11.29,-74.97 20.86,-95.6l1109.12 -715.88 0 -357.94 -843.92 544.71c-32.15,20.64 -74.97,11.29 -95.6,-20.86 -20.64,-32.15 -11.29,-74.97 20.86,-95.6l918.66 -592.95 0 -357.94 -653.48 421.79c-32.15,20.64 -74.97,11.29 -95.6,-20.86 -20.64,-32.15 -11.29,-74.97 20.86,-95.6l728.22 -470.03 0 -357.92 -463.03 298.86c-32.15,20.64 -74.97,11.29 -95.6,-20.86 -20.64,-32.15 -11.29,-74.97 20.86,-95.6l537.77 -347.1 0 -357.94 -272.58 175.93c-32.15,20.64 -74.97,11.29 -95.6,-20.86 -20.64,-32.15 -11.29,-74.97 20.86,-95.6l347.32 -224.17 0 -357.94 -82.13 53.01c-32.15,20.64 -74.97,11.29 -95.6,-20.86 -20.64,-32.15 -11.29,-74.97 20.86,-95.6l156.87 -101.25 0 -37.31c0,-38.28 31.05,-69.34 69.34,-69.34 38.28,0 69.34,31.05 69.34,69.34l0 37.86 162.27 106.58c31.85,20.93 40.7,63.74 19.77,95.59 -20.93,31.85 -63.74,40.7 -95.59,19.77l-86.45 -56.78 0 357.48 353.35 232.07c31.85,20.93 40.7,63.74 19.77,95.59 -20.93,31.85 -63.74,40.7 -95.59,19.77l-277.53 -182.27 0 357.48 544.43 357.56c31.85,20.93 40.7,63.74 19.77,95.59 -20.93,31.85 -63.74,40.7 -95.59,19.77l-468.61 -307.76 0 357.46 735.51 483.07c31.85,20.93 40.7,63.74 19.77,95.59 -20.93,31.85 -63.74,40.7 -95.59,19.77l-659.69 -433.27 0 357.48 926.57 608.57c31.85,20.93 40.7,63.74 19.77,95.59 -20.93,31.85 -63.74,40.7 -95.59,19.77l-850.75 -558.77 0 357.48 1117.67 734.06c6.01,3.95 11.2,8.68 15.53,13.97 6.58,1.87 12.99,4.76 19.01,8.72l1048.4 688.57 0 -357.48 -994.89 -653.42c-31.85,-20.93 -40.7,-63.74 -19.77,-95.59 20.93,-31.85 63.74,-40.7 95.59,-19.77l919.07 603.62 0 -357.48 -865.56 -568.49c-31.85,-20.93 -40.7,-63.74 -19.77,-95.59 20.93,-31.85 63.74,-40.7 95.59,-19.77l789.74 518.69 0 -357.46 -736.24 -483.55c-31.85,-20.93 -40.7,-63.74 -19.77,-95.59 20.93,-31.85 63.74,-40.7 95.59,-19.77l660.41 433.75 0 -357.48 -606.91 -398.61c-31.85,-20.93 -40.7,-63.74 -19.77,-95.59 20.93,-31.85 63.74,-40.7 95.59,-19.77l531.09 348.81 0 -357.48 -477.58 -313.67c-31.85,-20.93 -40.7,-63.74 -19.77,-95.59 20.93,-31.85 63.74,-40.7 95.59,-19.77l401.76 263.87 0 -357.46 -348.26 -228.74c-31.85,-20.93 -40.7,-63.74 -19.77,-95.59 20.93,-31.85 63.74,-40.7 95.59,-19.77l272.44 178.94 0 -357.48 -218.92 -143.79c-31.85,-20.93 -40.7,-63.74 -19.77,-95.59 20.93,-31.85 63.74,-40.7 95.59,-19.77l143.1 93.99 0 -437.92zm-2200.61 2816.2l0 357.46 2200.61 1445.33 0 -357.47 -1124.22 -738.37c-6.01,-3.95 -11.2,-8.68 -15.53,-13.97 -6.58,-1.87 -12.99,-4.76 -19.01,-8.72l-1041.85 -684.26zm0 522.62l0 357.48 2200.61 1445.32 0 -357.47 -2200.61 -1445.33zm0 522.64l0 357.48 2200.61 1445.32 0 -357.48 -2200.61 -1445.32zm0 522.64l0 357.47 2200.61 1445.32 0 -357.48 -2200.61 -1445.31zm0 522.63l0 357.47 2200.61 1445.33 0 -357.49 -2200.61 -1445.31zm0 2466.75l433.73 284.87c31.85,20.93 40.7,63.74 19.77,95.59 -20.93,31.85 -63.74,40.7 -95.59,19.77l-357.91 -235.07 0 872.07c0,302.52 123.81,577.59 323.26,777.03 199.45,199.45 474.52,323.26 777.03,323.26 302.53,0 577.6,-123.81 777.05,-323.26 199.45,-199.45 323.26,-474.53 323.26,-777.03l0 -490.77 -2200.61 -1445.31 0 357.47 850.44 558.56c31.85,20.93 40.7,63.74 19.77,95.59 -20.93,31.85 -63.74,40.7 -95.59,19.77l-774.62 -508.75 0 376.21zm0 -1064.03l2200.61 1445.33 0 -357.48 -2200.61 -1445.31 0 357.46zm0 -522.63l2200.61 1445.33 0 -357.48 -2200.61 -1445.32 0 357.47z"/>
  <path class="fil1" d="M10355.1 5122.58l-641.35 0 0 1102.19 -361.63 0 0 -2730.53 903.78 0c307.87,0 544.05,70.41 709.83,210.58 165.77,140.17 248.34,344.36 248.34,611.91 0,170.25 -46.09,318.75 -137.61,445.48 -92.17,126.09 -219.54,220.83 -383.41,283.55l641.35 1156.6 0 22.4 -386.6 0 -592.7 -1102.19zm-641.35 -295.72l553.66 0c178.58,0 320.68,-46.09 426.29,-138.9 105.6,-92.81 158.74,-216.98 158.74,-371.88 0,-168.98 -50.57,-298.91 -151.06,-389.16 -100.49,-90.25 -245.79,-135.69 -435.88,-136.97l-551.74 0 0 1036.9zm3925.53 -1332.62l0 1857.48c-1.28,257.31 -82.56,467.89 -243.22,631.74 -160.65,163.86 -378.28,256.03 -653.51,275.87l-95.38 3.84c-298.91,0 -537.01,-80.65 -714.31,-241.95 -177.94,-161.29 -267.54,-383.4 -270.11,-666.31l0 -1860.67 356.52 0 0 1848.52c0,197.78 53.76,351.39 162.58,460.85 108.81,109.45 263.7,163.86 465.32,163.86 203.54,0 359.73,-54.41 467.9,-163.22 108.17,-108.82 161.94,-261.79 161.94,-459.57l0 -1850.43 362.27 0zm1372.94 1513.76c-308.51,-88.97 -533.17,-198.43 -673.99,-327.71 -140.81,-129.3 -211.22,-289.31 -211.22,-479.41 0,-215.06 86.4,-393.01 257.94,-533.82 172.18,-140.81 395.56,-211.22 670.15,-211.22 187.54,0 355.24,36.49 501.81,108.81 147.22,72.33 260.51,172.18 341.16,300.2 80.65,127.37 120.96,266.91 120.96,417.96l-361.63 0c0,-165.13 -52.48,-295.07 -157.46,-389.79 -104.97,-94.09 -253.46,-141.46 -444.84,-141.46 -177.3,0 -315.56,39.05 -414.76,117.13 -99.86,78.73 -149.14,186.91 -149.14,325.8 0,111.37 46.72,206.11 141.45,282.91 94.09,76.81 254.75,147.22 481.97,211.22 226.59,64.01 404.52,134.42 532.54,211.23 128.01,76.8 222.74,166.41 284.83,269.47 62.08,102.41 92.81,223.37 92.81,362.27 0,221.47 -86.41,398.77 -258.59,531.89 -172.82,133.14 -403.24,199.7 -691.91,199.7 -187.54,0 -362.92,-35.84 -525.5,-107.53 -161.94,-72.32 -287.39,-170.89 -375.72,-295.71 -88.33,-124.82 -131.85,-266.92 -131.85,-425.65l361.64 0c0,164.5 60.81,294.44 183.06,389.8 121.61,95.37 284.19,143.38 488.37,143.38 190.1,0 335.4,-39.05 436.52,-116.49 101.77,-77.45 152.34,-183.06 152.34,-316.19 0,-133.78 -47.36,-237.47 -140.81,-310.44 -93.45,-72.96 -263.71,-145.29 -510.14,-216.34zm3361 -1218.05l-877.54 0 0 2434.81 -357.79 0 0 -2434.81 -875.61 0 0 -295.72 2110.94 0 0 295.72zm1406.87 1332.62l-641.35 0 0 1102.19 -361.63 0 0 -2730.53 903.78 0c307.87,0 544.05,70.41 709.83,210.58 165.77,140.17 248.34,344.36 248.34,611.91 0,170.25 -46.09,318.75 -137.61,445.48 -92.17,126.09 -219.54,220.83 -383.41,283.55l641.35 1156.6 0 22.4 -386.6 0 -592.7 -1102.19zm-641.35 -295.72l553.66 0c178.58,0 320.68,-46.09 426.29,-138.9 105.6,-92.81 158.74,-216.98 158.74,-371.88 0,-168.98 -50.57,-298.91 -151.06,-389.16 -100.49,-90.25 -245.79,-135.69 -435.88,-136.97l-551.74 0 0 1036.9zm3511.41 683.6l-1144.44 0 -256.67 714.31 -371.24 0 1042.67 -2730.53 314.91 0 1044.6 2730.53 -369.33 0 -260.51 -714.31zm-1035.63 -295.72l928.74 0 -465.32 -1276.3 -463.41 1276.3zm2033.5 1010.03l0 -2730.53 770.64 0c237.47,0 447.41,52.48 630.47,157.46 182.42,104.97 323.23,254.75 422.44,448.05 99.86,193.94 149.77,416.68 151.06,667.59l0 174.74c0,257.31 -49.93,483.24 -149.14,677.19 -99.22,193.31 -241.31,342.44 -425.65,446.13 -184.33,103.69 -398.76,156.81 -643.91,159.37l-755.92 0zm360.35 -2434.81l0 2139.11 378.28 0c277.79,0 493.49,-86.41 648.4,-258.59 154.26,-172.82 231.06,-417.97 231.06,-736.72l0 -159.37c0,-310.44 -72.32,-551.1 -218.26,-722.64 -145.29,-172.18 -352.03,-259.23 -619.59,-261.79l-419.88 0zm3701.51 1175.16l-1182.85 0 0 963.94 1374.23 0 0 295.71 -1734.58 0 0 -2730.53 1716.02 0 0 295.72 -1355.66 0 0 879.45 1182.85 0 0 295.72zm1228.28 398.76l52.49 360.36 76.8 -324.52 540.22 -1905.48 304.03 0 526.78 1905.48 74.89 329.64 58.25 -367.4 423.73 -1867.72 361.63 0 -661.83 2730.53 -328.35 0 -561.98 -1989.97 -43.52 -208.03 -42.88 208.03 -583.1 1989.97 -328.36 0 -659.9 -2730.53 359.72 0 431.4 1869.64zm4918.29 -416.04c0,267.54 -44.81,501.18 -135.05,700.87 -89.62,199.7 -216.99,352.04 -382.12,457.01 -165.14,104.98 -357.8,157.46 -577.98,157.46 -215.07,0 -405.16,-53.12 -571.58,-158.74 -166.42,-105.6 -295.71,-256.03 -387.24,-451.89 -92.17,-195.86 -138.9,-422.44 -141.45,-680.39l0 -197.14c0,-262.42 45.44,-494.77 136.97,-696.39 90.88,-200.99 220.18,-355.25 387.24,-462.14 166.42,-106.89 357.8,-160.65 572.86,-160.65 218.26,0 411.56,53.12 577.98,158.74 167.06,105.61 295.71,258.58 385.32,459.57 90.25,200.98 135.05,434.6 135.05,700.87l0 172.82zm-357.8 -176.66c0,-323.23 -65.29,-571.58 -195.22,-744.4 -129.93,-173.46 -311.71,-259.86 -545.34,-259.86 -227.87,0 -407.08,86.4 -537.65,259.86 -130.57,172.82 -197.79,412.85 -201.63,720.08l0 200.98c0,313.63 65.93,560.06 197.79,739.28 131.85,179.21 313.63,268.82 544.7,268.82 232.98,0 412.84,-84.49 540.21,-254.1 127.38,-168.98 193.31,-411.57 197.15,-727.76l0 -202.91zm2998.07 176.66c0,267.54 -44.81,501.18 -135.05,700.87 -89.62,199.7 -216.99,352.04 -382.12,457.01 -165.14,104.98 -357.8,157.46 -577.98,157.46 -215.07,0 -405.16,-53.12 -571.58,-158.74 -166.42,-105.6 -295.71,-256.03 -387.24,-451.89 -92.17,-195.86 -138.9,-422.44 -141.45,-680.39l0 -197.14c0,-262.42 45.44,-494.77 136.97,-696.39 90.88,-200.99 220.18,-355.25 387.24,-462.14 166.42,-106.89 357.8,-160.65 572.86,-160.65 218.26,0 411.56,53.12 577.98,158.74 167.06,105.61 295.71,258.58 385.32,459.57 90.25,200.98 135.05,434.6 135.05,700.87l0 172.82zm-357.8 -176.66c0,-323.23 -65.29,-571.58 -195.22,-744.4 -129.93,-173.46 -311.71,-259.86 -545.34,-259.86 -227.87,0 -407.08,86.4 -537.65,259.86 -130.57,172.82 -197.79,412.85 -201.63,720.08l0 200.98c0,313.63 65.93,560.06 197.79,739.28 131.85,179.21 313.63,268.82 544.7,268.82 232.98,0 412.84,-84.49 540.21,-254.1 127.38,-168.98 193.31,-411.57 197.15,-727.76l0 -202.91zm898.01 1453.59l0 -2730.53 770.64 0c237.47,0 447.41,52.48 630.47,157.46 182.42,104.97 323.23,254.75 422.44,448.05 99.86,193.94 149.77,416.68 151.06,667.59l0 174.74c0,257.31 -49.93,483.24 -149.14,677.19 -99.22,193.31 -241.31,342.44 -425.65,446.13 -184.33,103.69 -398.76,156.81 -643.91,159.37l-755.92 0zm360.35 -2434.81l0 2139.11 378.28 0c277.79,0 493.49,-86.41 648.4,-258.59 154.26,-172.82 231.06,-417.97 231.06,-736.72l0 -159.37c0,-310.44 -72.32,-551.1 -218.26,-722.64 -145.29,-172.18 -352.03,-259.23 -619.59,-261.79l-419.88 0z"/>
 </g>
</svg>
