<svg xmlns="http://www.w3.org/2000/svg" width="21" height="29" viewBox="0 0 21 29"><g><g><path d="M0 20.369h21v8.63H0zm13.738 6.585h1.033v-1.74h1.65v-.827h-1.65v-.95h2.004v-.895h-3.037zm-4.826 0h1.67c.336 0 .641-.053.916-.159.275-.105.51-.254.706-.447.195-.193.345-.425.45-.696.105-.271.158-.575.158-.91 0-.303-.047-.588-.142-.855a1.965 1.965 0 0 0-.422-.699 1.993 1.993 0 0 0-.696-.472 2.503 2.503 0 0 0-.97-.174h-1.67zm-4.24 0h1.034V25.53h.907a1.364 1.364 0 0 0 1.036-.459 1.585 1.585 0 0 0 .394-1.038c0-.183-.037-.363-.11-.54a1.638 1.638 0 0 0-.303-.48 1.51 1.51 0 0 0-.46-.34 1.324 1.324 0 0 0-.589-.131H4.672zm1.878-2.312h-.844v-1.205h.806c.059 0 .117.011.176.034.06.022.112.059.158.108.046.05.083.112.11.187a.781.781 0 0 1 .041.267c0 .2-.044.35-.132.454a.402.402 0 0 1-.315.155zm13.4-18.774h-4.9V1.035zM21 7.94v10.357H0V0h12.95v7.94zM10.582 26.059h-.637v-2.622h.637c.184 0 .35.03.497.093.148.062.271.151.372.267.1.116.178.254.23.413.053.16.079.337.079.531 0 .191-.026.366-.079.526a1.25 1.25 0 0 1-.227.416c-.098.118-.221.21-.368.276a1.21 1.21 0 0 1-.504.1z"/></g></g></svg>