<svg xmlns="http://www.w3.org/2000/svg" xmlns:xlink="http://www.w3.org/1999/xlink" width="24" height="19" viewBox="0 0 24 19"><defs><path id="8rv6a" d="M726.7 511.1h-.04 15.66l-4.92-4.56a1.14 1.14 0 0 1 0-1.68l.76-.71c.24-.22.56-.35.9-.35.35 0 .67.12.91.35l8.44 7.8a1.13 1.13 0 0 1 0 1.69l-8.44 7.81c-.24.22-.56.35-.9.35-.35 0-.67-.13-.9-.35l-.77-.7a1.13 1.13 0 0 1-.38-.85c0-.31.13-.6.38-.82l4.98-4.59h-15.7c-.71 0-1.3-.56-1.3-1.22v-1c0-.65.6-1.17 1.31-1.17z"/></defs><g><g transform="translate(-725 -503)"><use fill="#269bbb" xlink:href="#8rv6a"/></g></g></svg>