<svg xmlns="http://www.w3.org/2000/svg" xmlns:xlink="http://www.w3.org/1999/xlink" width="21" height="24" viewBox="0 0 21 24"><defs><path id="jtoma" d="M509.19 700.26l4.56 4.55c.16.16.25.38.25.61v12.94c0 .48-.4.87-.88.87h-3.64v3.9c0 .48-.4.87-.88.87h-14.73a.87.87 0 0 1-.87-.87V705.5c0-.47.4-.86.87-.86h3.8v-3.76c0-.48.39-.87.87-.87h10.02c.23 0 .47.09.63.26zm-1.46 22v-3.03h-9.19a.87.87 0 0 1-.87-.87v-12h-2.92v15.9zm4.52-4.77v-9.97h-4.38a.87.87 0 0 1-.87-.87v-4.92h-7.58v15.76zm0-11.7l-3.5-3.5v3.5z"/></defs><g><g transform="translate(-493 -700)"><use fill="#fff" xlink:href="#jtoma"/></g></g></svg>