<svg xmlns="http://www.w3.org/2000/svg" xmlns:xlink="http://www.w3.org/1999/xlink" width="77" height="87" viewBox="0 0 77 87"><defs><path id="a" d="M141 1122.78c.2 1.6.05 3.16-.71 4.29-.38.57-1.01 1-1.76 1.2-.49.12-1.08.18-1.78.18-3.9 0-10.07-1.95-15.1-4.75-6.58.97-14.1 2.75-20.7 4.88-5.72 9.92-9.88 14.34-13.45 14.34-.67 0-1.32-.16-1.94-.46l-1.42-.71c-.9-.51-1.03-1.6-.85-2.46.55-2.69 3.88-6.07 8.9-9.04.6-.36 3.11-1.68 3.22-1.74l1.47-.77c1.43-2.43 3-5.29 4.74-8.66l.21-.41a141.6 141.6 0 0 0 5-10.45l.54-1.29c-2.08-7.9-3.23-14-2.12-18.07.37-1.3 1.77-2.17 3.48-2.17h.02l.9.03c1.54-.06 2.52 1.15 3.02 2.3l.16.4a4 4 0 0 1 .23 1c.49 3.5-1.35 13.85-1.35 13.85-.08.39-.18.76-.29 1.2 1.7 4.6 4.42 8.8 7.68 11.83a23.29 23.29 0 0 0 4.25 2.91 63.6 63.6 0 0 1 9.17-.66c3.9.05 6.46.65 7.62 1.78.41.4.8.98.85 1.45zm-45.85 7.81a35.2 35.2 0 0 1-1.38 1.26c-3.81 3.1-6.4 6.6-7.05 8.37 1.76-.79 4.43-3.3 8.43-9.63zm13.7-37.98c0 2.14.32 5.4.97 7.48.79-1.4 1.42-3.3 1.37-5.99-.06-2.7-.71-5.57-1.86-5.57-.53 0-.48 4.08-.48 4.08zm8.91 28.56a31.27 31.27 0 0 1-8.33-9.77 85.71 85.71 0 0 1-4.36 9.45c-.85 1.6-1.68 3.1-2.48 4.52 4.4-1.68 9.4-3.06 15.17-4.2zm19.54 2.08c-2.05-.52-2.67-.51-4.77-.51-1.15 0-2.43.05-3.82.15 3.63 1.55 6.22 2.5 8.31 2.5.65 0 1.66-.13 2.01-.35.35-.21.33-1.27-1.73-1.79zm12.84-23.25v51.16c0 3.7-3.05 6.73-6.78 6.73h-62.37a6.78 6.78 0 0 1-6.78-6.73v-72.7c0-3.7 3.05-6.74 6.78-6.74h40.68c3.72 0 8.93 2.14 11.57 4.76l12.1 12.02c2.64 2.62 4.8 7.8 4.8 11.5zm-20.74-19.7c-.26-.27-.59-.54-.95-.79v13.75h13.85a7.13 7.13 0 0 0-.79-.95zm15.32 19.7c0-.41-.06-.87-.15-1.35h-21.55v-21.4c-.49-.09-.94-.14-1.35-.14h-40.68c-.73 0-1.36.61-1.36 1.34v72.71c0 .73.63 1.35 1.36 1.35h62.37c.73 0 1.36-.62 1.36-1.35z"/></defs><use fill="#249aba" xlink:href="#a" transform="translate(-74 -1071)"/></svg>