<svg xmlns="http://www.w3.org/2000/svg" xmlns:xlink="http://www.w3.org/1999/xlink" width="231" height="231" viewBox="0 0 231 231"><defs><path id="mfhxa" d="M288 475.5c0 30.85-12.01 59.86-33.83 81.67A114.75 114.75 0 0 1 172.5 591a114.75 114.75 0 0 1-81.67-33.83A114.75 114.75 0 0 1 57 475.5c0-30.85 12.01-59.86 33.83-81.67A114.75 114.75 0 0 1 172.5 360c30.85 0 59.86 12.01 81.67 33.83A114.75 114.75 0 0 1 288 475.5zm-13.54 0c0-56.22-45.74-101.96-101.96-101.96-56.22 0-101.96 45.74-101.96 101.96 0 56.22 45.74 101.96 101.96 101.96 56.22 0 101.96-45.74 101.96-101.96zm-13.53 0c0 48.76-39.67 88.43-88.43 88.43-48.76 0-88.43-39.67-88.43-88.43 0-48.76 39.67-88.43 88.43-88.43 48.76 0 88.43 39.67 88.43 88.43zm-13.54 0c0-41.3-33.6-74.9-74.89-74.9-41.3 0-74.9 33.6-74.9 74.9 0 41.3 33.6 74.9 74.9 74.9 41.3 0 74.9-33.6 74.9-74.9zm-41.05 20.75c0 7.5-3.88 14.7-10.64 19.77a37.19 37.19 0 0 1-16.43 6.76v14.08h-13.54v-14.08a37.2 37.2 0 0 1-16.43-6.76c-6.76-5.07-10.64-12.27-10.64-19.77h13.54c0 7.34 9.3 13.54 20.3 13.54s20.3-6.2 20.3-13.54a9.5 9.5 0 0 0-6.5-9.02l-31.88-10.62a23.01 23.01 0 0 1-15.76-21.86c0-7.5 3.88-14.7 10.64-19.77a37.19 37.19 0 0 1 16.43-6.76v-14.08h13.54v14.08c6.13.98 11.82 3.3 16.43 6.76 6.76 5.06 10.64 12.27 10.64 19.77H192.8c0-7.34-9.3-13.54-20.3-13.54s-20.3 6.2-20.3 13.54a9.5 9.5 0 0 0 6.5 9.02l31.88 10.62a23.01 23.01 0 0 1 15.76 21.86z"/><linearGradient id="mfhxb" x1="170" x2="175" y1="360" y2="591" gradientUnits="userSpaceOnUse"><stop offset="0" stop-color="#508ab3"/><stop offset="1" stop-color="#883759"/></linearGradient></defs><g><g transform="translate(-57 -360)"><use xlink:href="#mfhxa"/><use fill="url(#mfhxb)" xlink:href="#mfhxa"/></g></g></svg>