<svg xmlns="http://www.w3.org/2000/svg" xmlns:xlink="http://www.w3.org/1999/xlink" width="19" height="20" viewBox="0 0 19 20"><defs><path id="a" d="M65.23 2922.7a9.46 9.46 0 1 1-13.37-13.38 9.46 9.46 0 0 1 13.37 13.38zm-1.24-1.24a7.7 7.7 0 1 0-10.89-10.89 7.7 7.7 0 0 0 10.89 10.9zm-1.81-1.8a.8.8 0 0 1-1.14 0l-2.5-2.5-2.5 2.5a.8.8 0 1 1-1.13-1.14l2.5-2.5-2.5-2.5a.8.8 0 0 1 1.13-1.14l2.5 2.5 2.5-2.5a.8.8 0 0 1 1.14 1.14l-2.5 2.5 2.5 2.5a.8.8 0 0 1 0 1.13z"/></defs><use fill="#f00" xlink:href="#a" transform="translate(-49 -2906)"/></svg>