<svg display="none" width="0" height="0" version="1.1" xmlns="http://www.w3.org/2000/svg" xmlns:xlink="http://www.w3.org/1999/xlink">

	<symbol id="advcash" viewBox="0 0 154.5 60">
    <path fill="#062E4B" d="M15,33.3c0.1-8.9-1.1-9.2-3.8-10.4C8,21.7,4.6,22.1,1.1,23.5l0.8,3.2c5.4-1.5,9.3-1.6,8.8,2.5
	c-4.2,0.2-7.5,0.9-9.1,2.8c-3.1,3.5-1.6,9.2,4.6,9.3c0,0,2.5,0.2,5,0c2.4-0.2,3.8-1,3.8-1C15.2,37.8,14.9,35.3,15,33.3L15,33.3z
	 M10.7,37.8c-4.2,0.9-6.9,0.1-6-3.7c1.4-1.5,3.7-2,6-1.7V37.8L10.7,37.8z M27.2,14.6v8.2c-12.5-2.8-15,14.7-6,18
	c3.6,1.1,7.1,1.1,10.4-0.5V14.6H27.2z M20.5,32.3c0-6,3.8-7.5,6.6-5.6v11.1C23.1,38.7,20.8,36.6,20.5,32.3z M33.1,22.9h4.5
	c1.1,0,3.1,8.8,4.7,14c1.6-4.9,3.3-14,4.5-14h4.7c-2.6,6.8-5.7,18.4-7.7,18.1h-3.5C38.6,41,35.6,29.6,33.1,22.9z"/>
<path fill="#00AC6C" d="M64.2,26.7c0.9-1,1.3-2.1,1.3-3.3C58.6,20.3,52.7,24,52.7,32s5.2,11,12.3,9c0.2-1.4-0.1-2.7-0.8-3.7
	c-4.3,1.3-6.4-0.4-6.9-5C57.5,26.7,60,25.2,64.2,26.7z M67.9,23.7c0,1,0.3,1.9,0.9,2.8c5.4-1,10.2-1.5,8.2,2.8
	c-11.8-0.4-13.4,9.7-5,11.9c3.5,0.8,6.8,0.7,9.7-1V26.1C78.4,21.5,73.4,21.9,67.9,23.7L67.9,23.7z M77.2,38.1
	c-1.1,0.6-6.3,0.7-6.1-2.2c0-3.2,5.2-4.1,6.3-3.3C77.9,32.9,77.9,37.7,77.2,38.1z M94.8,26.3l1.2-2.7c-6.1-2.3-10.5-1.8-12.2,3.3
	c-0.9,6.3,9.6,6,8.3,9.3c-0.9,1.9-3.4,2-7.2,0.7c-0.7,1-1.1,2.2-1.2,3.4c6.7,2.1,11.4,1.2,12.8-4.4c1.2-5.9-8.6-5.8-7.9-8.4
	C88.5,25.5,91.3,25.3,94.8,26.3L94.8,26.3z M98.1,14.8c1.4-0.5,2.8-0.4,4.3,0v8.6c4.7-1.4,8.5-1,10.7,3c-0.2,0,0,14.3,0,14.5
	c0,0.6-4.1,0.2-4.1,0.2c-0.6-1.4-0.3-12-0.4-12.3c0.1-2.5-4.6-3.7-6-1.8c0.1,1.2,0.1,14-0.2,13.8c0,0-3.7,0.6-4.1,0
	C98,40.5,98,15,98.1,14.8L98.1,14.8z M125,40.9l12.9-28.2l12.8,28.2h-4.9l-8-18.3l-7.6,18.3H125z"/>
<path fill="#062E4B" d="M121,22.5c0.4,1.3,1.5,2.7,3.5,4.2h15.1l-1.8-4.2H121z M125.9,29.4l14.9,0.1l1.7,3.9h-14.2
	C126.8,31.5,125.7,30,125.9,29.4z M142.4,22.5h12.1c-0.4,1.4-1.4,2.8-2.9,4.2h-7.3L142.4,22.5L142.4,22.5z M145.5,29.4h4.3
	c-0.1,0.7-0.9,1.9-2.1,3.5h-0.6L145.5,29.4L145.5,29.4z"/>
	</symbol>

	<symbol id="bitcoin" viewBox="0 0 147.2 60">
        <g id="g3080">
	<path fill="#F7931A" d="M15.1,25.1l-0.8,3.4c1,0.2,3.9,1.2,4.4-0.7C19.2,25.8,16.2,25.3,15.1,25.1L15.1,25.1z M13.9,30.2L13,33.9
		c1.2,0.3,4.7,1.4,5.2-0.7C18.8,31,15.1,30.5,13.9,30.2L13.9,30.2z M19,15.1c-8.2-2-16.5,3-18.6,11.2c-2,8.2,3,16.5,11.2,18.6
		c8.2,2,16.5-3,18.6-11.2C32.2,25.5,27.2,17.1,19,15.1z M22.1,27.8c-0.3,1.5-1.1,2.2-2.2,2.4c1.5,0.8,2.2,2,1.5,4.1
		c-0.9,2.6-3,2.8-5.9,2.3l-0.7,2.8L13.1,39l0.7-2.8c-0.4-0.1-0.8-0.2-1.3-0.3l-0.7,2.8l-1.7-0.4l0.7-2.8l-1.2-0.3l-2.2-0.5l0.8-1.9
		l1.2,0.3c0.5,0.1,0.7-0.2,0.8-0.4l1.1-4.4h0.2c-0.1-0.1-0.2-0.1-0.2-0.1l0.8-3.2c0-0.4-0.1-0.8-0.8-1c0.1,0-1.2-0.3-1.2-0.3
		l0.4-1.8l2.3,0.6l1.1,0.3l0.7-2.8l1.7,0.4l-0.7,2.7c0.5,0.1,1,0.2,1.4,0.3l0.7-2.7l1.7,0.4l-0.7,2.8C20.8,24.7,22.4,25.8,22.1,27.8
		L22.1,27.8z"/>
	<g id="g3094">
		<path id="path3096" fill="#4D4D4D" d="M45,23.9c1.2,0,2.3,0.2,3.2,0.7c0.9,0.4,1.7,1,2.3,1.8s1,1.6,1.3,2.6s0.4,2.1,0.4,3.3
			c0,1.8-0.3,3.5-1,5.1s-1.6,3-2.7,4.2c-1.1,1.2-2.5,2.1-4,2.8c-1.6,0.7-3.2,1-5.1,1h-1.2c-0.6,0-1.3-0.1-2-0.2
			c-0.8-0.1-1.6-0.3-2.4-0.5s-1.6-0.5-2.4-0.9l6.7-28.3l6-0.9l-2.4,10c0.5-0.2,1-0.4,1.6-0.5C43.8,24,44.4,23.9,45,23.9L45,23.9z
			 M39.9,40.6c0.9,0,1.8-0.2,2.6-0.7c0.8-0.4,1.5-1,2.1-1.8c0.6-0.7,1-1.6,1.4-2.5c0.3-0.9,0.5-1.9,0.5-2.9c0-1.2-0.2-2.2-0.6-2.9
			c-0.4-0.7-1.2-1-2.3-1c-0.4,0-0.8,0.1-1.4,0.2c-0.6,0.1-1.1,0.4-1.6,0.8L38,40.4c0.2,0,0.3,0.1,0.4,0.1c0.1,0,0.2,0,0.4,0.1
			L39.9,40.6L39.9,40.6z"/>
		<path id="path3098" fill="#4D4D4D" d="M58.4,44.8h-5.8l4.9-20.4h5.8L58.4,44.8z M61.2,21.9c-0.8,0-1.5-0.2-2.2-0.7S58,20,58,19
			c0-0.5,0.1-1.1,0.3-1.5c0.2-0.5,0.5-0.9,0.9-1.2c0.4-0.3,0.8-0.6,1.3-0.8s1-0.3,1.5-0.3c0.8,0,1.5,0.2,2.2,0.7
			c0.6,0.5,1,1.2,1,2.2c0,0.5-0.1,1.1-0.3,1.5c-0.2,0.5-0.5,0.9-0.9,1.2c-0.4,0.3-0.8,0.6-1.3,0.8C62.3,21.8,61.8,21.9,61.2,21.9z"
			/>
		<path id="path3100" fill="#4D4D4D" d="M68.4,19.3l6-0.9l-1.5,6h6.5l-1.2,4.7h-6.4l-1.7,7.2c-0.2,0.6-0.2,1.2-0.3,1.7
			c0,0.5,0,1,0.2,1.3c0.2,0.4,0.4,0.7,0.8,0.9s1,0.3,1.7,0.3c0.6,0,1.2-0.1,1.8-0.2s1.2-0.3,1.8-0.5l0.4,4.4
			c-0.8,0.3-1.6,0.5-2.5,0.7s-2,0.3-3.2,0.3c-1.8,0-3.2-0.3-4.2-0.8s-1.7-1.3-2.1-2.2s-0.6-2-0.5-3.2c0.1-1.2,0.2-2.4,0.5-3.8
			L68.4,19.3z"/>
		<path id="path3102" fill="#4D4D4D" d="M79.1,36.6c0-1.8,0.3-3.4,0.9-5s1.4-2.9,2.5-4.1s2.4-2.1,3.9-2.8c1.5-0.7,3.2-1,5.1-1
			c1.2,0,2.2,0.1,3.1,0.3c0.9,0.2,1.8,0.5,2.5,0.9l-2,4.5l-1.6-0.6c-0.6-0.2-1.2-0.3-2-0.3c-1.9,0-3.4,0.7-4.6,2
			c-1.1,1.3-1.7,3.1-1.7,5.3c0,1.3,0.3,2.4,0.9,3.2s1.6,1.2,3.1,1.2c0.8,0,1.5-0.1,2.2-0.2c0.7-0.2,1.3-0.4,1.9-0.6l0.4,4.6
			c-0.7,0.3-1.5,0.5-2.4,0.8c-0.9,0.2-1.9,0.3-3.2,0.3c-1.6,0-3-0.2-4.1-0.7s-2-1.1-2.8-1.9c-0.7-0.8-1.3-1.7-1.6-2.8
			C79.3,38.9,79.1,37.8,79.1,36.6L79.1,36.6z"/>
		<path id="path3104" fill="#4D4D4D" d="M104.7,45.3c-1.4,0-2.6-0.2-3.6-0.6s-1.8-1-2.5-1.7s-1.2-1.6-1.5-2.7c-0.3-1-0.5-2.2-0.5-3.4
			c0-1.6,0.3-3.1,0.8-4.7s1.2-3,2.2-4.2s2.2-2.3,3.6-3.1c1.4-0.8,3.1-1.2,4.9-1.2c1.3,0,2.5,0.2,3.6,0.6c1,0.4,1.9,1,2.5,1.7
			c0.7,0.8,1.2,1.6,1.5,2.7c0.3,1,0.5,2.2,0.5,3.4c0,1.6-0.2,3.1-0.7,4.7c-0.5,1.5-1.2,3-2.2,4.2s-2.2,2.3-3.6,3.1
			C108.2,44.9,106.6,45.3,104.7,45.3z M107.6,28.7c-0.9,0-1.6,0.2-2.3,0.7c-0.6,0.5-1.2,1.1-1.6,1.9s-0.8,1.6-1,2.5
			s-0.3,1.7-0.3,2.5c0,1.3,0.2,2.3,0.6,3s1.2,1.1,2.3,1.1c0.9,0,1.6-0.2,2.3-0.7c0.6-0.5,1.2-1.1,1.6-1.9c0.4-0.7,0.8-1.6,1-2.5
			s0.3-1.7,0.3-2.5c0-1.3-0.2-2.3-0.6-3C109.4,29.1,108.6,28.7,107.6,28.7z"/>
		<path id="path3106" fill="#4D4D4D" d="M122.5,44.8h-5.8l4.9-20.4h5.8L122.5,44.8z M125.2,21.9c-0.8,0-1.5-0.2-2.2-0.7
			c-0.6-0.5-1-1.2-1-2.2c0-0.5,0.1-1.1,0.3-1.5c0.2-0.5,0.5-0.9,0.9-1.2c0.4-0.3,0.8-0.6,1.3-0.8s1-0.3,1.5-0.3
			c0.8,0,1.5,0.2,2.2,0.7c0.6,0.5,1,1.2,1,2.2c0,0.5-0.1,1.1-0.3,1.5c-0.2,0.5-0.5,0.9-0.9,1.2c-0.4,0.3-0.8,0.6-1.3,0.8
			C126.3,21.8,125.8,21.9,125.2,21.9z"/>
		<path id="path3108" fill="#4D4D4D" d="M131.5,25.3c0.4-0.1,0.9-0.3,1.5-0.4c0.5-0.2,1.1-0.3,1.8-0.5c0.7-0.1,1.4-0.3,2.2-0.4
			s1.7-0.1,2.8-0.1c3,0,5.1,0.9,6.3,2.6c1.2,1.8,1.4,4.2,0.6,7.2l-2.6,11h-5.8l2.6-10.8c0.2-0.7,0.3-1.3,0.4-2
			c0.1-0.6,0.1-1.2,0-1.7s-0.3-0.9-0.7-1.2c-0.4-0.3-1-0.4-1.7-0.4c-0.8,0-1.5,0.1-2.3,0.2l-3.8,15.8H127
			C126.8,44.8,131.5,25.3,131.5,25.3L131.5,25.3z"/>
	</g>
</g>
	</symbol>

	<symbol id="card" viewBox="0 0 121.2 60">
        <path fill="#CB2027" d="M74.3,29.8c-2,0.9-0.1,2.9,1.1,1.3c0.2-0.4,0.3-0.9,0.2-1.4C75.2,29.7,74.8,29.7,74.3,29.8z M88.4,28.6h2.3
	C90.8,26.9,88.8,26.7,88.4,28.6z M96.9,24.7l-11-0.2l0.6-1.8h9.8l-0.9-2.2l-8.1,0.2l1-1.8h6.4l-1.6-2h-3.5c0.7-0.6,1.3-1.2,1.8-1.7
	c-5.8-5.4-14.5-5.7-20.6-2.4c-5.8,3.1-9.1,9.3-9.3,15.8c0,5.8,3.3,11.7,8.5,15c6.5,4.2,15.7,4.2,23.2-3.8h-3.7L88.2,38h6.2l1.1-1.9
	h-8.2l-0.8-1.9h9.8l0.9-2.5c0,0-0.5-0.9-0.5-2.3l0.5-2.5L96.9,24.7L96.9,24.7z M69.1,33.1l0.8-6.5l-2.4,6.5h-1.2l-0.2-6.5l-1.2,6.5
	h-1.8l1.7-8.9h2.6l0.1,5.5l1.9-5.5h2.9l-1.6,8.9H69.1z M75.3,33.2v-0.7c-2.4,1.8-3.9,0.2-3.6-1.6c0.1-0.7,0.6-1.5,1.3-2
	s1.8-0.2,2.9-0.4c0.4-1.5-1.4-1.2-3.2-0.9L73,26c2.7-0.7,4.6-0.5,4.7,1.7L77,33.2H75.3z M82.5,27.4c-1.4-0.3-2.4-0.2-2.2,0.9
	c0.5,0.6,1.4,0.7,1.8,1.2c0.3,0.4,0.4,1.1,0.3,1.6c-0.1,1.2-0.7,1.9-1.8,2.1s-2.2,0.2-3-0.1l0.2-1.6c0.8,0.2,1.6,0.3,2.3,0.2
	c0.8-0.3,0.8-1.1-0.3-1.5c-1.2-0.5-1.6-1.4-1.5-2.5c0.2-1.8,2-2.1,4.4-1.9L82.5,27.4L82.5,27.4z M85.9,31.4l-0.2,1.5
	c-1.4,0.4-2.8,0.3-2.8-0.9c0-1.4,1.1-7.3,1.1-7.3h1.7l-0.1,1h1l-0.3,1.7h-1c-0.2,0.8-0.3,1.6-0.4,2.2C84.7,30.9,84.7,31.6,85.9,31.4
	L85.9,31.4z M92.2,30.1l-3.9,0.1c-0.2,1.5,0.8,2.1,3.5,1.2l-0.3,1.7c-3.5,0.9-5.3-0.1-5-4c0.2-1,0.5-1.8,1-2.3
	c1.9-1.8,4.2-1.4,4.8,0.8C92.5,28.3,92.4,29.3,92.2,30.1L92.2,30.1z M96.3,27.8c-1.3-0.3-1.7,2.3-2,5.3h-1.8l1.2-7.2h1.6l-0.1,0.9
	c0.8-0.4,0.7-1.2,1.7-1.1C96.6,26.4,96.4,27.1,96.3,27.8L96.3,27.8z"/>
<path fill="#273994" d="M5,34.3L3.5,20c-0.3-2.3-1.7-3-3.6-3.1c-0.3,0-0.3-0.5,0-0.5h8L8.7,28l6.4-11.6h5L10,34.3H5L5,34.3z M22.7,16.4
	h4.8l-5.4,17.9h-4.8L22.7,16.4z M39.7,21.3l2.7-3.2c-0.9-0.5-1.8-1.2-2.6-1.5c-4.5-1.4-9.3-0.3-10.5,3.1c-0.4,1.1-0.5,3,0,4
	c1.2,2.2,4.3,3.5,5.6,4.7c0.6,0.6,0.5,1.2,0,1.8c-1.7,1.6-4.5,0.8-7.2-1l-2.4,3.5c5.5,3.4,11.6,3.2,14.4-1.4
	c0.6-1.2,0.9-3.5-0.2-4.7c-0.7-0.8-1.6-1.7-2.5-2.4c-2.2-1.5-4.3-2.5-2.8-4C35.6,19,38,19.7,39.7,21.3z M57.8,34.3l-1.6-17.9h-6.5
	l-9.4,17.9h5.1l1.3-2.6h6.1v2.6H57.8L57.8,34.3z M48.3,28.3l3.9-8.6l0.3,8.6H48.3z"/>
<path fill="#FBAC18" d="M57.8,44.6v-6c-18.8-2-36.6,2-53.6,10.6c-0.4,0.3-0.1,0.9,0.6,0.6C22.6,42.3,40.5,40.4,57.8,44.6z"/>
<path fill="#F8981D" d="M96.7,28.6v0.5V28.6z M105.3,29.8c-1.6,0.6-0.6,2.9,1,1.4c0.2-0.4,0.4-0.9,0.4-1.4
	C106.3,29.7,105.8,29.7,105.3,29.8z M115.9,27.4c-1.9,0-2.3,3.6-0.8,4.1c0.7,0.1,1.4-0.5,1.7-1.9C117,28.4,116.6,27.6,115.9,27.4z
	 M91.4,15.2l-1.8,1.7h3.5l1.6,2h-6.4l-1,1.8l8.1-0.2l0.9,2.2h-9.8l-0.6,1.8l11,0.2c0.1,0.7,0.3,2.2,0.3,2.2s-0.3,0.6-0.5,1.7
	c0.3-1.9,1.4-3.7,3.4-4.6c0.9-0.4,2.2,0,3,0.4l-0.4,1.8c-0.5-0.3-1.3-0.7-1.9-0.4c-2.1,0.6-3,3.9-1.1,5.5c0.4,0.4,1.4,0.3,2.3-0.1
	l-0.2,1.9c-1.5,0.3-3.4,0.2-4-0.5c-0.5-0.6-0.9-1.3-1-2.1c0.1,0.7,0.4,1.2,0.4,1.2s-0.2,0.7-0.4,1l-0.5,1.5h-9.8l0.8,1.9h8.2
	L94.4,38h-6.2l1.3,1.8h3.7c-0.6,0.7-1.3,1.3-1.9,1.9c10.8,10.1,29.5,2.8,29.9-12.5C121.7,13.7,104.4,4.4,91.4,15.2L91.4,15.2z
	 M106.6,33l0.1-0.6h-0.2c-0.7,0.6-1.8,0.9-2.3,0.7c-1.9-0.6-1.8-3.3,0.3-4.4c0.6-0.4,1.7-0.1,2.5-0.3c0.3-1.6-1.4-1.4-3.2-1L104,26
	c2.2-0.7,4-0.7,4.8,1.1l-0.7,5.9L106.6,33L106.6,33z M110.2,33.1h-1.7l1.1-7.3h1.6c-0.1,0.4-0.2,0.8,0,0.8c0.3-0.1,0.5-0.5,0.8-0.7
	s0.6-0.2,0.9-0.2l-0.7,2C110.8,27.8,110.5,30.4,110.2,33.1L110.2,33.1z M116.3,33.1v-0.7c-1,0.8-2.2,0.9-2.8,0.5
	c-2.3-1.7-1.6-6.1,1.2-7.1c1-0.4,2,0.3,2.5,0.9l0.5-2.5h1.8l-1.3,8.9L116.3,33.1L116.3,33.1z M96.8,30.4l-0.1-0.6
	C96.7,30.1,96.7,30.3,96.8,30.4z M96.7,29.8v-0.5v0.1V29.8z"/>
	</symbol>
    
    <symbol id="payeer" viewBox="0 0 128 60">
        <path fill="#414141" d="M15.8,18.7c-1.7-1-3.8-1.8-6.4-1.8H0v28.7h5.6v-9.2h3.8c2.5-0.1,5.3-0.8,6.8-2.2C20.7,29.8,19.9,21.1,15.8,18.7
	z M12.7,27.8c-0.4,2.6-1.7,3.6-3.5,3.6H5.7v-9.8c3.8-0.5,6.4,0.3,7.1,3.1v3.1L12.7,27.8L12.7,27.8z M32.8,16.9h-5.4l-9.6,28.7h5.5
	l2.1-5.9h9.3l2.3,5.9h5.6L32.8,16.9L32.8,16.9z M26.9,34.7l3.2-9l3.2,9H26.9z M49.2,45.6h5.6l-0.1-11L63,16.9h-6.2L52,27.3
	l-4.7-10.4h-6.2l8.1,17.7L49.2,45.6z"/>
<path fill="#3B97D3" d="M66.4,16.9h15.7v4.6H72v6.9h8.7v5.1H72v7.6h11.5v4.5H66.4L66.4,16.9z M87,16.9h15.8v4.5H92.6v7h8.6v5.1h-8.6
	v7.7H104v4.4H87V16.9z M121.1,33.3c1.4-0.6,2.5-1.2,3.3-2.1c4.5-5,1.8-11.4-1.4-13.1c-1.3-0.7-2.5-1.2-4.2-1.2h-11.2v28.7h5.3V34
	h2.3l6.4,11.6h6.4L121.1,33.3L121.1,33.3z M119.1,28.9c-0.6,0.3-0.9,0.5-1.6,0.5H113v-7.8h4.1c0.7,0.2,1.8,0.4,2.3,0.9
	C121.3,24.2,120.7,27.9,119.1,28.9z"/>
	</symbol>
    
    <symbol id="qiwi" viewBox="0 0 108.7 60">
    <path fill="#F49F1E" d="M40.5,53.3c-0.9-3.7-4.1-6.1-7.7-7.5c-2.5-1-5.4-0.8-7.9-1.9c-2-0.9-3.6-2.1-4.3-3.9c-0.2,1-0.1,2,0.3,3
	c-5.3,0-10.4-2.8-13-7.3c-3.5-6-3-14.6,1.6-18.4c2.1-1.7,4.7-3.1,9-2.5c2.7,0.3,6.5,2.3,9.3,5.2c2.5,2.6,4,6.2,4.3,8.5
	c0.6,3.6-0.3,7-0.3,7c-1.4-1-2.9-1.2-4.7-1c3.6,0.5,5.9,2.4,6.6,5.8c0,0,1.8-2.2,2.9-5.3c2-5.3,1.3-14.6-4.5-19.4
	c-7.1-5.8-14.3-5.3-20.3-3c-4,1.5-7,4.5-9.1,8.2C0.5,24.7-0.7,29.6,1,35.9c1,3.7,4.6,8,9.2,10c3.6,1.6,7.9,2.1,11.4,1.7
	C29,45.5,35.4,46.8,40.5,53.3L40.5,53.3z M28.2,40.5c1-0.6,1.6,0.7,1.6,0.7c0.7,1.5-0.9,2.4-1.8,1C27.9,42.2,27.2,41,28.2,40.5z
	 M31.9,39.2c0.4-0.1,0.9,0.9,0.9,0.9c0.5,1.5-0.2,1.7-0.8,0.3C32,40.4,31.5,39.3,31.9,39.2L31.9,39.2z"/>
<path fill="#303083" d="M55.3,20.7c-0.1-3.6-1.8-5.7-5.2-5.7c-3.3,0.2-5.1,2.1-5.3,6c-0.1,3,1.4,4.7,4.6,5.9c1.8,0.7,3.6,1.4,5.5,2
	l0.4-1.8L52.4,26C54.5,25,55.4,23.2,55.3,20.7z M47.1,20.9c0,0-0.4-4,2.9-4.2c3.4-0.2,3.1,4.2,3.1,4.2C53.5,25.9,47,26.7,47.1,20.9z
	 M58.3,15.3h2.1v11.2h-2.1V15.3z M63,15.5l2.2-0.4l2.1,7.9l2.4-7.7h2.1l2.4,7.7l2.1-7.7h2.1l-3.1,11.2h-2.1l-2.5-8.1l-2.5,8.1h-2.1
	L63,15.5z M80.9,15.3h2.3v11.2h-2.3V15.3z M44.7,33.5l2.2-0.5l2.2,8l2.4-7.9h2l2.5,7.8l2.1-7.8h2.1L57,44.4h-2.1l-2.5-8.1L50,44.4
	h-2.2L44.7,33.5z M67.2,33.1L65,33l-4.3,11.4h2.2l1.1-2.9h4.1l1.2,3.1l2.2-0.5L67.2,33.1z M64.5,39.7l1.5-4.2l1.5,4.2H64.5z
	 M73.7,33h2.2v9.4h3.7l0.3,2h-6.2V33z M82.3,33h2.2v9.4h3.7l0.5,2h-6.4C82.3,44.4,82.3,33,82.3,33z M91,33h6.6v1.9h-4.5v2.7h3.3
	l0.4,1.8h-3.7v3.2h4.5v1.8H91C91,44.4,91,33,91,33z M99.5,33.1h8.7l0.4,1.9H105v9.4h-2.3l0.1-9.4h-3.3L99.5,33.1z"/>
	</symbol>
    
    <symbol id="yandexmoney" viewBox="0 0 115.1 60">
    <path fill="#EC2327" d="M11.8,24H7.1c-1.6,0.3-3.1,0.9-4,2c-2.6,2.9-3.2,9.1,0,11.9c0.7,0.6,1.4,1.1,2.1,1.4l-5.1,9.1
	C-0.1,48.7,0,48.9,0.2,49h2.4c0.3,0,0.5-0.1,0.5-0.3l4.6-9h1.6v9c0,0.2,0.2,0.2,0.3,0.3h2c0.2,0,0.3-0.1,0.3-0.3V24.3
	C12,24.2,12,24.1,11.8,24L11.8,24z M9.4,37.6h-2c-1-0.1-1.9-0.7-2.4-1.4c-1.9-2.4-1.7-6.9,0.3-9.1c0.5-0.5,1.1-0.8,1.8-1h2.3
	L9.4,37.6L9.4,37.6z"/>
<path fill="#050606" d="M15.6,49.1h2.2c0.2,0,0.3-0.1,0.3-0.3V41h3.7v7.7c0,0.2,0.1,0.3,0.2,0.3h2.1c0.2,0,0.3-0.1,0.3-0.3v-16
	c0-0.2-0.1-0.3-0.2-0.3h-2.1c-0.2,0-0.2,0.1-0.3,0.3V39H18v-6.4c0-0.1-0.1-0.2-0.3-0.2h-2.2c-0.1,0.1-0.2,0.2-0.2,0.3v16.2
	L15.6,49.1L15.6,49.1z M37.7,46.9h-0.6c-0.3,0-0.4-0.2-0.4-0.5l0.1-13.9c0-0.1-0.1-0.2-0.2-0.2h-6.8c-0.1,0-0.2,0.1-0.2,0.3
	c0.1,5.9-0.4,11.1-2.4,14.4h-0.7c-0.1,0-0.2,0.1-0.2,0.2v4.9c0,0.1,0,0.2,0.2,0.2h1.6c0.2,0,0.4-0.1,0.4-0.3v-2.9h7.1v3
	c0,0.2,0.1,0.3,0.2,0.3h1.8c0.2,0,0.3-0.1,0.3-0.3v-4.7C38,47.1,37.9,47,37.7,46.9L37.7,46.9z M34.1,46.9h-4.7
	c1.9-3.4,2.7-7.6,2.6-12.5h2.2L34.1,46.9z M48.2,46.7c-4.3,1.2-6.2-0.8-6.1-5.6c1.9,0.2,4.3,0.2,7,0.1c0-2.2-0.2-4.4-0.7-5.8
	c-1.4-4.6-5.6-4.1-7.3-1.6c-0.9,1.4-1.5,3.7-1.7,6c-0.5,8.9,4.3,11.2,9.4,8.4c0.1-0.2-0.1-0.8-0.3-1.3
	C48.5,46.7,48.4,46.7,48.2,46.7L48.2,46.7z M42.6,36.1c0.9-2.8,2.7-2.8,3.4-0.1c0.2,0.8,0.3,2,0.3,3.2c-1.4-0.1-2.7-0.1-4.1,0.1
	C42.3,37.9,42.4,36.9,42.6,36.1L42.6,36.1z M51.7,32.7c0-0.3,0.1-0.4,0.3-0.4h1.9c0.3,0,0.3,0.1,0.3,0.4v7.2
	c0.5-0.3,2.1-4.1,3.5-6.9c0.2-0.4,0.5-0.6,0.9-0.7h2c0.2,0,0.3,0.1,0.1,0.3l-4,7.2c1.7,3.3,4.6,8.9,4.7,9.2h-2.6
	c-0.3,0-0.5-0.2-0.6-0.4l-4-8.2v8.3c0,0.2-0.1,0.3-0.3,0.3h-2.1c-0.1,0-0.2-0.1-0.2-0.3L51.7,32.7L51.7,32.7z M69.9,35l1.1-1.6
	c0.1-0.3,0-0.4-0.2-0.5c-1.2-0.9-3.8-1.3-5.1-0.4c-0.5,0.4-1,0.7-1.4,1.2c-1.5,1.8-2,4.4-2.2,6.9c-0.1,2.9,0.2,5.7,2.3,7.7
	c1.4,1.3,4.1,1.7,6.3,0.4c0.4-0.2,0.7-0.4,0.6-0.7l-0.2-1c0-0.3-0.2-0.2-0.5-0.2c-1.3,0.5-3,0.5-3.9-0.2c-1.9-1.5-2.2-5-2-7
	c0.2-1.5,0.7-4.8,2.3-5.5c0.6-0.3,1.6,0.2,2.4,0.9C69.5,35.1,69.7,35.2,69.9,35L69.9,35z"/>
<path fill="#FECD0C" d="M82.8,47.7V28.1c0-1.7,1-3.2,2.6-4.6l19.7-15.6v17.4h10v25.1H85.6C84,50.2,83,49.2,82.8,47.7L82.8,47.7z"/>
<path fill="#D5AC29" d="M105.1,35.4L86.7,48l23.3-7.7v-15h-4.9L105.1,35.4z"/>
<path fill="#050606" d="M99.7,27.7c2.7-3.2-0.2-6-3.2-2.6C94.8,27.6,96.5,30.5,99.7,27.7z"/>
	</symbol>
    
    <symbol id="" viewBox="">

	</symbol>
</svg>