<svg xmlns="http://www.w3.org/2000/svg" xmlns:xlink="http://www.w3.org/1999/xlink" width="19" height="20" viewBox="0 0 19 20"><defs><path id="a" d="M68 2846.25a9.47 9.47 0 0 1-9.46 9.46 9.47 9.47 0 0 1 0-18.92 9.47 9.47 0 0 1 9.45 9.46zm-1.53 0a7.94 7.94 0 0 0-15.86 0 7.94 7.94 0 0 0 15.86 0zm-3.84-3.01c.3.3.3.78 0 1.07l-4.95 4.96a.76.76 0 0 1-1.08 0l-2.15-2.16a.76.76 0 1 1 1.08-1.07l1.61 1.61 4.41-4.41c.3-.3.78-.3 1.08 0z"/></defs><use fill="#00a651" xlink:href="#a" transform="translate(-49 -2836)"/></svg>