<svg xmlns="http://www.w3.org/2000/svg" width="38" height="38" viewBox="0 0 38 38"><g><g><path fill="#bc0000" d="M27.512 3.109L17.114 13.507h-8.39L21.484.76a2.604 2.604 0 0 1 3.675 0zM38 14.66a2.58 2.58 0 0 1-.762 1.838l-3.097 3.094v-1.262a4.83 4.83 0 0 0-4.825-4.824h-9.053l8.825-8.825 8.15 8.142c.491.49.762 1.143.762 1.837zM20.198 31.48a1.486 1.486 0 0 1-2.1 0 1.486 1.486 0 0 1 0-2.1c.29-.289.67-.433 1.05-.433s.76.144 1.05.434c.579.578.579 1.52 0 2.1zm5.195 0a1.486 1.486 0 0 1-2.099 0 1.486 1.486 0 0 1 0-2.1c.29-.289.67-.433 1.05-.433s.76.144 1.05.434c.578.578.578 1.52 0 2.1zm6.521-13.148v17.071A2.6 2.6 0 0 1 29.316 38H2.598A2.6 2.6 0 0 1 0 35.402v-17.07a2.6 2.6 0 0 1 2.598-2.598h26.718a2.6 2.6 0 0 1 2.598 2.597zm-10.39 5.567h5.937v-2.227h-5.938zm-16.403 0h13.21v-2.227H5.122zm21.847 3.907a3.715 3.715 0 0 0-5.222-.025 3.715 3.715 0 0 0-5.222.025 3.716 3.716 0 0 0 0 5.249 3.7 3.7 0 0 0 2.624 1.084 3.7 3.7 0 0 0 2.598-1.06 3.7 3.7 0 0 0 2.598 1.06 3.7 3.7 0 0 0 2.624-1.084 3.716 3.716 0 0 0 0-5.249z"/></g></g></svg>