<svg id="Capa_1" fill="#bc0000" enable-background="new 0 0 512 512" height="39" viewBox="0 0 512 512" width="43" xmlns="http://www.w3.org/2000/svg"><g><path d="m0 352.665h91.666v126.835h-91.666z"/><path d="m310.915 352.665c1.777 4.951 2.752 10.28 2.752 15.835 0 25.916-21.084 47-47 47h-74.667v-30h74.667c9.374 0 17-7.626 17-17 0-7.207-4.515-13.365-10.859-15.835h-151.142v126.835h169.742l132.736-63.598c17.125-8.205 28.189-25.776 28.189-44.765 0-6.527-1.279-12.758-3.579-18.472z"/><path d="m512 322.665v-30h-29.34c-6.093-50.451-28.708-97.126-65.204-133.622-39.571-39.57-91.112-62.813-146.456-66.379v-30.164h27.667v-30h-85.333v30h27.666v30.164c-55.344 3.566-106.885 26.808-146.456 66.38-36.495 36.496-59.111 83.171-65.204 133.622h-29.34v28.834 1.165zm-98.358-47.725-28.824 8.316c-11.034-38.241-38.301-69.401-74.811-85.492l12.099-27.452c44.666 19.687 78.03 57.822 91.536 104.628z"/></g></svg>