<svg xmlns="http://www.w3.org/2000/svg" width="46" height="38" viewBox="0 0 46 38"><g><g><path fill="#bc0000" d="M2.792 14.438h5.93v2.693h-5.93zm0 12.073h5.93v2.692h-5.93zM0 20.474h8.722v2.693H0zm40.815-7.697a15.491 15.491 0 0 1 3.346 9.63C44.161 31.006 37.15 38 28.531 38c-8.618 0-15.63-6.995-15.63-15.592 0-7.703 5.63-14.118 13-15.37V3.702h-2.28V0h9.822v3.702h-2.281v3.336a15.6 15.6 0 0 1 7.805 3.774l1.869-1.864-1.347-1.344L41.397 5.7 46 10.292l-1.908 1.904-1.348-1.344zm-.32 9.631c0-6.58-5.367-11.935-11.964-11.935-6.596 0-11.963 5.354-11.963 11.935s5.367 11.935 11.963 11.935c6.597 0 11.964-5.354 11.964-11.935zm-2.698 0c0 5.096-4.157 9.243-9.266 9.243-5.108 0-9.264-4.147-9.264-9.243s4.156-9.242 9.264-9.242c5.11 0 9.266 4.146 9.266 9.242zm-4.46-2.89l-1.908-1.904-3.852 3.842 1.909 1.904z"/></g></g></svg>