<svg width="73" height="64" viewBox="0 0 73 64" fill="none" xmlns="http://www.w3.org/2000/svg">
<path d="M1.20965 63.8723C0.974981 63.8723 0.741518 63.8036 0.539506 63.6711C0.202012 63.4469 0 63.0697 0 62.6672V48.2057C0 47.6875 0.331445 47.2271 0.824984 47.0633C1.18062 46.9439 1.98141 46.486 2.62374 46.1172C3.45235 45.6424 4.23379 45.1929 4.80354 44.9977C5.43861 44.7795 6.08698 44.594 6.73656 44.4072C7.70187 44.1312 8.61395 43.8697 9.47038 43.5045C10.1829 43.202 10.8167 42.6959 11.4869 42.1596C12.2127 41.5799 12.9627 40.9798 13.9038 40.5508C15.4957 39.8241 17.2327 39.5963 18.925 39.8952C19.9278 40.0711 20.9548 40.4194 21.9758 40.9292C22.9689 41.4257 23.7782 42.0752 24.5596 42.7031C24.8511 42.9369 25.1427 43.1719 25.4439 43.3961C26.4055 44.1143 27.4531 44.7325 28.5551 45.2339C30.2994 46.0281 32.9123 46.8572 35.4513 46.3088C36.0658 46.1751 36.6683 45.975 37.3057 45.7629C38.1694 45.4749 39.0622 45.1784 40.0504 45.0314C41.8734 44.7603 43.5028 44.8181 44.8927 45.2013C46.1955 45.5593 47.1886 46.4523 47.6906 47.7152C47.9338 48.3262 48.0547 48.936 48.1696 49.5265C48.6644 49.4928 49.1543 49.4349 49.6454 49.3771C50.0906 49.3253 50.5357 49.2735 50.9821 49.2361C52.3091 49.1276 53.6385 49.0276 54.9679 48.9517C58.0719 48.7757 61.0742 48.5215 63.6859 47.3561C65.2802 46.6451 67.9705 46.3944 70.0281 47.2958C71.2329 47.8225 72.0664 48.6829 72.4353 49.7844C72.9361 51.2752 72.0422 52.9286 70.4442 53.4709C68.9697 53.9698 67.4975 54.4772 66.0266 54.9845L59.8646 57.1092C59.5452 57.2188 59.2283 57.3417 58.9114 57.4659C58.165 57.7551 57.3933 58.054 56.5501 58.2215C54.9582 58.536 53.4728 58.5083 52.0381 58.4818C51.3922 58.4697 50.739 58.4565 50.0664 58.477C48.108 58.5336 46.1846 58.8698 44.3496 59.4736C43.7532 59.67 43.1629 59.8954 42.5714 60.1196C41.1585 60.6558 39.6984 61.2114 38.1005 61.4307C36.263 61.6826 34.2272 61.5488 32.4308 61.4307L31.7389 61.3861C30.2789 61.2958 28.8285 60.9957 27.4265 60.7065C26.3971 60.4932 25.4257 60.2919 24.452 60.1678C21.798 59.8291 19.4924 59.7737 17.4009 60.0027C12.9639 60.4859 5.86803 62.0297 1.67416 63.7771C1.52658 63.8422 1.36812 63.8723 1.20965 63.8723ZM2.41931 48.9866V60.9137C6.94704 59.3109 13.1187 58.0455 17.1408 57.6081C19.4246 57.3598 21.9165 57.4153 24.7616 57.7792C25.8273 57.9154 26.8918 58.1347 27.92 58.348C29.299 58.6336 30.603 58.9024 31.8901 58.9819L32.5905 59.0277C34.3542 59.1434 36.1771 59.2627 37.7702 59.0446C39.0948 58.8626 40.365 58.3806 41.7101 57.8696C42.3355 57.6322 42.9609 57.3948 43.5911 57.1875C45.6475 56.5102 47.8031 56.133 49.9962 56.0703C50.7087 56.0499 51.4006 56.0619 52.0841 56.074C53.451 56.0993 54.7429 56.1246 56.0796 55.8595C56.7134 55.7341 57.3558 55.4847 58.0344 55.2219C58.3815 55.087 58.7275 54.9532 59.0747 54.8339L65.2367 52.7105C66.7124 52.2007 68.187 51.6921 69.6664 51.192C69.9591 51.092 70.2265 50.8052 70.1418 50.5521C69.9906 50.1014 69.635 49.7591 69.0567 49.506C67.7273 48.9252 65.7471 49.0806 64.6754 49.5591C61.6887 50.8907 58.4445 51.1715 55.107 51.3619C53.797 51.4366 52.4893 51.5343 51.1817 51.6415C50.7631 51.6753 50.3458 51.7247 49.9285 51.7741C49.3273 51.844 48.7249 51.9139 48.12 51.9476C47.6967 51.9994 47.2515 52.0561 46.8245 51.8657C46.0515 51.5246 45.9148 50.9823 45.9269 50.5834C45.8882 50.4653 45.8483 50.2556 45.8072 50.0435C45.7068 49.5205 45.6112 49.0264 45.4443 48.6058C45.2919 48.2226 44.9604 47.7237 44.2516 47.5272C43.1883 47.2332 41.8952 47.197 40.4085 47.4188C39.6307 47.5333 38.8759 47.7851 38.0763 48.0515C37.4061 48.2744 36.713 48.5046 35.9691 48.6661C32.7792 49.3578 29.6317 48.3744 27.5535 47.4284C26.293 46.8548 25.0967 46.1486 23.9971 45.3267C23.6729 45.0856 23.3596 44.8326 23.0451 44.5807C22.3302 44.0071 21.6552 43.4648 20.8944 43.0839C20.0827 42.679 19.2807 42.4043 18.5077 42.2693C17.3005 42.0572 16.0582 42.2199 14.9138 42.7429C14.2461 43.0478 13.6425 43.5298 13.0038 44.0408C12.2357 44.6542 11.4409 45.2893 10.4236 45.722C9.42926 46.1462 8.40105 46.4402 7.40792 46.7246C6.79826 46.8994 6.1898 47.0729 5.59344 47.2766C5.24385 47.3971 4.46121 47.8454 3.83339 48.2057C3.3326 48.4913 2.84995 48.7673 2.41931 48.9866Z" fill="#97BF36"/>
<path d="M35.7579 55.127C33.5104 55.127 31.2568 54.9932 29.0322 54.7257C26.2065 54.387 22.5654 53.77 19.4711 51.9865C18.8929 51.6527 18.6957 50.9152 19.0296 50.3391C19.3635 49.7631 20.105 49.5655 20.682 49.8993C23.3953 51.4635 26.7242 52.0214 29.3214 52.3323C32.0927 52.665 34.9124 52.7843 37.7006 52.6806L37.9099 52.6734C40.2687 52.589 42.7074 52.5023 44.6223 51.3996C45.2985 51.0104 45.9045 50.5235 46.421 49.9547C46.8686 49.4606 47.6343 49.4233 48.1291 49.8703C48.625 50.3162 48.6625 51.079 48.215 51.5719C47.5291 52.3275 46.7271 52.9722 45.8331 53.4868C43.3969 54.8908 40.5276 54.9932 37.9958 55.0824L37.7877 55.0896C37.1127 55.1149 36.4353 55.127 35.7579 55.127Z" fill="#97BF36"/>
<path d="M33.8698 33.7437C33.2021 33.7437 32.6602 33.2038 32.6602 32.5385V4.82107C32.6602 4.15585 33.2021 3.61597 33.8698 3.61597C34.5375 3.61597 35.0795 4.15585 35.0795 4.82107V32.5385C35.0795 33.2038 34.5375 33.7437 33.8698 33.7437Z" fill="#97BF36"/>
<path d="M20.7228 24.2393C16.9439 24.2393 12.4149 23.1112 8.75936 18.8619C8.5513 18.5908 4.83887 13.5581 4.83887 4.82081C4.83887 4.36527 5.09773 3.94829 5.5066 3.74462C5.91546 3.54095 6.40658 3.58313 6.7731 3.8555C6.81786 3.88924 11.3831 7.2311 16.9354 7.2311C17.0564 7.2311 29.032 7.3962 29.032 21.6928C29.032 22.1688 28.7501 22.6003 28.3134 22.7943C28.2517 22.822 24.959 24.2393 20.7228 24.2393ZM7.3489 7.04189C7.88357 13.5641 10.6174 17.3157 10.6476 17.3567C16.2169 23.8259 24.1486 21.7326 26.5981 20.8733C26.182 9.77153 17.3213 9.64138 16.9354 9.64138C12.9109 9.64138 9.42588 8.1687 7.3489 7.04189Z" fill="#97BF36"/>
<path d="M27.8205 22.8979C27.5979 22.8979 27.3742 22.8377 27.1721 22.7099L13.866 14.274C13.3023 13.9173 13.1365 13.1713 13.4946 12.6097C13.8527 12.0493 14.6014 11.8818 15.1651 12.2397L28.4713 20.6757C29.035 21.0324 29.2007 21.7784 28.8427 22.34C28.6116 22.7003 28.2209 22.8979 27.8205 22.8979Z" fill="#97BF36"/>
<path d="M48.7044 26.5161C47.8818 26.5161 47.0508 26.4595 46.2161 26.3426C39.0707 25.3519 38.709 22.2957 38.709 21.6931C38.709 16.9858 40.0118 13.3234 42.5811 10.8058C46.0842 7.37358 50.6301 7.40371 50.8261 7.41094C57.6086 7.41094 63.4113 3.83769 63.4682 3.80153C63.8408 3.56894 64.3125 3.55568 64.6972 3.76779C65.0819 3.97989 65.3214 4.38241 65.3214 4.82108V11.0252C65.0214 14.0778 64.1553 16.7219 62.74 19.002C59.815 23.7202 54.4805 26.5161 48.7044 26.5161ZM41.1283 21.622C41.2517 22.1029 42.4287 23.3839 46.55 23.9576C52.2982 24.7554 57.8457 22.3138 60.6824 17.7366C61.9017 15.7698 62.6505 13.4716 62.9081 10.9059L62.9045 6.84452C60.4876 8.02436 55.9635 9.82003 50.8055 9.82003C50.7632 9.8369 47.0193 9.81762 44.254 12.5461C42.1928 14.5816 41.1404 17.6354 41.1283 21.622ZM41.1283 21.6365C41.1283 21.6558 41.1283 21.6738 41.1283 21.6931C41.1283 21.6931 41.1319 21.6726 41.1283 21.6365Z" fill="#97BF36"/>
<path d="M33.8709 25.3079C33.7209 25.3079 33.5697 25.2801 33.4222 25.2211L27.3739 22.8112C26.7533 22.563 26.4521 21.8629 26.7001 21.2448C26.9481 20.6278 27.6533 20.329 28.2727 20.5736L34.3209 22.9835C34.9415 23.2317 35.2427 23.9318 34.9947 24.55C34.8048 25.0211 34.35 25.3079 33.8709 25.3079Z" fill="#97BF36"/>
<path d="M47.5091 51.9963C47.2793 51.9963 47.0482 51.965 46.8232 51.8638C46.0503 51.5227 45.9136 50.9804 45.9257 50.5815C45.887 50.4634 45.847 50.2537 45.8059 50.0416C45.7055 49.5185 45.61 49.0244 45.443 48.6038C45.2906 48.2206 44.9592 47.7216 44.2503 47.5252C43.187 47.2311 41.8939 47.195 40.4072 47.4167C39.6294 47.5312 38.8746 47.7831 38.075 48.0494C37.4049 48.2724 36.7117 48.5026 35.9678 48.6641C32.7791 49.357 29.6304 48.3724 27.5522 47.4263C26.2918 46.8527 25.0954 46.1465 23.9958 45.3245C23.6717 45.0835 23.3584 44.8304 23.0438 44.5785C22.3289 44.0049 21.6539 43.4625 20.8931 43.0817C20.2955 42.7828 19.6326 42.5466 18.9201 42.3791C18.5342 42.2875 18.2185 42.0151 18.0734 41.6488C17.9282 41.2812 17.973 40.8678 18.1919 40.5388L18.348 40.305C18.3746 40.264 18.4048 40.2255 18.4363 40.1881C18.7471 39.829 26.1454 31.3337 33.8703 31.3337C34.3348 31.3337 45.0136 31.4326 49.1748 39.8012C54.1429 40.2026 58.0634 44.3592 58.0634 49.4113V50.0367C58.0634 50.6658 57.5771 51.1901 56.9481 51.2383C56.3323 51.2865 55.7166 51.3263 55.107 51.3612C53.7969 51.4359 52.4893 51.5336 51.1816 51.6408C50.7631 51.6746 50.3458 51.724 49.9284 51.7734C49.3272 51.8433 48.7248 51.9132 48.12 51.9469C47.9192 51.971 47.7148 51.9963 47.5091 51.9963ZM42.2096 44.8654C43.181 44.8654 44.0785 44.9774 44.8938 45.2028C46.1966 45.5607 47.1898 46.4538 47.6918 47.7168C47.9349 48.3278 48.0559 48.9376 48.1708 49.5282C48.6655 49.4944 49.1555 49.4366 49.6466 49.3787C50.0917 49.3269 50.5369 49.2751 50.9832 49.2377C52.3102 49.1292 53.6396 49.0292 54.9691 48.9533C55.188 48.9412 55.407 48.928 55.6271 48.9135C55.3707 45.1582 52.2207 42.1802 48.3861 42.1802C47.9023 42.1802 47.4656 41.8934 47.2744 41.4499C44.0096 33.861 33.9694 33.7441 33.869 33.7441C28.7921 33.7441 23.5313 38.4298 21.3346 40.6364C21.5535 40.728 21.7689 40.8268 21.9769 40.9305C22.9688 41.427 23.7781 42.0754 24.5608 42.7045C24.8523 42.9383 25.1438 43.1733 25.445 43.3975C26.4067 44.1157 27.4542 44.734 28.5562 45.2353C30.3006 46.0296 32.9134 46.8587 35.4525 46.3104C36.067 46.1766 36.6694 45.9765 37.3069 45.7644C38.1706 45.4764 39.0633 45.1799 40.0516 45.0329C40.804 44.9208 41.525 44.8654 42.2096 44.8654Z" fill="#97BF36"/>
<path d="M39.9198 22.8982C39.4626 22.8982 39.0247 22.6391 38.8203 22.198C38.5408 21.5942 38.8058 20.8771 39.4118 20.5987L55.1373 13.3677C55.7421 13.0881 56.4631 13.3533 56.7425 13.9571C57.0219 14.5609 56.757 15.2779 56.151 15.5563L40.4255 22.7873C40.261 22.8632 40.0892 22.8982 39.9198 22.8982Z" fill="#97BF36"/>
<path d="M33.8701 28.9238C33.5604 28.9238 33.2508 28.8057 33.0149 28.5707C32.5419 28.0995 32.5419 27.3378 33.0149 26.8666L39.0631 20.8407C39.5349 20.3695 40.3018 20.3695 40.7736 20.8407C41.2466 21.3119 41.2466 22.0736 40.7736 22.5448L34.7253 28.5707C34.4895 28.8057 34.1798 28.9238 33.8701 28.9238Z" fill="#97BF36"/>
<path d="M33.8702 6.02588C33.5605 6.02588 33.2508 5.90778 33.0149 5.67278L29.386 2.05743C28.913 1.58623 28.913 0.8246 29.386 0.3534C29.8577 -0.1178 30.6247 -0.1178 31.0964 0.3534L34.7254 3.96875C35.1984 4.43995 35.1984 5.20158 34.7254 5.67278C34.4895 5.90778 34.1798 6.02588 33.8702 6.02588Z" fill="#97BF36"/>
<path d="M33.8701 6.02588C33.5604 6.02588 33.2508 5.90778 33.0149 5.67278C32.5419 5.20158 32.5419 4.43995 33.0149 3.96875L36.6438 0.3534C37.1156 -0.1178 37.8825 -0.1178 38.3543 0.3534C38.8273 0.8246 38.8273 1.58623 38.3543 2.05743L34.7253 5.67278C34.4895 5.90778 34.1798 6.02588 33.8701 6.02588Z" fill="#97BF36"/>
</svg>
