<svg width="69" height="70" viewBox="0 0 69 70" fill="none" xmlns="http://www.w3.org/2000/svg">
<path d="M23.5411 57.8418C22.8233 57.8418 22.1217 58.0538 21.5249 58.4511C20.9282 58.8484 20.463 59.4131 20.1883 60.0737C19.9137 60.7343 19.8418 61.4613 19.9818 62.1626C20.1219 62.864 20.4675 63.5082 20.975 64.0138C21.4825 64.5194 22.1292 64.8638 22.8331 65.0033C23.5371 65.1428 24.2667 65.0712 24.9298 64.7975C25.5929 64.5239 26.1597 64.0605 26.5585 63.4659C26.9572 62.8714 27.17 62.1723 27.17 61.4573C27.17 60.4984 26.7877 59.5788 26.1071 58.9007C25.4266 58.2227 24.5035 57.8418 23.5411 57.8418ZM23.5411 62.6624C23.3018 62.6624 23.068 62.5918 22.869 62.4593C22.6701 62.3269 22.5151 62.1387 22.4235 61.9185C22.3319 61.6983 22.308 61.4559 22.3547 61.2222C22.4013 60.9884 22.5165 60.7736 22.6857 60.6051C22.8549 60.4366 23.0704 60.3218 23.3051 60.2753C23.5397 60.2288 23.783 60.2526 24.004 60.3439C24.225 60.4351 24.414 60.5895 24.5469 60.7877C24.6798 60.9859 24.7507 61.2189 24.7507 61.4573C24.7507 61.7769 24.6233 62.0834 24.3964 62.3095C24.1696 62.5355 23.8619 62.6624 23.5411 62.6624Z" fill="#97BF36"/>
<path d="M50.1544 57.8418C49.4366 57.8418 48.735 58.0538 48.1382 58.4511C47.5414 58.8484 47.0763 59.4131 46.8016 60.0737C46.527 60.7343 46.4551 61.4613 46.5951 62.1626C46.7351 62.864 47.0808 63.5082 47.5883 64.0138C48.0958 64.5194 48.7424 64.8638 49.4464 65.0033C50.1503 65.1428 50.88 65.0712 51.5431 64.7975C52.2062 64.5239 52.773 64.0605 53.1717 63.4659C53.5705 62.8714 53.7833 62.1723 53.7833 61.4573C53.7833 60.4984 53.401 59.5788 52.7204 58.9007C52.0399 58.2227 51.1168 57.8418 50.1544 57.8418ZM50.1544 62.6624C49.9151 62.6624 49.6812 62.5918 49.4823 62.4593C49.2834 62.3269 49.1283 62.1387 49.0368 61.9185C48.9452 61.6983 48.9213 61.4559 48.9679 61.2222C49.0146 60.9884 49.1298 60.7736 49.299 60.6051C49.4682 60.4366 49.6837 60.3218 49.9184 60.2753C50.153 60.2288 50.3962 60.2526 50.6173 60.3439C50.8383 60.4351 51.0272 60.5895 51.1602 60.7877C51.2931 60.9859 51.364 61.2189 51.364 61.4573C51.364 61.7769 51.2366 62.0834 51.0097 62.3095C50.7829 62.5355 50.4752 62.6624 50.1544 62.6624Z" fill="#97BF36"/>
<path d="M7.59335 43.3802C7.308 42.5761 6.74651 41.8984 6.00812 41.4669C5.26974 41.0354 4.402 40.8778 3.55827 41.022C2.71454 41.1662 1.94915 41.6029 1.39737 42.255C0.8456 42.9071 0.542969 43.7325 0.542969 44.5853C0.542969 45.4382 0.8456 46.2636 1.39737 46.9156C1.94915 47.5677 2.71454 48.0044 3.55827 48.1486C4.402 48.2929 5.26974 48.1353 6.00812 47.7037C6.74651 47.2722 7.308 46.5945 7.59335 45.7904H10.2352V61.4571C10.2352 61.7768 10.3627 62.0833 10.5895 62.3093C10.8164 62.5353 11.1241 62.6623 11.4449 62.6623H15.1706C15.4599 64.6686 16.4654 66.5039 18.003 67.8314C19.5405 69.1589 21.5069 69.8896 23.5414 69.8896C25.576 69.8896 27.5424 69.1589 29.0799 67.8314C30.6174 66.5039 31.623 64.6686 31.9122 62.6623H41.783C42.0723 64.6686 43.0778 66.5039 44.6154 67.8314C46.1529 69.1589 48.1193 69.8896 50.1538 69.8896C52.1884 69.8896 54.1548 69.1589 55.6923 67.8314C57.2298 66.5039 58.2354 64.6686 58.5246 62.6623H62.2504C62.5712 62.6623 62.8789 62.5353 63.1057 62.3093C63.3326 62.0833 63.46 61.7768 63.46 61.4571V45.7904H65.8793V48.2007H68.2986V40.9699H65.8793V43.3802H63.46V38.3379C64.1032 38.1145 64.6698 37.7143 65.0941 37.1834C65.5185 36.6526 65.7833 36.013 65.858 35.3384C65.9327 34.6639 65.8141 33.9821 65.5161 33.372C65.218 32.7618 64.7526 32.2481 64.1737 31.8905C64.7797 31.2709 65.2437 30.5279 65.5339 29.7126C65.824 28.8973 65.9334 28.029 65.8546 27.1676C65.7757 26.3061 65.5105 25.4719 65.077 24.7223C64.6436 23.9727 64.0524 23.3256 63.3439 22.8255C63.4206 22.4511 63.4595 22.07 63.46 21.6878C63.4633 20.8541 63.2922 20.0288 62.9575 19.2646C62.6229 18.5004 62.132 17.8141 61.5163 17.2494C60.9005 16.6847 60.1734 16.2541 59.3813 15.985C58.5892 15.7158 57.7495 15.6141 56.9158 15.6863C56.5976 14.9544 56.1358 14.2932 55.5574 13.7417C54.9791 13.1902 54.296 12.7594 53.5481 12.4746C53.7031 11.944 53.7821 11.3943 53.7828 10.8417C53.7868 10.0471 53.6323 9.25966 53.3282 8.52512C53.0241 7.79058 52.5764 7.12359 52.0113 6.56292C51.4462 6.00225 50.7748 5.55909 50.0362 5.25919C49.2977 4.9593 48.5066 4.80865 47.7091 4.81601C47.0335 3.91494 46.1163 3.22207 45.0631 2.81703C44.0099 2.41199 42.8633 2.3112 41.7552 2.52626C41.1992 1.7453 40.4634 1.10841 39.6096 0.668883C38.7558 0.229361 37.8087 0 36.8476 0C35.8866 0 34.9395 0.229361 34.0856 0.668883C33.2318 1.10841 32.4961 1.7453 31.9401 2.52626C30.8319 2.31077 29.6852 2.41134 28.6319 2.81642C27.5786 3.2215 26.6615 3.91461 25.9861 4.81601H25.9607C24.3572 4.81792 22.8199 5.45338 21.6861 6.58299C20.5522 7.71261 19.9144 9.24414 19.9125 10.8417C19.9132 11.3943 19.9922 11.944 20.1471 12.4746C19.3993 12.7594 18.7162 13.1902 18.1378 13.7417C17.5595 14.2932 17.0977 14.9544 16.7795 15.6863C15.9457 15.6139 15.1059 15.7155 14.3137 15.9846C13.5216 16.2536 12.7944 16.6843 12.1786 17.249C11.5628 17.8137 11.072 18.5001 10.7374 19.2644C10.4028 20.0286 10.2317 20.854 10.2352 21.6878C10.2373 22.0701 10.2778 22.4512 10.3562 22.8255C9.64775 23.3256 9.05647 23.9727 8.62306 24.7223C8.18964 25.4719 7.92438 26.3061 7.84552 27.1676C7.76666 28.029 7.87607 28.8973 8.16624 29.7126C8.4564 30.5279 8.92043 31.2709 9.52638 31.8905C8.94751 32.2481 8.48212 32.7618 8.18405 33.372C7.88598 33.9821 7.76742 34.6639 7.84209 35.3384C7.91675 36.013 8.18159 36.6526 8.60596 37.1834C9.03033 37.7143 9.59689 38.1145 10.2401 38.3379V43.3802H7.59335ZM4.18696 45.7904C3.94772 45.7904 3.71384 45.7198 3.51492 45.5873C3.31599 45.4549 3.16095 45.2667 3.06939 45.0465C2.97783 44.8263 2.95388 44.584 3.00055 44.3502C3.04723 44.1164 3.16244 43.9017 3.33161 43.7332C3.50078 43.5646 3.71632 43.4498 3.95097 43.4033C4.18562 43.3568 4.42884 43.3807 4.64988 43.4719C4.87091 43.5631 5.05984 43.7176 5.19275 43.9158C5.32567 44.114 5.39662 44.347 5.39662 44.5853C5.39662 44.9049 5.26917 45.2115 5.04232 45.4375C4.81546 45.6635 4.50778 45.7904 4.18696 45.7904ZM61.0407 40.9699H45.6358L41.402 38.5597H61.0407V40.9699ZM61.0407 49.7397L58.3371 48.2007H61.0407V49.7397ZM54.1034 45.7904L49.8696 43.3802H61.0407V45.7904H54.1034ZM44.9934 43.3802L49.2272 45.7904H24.468L28.7018 43.3802H44.9934ZM32.9356 40.9699L36.8476 38.7428L40.7597 40.9699H32.9356ZM28.0595 40.9699H12.6545V38.5597H32.2933L28.0595 40.9699ZM23.8257 43.3802L19.5919 45.7904H12.6545V43.3802H23.8257ZM12.6545 48.2007H15.3581L12.6545 49.7397V48.2007ZM23.5414 67.4828C22.3452 67.4828 21.1758 67.1294 20.1812 66.4673C19.1866 65.8052 18.4113 64.8641 17.9536 63.7631C17.4958 62.662 17.376 61.4505 17.6094 60.2816C17.8428 59.1127 18.4188 58.0391 19.2647 57.1964C20.1105 56.3537 21.1882 55.7798 22.3615 55.5473C23.5347 55.3148 24.7508 55.4341 25.856 55.8902C26.9612 56.3462 27.9058 57.1186 28.5704 58.1095C29.235 59.1004 29.5897 60.2654 29.5897 61.4571C29.5878 63.0547 28.9499 64.5862 27.8161 65.7158C26.6822 66.8454 25.1449 67.4809 23.5414 67.4828ZM50.1538 67.4828C48.9576 67.4828 47.7882 67.1294 46.7936 66.4673C45.799 65.8052 45.0237 64.8641 44.566 63.7631C44.1082 62.662 43.9884 61.4505 44.2218 60.2816C44.4551 59.1127 45.0312 58.0391 45.8771 57.1964C46.7229 56.3537 47.8006 55.7798 48.9739 55.5473C50.1471 55.3148 51.3632 55.4341 52.4684 55.8902C53.5736 56.3462 54.5182 57.1186 55.1828 58.1095C55.8474 59.1004 56.2021 60.2654 56.2021 61.4571C56.2002 63.0547 55.5623 64.5862 54.4285 65.7158C53.2946 66.8454 51.7573 67.4809 50.1538 67.4828ZM58.5246 60.252C58.2354 58.2456 57.2298 56.4104 55.6923 55.0829C54.1548 53.7554 52.1884 53.0246 50.1538 53.0246C48.1193 53.0246 46.1529 53.7554 44.6154 55.0829C43.0778 56.4104 42.0723 58.2456 41.783 60.252H31.9122C31.623 58.2456 30.6174 56.4104 29.0799 55.0829C27.5424 53.7554 25.576 53.0246 23.5414 53.0246C21.5069 53.0246 19.5405 53.7554 18.003 55.0829C16.4654 56.4104 15.4599 58.2456 15.1706 60.252H12.6545V52.5151L20.2342 48.2007H53.461L61.0407 52.5151V60.252H58.5246ZM62.2504 36.1494H11.4449C11.1241 36.1494 10.8164 36.0224 10.5895 35.7964C10.3627 35.5704 10.2352 35.2639 10.2352 34.9443C10.2352 34.6246 10.3627 34.3181 10.5895 34.0921C10.8164 33.8661 11.1241 33.7391 11.4449 33.7391H62.2504C62.5712 33.7391 62.8789 33.8661 63.1057 34.0921C63.3326 34.3181 63.46 34.6246 63.46 34.9443C63.46 35.2639 63.3326 35.5704 63.1057 35.7964C62.8789 36.0224 62.5712 36.1494 62.2504 36.1494ZM12.2916 24.4717C12.5637 24.3406 12.7767 24.1128 12.8887 23.8331C13.0006 23.5534 13.0034 23.2421 12.8965 22.9605C12.7379 22.5547 12.6559 22.1233 12.6545 21.6878C12.6545 20.729 13.0369 19.8094 13.7174 19.1314C14.398 18.4533 15.321 18.0724 16.2835 18.0724C16.6179 18.0791 16.9497 18.1322 17.2694 18.2303C17.4289 18.2755 17.5961 18.2876 17.7605 18.2657C17.9249 18.2438 18.083 18.1885 18.225 18.1032C18.3671 18.0178 18.49 17.9043 18.5861 17.7697C18.6822 17.635 18.7496 17.4821 18.7839 17.3204C18.9442 16.5773 19.3371 15.904 19.9059 15.3975C20.4748 14.8909 21.1903 14.5773 21.9495 14.5016C22.1516 14.4803 22.3451 14.4085 22.512 14.293C22.679 14.1775 22.814 14.022 22.9046 13.8407C22.9953 13.6595 23.0387 13.4585 23.0307 13.2561C23.0228 13.0538 22.9638 12.8567 22.8592 12.6831C22.5165 12.1294 22.334 11.4921 22.3318 10.8417C22.3318 9.8828 22.7141 8.96321 23.3947 8.28519C24.0752 7.60717 24.9983 7.22627 25.9607 7.22627C26.0792 7.23037 26.1972 7.24245 26.314 7.26242L26.4349 7.27929C26.674 7.31131 26.9171 7.27096 27.1329 7.16351C27.3486 7.05605 27.5269 6.88645 27.6446 6.67673C28.0562 5.9133 28.7346 5.32679 29.5512 5.02829C30.3678 4.72978 31.266 4.74001 32.0755 5.05703C32.3584 5.16389 32.6712 5.1613 32.9522 5.04975C33.2332 4.93821 33.4621 4.72582 33.5937 4.45447C33.8849 3.84011 34.3455 3.32086 34.9216 2.95721C35.4977 2.59356 36.1656 2.40049 36.8476 2.40049C37.5296 2.40049 38.1976 2.59356 38.7737 2.95721C39.3498 3.32086 39.8103 3.84011 40.1016 4.45447C40.2332 4.72582 40.4621 4.93821 40.7431 5.04975C41.0241 5.1613 41.3369 5.16389 41.6197 5.05703C42.4278 4.74252 43.3235 4.73335 44.1379 5.03126C44.9523 5.32917 45.6292 5.91357 46.041 6.67432C46.1582 6.88449 46.3364 7.05448 46.5523 7.162C46.7681 7.26953 47.0116 7.30957 47.2507 7.27688L47.3716 7.26001C47.4917 7.24041 47.6129 7.22913 47.7345 7.22627C48.697 7.22627 49.62 7.60717 50.3006 8.28519C50.9811 8.96321 51.3635 9.8828 51.3635 10.8417C51.3612 11.4921 51.1787 12.1294 50.8361 12.6831C50.7315 12.8567 50.6725 13.0538 50.6646 13.2561C50.6566 13.4585 50.7 13.6595 50.7906 13.8407C50.8813 14.022 51.0163 14.1775 51.1832 14.293C51.3502 14.4085 51.5436 14.4803 51.7457 14.5016C52.5049 14.5773 53.2205 14.8909 53.7893 15.3975C54.3582 15.904 54.7511 16.5773 54.9114 17.3204C54.9457 17.4821 55.013 17.635 55.1092 17.7697C55.2053 17.9043 55.3282 18.0178 55.4702 18.1032C55.6123 18.1885 55.7704 18.2438 55.9348 18.2657C56.0992 18.2876 56.2664 18.2755 56.4259 18.2303C56.7455 18.1322 57.0774 18.0791 57.4118 18.0724C58.3742 18.0724 59.2973 18.4533 59.9778 19.1314C60.6584 19.8094 61.0407 20.729 61.0407 21.6878C61.0393 22.1233 60.9573 22.5547 60.7988 22.9605C60.6919 23.2421 60.6947 23.5534 60.8066 23.8331C60.9185 24.1128 61.1315 24.3406 61.4036 24.4717C62.1463 24.8237 62.7464 25.4174 63.105 26.1548C63.4635 26.8922 63.559 27.7294 63.3759 28.5282C63.1927 29.327 62.7417 30.0397 62.0973 30.5489C61.4529 31.058 60.6535 31.3331 59.8311 31.3289H13.8642C13.0418 31.3331 12.2424 31.058 11.598 30.5489C10.9536 30.0397 10.5026 29.327 10.3194 28.5282C10.1362 27.7294 10.2318 26.8922 10.5903 26.1548C10.9488 25.4174 11.5489 24.8237 12.2916 24.4717Z" fill="#97BF36"/>
<path d="M21.1224 24.0981H18.7031V26.5085H21.1224V24.0981Z" fill="#97BF36"/>
<path d="M39.267 26.5083H36.8477V28.9185H39.267V26.5083Z" fill="#97BF36"/>
<path d="M28.3802 15.6619H25.9609V18.0723H28.3802V15.6619Z" fill="#97BF36"/>
<path d="M56.2025 25.303H53.7832V27.7134H56.2025V25.303Z" fill="#97BF36"/>
<path d="M39.267 8.43115H36.8477V10.8413H39.267V8.43115Z" fill="#97BF36"/>
<path d="M38.058 18.0723H35.6387V20.4824H38.058V18.0723Z" fill="#97BF36"/>
<path d="M47.7347 15.6619H45.3154V18.0723H47.7347V15.6619Z" fill="#97BF36"/>
<path d="M45.3151 50.6111H28.3799V53.0212H45.3151V50.6111Z" fill="#97BF36"/>
</svg>
