<svg width="88" height="50" viewBox="0 0 88 50" fill="none" xmlns="http://www.w3.org/2000/svg">
<path d="M56.1542 36.5144H53.2637V38.8188H56.1542V36.5144Z" fill="#97BF36"/>
<path d="M71.0105 47.2273H62.3389V49.5315H71.0105V47.2273Z" fill="#97BF36"/>
<path d="M42.1055 16.8179H48.5803V8.92725H42.1055V16.8179ZM44.4179 11.2311H46.2679V14.514H44.3601V11.2311H44.4179Z" fill="#97BF36"/>
<path d="M79.0464 29.4308C79.0464 27.6454 77.5433 26.1479 75.7512 26.1479C73.9591 26.1479 72.4561 27.6454 72.4561 29.4308C72.4561 31.2162 73.9591 32.7136 75.7512 32.7136C77.5433 32.7136 79.0464 31.2738 79.0464 29.4308ZM74.7685 29.4308C74.7685 28.9124 75.2309 28.4517 75.7512 28.4517C76.2715 28.4517 76.734 28.9124 76.734 29.4308C76.734 29.9491 76.2715 30.4099 75.7512 30.4099C75.2309 30.4099 74.7685 30.0067 74.7685 29.4308Z" fill="#97BF36"/>
<path d="M16.8422 43.9451C22.7388 43.9451 27.4792 39.1646 27.4792 33.3474C27.4792 27.5302 22.681 22.7498 16.8422 22.7498C11.0033 22.7498 6.20508 27.5302 6.20508 33.3474C6.20508 39.1646 10.9455 43.9451 16.8422 43.9451ZM25.2246 33.3474C25.2246 37.8975 21.467 41.6412 16.9 41.6412C12.333 41.6412 8.51749 37.9551 8.51749 33.3474C8.51749 28.7397 12.2752 25.0536 16.8422 25.0536C21.4092 25.0536 25.2246 28.7973 25.2246 33.3474Z" fill="#97BF36"/>
<path d="M16.8422 38.4158C19.617 38.4158 21.9294 36.1695 21.9294 33.3473C21.9294 30.5827 19.6749 28.2788 16.8422 28.2788C14.0095 28.2788 11.7549 30.5251 11.7549 33.3473C11.7549 36.1119 14.0673 38.4158 16.8422 38.4158ZM16.8422 30.5827C18.3452 30.5827 19.617 31.7922 19.617 33.3473C19.617 34.9024 18.403 36.1119 16.8422 36.1119C15.2813 36.1119 14.0673 34.9024 14.0673 33.3473C14.0673 31.7922 15.3391 30.5827 16.8422 30.5827Z" fill="#97BF36"/>
<path d="M25.2249 47.228C29.9653 44.4058 33.1449 39.2223 33.1449 33.3477C33.1449 24.4205 25.8608 17.1636 16.9002 17.1636C7.93957 17.1636 0.597656 24.4205 0.597656 33.3477C0.597656 39.2223 3.77722 44.4058 8.51767 47.228H4.93343V48.3798V49.5317H58.9861V48.3798V47.228H25.2249ZM30.7746 33.3477C30.7746 41.0077 24.5311 47.228 16.8424 47.228C9.15358 47.228 2.91007 41.0077 2.91007 33.3477C2.91007 25.6876 9.15358 19.4674 16.8424 19.4674C24.5311 19.4674 30.7746 25.6876 30.7746 33.3477Z" fill="#97BF36"/>
<path d="M60.489 30.5825V15.7232H72.2823V18.9485C73.0338 18.7181 73.7854 18.5453 74.5947 18.4301V14.2833L68.8137 3.85881L68.4668 3.68602L59.7374 0H45.1114L44.8801 0.115189L35.6883 3.85881L29.9072 14.2833V21.0794C30.7744 22.0009 31.5837 23.0376 32.2196 24.0743V14.8593L37.307 5.64422L45.2848 2.36136L53.0314 5.64422L58.1187 14.8593V30.5249H51.7596V19.9276H38.6366V30.5825H34.6477C34.7633 31.3312 34.8211 32.0799 34.8789 32.8862H38.6944H51.8752H59.3906H60.5468H65.2294C64.9982 32.1375 64.8248 31.3888 64.7669 30.5825H60.489ZM40.949 30.5825V23.6136L47.8863 30.5825H40.949ZM49.505 28.9122L42.799 22.2313H49.4472V28.9122H49.505ZM51.008 2.30376H59.2171L59.4484 2.41895L62.2811 3.62843H59.4484H54.072L51.008 2.30376ZM60.0265 13.4194L59.4484 12.3827L55.8641 5.8746H59.5062H67.3684L71.5308 13.4194H60.0265Z" fill="#97BF36"/>
<path d="M87.3129 36.5151H81.9365C83.902 34.7872 85.1739 32.2531 85.1739 29.4885C85.1739 24.305 80.9537 20.1582 75.7508 20.1582C70.5478 20.1582 66.3277 24.3626 66.3277 29.4885C66.3277 32.3107 67.5995 34.8448 69.5651 36.5151H59.4482V38.8188H87.3129V37.667V36.5151ZM68.6401 29.4309C68.6401 25.5721 71.8197 22.4044 75.7508 22.4044C79.6819 22.4044 82.8615 25.5721 82.8615 29.4309C82.8615 33.2898 79.6819 36.4575 75.7508 36.4575C71.8197 36.4575 68.6401 33.3474 68.6401 29.4309Z" fill="#97BF36"/>
</svg>
