<svg width="51" height="66" viewBox="0 0 51 66" fill="none" xmlns="http://www.w3.org/2000/svg">
<path d="M49.5959 60.2568H43.5476C42.8218 60.2568 42.338 59.7748 42.338 59.0517C42.338 58.3286 42.8218 57.8466 43.5476 57.8466H48.3862V2.41027H2.41931V57.8466H24.1931C24.9189 57.8466 25.4028 58.3286 25.4028 59.0517C25.4028 59.7748 24.9189 60.2568 24.1931 60.2568H1.20966C0.483862 60.2568 0 59.7748 0 59.0517V1.20514C0 0.482055 0.483862 0 1.20966 0H49.5959C50.3217 0 50.8055 0.482055 50.8055 1.20514V59.0517C50.8055 59.7748 50.3217 60.2568 49.5959 60.2568Z" fill="#97BF36"/>
<path d="M37.0151 55.4365C36.1683 55.4365 35.4425 54.8339 34.8377 54.3519C34.5958 54.1109 34.1119 53.7493 33.87 53.7493C33.749 53.7493 33.2652 54.1109 32.9023 54.3519C32.1765 54.9545 31.2088 55.557 30.1201 55.316H29.9991C28.9104 54.9545 28.5475 53.7493 28.1846 52.7852C28.0636 52.5442 27.9427 52.0621 27.8217 51.9416C27.5798 51.9416 27.2169 51.8211 26.854 51.8211C25.8863 51.8211 24.7976 51.7006 24.0718 50.857C23.346 49.8929 23.7089 48.6877 23.9508 47.7236C24.0718 47.362 24.1927 46.88 24.1927 46.639C24.0718 46.5184 23.7089 46.1569 23.467 45.9159C22.7412 45.3133 21.7734 44.5902 21.7734 43.3851C21.7734 42.1799 22.7412 41.4568 23.467 40.8543C23.7089 40.6132 24.1927 40.2517 24.1927 40.1312C24.1927 40.0107 24.0718 39.4081 23.9508 39.0465C23.7089 38.0824 23.346 36.9978 23.9508 36.0337C24.6766 35.0696 25.8863 34.949 26.854 34.949C27.2169 34.949 27.8217 34.949 27.9427 34.8285C28.0636 34.708 28.1846 34.226 28.3056 33.8644C28.5475 32.9003 28.9104 31.8157 29.9991 31.4541C31.0878 30.9721 32.1765 31.8157 32.9023 32.4182C33.1442 32.6593 33.6281 33.0208 33.87 33.0208C33.991 33.0208 34.4748 32.6593 34.8377 32.4182C35.5635 31.8157 36.5312 31.2131 37.6199 31.4541H37.7409C38.8296 31.8157 39.1925 33.0208 39.5554 33.9849C39.6763 34.226 39.7973 34.708 39.9183 34.8285C40.1602 34.8285 40.5231 34.949 40.886 34.949C41.8537 34.949 42.9424 35.0696 43.6682 35.9132C44.394 36.8773 44.0311 38.0824 43.7892 39.0465C43.6682 39.4081 43.5472 39.8901 43.5472 40.1312C43.6682 40.2517 44.0311 40.6132 44.273 40.8543C44.9988 41.4568 45.9666 42.1799 45.9666 43.3851C45.9666 44.5902 44.9988 45.3133 44.273 45.9159C44.0311 46.1569 43.5472 46.5184 43.5472 46.639C43.5472 46.7595 43.6682 47.362 43.7892 47.7236C44.0311 48.6877 44.394 49.7723 43.7892 50.7365C43.0634 51.8211 41.8537 51.8211 40.765 51.8211C40.4021 51.8211 39.7973 51.8211 39.6763 51.9416C39.5554 52.0621 39.4344 52.5442 39.3134 52.9057C39.0715 53.8698 38.7086 54.9545 37.6199 55.316C37.499 55.4365 37.257 55.4365 37.0151 55.4365ZM33.87 51.4595C34.8377 51.4595 35.5635 52.0621 36.1683 52.5442C36.2893 52.6647 36.5312 52.9057 36.7732 53.0262C36.8941 52.7852 37.0151 52.4237 37.0151 52.3031C37.257 51.4595 37.6199 50.6159 38.2248 50.1339C38.9505 49.6518 39.7973 49.6518 40.6441 49.5313C40.886 49.5313 41.2489 49.5313 41.6118 49.4108C41.6118 49.1698 41.4908 48.8082 41.3699 48.4467C41.1279 47.6031 40.886 46.7595 41.1279 45.9159C41.3699 45.1928 42.0957 44.5902 42.7005 44.1082C42.9424 43.8671 43.3053 43.6261 43.5472 43.3851C43.4263 43.144 42.9424 42.903 42.7005 42.662C42.0957 42.1799 41.4908 41.6979 41.2489 40.9748V40.8543C41.1279 40.1312 41.2489 39.2876 41.4908 38.444C41.6118 38.2029 41.7328 37.7209 41.7328 37.4799C41.4908 37.4799 41.007 37.3593 40.765 37.3593C40.0392 37.3593 39.0715 37.2388 38.4667 36.7568C37.8619 36.2747 37.499 35.4311 37.257 34.708C37.1361 34.467 37.0151 34.1054 36.8941 33.8644C36.6522 33.9849 36.4103 34.226 36.2893 34.3465C35.5635 34.8285 34.8377 35.4311 33.87 35.4311C32.9023 35.4311 32.1765 34.8285 31.5716 34.3465C31.4507 34.226 31.2088 33.9849 30.9668 33.8644C30.8459 34.1054 30.7249 34.467 30.7249 34.5875C30.483 35.4311 30.1201 36.2747 29.5152 36.7568C28.7894 37.2388 27.9427 37.2388 27.0959 37.3593C26.854 37.3593 26.4911 37.3593 26.1282 37.4799C26.1282 37.7209 26.2492 38.0824 26.3701 38.444C26.6121 39.2876 26.854 40.1312 26.6121 40.9748C26.3701 41.6979 25.6443 42.3004 25.0395 42.7825C24.7976 43.0235 24.4347 43.2646 24.1927 43.5056C24.3137 43.7466 24.7976 43.9876 25.0395 44.2287C25.6443 44.7107 26.2492 45.1928 26.4911 45.9159V46.0364C26.6121 46.7595 26.4911 47.6031 26.2492 48.4467C26.1282 48.6877 26.0072 49.1698 26.0072 49.4108C26.2492 49.4108 26.733 49.5313 26.975 49.5313C27.7007 49.5313 28.6685 49.6518 29.2733 50.1339C29.8781 50.6159 30.241 51.4595 30.483 52.1826C30.6039 52.4237 30.7249 52.7852 30.8459 53.0262C31.0878 52.9057 31.3297 52.6647 31.4507 52.5442C32.1765 52.0621 32.9023 51.4595 33.87 51.4595Z" fill="#97BF36"/>
<path d="M33.8705 49.4116C30.4835 49.4116 27.8223 46.7602 27.8223 43.3856C27.8223 40.0111 30.4835 37.3596 33.8705 37.3596C37.2576 37.3596 39.9188 40.0111 39.9188 43.3856C39.9188 46.7602 37.2576 49.4116 33.8705 49.4116ZM33.8705 39.77C31.8141 39.77 30.2416 41.3368 30.2416 43.3856C30.2416 45.4345 31.8141 47.0012 33.8705 47.0012C35.927 47.0012 37.4995 45.4345 37.4995 43.3856C37.4995 41.3368 35.927 39.77 33.8705 39.77Z" fill="#97BF36"/>
<path d="M39.9185 65.0779C39.6766 65.0779 39.5556 65.0779 39.3137 64.9574L33.8702 61.9444L28.4268 64.8368C28.0639 65.0779 27.58 65.0779 27.2171 64.8368C26.8542 64.7163 26.6123 64.3548 26.6123 63.8727V56.6417C26.6123 55.9186 27.0962 55.4365 27.822 55.4365C28.5478 55.4365 29.0316 55.9186 29.0316 56.6417V61.8239L33.2654 59.5341C33.6283 59.2931 34.1122 59.2931 34.4751 59.5341L38.7089 61.8239V56.6417C38.7089 55.9186 39.1927 55.4365 39.9185 55.4365C40.6443 55.4365 41.1282 55.9186 41.1282 56.6417V63.8727C41.1282 64.3548 40.8862 64.7163 40.5233 64.9574C40.4024 65.0779 40.1604 65.0779 39.9185 65.0779Z" fill="#97BF36"/>
<path d="M42.3377 9.64136H8.46746C7.74167 9.64136 7.25781 9.15938 7.25781 8.4364C7.25781 7.71343 7.74167 7.23145 8.46746 7.23145H42.3377C43.0635 7.23145 43.5474 7.71343 43.5474 8.4364C43.5474 9.15938 43.0635 9.64136 42.3377 9.64136Z" fill="#97BF36"/>
<path d="M42.3377 16.8726H8.46746C7.74167 16.8726 7.25781 16.3904 7.25781 15.6672C7.25781 14.944 7.74167 14.4619 8.46746 14.4619H42.3377C43.0635 14.4619 43.5474 14.944 43.5474 15.6672C43.5474 16.3904 43.0635 16.8726 42.3377 16.8726Z" fill="#97BF36"/>
<path d="M42.3377 24.103H8.46746C7.74167 24.103 7.25781 23.621 7.25781 22.8981C7.25781 22.1751 7.74167 21.6931 8.46746 21.6931H42.3377C43.0635 21.6931 43.5474 22.1751 43.5474 22.8981C43.5474 23.621 43.0635 24.103 42.3377 24.103Z" fill="#97BF36"/>
<path d="M42.338 31.3335H39.9186C39.1928 31.3335 38.709 30.8515 38.709 30.1285C38.709 29.4056 39.1928 28.9236 39.9186 28.9236H42.338C43.0637 28.9236 43.5476 29.4056 43.5476 30.1285C43.5476 30.8515 43.0637 31.3335 42.338 31.3335Z" fill="#97BF36"/>
<path d="M27.8218 31.3335H8.46746C7.74167 31.3335 7.25781 30.8515 7.25781 30.1285C7.25781 29.4056 7.74167 28.9236 8.46746 28.9236H27.8218C28.5476 28.9236 29.0315 29.4056 29.0315 30.1285C29.0315 30.8515 28.5476 31.3335 27.8218 31.3335Z" fill="#97BF36"/>
<path d="M21.7736 38.5645H8.46746C7.74167 38.5645 7.25781 38.0824 7.25781 37.3594C7.25781 36.6363 7.74167 36.1543 8.46746 36.1543H21.7736C22.4994 36.1543 22.9833 36.6363 22.9833 37.3594C22.9833 38.0824 22.4994 38.5645 21.7736 38.5645Z" fill="#97BF36"/>
<path d="M19.3543 45.7954H8.46746C7.74167 45.7954 7.25781 45.3134 7.25781 44.5903C7.25781 43.8673 7.74167 43.3853 8.46746 43.3853H19.3543C20.0801 43.3853 20.564 43.8673 20.564 44.5903C20.564 45.3134 20.0801 45.7954 19.3543 45.7954Z" fill="#97BF36"/>
<path d="M21.7736 53.0269H8.46746C7.74167 53.0269 7.25781 52.5448 7.25781 51.8217C7.25781 51.0985 7.74167 50.6165 8.46746 50.6165H21.7736C22.4994 50.6165 22.9833 51.0985 22.9833 51.8217C22.9833 52.5448 22.4994 53.0269 21.7736 53.0269Z" fill="#97BF36"/>
</svg>
