<svg xmlns="http://www.w3.org/2000/svg" xmlns:xlink="http://www.w3.org/1999/xlink" width="49" height="44" viewBox="0 0 49 44"><defs><path id="a" d="M581.61 2807.56v40.47c0 .87-.7 1.57-1.55 1.57h-45.12c-.86 0-1.55-.7-1.55-1.57v-40.47c0-.87.7-1.57 1.55-1.57h45.12c.86 0 1.55.7 1.55 1.57zm-3.1 38.89v-25.75h-42.01v25.75zm0-37.3h-42.01v8.4h42zm-30.6 1.57c1.43 0 2.59 1.17 2.59 2.62a2.61 2.61 0 0 1-2.6 2.63 2.61 2.61 0 0 1-2.59-2.63 2.61 2.61 0 0 1 2.6-2.62zm6.74 0c1.43 0 2.6 1.17 2.6 2.62a2.61 2.61 0 0 1-2.6 2.63 2.61 2.61 0 0 1-2.6-2.63 2.61 2.61 0 0 1 2.6-2.62zm-13.49 0c1.44 0 2.6 1.17 2.6 2.62a2.61 2.61 0 0 1-2.6 2.63 2.61 2.61 0 0 1-2.59-2.63 2.61 2.61 0 0 1 2.6-2.62zm34.18 14.29v6.83c0 .87-.7 1.58-1.56 1.58h-32.56c-.86 0-1.56-.7-1.56-1.58v-6.83c0-.87.7-1.58 1.56-1.58h32.56c.86 0 1.56.71 1.56 1.58zm-3.11 5.26v-3.68h-29.46v3.68zm-12.97 6.83c0 .87-.7 1.57-1.55 1.57h-16.5c-.85 0-1.55-.7-1.55-1.57 0-.87.7-1.58 1.56-1.58h16.49c.86 0 1.55.7 1.55 1.58zm0 5.25c0 .87-.7 1.58-1.55 1.58h-16.5c-.85 0-1.55-.7-1.55-1.58 0-.87.7-1.57 1.56-1.57h16.49c.86 0 1.55.7 1.55 1.57z"/></defs><use fill="#fff" xlink:href="#a" transform="translate(-533 -2806)"/></svg>