<svg xmlns="http://www.w3.org/2000/svg" xmlns:xlink="http://www.w3.org/1999/xlink" width="48" height="49" viewBox="0 0 48 49"><defs><path id="a" d="M348.13 3921.95a23.96 23.96 0 0 1-23.07 17.91 23.8 23.8 0 0 1-20.76-12.09 24.19 24.19 0 0 1-2.4-18.32 23.96 23.96 0 0 1 11.15-14.66 23.8 23.8 0 0 1 32.69 8.84 24.18 24.18 0 0 1 2.4 18.32zm-4.55-17.07a21.32 21.32 0 0 0-29.28-7.92 21.47 21.47 0 0 0-9.99 13.14 21.67 21.67 0 0 0 15.16 26.5c5.53 1.5 11.3.73 16.27-2.16a21.47 21.47 0 0 0 9.98-13.14 21.67 21.67 0 0 0-2.14-16.42zm-5.78 10.82c0 .95-.48 1.8-1.3 2.28l-15.39 8.96a2.59 2.59 0 0 1-2.6 0 2.6 2.6 0 0 1-1.3-2.28v-17.92a2.6 2.6 0 0 1 3.9-2.28l15.39 8.96a2.6 2.6 0 0 1 1.3 2.28zm-2.49 0l-.06-.1-15.38-8.97-.06-.01-.06.01-.06.1v17.93l.06.1c.06.04.1.02.12 0l15.38-8.96a.1.1 0 0 0 .06-.1zm4.2-9.7a1.23 1.23 0 0 1-1.75-.23 16.24 16.24 0 0 0-10.6-6.17 1.26 1.26 0 0 1 .35-2.5c4.8.67 9.25 3.26 12.22 7.13.42.55.32 1.34-.23 1.76z"/></defs><use fill="#fff" xlink:href="#a" opacity=".4" transform="translate(-301 -3891)"/></svg>