<svg xmlns="http://www.w3.org/2000/svg" xmlns:xlink="http://www.w3.org/1999/xlink" width="52" height="42" viewBox="0 0 52 42"><defs><path id="a" d="M542.82 3183.2v10.21c0 .9-.74 1.64-1.65 1.64h-6.87c-.9 0-1.64-.73-1.64-1.64v-10.2c0-.9.74-1.64 1.64-1.64h6.87c.91 0 1.65.73 1.65 1.64zm-3.3 1.64h-3.57v6.94h3.58zm16.23-8.38v16.95c0 .9-.74 1.64-1.64 1.64h-6.87c-.91 0-1.65-.73-1.65-1.64v-16.95c0-.9.74-1.64 1.65-1.64h6.86c.91 0 1.65.73 1.65 1.64zm-3.29 15.32v-13.7h-3.58v13.7zm16.22-17.55v19.18c0 .9-.73 1.64-1.64 1.64h-6.87c-.91 0-1.65-.73-1.65-1.64v-19.18c0-.9.74-1.64 1.65-1.64h6.87c.9 0 1.64.73 1.64 1.64zm-3.29 1.63h-3.58v15.92h3.58zm16.22-7.98v25.53c0 .9-.73 1.64-1.64 1.64h-6.87c-.9 0-1.65-.73-1.65-1.64v-25.53c0-.9.74-1.64 1.65-1.64h6.87c.9 0 1.64.73 1.64 1.64zm-3.29 23.9v-22.27h-3.58v22.27zm-28.26-23.63l-17.6 11.1a1.65 1.65 0 0 1-2.26-.5 1.63 1.63 0 0 1 .5-2.26l18.54-11.69c.57-.36 1.3-.34 1.85.06l12.47.96 10.96-8.69-1.51.05a1.64 1.64 0 0 1-1.7-1.57c-.03-.9.68-1.66 1.59-1.69l5.75-.2a1.64 1.64 0 0 1 1.7 1.7l-.2 5.7a1.64 1.64 0 0 1-1.64 1.58h-.06a1.64 1.64 0 0 1-1.58-1.68l.05-1.61-12.3 9.74c-.57.46-1.39.48-1.98.05z"/></defs><use fill="#fff" xlink:href="#a" transform="translate(-530 -3153)"/></svg>