<svg xmlns="http://www.w3.org/2000/svg" xmlns:xlink="http://www.w3.org/1999/xlink" width="96" height="81" viewBox="0 0 96 81"><defs><path id="a" d="M569.28 1406.74a1.98 1.98 0 0 1-2.78-.48 7 7 0 0 0-5.91-2.98 12.33 12.33 0 0 1-4.1-.83l-9.45 13.71a2 2 0 0 1-3.28 0l-9.46-13.71a12.33 12.33 0 0 1-4.29.84 7.02 7.02 0 0 0-6.99 7.02v9.88h33.3a2 2 0 0 1 0 4.01h-35.3a2 2 0 0 1-2-2v-11.89a11.02 11.02 0 0 1 10.8-11.03c4.33 0 7.91-3.3 8.4-7.53-3.76-2.75-6.51-7.6-7.3-13.44a2 2 0 0 1-.36-.56c-.31-.79-.58-1.6-.8-2.43-2.1-8.27 1.8-16.62 8.66-18.61.69-.2 1.4-.33 2.13-.4a13.8 13.8 0 0 1 6.14-1.44c8.21 0 14.9 7.23 14.9 16.12 0 2.3-.44 4.54-1.32 6.63-.09.22-.22.41-.37.58-.5 3.8-1.84 7.3-3.9 10.1a15.99 15.99 0 0 1-3.42 3.46 8.49 8.49 0 0 0 8.62 7.53c3.4.13 6.59 1.85 8.56 4.66.64.9.43 2.16-.48 2.8zm-35.87-33.47a13.82 13.82 0 0 0 2.75-5.35 2.34 2.34 0 1 1 4.44-.3 2.4 2.4 0 0 0 2.23 1.5h10.44a7.1 7.1 0 0 1 4.31 1.46c-.19-6.48-5-11.7-10.9-11.7-1.6 0-3.18.4-4.66 1.19-.26.14-.55.21-.84.23-.57.02-1.13.11-1.65.26-4.55 1.32-7.16 6.89-6.12 12.71zm5.02 13.18c1.95 2.4 4.43 3.72 6.97 3.72 2.75 0 5.37-1.5 7.39-4.25 2.14-2.91 3.32-6.8 3.33-10.98a3.17 3.17 0 0 0-2.85-1.8h-10.44c-1.4 0-2.71-.44-3.82-1.27l-.02-.01c-.99 2.15-2.4 4.1-4.14 5.7a17.6 17.6 0 0 0 3.58 8.9zm14.61 13.96a12.54 12.54 0 0 1-4.17-6.75 11.63 11.63 0 0 1-6.94-.01 12.54 12.54 0 0 1-4.17 6.76l7.64 11.08zm61.86 21.06v11.88a2 2 0 0 1-2 2h-48.75a2 2 0 0 1-2-2v-11.88a11.02 11.02 0 0 1 10.8-11.04c4.33 0 7.91-3.3 8.4-7.52a15.25 15.25 0 0 1-2.38-2.15 19.9 19.9 0 0 1-3.98-7.09l-.6.92a2 2 0 0 1-3.51-.21 24.31 24.31 0 0 1-2.17-9.45 23.5 23.5 0 0 1 4.57-15.02c3.21-4.21 7.63-6.62 12.43-6.77a14.9 14.9 0 0 1 6.71 1.35c.09 0 .64-.02.86-.01 4.15.04 8.08 1.97 11.05 5.44 2.9 3.39 4.58 7.9 4.74 12.71.15 4.9-1.3 9.58-4.08 13.18a2 2 0 0 1-3.49-.64 17.83 17.83 0 0 1-5.79 7.73 8.48 8.48 0 0 0 8.6 7.54c5.88.21 10.6 5.08 10.6 11.03zm-35.63-35.99a15.7 15.7 0 0 1 6.07-.98 5.95 5.95 0 0 0 5.5-2.91c.37-.67.7-1.37.96-2.1a2 2 0 0 1 2.65-1.15 17.86 17.86 0 0 1 9.14 9c.23.48.44.98.63 1.49.63-1.9.92-3.95.85-6.07a16.5 16.5 0 0 0-3.77-10.22c-2.22-2.6-5.09-4.03-8.09-4.05l-1.1.05c-.32.01-.66-.06-.95-.2-2.63-1.34-5.2-1.2-5.33-1.19-3.58.12-6.9 1.96-9.38 5.2a19.48 19.48 0 0 0-3.75 12.45 19.72 19.72 0 0 0 .65 4.6 17.6 17.6 0 0 1 5.92-3.92zm9.25 15.85c2.54 0 5.02-1.32 6.97-3.72 2.07-2.53 3.38-6.03 3.68-9.84l.03-.18a13.94 13.94 0 0 0-4.55-4.64l-.32.6a9.91 9.91 0 0 1-9.12 4.96 11.46 11.46 0 0 0-4.54.73c-.84.32-1.65.74-2.4 1.25 1.36 6.35 5.55 10.84 10.25 10.84zm-9.41 11.47a9.8 9.8 0 0 0 9.42 7.2 9.8 9.8 0 0 0 9.42-7.2 12.55 12.55 0 0 1-5.96-8 11.52 11.52 0 0 1-6.93 0c-.8 3.42-3 6.3-5.95 8zm31.8 8.67a7.01 7.01 0 0 0-7.2-7.03 12.3 12.3 0 0 1-2-.23 13.81 13.81 0 0 1-13.18 9.8 13.81 13.81 0 0 1-13.17-9.8 12.48 12.48 0 0 1-2.22.24 7.02 7.02 0 0 0-6.99 7.02v9.88h44.76z"/><linearGradient id="b" x1="566.03" x2="567.9" y1="1354.87" y2="1435.36" gradientUnits="userSpaceOnUse"><stop offset="0" stop-color="#508ab3"/><stop offset="1" stop-color="#883759"/></linearGradient></defs><g transform="translate(-519 -1355)"><use xlink:href="#a"/><use fill="url(#b)" xlink:href="#a"/></g></svg>