<svg xmlns="http://www.w3.org/2000/svg" xmlns:xlink="http://www.w3.org/1999/xlink" width="64" height="83" viewBox="0 0 64 83"><defs><path id="a" d="M206.75 1749.58c0 1.11-.73 1.85-1.84 1.85h-11.07c-1.1 0-1.85-.74-1.85-1.85 0-1.12.74-1.86 1.85-1.86h11.07c1.1 0 1.84.74 1.84 1.86zm-3.69 5.57c0 1.11-.73 1.85-1.84 1.85h-7.38c-1.1 0-1.85-.74-1.85-1.85 0-1.12.74-1.86 1.85-1.86h7.38c1.1 0 1.84.74 1.84 1.86zm-14.76-7.43c1.02 0 1.85.83 1.85 1.86a1.85 1.85 0 0 1-3.69 0c0-1.03.82-1.86 1.84-1.86zm0 5.57c1.02 0 1.85.83 1.85 1.86a1.85 1.85 0 0 1-3.69 0c0-1.03.82-1.86 1.84-1.86zm12.92-51.97c1.02 0 1.84.83 1.84 1.86 0 1.02-.82 1.85-1.84 1.85a1.85 1.85 0 0 1-1.85-1.85c0-1.03.83-1.86 1.85-1.86zm12.92 3.34v4.08a3.71 3.71 0 0 1-3.7 3.72h-18.44a3.45 3.45 0 0 1-3.5-3.72v-4.08c0-1.67 1.1-3.16 2.77-3.53l3.32-.92a7.29 7.29 0 0 1 6.64-4.46 7.76 7.76 0 0 1 6.83 4.46l3.32.92a3.57 3.57 0 0 1 2.77 3.53zm-3.7 4.08v-4.08l-4.42-1.11c-.56-.19-1.11-.56-1.3-1.3a3.56 3.56 0 0 0-3.5-2.79 3.56 3.56 0 0 0-3.5 2.79c-.2.55-.56 1.11-1.3 1.3l-4.43 1.11v4.08zm22.15-3.7v66.81c0 3.16-2.4 5.57-5.54 5.57h-51.66a5.45 5.45 0 0 1-5.54-5.57v-66.82c0-3.15 2.4-5.57 5.54-5.57h9.22c1.11 0 1.85.75 1.85 1.86s-.74 1.86-1.85 1.86h-9.22c-1.1 0-1.85.74-1.85 1.85v66.82c0 1.11.74 1.86 1.85 1.86h51.66c1.1 0 1.85-.75 1.85-1.86v-66.82c0-1.11-.74-1.85-1.85-1.85h-9.22c-1.11 0-1.85-.75-1.85-1.86s.74-1.86 1.85-1.86h9.22a5.45 5.45 0 0 1 5.54 5.57zm-7.38 3.7v43.26c0 2.41-1.11 4.83-2.77 6.5l-8.67 8.72a8.63 8.63 0 0 1-6.46 2.79h-28.23c-1.1 0-1.85-.75-1.85-1.86v-59.4c0-1.11.74-1.85 1.85-1.85h5.53c1.11 0 1.85.74 1.85 1.85 0 1.12-.74 1.86-1.85 1.86h-3.69v55.68h23.99a3.71 3.71 0 0 0 3.69-3.7v-3.72c0-3.16 2.4-5.57 5.53-5.57h3.7a3.71 3.71 0 0 0 3.69-3.71v-38.98h-3.7c-1.1 0-1.84-.74-1.84-1.86 0-1.11.74-1.85 1.85-1.85h5.53c1.1 0 1.85.74 1.85 1.85zm-6.1 48.08c-.55.18-.92.18-1.28.18h-3.7c-1.1 0-1.84.74-1.84 1.86v4.82zm-30.8-20.23v3.7c0 1.12-.74 1.86-1.85 1.86-1.1 0-1.85-.74-1.85-1.85v-3.71c0-1.12.74-1.86 1.85-1.86 1.1 0 1.84.74 1.84 1.86zm7.37-11.14v14.85c0 1.11-.73 1.85-1.84 1.85-1.1 0-1.85-.74-1.85-1.85v-14.85c0-1.11.74-1.86 1.85-1.86 1.1 0 1.84.75 1.84 1.86zm14.76 5.57v9.28c0 1.11-.73 1.85-1.84 1.85-1.1 0-1.85-.74-1.85-1.85v-9.28c0-1.12.74-1.86 1.85-1.86 1.1 0 1.84.74 1.84 1.86zm-7.38-3.72v13c0 1.11-.73 1.85-1.84 1.85-1.1 0-1.85-.74-1.85-1.85v-13c0-1.1.74-1.85 1.85-1.85 1.1 0 1.84.74 1.84 1.85zm14.77-7.42v20.42c0 1.11-.74 1.85-1.85 1.85-1.1 0-1.84-.74-1.84-1.85v-20.42c0-1.11.73-1.86 1.84-1.86 1.1 0 1.85.75 1.85 1.86z"/><linearGradient id="b" x1="200.85" x2="201.59" y1="1695.75" y2="1777.42" gradientUnits="userSpaceOnUse"><stop offset="0" stop-color="#508ab3"/><stop offset="1" stop-color="#883759"/></linearGradient></defs><g transform="translate(-169 -1695)"><use xlink:href="#a"/><use fill="url(#b)" xlink:href="#a"/></g></svg>