<svg xmlns="http://www.w3.org/2000/svg" xmlns:xlink="http://www.w3.org/1999/xlink" width="73" height="73" viewBox="0 0 73 73"><defs><path id="a" d="M121.17 2184.9c0 9.63-3.75 18.68-10.56 25.5a35.8 35.8 0 0 1-25.48 10.56 35.8 35.8 0 0 1-25.49-10.56 35.84 35.84 0 0 1-10.55-25.5c0-9.64 3.75-18.7 10.55-25.5a35.8 35.8 0 0 1 25.49-10.57 35.8 35.8 0 0 1 25.48 10.56 35.84 35.84 0 0 1 10.56 25.5zm-4.22 0a31.86 31.86 0 0 0-31.82-31.84 31.86 31.86 0 0 0-31.82 31.83 31.86 31.86 0 0 0 31.82 31.84 31.86 31.86 0 0 0 31.82-31.84zm-4.23 0a27.63 27.63 0 0 1-27.6 27.6 27.63 27.63 0 0 1-27.58-27.6 27.63 27.63 0 0 1 27.59-27.62 27.63 27.63 0 0 1 27.6 27.61zm-4.22 0a23.4 23.4 0 0 0-23.37-23.4 23.4 23.4 0 0 0-23.37 23.4 23.4 23.4 0 0 0 23.37 23.38 23.4 23.4 0 0 0 23.37-23.39zm-12.81 6.48a7.8 7.8 0 0 1-3.32 6.17 11.6 11.6 0 0 1-5.13 2.1v4.4h-4.22v-4.4a11.61 11.61 0 0 1-5.13-2.1 7.8 7.8 0 0 1-3.32-6.17h4.22c0 2.29 2.9 4.22 6.34 4.22 3.43 0 6.33-1.93 6.33-4.22 0-1.28-.81-2.42-2.02-2.82l-9.95-3.32a7.19 7.19 0 0 1-4.92-6.83 7.8 7.8 0 0 1 3.32-6.17 11.6 11.6 0 0 1 5.13-2.1v-4.4h4.22v4.4a11.6 11.6 0 0 1 5.13 2.1 7.8 7.8 0 0 1 3.32 6.17h-4.23c0-2.29-2.9-4.22-6.33-4.22-3.44 0-6.34 1.93-6.34 4.22 0 1.28.82 2.42 2.03 2.82l9.95 3.32a7.19 7.19 0 0 1 4.92 6.83z"/><linearGradient id="b" x1="84.09" x2="86.17" y1="2148.83" y2="2220.96" gradientUnits="userSpaceOnUse"><stop offset="0" stop-color="#508ab3"/><stop offset="1" stop-color="#883759"/></linearGradient></defs><g transform="translate(-49 -2148)"><use xlink:href="#a"/><use fill="url(#b)" xlink:href="#a"/></g></svg>