<svg xmlns="http://www.w3.org/2000/svg" xmlns:xlink="http://www.w3.org/1999/xlink" width="75" height="87" viewBox="0 0 75 87"><defs><path id="a" d="M602.24 681.4a2 2 0 0 1 2.01 2v68.33a2 2 0 0 1-.6 1.41h.01l-14.12 14.08a2.02 2.02 0 0 1-1.42.59h-44.82a2 2 0 0 1-2.01-2v-7.48l-.41.41a5.85 5.85 0 0 1-6.4 1.27 5.85 5.85 0 0 1-1.9-9.54l8.71-8.68v-58.39a2 2 0 0 1 2.01-2zm-25.87 27.99h1.03a2 2 0 0 1 1.42 3.42 2 2 0 0 1-1.42.59h-1.03a2 2 0 0 1-1.42-3.42 2 2 0 0 1 1.42-.59zm-12.86 0h7.72a2 2 0 0 1 1.42 3.42 2 2 0 0 1-1.42.59h-7.72a2 2 0 0 1-1.42-3.42 2 2 0 0 1 1.42-.59zm0 13.5h19.2a2 2 0 0 1 1.42 3.42 2 2 0 0 1-1.42.6h-19.2a2 2 0 0 1-1.42-3.42 2 2 0 0 1 1.42-.6zm0-6.66h19.2a2 2 0 0 1 1.42 3.42 2 2 0 0 1-1.42.59h-19.2a2 2 0 0 1-1.42-3.42 2 2 0 0 1 1.42-.6zm-25.47 39.68l16.22-16.17-2.62-2.6-16.22 16.16a1.83 1.83 0 0 0 0 2.6v.01a1.84 1.84 0 0 0 2.62 0zm52.08 5.06l7.27-7.25h-7.27zm10.1-11.25v-64.3h-54.9v52.36l4.9-4.9a2.03 2.03 0 0 1 2.2-.43c.23.1.46.25.64.43l1.26 1.25 2.86-2.85a20.56 20.56 0 0 1-4.77-13.13 20.6 20.6 0 0 1 35.19-14.53 20.45 20.45 0 0 1 0 29.05 20.58 20.58 0 0 1-27.56 1.43l-2.88 2.87 1.36 1.35a2 2 0 0 1 0 2.84l-13.2 13.17v9.47h40.79l-.02-12.09a2 2 0 0 1 .6-1.41c.18-.2.4-.34.64-.44.25-.1.5-.15.77-.15zm-38.92-43.27a16.47 16.47 0 0 0 0 23.39 16.57 16.57 0 0 0 23.46 0 16.47 16.47 0 0 0 0-23.39 16.57 16.57 0 0 0-23.46 0z"/><linearGradient id="b" x1="566.86" x2="568.25" y1="681.41" y2="767.81" gradientUnits="userSpaceOnUse"><stop offset="0" stop-color="#508ab3"/><stop offset="1" stop-color="#883759"/></linearGradient></defs><g transform="translate(-530 -681)"><use xlink:href="#a"/><use fill="url(#b)" xlink:href="#a"/></g></svg>