<svg xmlns="http://www.w3.org/2000/svg" xmlns:xlink="http://www.w3.org/1999/xlink" width="69" height="72" viewBox="0 0 69 72"><defs><path id="a" d="M488.67 2165.11v4.65c0 .65-.51 1.17-1.14 1.17h-1.15v3.49c0 .64-.5 1.16-1.14 1.16h-61.68c-.63 0-1.14-.52-1.14-1.16v-3.5h-1.15c-.63 0-1.14-.51-1.14-1.16v-4.65c0-.64.51-1.16 1.14-1.16h5.43l27.16-14.98c.33-.19.74-.19 1.08 0l27.16 14.98h5.43c.63 0 1.14.52 1.14 1.16zm-57.18-1.16h3.2l19.18-10.33c.33-.18.73-.18 1.06 0l19.17 10.33h3.2l-22.9-12.64zm22.91-8l-14.82 8h29.64zm29.7 14.98h-59.4v2.32h59.4zm2.28-4.66h-63.96v2.33h63.96zm-20.56 25.6c0 6.42-5.11 11.62-11.42 11.62-6.3 0-11.42-5.2-11.42-11.63 0-6.42 5.11-11.63 11.42-11.63 6.3 0 11.42 5.21 11.42 11.63zm-2.28 0c0-5.15-4.1-9.31-9.14-9.31a9.22 9.22 0 0 0-9.14 9.3c0 5.14 4.1 9.3 9.14 9.3a9.23 9.23 0 0 0 9.14-9.3zm-5.9 1.15a3.5 3.5 0 0 1-2.1 4.44v1.38h-2.28v-1.16h-1.14v-2.33h2.28c.63 0 1.14-.52 1.14-1.16 0-.64-.5-1.16-1.14-1.16a3.5 3.5 0 0 1-1.14-6.76v-1.39h2.28v1.17h1.14v2.32h-2.28c-.63 0-1.14.52-1.14 1.17 0 .64.5 1.16 1.14 1.16 1.45 0 2.75.93 3.23 2.32zm31.03 20.94v4.65c0 .65-.51 1.17-1.14 1.17h-66.26c-.63 0-1.14-.52-1.14-1.17v-4.65c0-.64.51-1.16 1.14-1.16h1.15v-3.5c0-.63.5-1.15 1.14-1.15h61.68c.63 0 1.14.52 1.14 1.16v3.49h1.15c.63 0 1.14.52 1.14 1.16zm-63.97-3.49v2.33h59.4v-2.33zm61.68 4.65h-63.96v2.33h63.96zm-60.54-9.3c-.63 0-1.14-.52-1.14-1.16v-25.6c0-.63.51-1.15 1.14-1.15h5.71c.64 0 1.15.52 1.15 1.16v25.59c0 .64-.51 1.16-1.15 1.16zm1.15-2.33h3.42v-23.26h-3.41zm18.27-24.42v3.49h-2.28v-2.33h-3.43v23.26h3.43v-2.32h2.28v3.49c0 .64-.51 1.16-1.14 1.16h-5.71c-.63 0-1.14-.52-1.14-1.16v-25.6c0-.63.5-1.15 1.14-1.15h5.7c.64 0 1.15.52 1.15 1.16zm20.56 22.1v2.32h3.43v-23.26h-3.43v2.33h-2.28v-3.5c0-.63.51-1.15 1.14-1.15h5.71c.63 0 1.14.52 1.14 1.16v25.59c0 .64-.5 1.16-1.14 1.16h-5.71c-.63 0-1.14-.52-1.14-1.16v-3.5zm11.43 4.65c-.64 0-1.15-.52-1.15-1.16v-25.6c0-.63.51-1.15 1.15-1.15h5.7c.64 0 1.15.52 1.15 1.16v25.59c0 .64-.51 1.16-1.14 1.16zm1.14-2.33h3.42v-23.26h-3.42z"/><linearGradient id="b" x1="454.13" x2="454.67" y1="2148.83" y2="2219.78" gradientUnits="userSpaceOnUse"><stop offset="0" stop-color="#508ab3"/><stop offset="1" stop-color="#883759"/></linearGradient></defs><g transform="translate(-420 -2148)"><use xlink:href="#a"/><use fill="url(#b)" xlink:href="#a"/></g></svg>