<svg xmlns="http://www.w3.org/2000/svg" xmlns:xlink="http://www.w3.org/1999/xlink" width="83" height="84" viewBox="0 0 83 84"><defs><path id="a" d="M608.98 1737.18c0 11.06-4.3 21.47-12.13 29.29a41.16 41.16 0 0 1-29.3 12.13 41.16 41.16 0 0 1-29.29-12.13 41.15 41.15 0 0 1-12.13-29.3c0-11.06 4.3-21.46 12.13-29.29a41.16 41.16 0 0 1 29.3-12.13c11.06 0 21.46 4.31 29.29 12.13a41.15 41.15 0 0 1 12.13 29.3zm-25.26-20.78l-8.27.85-.03.01-5.5 5.19c-.44.42-1 .73-1.59.89l-4.49 1.21a.12.12 0 0 0-.03.01.1.1 0 0 0 0 .07l.02.02h.02l14.97.82c1.4.08 2.63.93 3.2 2.21l.5 1.1c.72 1.62.2 3.54-1.23 4.57l-5.33 3.82c-.75.53-1.67.77-2.58.67l-8.05-.87c-.35-.04-.7-.13-1.03-.27l-5.81-2.42h-.05l-6 4.53a.05.05 0 0 0-.02.03l-.98 6.53v.04l3.91 6.73.04.02 6.86.6a3.75 3.75 0 0 1 3.18 2.42l1.5 4.02c.06.17 1.71 7.65 1.71 7.65l.03.04 3.4 1.99.06-.01 5.24-5.14a.05.05 0 0 0 .02-.03l.34-8.55c.03-.68.24-1.34.62-1.9l3.93-5.97a.05.05 0 0 0 0-.07l-2.42-2.26a3.73 3.73 0 0 1-1.14-3.33l.36-2.19a3.72 3.72 0 0 1 5.71-2.53l4.63 2.99.07-.01 1.72-1.98.01-.05-.03-.03-.13-.05a3.7 3.7 0 0 1-2.42-3.27 3.7 3.7 0 0 1 2-3.54l2.76-1.44a3.75 3.75 0 0 1 3.97.32l2.21 1.65.05.01.04-.04.37-1.49c.35-1.4 1.5-2.5 2.92-2.77l.95-.18a37.89 37.89 0 0 0-15.11-21.02l-1.82 7.57a3.74 3.74 0 0 1-3.25 2.84zm-24.73-5.14a.52.52 0 0 0 .78 0l6.83-7.98c.44-.51 1-.91 1.62-1.16l4.38-1.76c.08-.03.52-.52.52-.52a37.92 37.92 0 0 0-11.08 0l.42 2.04c.2.96.05 1.96-.4 2.82l-3.1 5.82c-.02.04-.21.47.03.74zm-28.07 16.82l3.6-5.27c.62-.9 1.4-1.66 2.31-2.26l3.97-2.57a4.52 4.52 0 0 0 2.07-3.8v-5.53a37.8 37.8 0 0 0-11.95 19.43zm14.08 34.2l-4.6-4.2c-.3-.27-.55-.57-.76-.9l-4.74-7.38a.84.84 0 0 0-.7-.4h-2.35a37.9 37.9 0 0 0 12.9 17.83l.52-4.23a.84.84 0 0 0-.27-.72zm60.3-25.1c0-2.24-.2-4.43-.57-6.57l-1.08.21a.05.05 0 0 0-.04.04l-.37 1.5a3.73 3.73 0 0 1-5.87 2.08l-2.2-1.66a.05.05 0 0 0-.06 0l-2.76 1.44a.1.1 0 0 0-.03.02v.07l.03.01.13.05a3.74 3.74 0 0 1 1.51 5.95l-1.72 1.97a3.76 3.76 0 0 1-4.84.7l-4.63-3h-.05l-.03.04-.36 2.18.01.05 2.42 2.26a3.73 3.73 0 0 1 .57 4.79l-3.94 5.96v.03l-.35 8.54a3.72 3.72 0 0 1-1.12 2.52l-5.24 5.14a3.74 3.74 0 0 1-4.5.56l-3.4-2a3.75 3.75 0 0 1-1.77-2.42l-1.56-7.14-1.5-4.04a.05.05 0 0 0-.04-.03l-6.87-.6c-1.2-.1-2.3-.8-2.9-1.84l-3.9-6.73a3.75 3.75 0 0 1-.47-2.44l.98-6.52c.15-.97.66-1.84 1.45-2.43l5.99-4.52a3.75 3.75 0 0 1 3.69-.47l5.8 2.43 8.06.87h.04l5.33-3.83a.05.05 0 0 0 .02-.06l-.5-1.1a.05.05 0 0 0-.04-.04l-14.97-.82a3.73 3.73 0 0 1-.77-7.34l4.5-1.2.02-.02 5.5-5.18c.59-.56 1.36-.92 2.17-1l8.27-.86.05-.04s2.09-8.6 2.13-8.7a37.53 37.53 0 0 0-8.27-3.3l-1.66 1.93c-.43.5-1 .9-1.62 1.16l-4.38 1.75a.52.52 0 0 0-.2.15l-6.82 7.97c-1.35 1.56-3.13 1.47-3.2 1.47a4.17 4.17 0 0 1-4.1-5.01s.24-.96.44-1.32l3.09-5.82c.05-.1.07-.23.05-.35l-.43-2.07a37.55 37.55 0 0 0-11.87 5.29v8.34c0 2.79-1.4 5.37-3.75 6.89l-3.96 2.57c-.51.33-.94.75-1.28 1.25l-7.74 11.34a38.3 38.3 0 0 0 .97 9.5h3.4a4.5 4.5 0 0 1 3.8 2.08l4.74 7.38c.04.06 4.75 4.37 4.75 4.37a4.53 4.53 0 0 1 1.45 3.9l-.76 6.1a37.52 37.52 0 0 0 19.39 5.36 37.79 37.79 0 0 0 37.74-37.74z"/><linearGradient id="b" x1="567.13" x2="567.98" y1="1695.75" y2="1778.6" gradientUnits="userSpaceOnUse"><stop offset="0" stop-color="#508ab3"/><stop offset="1" stop-color="#883759"/></linearGradient></defs><g transform="translate(-526 -1695)"><use xlink:href="#a"/><use fill="url(#b)" xlink:href="#a"/></g></svg>