<svg width="70" height="70" viewBox="0 0 70 70" fill="none" xmlns="http://www.w3.org/2000/svg">
<path d="M23 0L33.9474 11.421V31L23 19.5789V0Z" fill="#CA9F72"/>
<path d="M47 0L36.0526 11.421V31L47 19.5789V0Z" fill="#CA9F72"/>
<path d="M23 70L33.9474 58.579V39L23 50.4211V70Z" fill="#CA9F72"/>
<path d="M47 70L36.0526 58.579V39L47 50.4211V70Z" fill="#CA9F72"/>
<path d="M70 23L58.5789 33.9473L39 33.9473L50.4211 23L70 23Z" fill="#CA9F72"/>
<path d="M70 47L58.5789 36.0526L39 36.0526L50.4211 47L70 47Z" fill="#CA9F72"/>
<path d="M0 23L11.4211 33.9474L31 33.9474L19.5789 23L0 23Z" fill="#CA9F72"/>
<path d="M-1.04907e-06 47L11.4211 36.0526L31 36.0526L19.5789 47L-1.04907e-06 47Z" fill="#CA9F72"/>
</svg>
