<svg width="72" height="72" viewBox="0 0 72 72" fill="none" xmlns="http://www.w3.org/2000/svg">
<g clip-path="url(#clip0)">
<path d="M56.8635 56.8638C58.2126 56.343 59.4425 55.5498 60.4703 54.522L62.1276 52.8598V60.019C62.1276 61.1583 61.1575 62.1284 60.0182 62.1284H52.8584L54.5212 60.4711C55.549 59.4428 56.3422 58.2134 56.8635 56.8638Z" fill="#CA9F72"/>
<path d="M62.128 12.2631V19.4229L60.4707 17.7601C59.4424 16.7323 58.213 15.9391 56.8639 15.4178C56.3426 14.0687 55.5494 12.8387 54.5216 11.811L52.8594 10.1537H60.0186C61.1579 10.1537 62.128 11.1238 62.128 12.2631Z" fill="#CA9F72"/>
<path d="M11.8106 17.7596L10.1533 19.4219V12.2626C10.1533 11.1233 11.1234 10.1532 12.2627 10.1532H19.4236L17.7597 11.8105C16.7319 12.8383 15.9387 14.0682 15.418 15.4174C14.0683 15.9387 12.8389 16.7319 11.8106 17.7596Z" fill="#CA9F72"/>
<path d="M15.4174 56.8638C15.9387 58.2134 16.7319 59.4428 17.7597 60.4711L19.4225 62.1284H12.2627C11.1234 62.1284 10.1533 61.1583 10.1533 60.019V52.8592L11.8106 54.522C12.8389 55.5498 14.0683 56.343 15.4174 56.8638Z" fill="#CA9F72"/>
<path d="M16.4814 38.2498H22.6113L25.5941 41.2326V43.7045L16.5627 52.7358C15.9255 52.4403 15.3174 52.0624 14.7939 51.5394L14.3721 51.117V40.3592C14.3721 39.1781 15.3422 38.2498 16.4814 38.2498Z" fill="#CA9F72"/>
<path d="M25.5941 31.0485L22.6113 34.0312H16.4814C15.3422 34.0312 14.3721 33.1035 14.3721 31.9219V21.164L14.7939 20.7422C15.3174 20.2187 15.9255 19.8413 16.5627 19.5452L25.5941 28.5765V31.0485Z" fill="#CA9F72"/>
<path d="M36.1406 60.483C37.2794 61.4954 38.7559 62.1562 40.3594 62.1562H46.8985L37.6172 71.5078C36.8152 72.3516 35.4655 72.3516 34.6641 71.5078L25.3828 62.1562H31.9219C33.5248 62.1562 35.0014 61.4954 36.1406 60.483Z" fill="#CA9F72"/>
<path d="M55.7996 38.2498C56.9389 38.2498 57.909 39.1781 57.909 40.3592V51.117L57.4871 51.5394C56.9636 52.0624 56.356 52.4403 55.7188 52.7358L46.6875 43.7045V41.2331L49.6703 38.2498H55.7996Z" fill="#CA9F72"/>
<path d="M40.359 42.4686C39.7987 42.4686 39.2631 42.6911 38.8676 43.0866L36.1403 45.814L33.4124 43.0866C33.0174 42.6911 32.4818 42.4686 31.9215 42.4686H29.8121V40.3592C29.8121 39.7989 29.5897 39.2634 29.1936 38.8678L26.4668 36.1405L29.1942 33.4131C29.5897 33.0176 29.8121 32.482 29.8121 31.9217V29.8123H31.9215C32.4818 29.8123 33.0174 29.5899 33.4124 29.1944L36.1403 26.467L38.8676 29.1944C39.2631 29.5899 39.7982 29.8123 40.359 29.8123H42.4684V31.9217C42.4684 32.482 42.6909 33.0176 43.0864 33.4131L45.8138 36.1405L43.0858 38.8678C42.6909 39.2634 42.4684 39.7989 42.4684 40.3592V42.4686H40.359Z" fill="#CA9F72"/>
<path d="M57.4871 20.7422L57.909 21.1646V31.9219C57.909 33.1035 56.9389 34.0312 55.7996 34.0312H49.6703L46.6875 31.0485V28.5771L55.7183 19.5457C56.356 19.8413 56.9636 20.2192 57.4871 20.7422Z" fill="#CA9F72"/>
<path d="M38.25 55.7998V49.6705L41.2328 46.6872H43.7047L52.7355 55.7185C52.44 56.3557 52.062 56.9638 51.5391 57.4873L51.1167 57.9092H40.3594C39.1778 57.9092 38.25 56.9391 38.25 55.7998Z" fill="#CA9F72"/>
<path d="M51.5391 14.7942C52.062 15.3177 52.44 15.9252 52.7361 16.563L43.7047 25.5938H41.2328L38.25 22.611V16.4817C38.25 15.3424 39.1778 14.3723 40.3594 14.3723H51.1172L51.5391 14.7942Z" fill="#CA9F72"/>
<path d="M62.1562 40.3594C62.1562 38.7142 61.4948 37.2376 60.4824 36.1406C61.4954 35.0436 62.1562 33.5671 62.1562 31.9218V25.3828L71.5072 34.664C72.351 35.4655 72.351 36.8157 71.5072 37.6172L62.1562 46.8984V40.3594Z" fill="#CA9F72"/>
<path d="M31.0482 46.6872L34.031 49.67V55.7998C34.031 56.9391 33.1026 57.9092 31.9216 57.9092H21.1638L20.7413 57.4873C20.2184 56.9638 19.8405 56.3563 19.5449 55.7185L28.5763 46.6872H31.0482Z" fill="#CA9F72"/>
<path d="M36.1406 0.140736C36.6889 0.140736 37.2371 0.351674 37.6167 0.774098L46.8979 10.1251H40.3594C38.7136 10.1251 37.2371 10.7859 36.1406 11.7983C35.0437 10.7859 33.5671 10.1251 31.9219 10.1251H25.3828L34.6641 0.774098C35.0437 0.351674 35.5919 0.140736 36.1406 0.140736Z" fill="#CA9F72"/>
<path d="M21.1638 14.3723H31.9216C33.1026 14.3723 34.031 15.3424 34.031 16.4817V22.611L31.0482 25.5938H28.5763L19.5449 16.5624C19.8405 15.9252 20.2184 15.3177 20.7419 14.7936L21.1638 14.3723Z" fill="#CA9F72"/>
<path d="M10.125 25.3833V31.9218C10.125 33.5671 10.7858 35.0436 11.7982 36.1406C10.7858 37.2376 10.125 38.7142 10.125 40.3594V46.8984L0.773439 37.6172C-0.0703129 36.8157 -0.0703129 35.466 0.773439 34.6646L10.125 25.3833Z" fill="#CA9F72"/>
</g>
<defs>
<clipPath id="clip0">
<rect width="72" height="72" fill="white" transform="matrix(1 0 0 -1 0 72)"/>
</clipPath>
</defs>
</svg>
