<svg xmlns="http://www.w3.org/2000/svg" xmlns:xlink="http://www.w3.org/1999/xlink" width="46" height="43" viewBox="0 0 46 43"><defs><path id="a" d="M230.32 3159.36v28.31c0 4.08-6.27 6.44-12.48 6.96h-.12a1.4 1.4 0 0 1-1.4-1.29c-.06-.78.52-1.47 1.28-1.53 6.48-.54 9.92-2.75 9.92-4.14v-1.47a18.63 18.63 0 0 1-7 2.4 1.42 1.42 0 0 1-.24-2.8c4.7-.84 7.24-2.58 7.24-3.79v-1.48a18.61 18.61 0 0 1-7 2.42 1.42 1.42 0 0 1-.24-2.8c4.7-.85 7.24-2.6 7.24-3.8v-1.48a18.55 18.55 0 0 1-7 2.41 1.42 1.42 0 0 1-.24-2.8c4.7-.85 7.24-2.58 7.24-3.8v-1.5c-2.4 1.54-6.04 2.5-9.68 2.8h-.12a1.4 1.4 0 0 1-1.4-1.29c-.06-.78.52-1.46 1.28-1.53 6.48-.54 9.92-2.75 9.92-4.14v-1.47c-2.97 1.9-7.88 2.89-12.6 2.89s-9.62-1-12.6-2.89v1.47a1.4 1.4 0 0 1-1.4 1.42 1.4 1.4 0 0 1-1.4-1.42v-5.66c0-4.6 7.94-7.08 15.4-7.08s15.4 2.48 15.4 7.08zm-2.8 0c0-1.73-4.9-4.25-12.6-4.25-7.69 0-12.6 2.52-12.6 4.25s4.91 4.25 12.6 4.25c7.7 0 12.6-2.52 12.6-4.25zm-11.2 16.99v11.32c0 4.6-7.93 7.08-15.4 7.08-7.45 0-15.39-2.48-15.39-7.08v-11.32c0-4.6 7.94-7.08 15.4-7.08s15.4 2.48 15.4 7.08zm-2.8 9.85c-2.97 1.9-7.87 2.89-12.6 2.89-4.71 0-9.62-1-12.59-2.9v1.48c0 1.73 4.91 4.25 12.6 4.25 7.69 0 12.6-2.52 12.6-4.25zm0-5.66c-2.97 1.89-7.87 2.89-12.6 2.89-4.71 0-9.62-1-12.59-2.9v1.48c0 1.73 4.91 4.25 12.6 4.25 7.69 0 12.6-2.52 12.6-4.25zm0-4.2c0-1.72-4.9-4.24-12.6-4.24-7.68 0-12.59 2.52-12.59 4.25s4.91 4.25 12.6 4.25c7.69 0 12.6-2.52 12.6-4.25z"/></defs><use fill="#fff" xlink:href="#a" transform="translate(-185 -3152)"/></svg>