<svg xmlns="http://www.w3.org/2000/svg" xmlns:xlink="http://www.w3.org/1999/xlink" width="50" height="44" viewBox="0 0 50 44"><defs><path id="a" d="M200.52 2809.6c0-.72.56-1.3 1.27-1.3h30.7c.7 0 1.27.58 1.27 1.3 0 .7-.57 1.28-1.27 1.28h-30.7c-.7 0-1.27-.58-1.27-1.29zm33.24 4.03c0 .71-.57 1.29-1.27 1.29h-30.7c-.7 0-1.27-.58-1.27-1.29 0-.7.56-1.28 1.27-1.28h30.7c.7 0 1.27.57 1.27 1.28zm0 11.09c0 .7-.57 1.28-1.27 1.28h-30.7c-.7 0-1.27-.57-1.27-1.28 0-.72.56-1.29 1.27-1.29h30.7c.7 0 1.27.57 1.27 1.29zm0 4.04c0 .7-.57 1.29-1.27 1.29h-30.7c-.7 0-1.27-.58-1.27-1.3 0-.7.56-1.28 1.27-1.28h30.7c.7 0 1.27.58 1.27 1.29zm-37.32 8.47v9.64c0 .71-.57 1.29-1.27 1.29h-9.52c-.7 0-1.26-.58-1.26-1.29v-9.64c0-.71.56-1.29 1.26-1.29h9.52c.7 0 1.27.58 1.27 1.29zm-2.54 8.36v-7.08h-6.98v7.08zm39.86-5.75c0 .71-.57 1.29-1.27 1.29h-30.7c-.7 0-1.27-.58-1.27-1.29 0-.7.56-1.28 1.27-1.28h30.7c.7 0 1.27.57 1.27 1.28zm0 4.04c0 .71-.57 1.29-1.27 1.29h-30.7c-.7 0-1.27-.58-1.27-1.29 0-.7.56-1.28 1.27-1.28h30.7c.7 0 1.27.57 1.27 1.28zm-34.76-32.08c0 .71-.57 1.29-1.27 1.29h-1.29v3.54c0 .7-.57 1.28-1.27 1.28h-9.52c-.7 0-1.26-.57-1.26-1.28v-9.65c0-.71.56-1.29 1.26-1.29h9.52c.7 0 1.27.58 1.27 1.29v3.54h1.29c.7 0 1.27.57 1.27 1.28zm-5.1 3.54v-2.25h-3.49c-.7 0-1.27-.58-1.27-1.29 0-.7.57-1.28 1.27-1.28h3.5v-2.26h-6.99v7.08zm5.1 11.59c0 .7-.57 1.28-1.27 1.28h-1.29v3.54c0 .71-.57 1.29-1.27 1.29h-9.52c-.7 0-1.26-.58-1.26-1.29v-9.65c0-.7.56-1.28 1.26-1.28h9.52c.7 0 1.27.57 1.27 1.28v3.54h1.29c.7 0 1.27.58 1.27 1.29zm-5.1 3.53v-2.25h-3.49c-.7 0-1.27-.57-1.27-1.28 0-.71.57-1.29 1.27-1.29h3.5v-2.25h-6.99v7.07z"/></defs><use fill="#fff" xlink:href="#a" transform="translate(-184 -2805)"/></svg>