<svg xmlns="http://www.w3.org/2000/svg" xmlns:xlink="http://www.w3.org/1999/xlink" width="50" height="46" viewBox="0 0 50 46"><defs><path id="a" d="M405.98 3538.38c-.68.5-1.65.36-2.15-.33l-7.18-9.84a6.92 6.92 0 0 0-5.65-2.87l-14.46.2a.79.79 0 0 0-.78.85c.03.4.36.73.77.74l9.06.2a3.71 3.71 0 0 1-.09 7.42h-.05l-10.4-.16a5.63 5.63 0 0 1-3.49-1.28l-9.2-7.6a1.24 1.24 0 0 0-1.64 1.88l11.7 10.87c.91.83 2.09 1.32 3.32 1.36l17.39.58a1.54 1.54 0 0 1-.05 3.09h-.05l-17.4-.58a8.2 8.2 0 0 1-5.3-2.19l-11.7-10.86a4.3 4.3 0 0 1-.23-6.14 4.32 4.32 0 0 1 5.9-.39l9.22 7.6c.44.36 1 .57 1.57.58l10.4.16h.01a.62.62 0 0 0 .47-1.04.61.61 0 0 0-.45-.2l-9.06-.21a3.9 3.9 0 0 1-3.67-2.96 15.2 15.2 0 0 1 7.24-28.53 15.19 15.19 0 0 1 12.6 23.64 10.1 10.1 0 0 1 6.51 4.02l7.18 9.84c.5.68.35 1.65-.34 2.15zm-26.98-15.96v-.59c-2-.46-3.5-2.26-3.5-4.41a1.03 1.03 0 1 1 2.06 0c0 1 .6 1.86 1.44 2.25v-4.84a4.54 4.54 0 0 1 0-8.83v-.71a1.03 1.03 0 1 1 2.06 0v.71c2 .47 3.5 2.27 3.5 4.41a1.03 1.03 0 1 1-2.06 0c0-1-.6-1.85-1.44-2.25v4.85a4.54 4.54 0 0 1 0 8.82v.56l7.7-.1a12.1 12.1 0 0 0-8.73-20.47 12.1 12.1 0 0 0-6.6 22.23l.28-.35a3.89 3.89 0 0 1 2.78-1.24zm0-14.26a2.48 2.48 0 0 0 0 4.5zm2.06 11.5a2.48 2.48 0 0 0 0-4.49z"/></defs><use fill="#fff" xlink:href="#a" transform="translate(-357 -3498)"/></svg>