<svg xmlns="http://www.w3.org/2000/svg" xmlns:xlink="http://www.w3.org/1999/xlink" width="48" height="49" viewBox="0 0 48 49"><defs><path id="a" d="M652.08 3917.3c0-13.33 10.74-24.16 23.94-24.16 13.2 0 23.94 10.83 23.94 24.16 0 13.32-10.74 24.15-23.94 24.15-13.2 0-23.94-10.83-23.94-24.15zm2.4 0c0 11.99 9.66 21.74 21.54 21.74a21.67 21.67 0 0 0 21.54-21.74c0-12-9.66-21.75-21.54-21.75a21.67 21.67 0 0 0-21.55 21.75zm9.94 0c0-.67.54-1.2 1.2-1.2h17.91l-4.68-4.74a1.21 1.21 0 0 1 0-1.7 1.18 1.18 0 0 1 1.69 0l6.72 6.79a1.2 1.2 0 0 1 0 1.7l-6.72 6.8c-.24.23-.54.34-.85.34-.31 0-.62-.11-.85-.35a1.21 1.21 0 0 1 0-1.7l4.69-4.73h-17.91a1.2 1.2 0 0 1-1.2-1.2z"/></defs><use fill="#fff" xlink:href="#a" opacity=".4" transform="translate(-652 -3893)"/></svg>