<svg xmlns="http://www.w3.org/2000/svg" width="58" height="31" viewBox="0 0 58 31"><g><g><path fill="#bc0000" d="M25.229 27.725A3.274 3.274 0 0 1 21.963 31a3.274 3.274 0 0 1-3.265-3.275 3.274 3.274 0 0 1 3.265-3.274c1.8 0 3.266 1.469 3.266 3.274zM39.144 0v26.021H28.407c-.754-2.862-3.356-4.978-6.444-4.978-3.087 0-5.69 2.116-6.443 4.978h-2.324V0zM58 18.91v7.111h-1.285c-.754-2.862-3.356-4.978-6.444-4.978-3.087 0-5.69 2.116-6.443 4.978h-1.285v-15.55h7.731zm-4.463 8.815A3.274 3.274 0 0 1 50.27 31a3.274 3.274 0 0 1-3.265-3.275 3.274 3.274 0 0 1 3.265-3.274c1.8 0 3.266 1.469 3.266 3.274zM3.137 0h6.66v3.408h-6.66zm0 13.632h6.66v3.408h-6.66zM0 6.816h9.798v3.408H0z"/></g></g></svg>