<svg width="23" height="23" viewBox="0 0 23 23" fill="none" xmlns="http://www.w3.org/2000/svg">
<path d="M9.33695 15.0397C9.40041 15.1283 9.48406 15.2005 9.58098 15.2502C9.67789 15.3 9.78528 15.326 9.89424 15.326C10.0032 15.326 10.1106 15.3 10.2075 15.2502C10.3044 15.2005 10.3881 15.1283 10.4515 15.0397L14.9917 8.74462C15.0736 8.63036 14.9917 8.47083 14.8516 8.47083H13.8405C13.6206 8.47083 13.4115 8.57646 13.2821 8.75755L9.89531 13.4573L8.36036 11.3273C8.23101 11.1484 8.02404 11.0406 7.80199 11.0406H6.7909C6.65077 11.0406 6.56885 11.2001 6.65077 11.3144L9.33695 15.0397Z" fill="#777575"/>
<path d="M18.9715 3.27527H3.10442C2.72284 3.27527 2.41455 3.58356 2.41455 3.96514V19.8322C2.41455 20.2138 2.72284 20.5221 3.10442 20.5221H18.9715C19.3531 20.5221 19.6614 20.2138 19.6614 19.8322V3.96514C19.6614 3.58356 19.3531 3.27527 18.9715 3.27527ZM18.1092 18.9699H3.96677V4.82748H18.1092V18.9699Z" fill="#777575"/>
</svg>
