<?xml version="1.0" encoding="utf-8"?>
<!-- Generator: Adobe Illustrator 24.2.1, SVG Export Plug-In . SVG Version: 6.00 Build 0)  -->
<svg version="1.1" id="Layer_1" xmlns="http://www.w3.org/2000/svg" xmlns:xlink="http://www.w3.org/1999/xlink" x="0px" y="0px"
	 viewBox="0 0 398 398" style="enable-background:new 0 0 398 398;" xml:space="preserve">
<style type="text/css">
	.st0{fill:#FFFFFF;}
</style>
<path class="st0" d="M194.1,156.8l-37.3,37.3c-2.7,2.7-2.7,7.2,0,9.9c0,0,0,0,0,0l37.3,37.3c2.7,2.7,7.2,2.7,9.9,0c0,0,0,0,0,0
	l37.3-37.3c2.7-2.7,2.7-7.2,0-9.9c0,0,0,0,0,0l-37.3-37.3C201.2,154.1,196.8,154.1,194.1,156.8C194.1,156.8,194.1,156.8,194.1,156.8
	z M199,226.4L171.6,199l27.4-27.4l27.4,27.4L199,226.4z"/>
<path class="st0" d="M248.8,137.4l9.9-9.9l9.9,9.9l-9.9,9.9L248.8,137.4z"/>
<path class="st0" d="M189,67.7l9.9-9.9l9.9,9.9l-9.9,9.9L189,67.7z"/>
<path class="st0" d="M320.4,199l9.9-9.9l9.9,9.9l-9.9,9.9L320.4,199z"/>
<path class="st0" d="M189,330.3l9.9-9.9l9.9,9.9l-9.9,9.9L189,330.3z"/>
<path class="st0" d="M57.7,199l9.9-9.9l9.9,9.9l-9.9,9.9L57.7,199z"/>
<path class="st0" d="M250.7,258.8l9.9-9.9l9.9,9.9l-9.9,9.9L250.7,258.8z"/>
<path class="st0" d="M129.2,260.6l9.9-9.9l9.9,9.9l-9.9,9.9L129.2,260.6z"/>
<path class="st0" d="M127.4,139.2l9.9-9.9l9.9,9.9l-9.9,9.9L127.4,139.2z"/>
<path class="st0" d="M283.5,114.5c-0.7-0.7-1.4-1.3-2.1-2c-46.1-44-118.6-44-164.7,0c-0.7,0.6-1.4,1.3-2.1,2s-1.3,1.4-2,2.1
	c-44,46.1-44,118.6,0,164.6c0.6,0.7,1.3,1.5,2,2.1c0.4,0.4,0.9,0.8,1.3,1.2c46.3,45.1,120.1,45.1,166.4,0c0.4-0.4,0.9-0.7,1.3-1.1
	c0.7-0.7,1.3-1.4,2-2.1c44-46.1,44-118.6,0-164.6C284.8,115.9,284.2,115.2,283.5,114.5L283.5,114.5z M273.8,184.2
	c-15.8-23.8-36.2-44.2-60-60c24.6-10.8,47.1-11.8,59.3-0.2c0.3,0.3,0.6,0.6,0.9,0.9C285.6,137.1,284.6,159.6,273.8,184.2
	L273.8,184.2z M274,273.1c-0.3,0.3-0.6,0.6-0.9,0.9c-12.2,11.6-34.7,10.6-59.3-0.2c23.8-15.8,44.2-36.2,60-60
	C284.6,238.4,285.6,260.9,274,273.1L274,273.1z M236.9,236.9c-11.3,11.4-24.1,21.3-37.9,29.4c-27.7-16.4-50.9-39.5-67.3-67.3
	c16.4-27.8,39.5-50.9,67.3-67.3c27.7,16.4,50.9,39.5,67.2,67.3C258.1,212.8,248.3,225.6,236.9,236.9L236.9,236.9z M124.9,274
	c-0.3-0.3-0.6-0.6-0.9-0.9c-11.6-12.2-10.6-34.7,0.2-59.3c15.8,23.8,36.2,44.2,60,60C159.6,284.6,137.1,285.6,124.9,274L124.9,274z
	 M124,124.9c0.5-0.5,1-1,1.4-1.4c6.6-5.5,15.1-8.3,23.7-7.9c12.2,0.4,24.1,3.3,35.1,8.5c-23.8,15.8-44.2,36.2-60.1,60
	C113.4,159.6,112.4,137.1,124,124.9z M240.5,102.1c-14.5,1.9-28.6,6.5-41.5,13.5c-12.9-7-27-11.6-41.5-13.5
	C184,90.7,214,90.7,240.5,102.1z M102.1,157.5c1.9,14.5,6.5,28.6,13.5,41.5c-7,12.9-11.6,27-13.5,41.5
	C90.7,214,90.7,184,102.1,157.5L102.1,157.5z M157.5,295.9c14.6-1.9,28.6-6.4,41.5-13.4c12.9,7,27,11.6,41.5,13.5
	C214,307.3,184,307.3,157.5,295.9L157.5,295.9z M295.9,240.5c-1.9-14.5-6.5-28.6-13.5-41.5c7-12.9,11.6-27,13.5-41.5
	C307.3,184,307.3,214,295.9,240.5z"/>
<path class="st0" d="M397.1,195.5c-6.8-11.2-16.3-20.5-27.7-27.2c-5.3-3-11-5.3-17-6.7c-3.8-15.8-10.1-31-18.6-44.9
	c3.2-5.2,5.7-10.8,7.3-16.7c3.3-12.7,3.4-26,0.4-38.8c-0.7-2.4-2.5-4.2-4.9-4.9c-12.7-3.1-26.1-3-38.8,0.4
	c-5.9,1.6-11.5,4.1-16.7,7.3c-13.9-8.5-29-14.8-44.9-18.6c-1.4-6-3.6-11.7-6.7-17c-6.6-11.3-16-20.8-27.2-27.7
	c-2.1-1.2-4.8-1.2-6.9,0c-11.2,6.8-20.5,16.3-27.2,27.7c-3,5.3-5.3,11-6.7,17c-15.8,3.8-31,10.1-44.9,18.6
	c-5.2-3.2-10.8-5.7-16.7-7.3c-12.7-3.3-26-3.4-38.8-0.4c-2.4,0.7-4.2,2.5-4.9,4.9c-3.1,12.7-3,26.1,0.4,38.8
	c1.6,5.9,4.1,11.5,7.3,16.7c-8.5,13.9-14.8,29-18.6,44.9c-6,1.4-11.7,3.6-17,6.7c-11.3,6.6-20.8,16-27.7,27.2
	c-1.2,2.1-1.2,4.8,0,6.9c6.8,11.2,16.3,20.5,27.7,27.2c5.3,3,11,5.3,17,6.7c3.8,15.8,10.1,31,18.6,44.9c-3.2,5.2-5.7,10.8-7.3,16.7
	c-3.3,12.7-3.4,26-0.4,38.8c0.7,2.4,2.5,4.2,4.9,4.9c6.2,1.5,12.6,2.3,19,2.2c6.7,0,13.3-0.8,19.7-2.6c5.9-1.6,11.5-4.1,16.7-7.3
	c13.9,8.5,29,14.8,44.9,18.6c1.4,6,3.6,11.7,6.7,17c6.6,11.3,16,20.8,27.2,27.7c2.1,1.2,4.8,1.2,6.9,0c11.2-6.8,20.5-16.3,27.2-27.7
	c3-5.3,5.3-11,6.7-17c15.8-3.8,31-10.1,44.9-18.6c5.2,3.2,10.8,5.7,16.7,7.3c6.4,1.8,13.1,2.6,19.7,2.6c6.4,0,12.8-0.7,19-2.2
	c2.4-0.7,4.2-2.5,4.9-4.9c3.1-12.7,3-26.1-0.4-38.8c-1.6-5.9-4.1-11.5-7.3-16.7c8.5-13.9,14.8-29,18.6-44.9c6-1.4,11.7-3.6,17-6.7
	c11.3-6.6,20.8-16,27.7-27.2C398.3,200.3,398.3,197.7,397.1,195.5L397.1,195.5z M199,342.9c-79.5,0-143.9-64.4-143.9-143.9
	S119.5,55.1,199,55.1S342.9,119.5,342.9,199C342.8,278.5,278.5,342.8,199,342.9z M301.7,70.3c8.9-2.3,18.2-2.7,27.2-1.2
	c1.5,9,1.1,18.3-1.2,27.2c-0.7,2.6-1.6,5.1-2.7,7.5c-8.8-11.6-19.2-22-30.8-30.8C296.6,72,299.1,71,301.7,70.3z M180.6,35.4
	c4.7-7.9,10.9-14.7,18.4-20.1c7.5,5.3,13.8,12.1,18.4,20.1c1.3,2.3,2.4,4.7,3.3,7.2c-14.4-2-29.1-2-43.5,0
	C178.2,40.1,179.3,37.7,180.6,35.4L180.6,35.4z M70.3,96.3c-2.3-8.9-2.7-18.2-1.2-27.2c9-1.5,18.3-1.1,27.2,1.2
	c2.6,0.7,5.1,1.6,7.5,2.7c-11.6,8.8-22,19.2-30.8,30.8C72,101.4,71,98.9,70.3,96.3L70.3,96.3z M35.4,217.4
	c-7.9-4.7-14.7-10.9-20.1-18.4c5.3-7.5,12.1-13.8,20.1-18.4c2.3-1.3,4.7-2.4,7.2-3.3c-2,14.4-2,29.1,0,43.5
	C40.1,219.8,37.7,218.7,35.4,217.4z M96.3,327.7c-8.9,2.3-18.2,2.7-27.2,1.2c-1.5-9-1.1-18.3,1.2-27.2c0.7-2.6,1.6-5.1,2.7-7.5
	c8.8,11.6,19.2,22,30.8,30.8C101.4,326,98.9,327,96.3,327.7L96.3,327.7z M217.4,362.6c-4.7,7.9-10.9,14.7-18.4,20.1
	c-7.5-5.3-13.8-12.1-18.4-20.1c-1.3-2.3-2.4-4.7-3.3-7.2c14.4,2,29.1,2,43.5,0C219.8,357.9,218.7,360.3,217.4,362.6z M327.7,301.7
	c2.3,8.9,2.7,18.2,1.2,27.2c-9,1.5-18.3,1.1-27.2-1.2c-2.6-0.7-5.1-1.6-7.5-2.7c11.6-8.8,22-19.2,30.8-30.8
	C326,296.6,327,299.1,327.7,301.7z M362.6,217.4c-2.3,1.3-4.7,2.4-7.2,3.3c2-14.4,2-29.1,0-43.5c2.5,0.9,4.9,2.1,7.2,3.3
	c7.9,4.7,14.7,10.9,20.1,18.4C377.3,206.5,370.5,212.8,362.6,217.4z"/>
</svg>
