<svg xmlns="http://www.w3.org/2000/svg" xmlns:xlink="http://www.w3.org/1999/xlink" width="114" height="139" viewBox="0 0 114 139"><defs><path id="hk94a" d="M178 238.36v106.42c0 6.74-5.48 12.22-12.21 12.22H76.2A12.23 12.23 0 0 1 64 344.78V238.36A20.38 20.38 0 0 1 84.36 218h73.28A20.38 20.38 0 0 1 178 238.36zm-73.29 94.2H88.43v16.3h16.28zm0-24.7H88.43v16.56h16.28zm0-24.43H88.43v16.29h16.28zm24.43 49.14h-16.28v16.29h16.28zm0-24.7h-16.28v16.55h16.28zm0-24.44h-16.28v16.29h16.28zm24.43 24.43H137.3v41h16.28zm0-24.43H137.3v16.29h16.28zm16.29-45.07c0-6.74-5.48-12.22-12.22-12.22H84.36a12.23 12.23 0 0 0-12.22 12.22v106.42a4.08 4.08 0 0 0 4.07 4.08h4.08v-69.5a4.07 4.07 0 0 1 4.07-4.08h73.28a4.07 4.07 0 0 1 4.07 4.08v69.5h4.08a4.08 4.08 0 0 0 4.07-4.08zm-8.15 0v24.7a4.07 4.07 0 0 1-4.07 4.08H84.36a4.07 4.07 0 0 1-4.07-4.07v-24.7a4.07 4.07 0 0 1 4.07-4.08h73.28a4.07 4.07 0 0 1 4.07 4.07zm-8.14 4.07H88.43V259h65.14z"/><linearGradient id="hk94b" x1="120" x2="122" y1="218" y2="357" gradientUnits="userSpaceOnUse"><stop offset="0" stop-color="#508ab3"/><stop offset="1" stop-color="#883759"/></linearGradient></defs><g><g transform="translate(-64 -218)"><use xlink:href="#hk94a"/><use fill="url(#hk94b)" xlink:href="#hk94a"/></g></g></svg>