<svg xmlns="http://www.w3.org/2000/svg" width="19" height="22" viewBox="0 0 19 22"><g><g><path fill="#8787aa" d="M1.236 19.605h16.517c.68 0 1.236.532 1.236 1.197 0 .66-.55 1.198-1.236 1.198H1.236c-.681 0-1.237-.532-1.237-1.198 0-.665.556-1.203 1.237-1.197zM17.759 10.4h-7.023v6.797c0 .66-.55 1.198-1.236 1.198-.68 0-1.236-.532-1.236-1.198v-6.803H1.242c-.681 0-1.237-.538-1.237-1.197C.005 8.538.555 8 1.242 8h7.022V1.197C8.264.537 8.814 0 9.5 0c.681 0 1.236.532 1.236 1.197V8h7.028c.682 0 1.237.532 1.237 1.198 0 .665-.555 1.203-1.242 1.203z"/></g></g></svg>